<?xml version="1.0" encoding="UTF-8" standalone="no"?>
<svg
   version="1.1"
   class="digis-schema img-fluid w-100"
   preserveAspectRatio="xMidYMid meet"
   viewBox="0 0 1082.7 1012.7"
   xml:space="preserve"
   id="svg25"
   sodipodi:docname="digis_schema_path_blue.svg"
   inkscape:version="1.4.2 (ebf0e940d0, 2025-05-08)"
   xmlns:inkscape="http://www.inkscape.org/namespaces/inkscape"
   xmlns:sodipodi="http://sodipodi.sourceforge.net/DTD/sodipodi-0.dtd"
   xmlns="http://www.w3.org/2000/svg"
   xmlns:svg="http://www.w3.org/2000/svg"><sodipodi:namedview
   id="namedview25"
   pagecolor="#ffffff"
   bordercolor="#000000"
   borderopacity="0.25"
   inkscape:showpageshadow="2"
   inkscape:pageopacity="0.0"
   inkscape:pagecheckerboard="0"
   inkscape:deskcolor="#d1d1d1"
   inkscape:document-units="pt"
   showgrid="false"
   inkscape:zoom="0.42732299"
   inkscape:cx="720.76627"
   inkscape:cy="675.13334"
   inkscape:window-width="1470"
   inkscape:window-height="787"
   inkscape:window-x="0"
   inkscape:window-y="0"
   inkscape:window-maximized="1"
   inkscape:current-layer="g25" /><defs
   id="defs10"><filter
     id="filter835"
     x="-0.0089185186"
     y="-0.014366425"
     width="1.0256751"
     height="1.0404242"
     color-interpolation-filters="sRGB"><feFlood
       flood-color="rgb(221,221,221)"
       flood-opacity=".86667"
       result="flood"
       id="feFlood1" /><feComposite
       in="flood"
       in2="SourceGraphic"
       operator="in"
       result="composite1"
       id="feComposite1" /><feGaussianBlur
       in="composite1"
       result="blur"
       stdDeviation="2"
       id="feGaussianBlur1" /><feOffset
       dx="4"
       dy="4"
       result="offset"
       id="feOffset1" /><feComposite
       in="SourceGraphic"
       in2="offset"
       result="composite2"
       id="feComposite2" /></filter><filter
     id="filter847"
     x="-0.01114762"
     y="-0.0096244065"
     width="1.0303709"
     height="1.0268941"
     color-interpolation-filters="sRGB"><feFlood
       flood-color="rgb(221,221,221)"
       flood-opacity=".86667"
       result="flood"
       id="feFlood2" /><feComposite
       in="flood"
       in2="SourceGraphic"
       operator="in"
       result="composite1"
       id="feComposite3" /><feGaussianBlur
       in="composite1"
       result="blur"
       stdDeviation="2"
       id="feGaussianBlur3" /><feOffset
       dx="4"
       dy="4"
       result="offset"
       id="feOffset3" /><feComposite
       in="SourceGraphic"
       in2="offset"
       result="composite2"
       id="feComposite4" /></filter><filter
     id="filter859"
     x="-0.011511397"
     y="-0.0095203549"
     width="1.0309163"
     height="1.0266374"
     color-interpolation-filters="sRGB"><feFlood
       flood-color="rgb(221,221,221)"
       flood-opacity=".86667"
       result="flood"
       id="feFlood4" /><feComposite
       in="flood"
       in2="SourceGraphic"
       operator="in"
       result="composite1"
       id="feComposite5" /><feGaussianBlur
       in="composite1"
       result="blur"
       stdDeviation="2"
       id="feGaussianBlur5" /><feOffset
       dx="4"
       dy="4"
       result="offset"
       id="feOffset5" /><feComposite
       in="SourceGraphic"
       in2="offset"
       result="composite2"
       id="feComposite6" /></filter><filter
     id="filter871"
     x="-0.010255494"
     y="-0.014366815"
     width="1.0256751"
     height="1.0404252"
     color-interpolation-filters="sRGB"><feFlood
       flood-color="rgb(221,221,221)"
       flood-opacity=".86667"
       result="flood"
       id="feFlood6" /><feComposite
       in="flood"
       in2="SourceGraphic"
       operator="in"
       result="composite1"
       id="feComposite7" /><feGaussianBlur
       in="composite1"
       result="blur"
       stdDeviation="2"
       id="feGaussianBlur7" /><feOffset
       dx="4"
       dy="4"
       result="offset"
       id="feOffset7" /><feComposite
       in="SourceGraphic"
       in2="offset"
       result="composite2"
       id="feComposite8" /></filter><filter
     id="filter883"
     x="-0.014159601"
     y="-0.010905324"
     width="1.0386428"
     height="1.0267835"
     color-interpolation-filters="sRGB"><feFlood
       flood-color="rgb(221,221,221)"
       flood-opacity=".86667"
       result="flood"
       id="feFlood8" /><feComposite
       in="flood"
       in2="SourceGraphic"
       operator="in"
       result="composite1"
       id="feComposite9" /><feGaussianBlur
       in="composite1"
       result="blur"
       stdDeviation="2"
       id="feGaussianBlur9" /><feOffset
       dx="4"
       dy="4"
       result="offset"
       id="feOffset9" /><feComposite
       in="SourceGraphic"
       in2="offset"
       result="composite2"
       id="feComposite10" /></filter></defs><g
   fill="#0056a6"
   fill-rule="evenodd"
   stroke="#ccc"
   id="g10"><path
     id="edgeai"
     d="m 29.942,595.1 193.04,-584.21 194.74,585.9 z"
     filter="url(#filter883)"
     transform="matrix(1.0000906,0,0,0.95909705,8.7552849,28.283434)" /><path
     id="newmedia"
     d="m 243.19,30.299 615.28,1.5352 -496.14,367.5 z"
     filter="url(#filter835)"
     transform="matrix(0.9638331,0,0,0.97259328,14.600769,9.711921)" /><path
     id="remotesensing"
     d="m 860.13,45.039 196.32,583.12 -507.47,-351.68 z"
     filter="url(#filter847)"
     transform="matrix(0.95291176,0,0,1.0030154,25.608944,-0.14398087)" /><path
     id="digitaltwin"
     d="M 1035.3,640.35 537.95,1002.58 721.17,412.97 Z"
     filter="url(#filter859)"
     transform="matrix(0.97602556,0,0,0.98261383,12.76303,7.0791157)" /><path
     id="literacy"
     d="m 642.84511,611.98977 -615.279997,1.5352 496.139997,367.49 z"
     filter="url(#filter871)"
     transform="matrix(0.97771406,0,0,1.0046336,14.526143,-4.5780626)" /></g><path
   d="m455.98 431.4v-36.543h11.269q7.379 0 12.022 4.8189 4.6683 4.8189 4.6683 12.65v1.6314q0 7.8307-4.6683 12.65-4.6432 4.7938-12.123 4.7938zm7.5547-30.445v24.371h3.6142q4.4424 0 6.7515-2.8863 2.3342-2.8863 2.3844-8.2574v-1.9075q0-5.5719-2.2087-8.408-2.1836-2.8361-6.6009-2.9114zm33.883-6.099v36.543h-7.5296v-36.543zm35.941 17.343v14.582q-1.3051 1.5561-4.6432 3.3381-3.313 1.782-9.3367 1.782-7.1029 0-11.495-4.593-4.3672-4.6181-4.3672-13.076v-2.1836q0-8.4582 4.1915-13.076 4.1914-4.6432 11.144-4.6432 7.1029 0 10.491 3.4134 3.3883 3.4134 3.9907 8.7343h-7.3288q-0.42668-2.7608-1.9828-4.4173-1.5561-1.6565-4.9695-1.6565-7.4041 0-7.8558 10.24l-0.0251 3.5891q0 5.7727 2.1334 8.6841 2.1585 2.9114 6.4754 2.9114 2.7106 0 4.066-0.60236 1.3553-0.62746 1.9577-1.2047v-6.2997h-6.8268v-5.5217zm14.08-17.343v36.543h-7.5296v-36.543zm4.0409 6.099v-6.099h29.742v6.099h-11.169v30.445h-7.5296v-30.445zm27.96 30.445 13.603-36.543h6.9774l13.679 36.543h-8.0315l-2.5099-7.5296h-13.227l-2.5099 7.5296zm12.524-13.629h9.161l-4.5679-13.729zm48.666 7.5547v6.0738h-23.517v-36.543h7.5547v30.47z"
   fill="#1e2a38"
   stroke="#fff"
   stroke-width=".78135"
   aria-label="DIGITAL"
   id="path10" /><path
   d="m470.24 519.39v-36.543h24.446v6.0989h-16.891v8.7092h14.432v5.8982h-14.432v9.7633h16.967v6.0738zm27.182-30.445v-6.0989h29.742v6.0989h-11.169v30.445h-7.5296v-30.445zm56.271 30.445v-15.661h-14.683v15.661h-7.5547v-36.543h7.5547v14.808h14.683v-14.808h7.5296v36.543zm22.112-36.543v36.543h-7.5296v-36.543zm28.186 24.371h7.5296q-0.37647 5.5719-4.1914 9.1359-3.7899 3.5389-10.516 3.5389-7.0276 0-11.068-4.7185-4.0409-4.7436-4.0409-12.85v-2.3844q0-8.1068 4.1412-12.85 4.1413-4.7687 11.043-4.7687 6.8519 0 10.491 3.6644 3.6393 3.6393 4.1664 9.2614h-7.5296q-0.25098-3.2628-1.8322-4.9946-1.5561-1.7569-5.2958-1.7569-7.3288 0-7.5296 10.817v3.0118q0 5.6723 1.7067 8.5335 1.7318 2.8612 5.7476 2.8612 3.564 0 5.2205-1.6063 1.6816-1.6314 1.9577-4.8942zm31.448 2.5852q0-1.8322-1.2549-3.0369-1.2549-1.2298-6.0989-2.7859-4.8189-1.5812-8.3327-4.066-3.6895-2.5852-3.6895-7.3539 0-4.593 3.7899-7.4041t9.7131-2.811q6.0738 0 9.7382 3.1875 3.6644 3.1624 3.6644 8.0817h-7.5296q0-2.3091-1.4808-3.7899-1.4808-1.4808-4.5177-1.4808-2.9616 0-4.4173 1.2549-1.4306 1.2298-1.4306 2.9867 0 1.8071 1.8573 3.0118t5.3962 2.284q5.9986 1.8322 9.0606 4.593 3.0871 2.7608 3.0871 7.2786 0 4.7938-3.6142 7.4794-3.6142 2.6604-9.6378 2.6604-3.6393 0-7.0276-1.28-3.3883-1.28-5.5719-3.9405-2.1836-2.6604-2.1836-6.8017h7.5547q0 3.3381 1.9828 4.6934 2.0079 1.3553 5.2456 1.3553 2.9114 0 4.2918-1.1796 1.4055-1.1796 1.4055-2.9365z"
   fill="#1e2a38"
   stroke="#fff"
   stroke-width=".78135"
   aria-label="ETHICS"
   id="path11" /><g
   fill="#ffffff"
   stroke="#ffffff"
   stroke-width="0.4335"
   id="g25"
   transform="translate(-6,21)"><g
     aria-label="EDGE  AI"
     id="g13"
     transform="translate(42.122704,15.796014)"><path
       d="m 162.57,350.33 v -27.668 h 18.509 v 4.6177 H 168.29 v 6.594 h 10.927 v 4.4657 H 168.29 v 7.3921 h 12.846 v 4.5987 z m 21.891,0 v -27.668 h 8.5323 q 5.5868,0 9.1024,3.6485 3.5345,3.6486 3.5345,9.5774 v 1.2352 q 0,5.9289 -3.5345,9.5774 -3.5155,3.6295 -9.1784,3.6295 z m 5.7198,-23.05 v 18.452 h 2.7364 q 3.3635,0 5.1118,-2.1853 1.7673,-2.1853 1.8053,-6.2519 v -1.4442 q 0,-4.2186 -1.6722,-6.366 -1.6532,-2.1473 -4.9977,-2.2043 z m 41.502,8.5133 v 11.041 q -0.98815,1.1782 -3.5155,2.5274 -2.5084,1.3492 -7.069,1.3492 -5.3778,0 -8.7033,-3.4775 -3.3065,-3.4965 -3.3065,-9.9005 v -1.6532 q 0,-6.404 3.1735,-9.9005 3.1735,-3.5155 8.4373,-3.5155 5.3778,0 7.9432,2.5844 2.5654,2.5844 3.0214,6.613 h -5.5488 q -0.32305,-2.0903 -1.5012,-3.3445 -1.1782,-1.2542 -3.7626,-1.2542 -5.6058,0 -5.9479,7.7532 l -0.019,2.7174 q 0,4.3706 1.6152,6.575 1.6342,2.2043 4.9027,2.2043 2.0523,0 3.0784,-0.45606 1.0262,-0.47507 1.4822,-0.91214 v -4.7697 h -5.1688 v -4.1806 z m 4.5987,14.537 v -27.668 h 18.509 v 4.6177 h -12.789 v 6.594 h 10.927 v 4.4657 h -10.927 v 7.3921 h 12.846 v 4.5987 z"
       id="path12" /><path
       d="m 194.11,399.21 10.3,-27.668 h 5.2828 l 10.357,27.668 h -6.0809 l -1.9003,-5.7008 h -10.014 l -1.9003,5.7008 z m 9.4824,-10.319 h 6.936 l -3.4585,-10.395 z m 25.103,-17.35 v 27.668 h -5.7008 v -27.668 z"
       id="path13" /></g><path
     d="m 684.32158,629.24524 v -27.668 h 8.5323 q 5.5868,0 9.1024,3.6486 3.5345,3.6485 3.5345,9.5774 v 1.2352 q 0,5.9289 -3.5345,9.5774 -3.5155,3.6295 -9.1784,3.6295 z m 5.7198,-23.05 v 18.452 h 2.7364 q 3.3635,0 5.1118,-2.1853 1.7673,-2.1853 1.8053,-6.2519 v -1.4442 q 0,-4.2186 -1.6722,-6.366 -1.6532,-2.1473 -4.9978,-2.2043 z m 25.654,-4.6177 v 27.668 h -5.7008 v -27.668 z m 27.212,13.131 v 11.041 q -0.98815,1.1782 -3.5155,2.5274 -2.5084,1.3492 -7.0691,1.3492 -5.3778,0 -8.7033,-3.4775 -3.3065,-3.4965 -3.3065,-9.9005 v -1.6532 q 0,-6.404 3.1735,-9.9005 3.1735,-3.5155 8.4372,-3.5155 5.3778,0 7.9432,2.5844 2.5654,2.5844 3.0214,6.613 h -5.5488 q -0.32305,-2.0903 -1.5012,-3.3445 -1.1782,-1.2542 -3.7626,-1.2542 -5.6058,0 -5.9479,7.7532 l -0.019,2.7174 q 0,4.3706 1.6152,6.575 1.6342,2.2043 4.9027,2.2043 2.0523,0 3.0785,-0.45607 1.0262,-0.47507 1.4822,-0.91213 v -4.7697 h -5.1688 v -4.1806 z m 10.661,-13.131 v 27.668 h -5.7008 v -27.668 z m 3.0595,4.6177 v -4.6177 h 22.518 v 4.6177 h -8.4563 v 23.05 h -5.7008 v -23.05 z m 21.169,23.05 10.3,-27.668 h 5.2828 l 10.357,27.668 h -6.0809 l -1.9003,-5.7008 h -10.014 l -1.9003,5.7008 z m 9.4824,-10.319 h 6.936 l -3.4585,-10.395 z m 36.846,5.7198 v 4.5987 h -17.806 v -27.668 h 5.7198 v 23.069 z m 10.128,-18.452 v -4.6177 h 22.518 v 4.6177 h -8.4563 v 23.05 h -5.7008 v -23.05 z m 57.008,-4.6177 -6.1189,27.668 h -5.7389 l -4.5037,-18.509 -4.5037,18.509 h -5.7388 l -6.1569,-27.668 h 5.6818 l 3.7436,19.63 4.5607,-19.63 h 4.8267 l 4.5607,19.63 3.7246,-19.63 z m 9.1594,0 v 27.668 h -5.7008 v -27.668 z m 27.82,0 v 27.668 h -5.7008 l -11.098,-18.224 v 18.224 h -5.7198 v -27.668 h 5.7198 l 11.098,18.243 v -18.243 z"
     aria-label="DIGITAL TWIN"
     id="path14" /><g
     aria-label="NEW MEDIA AND EDUCATION FOR RESILIENT  SOCIETY"
     id="g18"
     transform="translate(21.061352,36.82669)"><path
       d="m 347.6,31.545 v 27.668 h -5.7008 l -11.098,-18.224 v 18.224 h -5.7198 V 31.545 h 5.7198 l 11.098,18.243 V 31.545 Z m 4.9788,27.668 V 31.545 h 18.509 v 4.6177 h -12.789 v 6.594 h 10.927 v 4.4657 h -10.927 v 7.3921 h 12.846 v 4.5987 z m 52.847,-27.668 -6.1189,27.668 h -5.7389 l -4.5037,-18.509 -4.5037,18.509 h -5.7389 l -6.1569,-27.668 h 5.6818 l 3.7436,19.63 4.5607,-19.63 h 4.8267 l 4.5607,19.63 3.7246,-19.63 z m 27.345,20.067 7.088,-20.067 h 7.4681 v 27.668 h -5.7199 v -7.5631 l 0.57009,-12.998 -7.4491,20.561 h -3.9146 l -7.4491,-20.561 0.57008,12.998 v 7.5631 h -5.7198 V 31.545 h 7.4681 z m 19.535,7.6011 v -27.668 h 18.509 v 4.6177 h -12.789 v 6.594 h 10.927 v 4.4657 h -10.927 v 7.3921 h 12.846 v 4.5987 z m 21.891,0 v -27.668 h 8.5323 q 5.5868,0 9.1024,3.6485 3.5345,3.6485 3.5345,9.5774 v 1.2352 q 0,5.9289 -3.5345,9.5774 -3.5155,3.6295 -9.1784,3.6295 z m 5.7198,-23.05 v 18.452 h 2.7364 q 3.3635,0 5.1118,-2.1853 1.7673,-2.1853 1.8053,-6.2519 v -1.4442 q 0,-4.2186 -1.6722,-6.3659 -1.6532,-2.1473 -4.9978,-2.2043 z m 25.654,-4.6177 v 27.668 h -5.7008 v -27.668 z m 3.3255,27.668 10.3,-27.668 h 5.2828 l 10.357,27.668 h -6.0809 l -1.9003,-5.7008 h -10.014 l -1.9003,5.7008 z m 9.4824,-10.319 h 6.936 l -3.4585,-10.395 z m 26.414,10.319 10.3,-27.668 h 5.2828 l 10.357,27.668 h -6.0809 l -1.9003,-5.7008 h -10.014 l -1.9003,5.7008 z m 9.4824,-10.319 h 6.936 l -3.4585,-10.395 z m 41.559,-17.35 v 27.668 h -5.7008 l -11.098,-18.224 v 18.224 h -5.7198 v -27.668 h 5.7198 l 11.098,18.243 v -18.243 z m 4.9788,27.668 v -27.668 h 8.5323 q 5.5868,0 9.1024,3.6485 3.5345,3.6485 3.5345,9.5774 v 1.2352 q 0,5.9289 -3.5345,9.5774 -3.5155,3.6295 -9.1784,3.6295 z m 5.7198,-23.05 v 18.452 h 2.7364 q 3.3635,0 5.1118,-2.1853 1.7673,-2.1853 1.8053,-6.2519 V 44.733 q 0,-4.2186 -1.6722,-6.3659 -1.6532,-2.1473 -4.9978,-2.2043 z"
       id="path15" /><path
       d="M 325.08,107.86 V 80.192 h 18.509 v 4.6177 H 330.8 v 6.594 h 10.927 v 4.4657 H 330.8 v 7.3921 h 12.846 v 4.5987 z m 21.891,0 V 80.192 h 8.5323 q 5.5868,0 9.1024,3.6485 3.5345,3.6485 3.5345,9.5774 v 1.2352 q 0,5.9289 -3.5345,9.5774 -3.5155,3.6295 -9.1784,3.6295 z m 5.7198,-23.05 v 18.452 h 2.7364 q 3.3635,0 5.1118,-2.1853 1.7673,-2.1853 1.8053,-6.2519 v -1.4442 q 0,-4.2186 -1.6722,-6.3659 -1.6532,-2.1473 -4.9977,-2.2043 z m 34.832,-4.6177 h 5.7198 v 18.243 q 0,4.8267 -3.0024,7.3161 -3.0024,2.4894 -7.6011,2.4894 -4.6557,0 -7.6391,-2.4894 -2.9834,-2.4894 -2.9834,-7.3161 v -18.243 h 5.7198 v 18.243 q 0,2.7364 1.2922,3.9716 1.3112,1.2352 3.6105,1.2352 4.7697,0 4.8837,-4.9597 z m 26.414,18.452 h 5.7008 q -0.28504,4.2186 -3.1735,6.917 -2.8694,2.6794 -7.9622,2.6794 -5.3208,0 -8.3802,-3.5725 -3.0594,-3.5915 -3.0594,-9.7295 v -1.8053 q 0,-6.1379 3.1355,-9.7294 3.1355,-3.6105 8.3612,-3.6105 5.1878,0 7.9432,2.7744 2.7554,2.7554 3.1545,7.012 h -5.7008 q -0.19003,-2.4704 -1.3872,-3.7816 -1.1782,-1.3302 -4.0096,-1.3302 -5.5488,0 -5.7008,8.1902 v 2.2803 q 0,4.2946 1.2922,6.461 1.3112,2.1663 4.3516,2.1663 2.6984,0 3.9526,-1.2162 1.2732,-1.2352 1.4822,-3.7056 z m 7.1261,9.2164 10.3,-27.668 h 5.2828 l 10.357,27.668 h -6.0809 l -1.9003,-5.7008 h -10.014 l -1.9003,5.7008 z m 9.4824,-10.319 h 6.936 l -3.4585,-10.395 z m 15.069,-12.732 V 80.192 h 22.518 v 4.6177 h -8.4563 v 23.05 h -5.7008 v -23.05 z m 31.83,-4.6177 v 27.668 h -5.7008 V 80.192 Z m 28.048,14.461 q 0,6.3279 -3.2875,9.9575 -3.2685,3.6295 -8.4753,3.6295 -5.2068,0 -8.5133,-3.6295 -3.3065,-3.6295 -3.3065,-9.9575 v -1.2352 q 0,-6.3279 3.2875,-9.9575 3.2875,-3.6485 8.4943,-3.6485 5.2068,0 8.4943,3.6485 3.3065,3.6295 3.3065,9.9575 z m -5.7769,-1.2732 q 0,-4.3326 -1.5772,-6.594 -1.5772,-2.2613 -4.4467,-2.2613 -2.8695,0 -4.4277,2.2423 -1.5582,2.2233 -1.5772,6.518 v 1.3682 q 0,4.3136 1.5772,6.613 1.5772,2.2803 4.4657,2.2803 2.8694,0 4.4086,-2.2613 1.5582,-2.2613 1.5772,-6.537 z m 32.419,-13.188 v 27.668 h -5.7008 l -11.098,-18.224 v 18.224 h -5.7198 v -27.668 h 5.7198 l 11.098,18.243 v -18.243 z m 14.67,27.668 v -27.668 h 18.034 v 4.6177 h -12.314 v 7.1451 h 10.946 v 4.5987 h -10.946 v 11.307 z m 44.087,-13.207 q 0,6.3279 -3.2875,9.9575 -3.2685,3.6295 -8.4753,3.6295 -5.2068,0 -8.5133,-3.6295 -3.3065,-3.6295 -3.3065,-9.9575 v -1.2352 q 0,-6.3279 3.2875,-9.9575 3.2875,-3.6485 8.4943,-3.6485 5.2068,0 8.4943,3.6485 3.3065,3.6295 3.3065,9.9575 z m -5.7769,-1.2732 q 0,-4.3326 -1.5772,-6.594 -1.5772,-2.2613 -4.4467,-2.2613 -2.8695,0 -4.4277,2.2423 -1.5582,2.2233 -1.5772,6.518 v 1.3682 q 0,4.3136 1.5772,6.613 1.5772,2.2803 4.4657,2.2803 2.8694,0 4.4086,-2.2613 1.5582,-2.2613 1.5772,-6.537 z m 25.331,14.48 -5.1688,-10.148 h -4.5417 v 10.148 h -5.7198 v -27.668 h 10.3 q 4.7697,0 7.4871,2.1473 2.7364,2.1283 2.7364,6.2139 0,3.0024 -1.3302,4.8457 -1.3302,1.8433 -3.6105,2.8694 l 5.9859,11.326 v 0.26604 z m -9.7104,-23.05 v 8.3042 h 4.5797 q 2.2423,0 3.3635,-1.1212 1.1402,-1.1402 1.1402,-3.0024 0,-1.9193 -1.1022,-3.0405 -1.1022,-1.1402 -3.4015,-1.1402 z"
       id="path16" /><path
       d="m 340.51,156.51 -5.1688,-10.148 h -4.5417 v 10.148 h -5.7198 v -27.668 h 10.3 q 4.7697,0 7.4871,2.1473 2.7364,2.1283 2.7364,6.2139 0,3.0024 -1.3302,4.8457 -1.3302,1.8433 -3.6105,2.8694 l 5.9859,11.326 v 0.26604 z m -9.7104,-23.05 v 8.3042 h 4.5797 q 2.2423,0 3.3635,-1.1212 1.1402,-1.1402 1.1402,-3.0024 0,-1.9193 -1.1022,-3.0404 -1.1022,-1.1402 -3.4015,-1.1402 z m 19.117,23.05 v -27.668 h 18.509 v 4.6177 h -12.789 v 6.594 h 10.927 v 4.4657 h -10.927 v 7.3921 h 12.846 v 4.5987 z m 36.257,-7.2591 q 0,-1.3872 -0.95014,-2.2993 -0.95014,-0.93114 -4.6177,-2.1093 -3.6485,-1.1972 -6.3089,-3.0785 -2.7934,-1.9573 -2.7934,-5.5678 0,-3.4775 2.8694,-5.6058 2.8694,-2.1283 7.3541,-2.1283 4.5987,0 7.3731,2.4134 2.7744,2.3944 2.7744,6.1189 h -5.7008 q 0,-1.7483 -1.1212,-2.8694 -1.1212,-1.1212 -3.4205,-1.1212 -2.2423,0 -3.3445,0.95014 -1.0832,0.93114 -1.0832,2.2613 0,1.3682 1.4062,2.2803 1.4062,0.91213 4.0856,1.7293 4.5417,1.3872 6.86,3.4775 2.3374,2.0903 2.3374,5.5108 0,3.6296 -2.7364,5.6628 -2.7364,2.0143 -7.2971,2.0143 -2.7554,0 -5.3208,-0.96915 -2.5654,-0.96914 -4.2186,-2.9834 -1.6532,-2.01426 -1.6532,-5.1498 h 5.7199 q 0,2.5274 1.5012,3.5535 1.5202,1.0262 3.9716,1.0262 2.2043,0 3.2495,-0.89314 1.0642,-0.89313 1.0642,-2.2233 z m 15.62,-20.409 v 27.668 h -5.7008 v -27.668 z m 23.107,23.069 v 4.5987 h -17.806 v -27.668 h 5.7199 v 23.069 z m 9.3304,-23.069 v 27.668 h -5.7008 v -27.668 z m 5.3018,27.668 v -27.668 h 18.509 v 4.6177 h -12.789 v 6.594 h 10.927 v 4.4657 h -10.927 v 7.3921 h 12.846 v 4.5987 z m 44.41,-27.668 v 27.668 h -5.7008 l -11.098,-18.224 v 18.224 h -5.7198 v -27.668 h 5.7198 l 11.098,18.243 v -18.243 z m 2.7364,4.6177 v -4.6177 h 22.518 v 4.6177 h -8.4563 v 23.05 h -5.7008 v -23.05 z"
       id="path17" /><path
       d="m 339.44,197.9 q 0,-1.3872 -0.95014,-2.2993 -0.95015,-0.93114 -4.6177,-2.1093 -3.6486,-1.1972 -6.3089,-3.0784 -2.7934,-1.9573 -2.7934,-5.5678 0,-3.4775 2.8694,-5.6058 2.8694,-2.1283 7.3541,-2.1283 4.5987,0 7.3731,2.4134 2.7744,2.3944 2.7744,6.1189 h -5.7008 q 0,-1.7483 -1.1212,-2.8694 -1.1212,-1.1212 -3.4205,-1.1212 -2.2423,0 -3.3445,0.95014 -1.0832,0.93114 -1.0832,2.2613 0,1.3682 1.4062,2.2803 1.4062,0.91213 4.0856,1.7293 4.5417,1.3872 6.86,3.4775 2.3374,2.0903 2.3374,5.5108 0,3.6295 -2.7364,5.6628 -2.7364,2.0143 -7.2971,2.0143 -2.7554,0 -5.3208,-0.96914 -2.5654,-0.96915 -4.2186,-2.9834 -1.6532,-2.0143 -1.6532,-5.1498 h 5.7198 q 0,2.5274 1.5012,3.5535 1.5202,1.0262 3.9716,1.0262 2.2043,0 3.2495,-0.89314 1.0642,-0.89313 1.0642,-2.2233 z m 32.305,-5.9479 q 0,6.3279 -3.2875,9.9575 -3.2685,3.6295 -8.4753,3.6295 -5.2068,0 -8.5133,-3.6295 -3.3065,-3.6295 -3.3065,-9.9575 v -1.2352 q 0,-6.3279 3.2875,-9.9575 3.2875,-3.6486 8.4943,-3.6486 5.2068,0 8.4943,3.6486 3.3065,3.6295 3.3065,9.9575 z m -5.7769,-1.2732 q 0,-4.3326 -1.5772,-6.594 -1.5772,-2.2613 -4.4467,-2.2613 -2.8694,0 -4.4277,2.2423 -1.5582,2.2233 -1.5772,6.518 v 1.3682 q 0,4.3136 1.5772,6.613 1.5772,2.2803 4.4657,2.2803 2.8694,0 4.4087,-2.2613 1.5582,-2.2613 1.5772,-6.537 z m 25.939,5.2638 h 5.7008 q -0.28504,4.2186 -3.1735,6.917 -2.8694,2.6794 -7.9622,2.6794 -5.3208,0 -8.3802,-3.5725 -3.0595,-3.5915 -3.0595,-9.7294 v -1.8053 q 0,-6.1379 3.1355,-9.7294 3.1355,-3.6105 8.3612,-3.6105 5.1878,0 7.9432,2.7744 2.7554,2.7554 3.1545,7.012 h -5.7008 q -0.19003,-2.4704 -1.3872,-3.7816 -1.1782,-1.3302 -4.0096,-1.3302 -5.5488,0 -5.7008,8.1902 v 2.2803 q 0,4.2946 1.2922,6.461 1.3112,2.1663 4.3516,2.1663 2.6984,0 3.9526,-1.2162 1.2732,-1.2352 1.4822,-3.7056 z m 15.506,-18.452 v 27.668 h -5.7008 v -27.668 z m 5.3018,27.668 v -27.668 h 18.509 v 4.6177 h -12.789 v 6.594 h 10.927 v 4.4657 h -10.927 v 7.3921 h 12.846 v 4.5987 z m 20.58,-23.05 v -4.6177 h 22.518 v 4.6177 h -8.4563 v 23.05 h -5.7008 v -23.05 z m 29.891,-4.6177 5.7389,12.466 5.7388,-12.466 h 6.2519 l -9.1024,17.635 v 10.033 h -5.7769 v -10.033 l -9.1024,-17.635 z"
       id="path18" /></g><path
     d="m 679.48158,676.67524 v -27.668 h 18.034 v 4.6177 h -12.314 v 7.1451 h 10.946 v 4.5987 h -10.946 v 11.307 z m 44.087,-13.207 q 0,6.328 -3.2875,9.9575 -3.2685,3.6295 -8.4753,3.6295 -5.2068,0 -8.5133,-3.6295 -3.3065,-3.6295 -3.3065,-9.9575 v -1.2352 q 0,-6.3279 3.2875,-9.9575 3.2875,-3.6486 8.4943,-3.6486 5.2068,0 8.4943,3.6486 3.3065,3.6295 3.3065,9.9575 z m -5.7769,-1.2732 q 0,-4.3326 -1.5772,-6.594 -1.5772,-2.2613 -4.4467,-2.2613 -2.8694,0 -4.4277,2.2423 -1.5582,2.2233 -1.5772,6.518 v 1.3682 q 0,4.3136 1.5772,6.613 1.5772,2.2803 4.4657,2.2803 2.8694,0 4.4087,-2.2613 1.5582,-2.2613 1.5772,-6.537 z m 25.331,14.48 -5.1688,-10.148 h -4.5417 v 10.148 h -5.7198 v -27.668 h 10.3 q 4.7697,0 7.4871,2.1473 2.7364,2.1283 2.7364,6.2139 0,3.0024 -1.3302,4.8457 -1.3302,1.8433 -3.6105,2.8694 l 5.9859,11.326 v 0.26604 z m -9.7104,-23.05 v 8.3042 h 4.5797 q 2.2423,0 3.3635,-1.1212 1.1402,-1.1402 1.1402,-3.0024 0,-1.9193 -1.1022,-3.0404 -1.1022,-1.1402 -3.4015,-1.1402 z m 45.645,23.05 v -11.858 h -11.117 v 11.858 h -5.7198 v -27.668 h 5.7198 v 11.212 h 11.117 v -11.212 h 5.7008 v 27.668 z m 25.92,-27.668 h 5.7198 v 18.243 q 0,4.8267 -3.0024,7.3161 -3.0024,2.4894 -7.6011,2.4894 -4.6557,0 -7.6391,-2.4894 -2.9834,-2.4894 -2.9834,-7.3161 v -18.243 h 5.7198 v 18.243 q 0,2.7364 1.2922,3.9716 1.3112,1.2352 3.6105,1.2352 4.7697,0 4.8837,-4.9597 z m 24.932,20.067 7.088,-20.067 h 7.4681 v 27.668 h -5.7199 v -7.5631 l 0.57009,-12.998 -7.4491,20.561 h -3.9146 l -7.4491,-20.561 0.57009,12.998 v 7.5631 h -5.7198 v -27.668 h 7.4681 z m 17.559,7.6011 10.3,-27.668 h 5.2828 l 10.357,27.668 h -6.0809 l -1.9003,-5.7008 h -10.014 l -1.9003,5.7008 z m 9.4824,-10.319 h 6.936 l -3.4585,-10.395 z m 41.559,-17.35 v 27.668 h -5.7008 l -11.098,-18.224 v 18.224 h -5.7198 v -27.668 h 5.7198 l 11.098,18.243 v -18.243 z"
     aria-label="FOR HUMAN"
     id="path19" /><path
     d="m 697.12158,716.07524 q 0,-1.3872 -0.95014,-2.2994 -0.95014,-0.93113 -4.6177,-2.1093 -3.6485,-1.1972 -6.3089,-3.0785 -2.7934,-1.9573 -2.7934,-5.5678 0,-3.4775 2.8694,-5.6058 2.8694,-2.1283 7.3541,-2.1283 4.5987,0 7.3731,2.4134 2.7744,2.3944 2.7744,6.1189 h -5.7008 q 0,-1.7483 -1.1212,-2.8694 -1.1212,-1.1212 -3.4205,-1.1212 -2.2423,0 -3.3445,0.95014 -1.0832,0.93114 -1.0832,2.2613 0,1.3682 1.4062,2.2803 1.4062,0.91214 4.0856,1.7293 4.5417,1.3872 6.86,3.4775 2.3374,2.0903 2.3374,5.5108 0,3.6295 -2.7364,5.6628 -2.7364,2.0143 -7.2971,2.0143 -2.7554,0 -5.3208,-0.96915 -2.5654,-0.96914 -4.2186,-2.9834 -1.6532,-2.0143 -1.6532,-5.1498 h 5.7198 q 0,2.5274 1.5012,3.5535 1.5202,1.0262 3.9716,1.0262 2.2043,0 3.2495,-0.89313 1.0642,-0.89313 1.0642,-2.2233 z m 32.305,-5.9479 q 0,6.3279 -3.2875,9.9575 -3.2685,3.6295 -8.4753,3.6295 -5.2068,0 -8.5133,-3.6295 -3.3065,-3.6296 -3.3065,-9.9575 v -1.2352 q 0,-6.328 3.2875,-9.9575 3.2875,-3.6485 8.4943,-3.6485 5.2068,0 8.4943,3.6485 3.3065,3.6295 3.3065,9.9575 z m -5.7769,-1.2732 q 0,-4.3326 -1.5772,-6.594 -1.5772,-2.2613 -4.4467,-2.2613 -2.8695,0 -4.4277,2.2423 -1.5582,2.2233 -1.5772,6.518 v 1.3682 q 0,4.3136 1.5772,6.613 1.5772,2.2803 4.4657,2.2803 2.8694,0 4.4087,-2.2613 1.5582,-2.2613 1.5772,-6.537 z m 25.939,5.2638 h 5.7008 q -0.28504,4.2186 -3.1735,6.917 -2.8694,2.6794 -7.9622,2.6794 -5.3208,0 -8.3802,-3.5725 -3.0594,-3.5915 -3.0594,-9.7294 v -1.8053 q 0,-6.1379 3.1355,-9.7294 3.1355,-3.6105 8.3612,-3.6105 5.1878,0 7.9432,2.7744 2.7554,2.7554 3.1545,7.012 h -5.7008 q -0.19003,-2.4704 -1.3872,-3.7816 -1.1782,-1.3302 -4.0096,-1.3302 -5.5488,0 -5.7008,8.1902 v 2.2803 q 0,4.2946 1.2922,6.461 1.3112,2.1663 4.3516,2.1663 2.6984,0 3.9526,-1.2162 1.2732,-1.2352 1.4822,-3.7056 z m 15.506,-18.452 v 27.668 h -5.7008 v -27.668 z m 5.3018,27.668 v -27.668 h 18.509 v 4.6177 h -12.789 v 6.594 h 10.927 v 4.4657 h -10.927 v 7.3921 h 12.846 v 4.5987 z m 20.58,-23.05 v -4.6177 h 22.518 v 4.6177 h -8.4563 v 23.05 h -5.7008 v -23.05 z m 29.891,-4.6177 5.7388,12.466 5.7389,-12.466 h 6.2519 l -9.1024,17.635 v 10.034 h -5.7769 v -10.034 l -9.1024,-17.635 z"
     aria-label="SOCIETY"
     id="path20" /><g
     aria-label="REMOTE SENSING"
     id="g22"
     transform="translate(-7.0204494,-397.04299)"><path
       d="m 723.1,646.95 -5.1688,-10.148 h -4.5417 v 10.148 h -5.7198 v -27.668 h 10.3 q 4.7697,0 7.4871,2.1473 2.7364,2.1283 2.7364,6.2139 0,3.0024 -1.3302,4.8457 -1.3302,1.8433 -3.6105,2.8694 l 5.9859,11.326 v 0.26604 z m -9.7104,-23.05 v 8.3042 h 4.5797 q 2.2423,0 3.3635,-1.1212 1.1402,-1.1402 1.1402,-3.0024 0,-1.9193 -1.1022,-3.0405 -1.1022,-1.1402 -3.4015,-1.1402 z m 19.117,23.05 v -27.668 h 18.509 v 4.6177 h -12.789 v 6.594 h 10.927 v 4.4657 h -10.927 v 7.3921 h 12.846 v 4.5987 z m 36.447,-7.6011 7.088,-20.067 h 7.4681 v 27.668 h -5.7199 v -7.5631 l 0.57009,-12.998 -7.4491,20.561 h -3.9146 l -7.4491,-20.561 0.57009,12.998 v 7.5631 h -5.7198 v -27.668 h 7.4681 z m 42.281,-5.6058 q 0,6.3279 -3.2875,9.9575 -3.2685,3.6295 -8.4753,3.6295 -5.2068,0 -8.5133,-3.6295 -3.3065,-3.6295 -3.3065,-9.9575 v -1.2352 q 0,-6.328 3.2875,-9.9575 3.2875,-3.6485 8.4943,-3.6485 5.2068,0 8.4943,3.6485 3.3065,3.6295 3.3065,9.9575 z m -5.7769,-1.2732 q 0,-4.3326 -1.5772,-6.594 -1.5772,-2.2613 -4.4467,-2.2613 -2.8695,0 -4.4277,2.2423 -1.5582,2.2233 -1.5772,6.518 v 1.3682 q 0,4.3136 1.5772,6.613 1.5772,2.2803 4.4657,2.2803 2.8694,0 4.4087,-2.2613 1.5582,-2.2613 1.5772,-6.537 z m 6.594,-8.5703 v -4.6177 h 22.518 v 4.6177 h -8.4563 v 23.05 h -5.7008 v -23.05 z m 25.768,23.05 v -27.668 h 18.509 v 4.6177 h -12.789 v 6.594 h 10.927 v 4.4657 h -10.927 v 7.3921 h 12.846 v 4.5987 z"
       id="path21" /><path
       d="m 722.03,688.34 q 0,-1.3872 -0.95014,-2.2994 -0.95014,-0.93113 -4.6177,-2.1093 -3.6485,-1.1972 -6.3089,-3.0785 -2.7934,-1.9573 -2.7934,-5.5678 0,-3.4775 2.8694,-5.6058 2.8694,-2.1283 7.3541,-2.1283 4.5987,0 7.3731,2.4134 2.7744,2.3944 2.7744,6.1189 h -5.7008 q 0,-1.7483 -1.1212,-2.8694 -1.1212,-1.1212 -3.4205,-1.1212 -2.2423,0 -3.3445,0.95014 -1.0832,0.93114 -1.0832,2.2613 0,1.3682 1.4062,2.2803 1.4062,0.91214 4.0856,1.7293 4.5417,1.3872 6.86,3.4775 2.3373,2.0903 2.3373,5.5108 0,3.6295 -2.7364,5.6628 -2.7364,2.0143 -7.2971,2.0143 -2.7554,0 -5.3208,-0.96915 -2.5654,-0.96914 -4.2186,-2.9834 -1.6532,-2.0143 -1.6532,-5.1498 h 5.7198 q 0,2.5274 1.5012,3.5535 1.5202,1.0262 3.9716,1.0262 2.2043,0 3.2495,-0.89313 1.0642,-0.89313 1.0642,-2.2233 z m 9.5584,7.2591 v -27.668 h 18.509 v 4.6177 h -12.789 v 6.594 h 10.927 v 4.4657 h -10.927 v 7.3921 h 12.846 v 4.5987 z m 44.41,-27.668 v 27.668 h -5.7008 l -11.098,-18.224 v 18.224 h -5.7198 v -27.668 h 5.7198 l 11.098,18.243 v -18.243 z m 19.345,20.409 q 0,-1.3872 -0.95014,-2.2994 -0.95014,-0.93113 -4.6177,-2.1093 -3.6485,-1.1972 -6.3089,-3.0785 -2.7934,-1.9573 -2.7934,-5.5678 0,-3.4775 2.8694,-5.6058 2.8694,-2.1283 7.3541,-2.1283 4.5987,0 7.3731,2.4134 2.7744,2.3944 2.7744,6.1189 h -5.7008 q 0,-1.7483 -1.1212,-2.8694 -1.1212,-1.1212 -3.4205,-1.1212 -2.2423,0 -3.3445,0.95014 -1.0832,0.93114 -1.0832,2.2613 0,1.3682 1.4062,2.2803 1.4062,0.91214 4.0856,1.7293 4.5417,1.3872 6.86,3.4775 2.3374,2.0903 2.3374,5.5108 0,3.6295 -2.7364,5.6628 -2.7364,2.0143 -7.2971,2.0143 -2.7554,0 -5.3208,-0.96915 -2.5654,-0.96914 -4.2186,-2.9834 -1.6532,-2.0143 -1.6532,-5.1498 h 5.7198 q 0,2.5274 1.5012,3.5535 1.5202,1.0262 3.9716,1.0262 2.2043,0 3.2495,-0.89313 1.0642,-0.89313 1.0642,-2.2233 z m 15.62,-20.409 v 27.668 h -5.7008 v -27.668 z m 27.82,0 v 27.668 h -5.7008 l -11.098,-18.224 v 18.224 h -5.7198 v -27.668 h 5.7198 l 11.098,18.243 v -18.243 z m 26.889,13.131 v 11.041 q -0.98815,1.1782 -3.5155,2.5274 -2.5084,1.3492 -7.069,1.3492 -5.3778,0 -8.7033,-3.4775 -3.3065,-3.4965 -3.3065,-9.9005 v -1.6532 q 0,-6.404 3.1735,-9.9005 3.1735,-3.5155 8.4373,-3.5155 5.3778,0 7.9432,2.5844 2.5654,2.5844 3.0214,6.613 h -5.5488 q -0.32305,-2.0903 -1.5012,-3.3445 -1.1782,-1.2542 -3.7626,-1.2542 -5.6058,0 -5.9479,7.7532 l -0.019,2.7174 q 0,4.3706 1.6152,6.575 1.6342,2.2043 4.9027,2.2043 2.0523,0 3.0784,-0.45607 1.0262,-0.47507 1.4822,-0.91213 v -4.7697 h -5.1688 v -4.1806 z"
       id="path22" /></g><g
     aria-label="AI AND DATA LITERACY"
     id="g24"
     transform="translate(5.265338,-33.347141)"><path
       d="m 299.78,686.5 10.3,-27.668 h 5.2828 l 10.357,27.668 h -6.0809 l -1.9003,-5.7008 h -10.014 l -1.9003,5.7008 z m 9.4824,-10.319 h 6.936 l -3.4585,-10.395 z m 25.103,-17.35 v 27.668 h -5.7008 v -27.668 z m 12.675,27.668 10.3,-27.668 h 5.2828 l 10.357,27.668 h -6.0809 l -1.9003,-5.7008 h -10.014 l -1.9003,5.7008 z m 9.4824,-10.319 h 6.936 l -3.4585,-10.395 z m 41.559,-17.35 v 27.668 h -5.7008 l -11.098,-18.224 v 18.224 h -5.7198 V 658.83 h 5.7198 l 11.098,18.243 V 658.83 Z m 4.9788,27.668 V 658.83 h 8.5323 q 5.5868,0 9.1024,3.6486 3.5345,3.6485 3.5345,9.5774 v 1.2352 q 0,5.9289 -3.5345,9.5774 -3.5155,3.6295 -9.1784,3.6295 z m 5.7198,-23.05 V 681.9 h 2.7364 q 3.3635,0 5.1118,-2.1853 1.7673,-2.1853 1.8053,-6.2519 v -1.4442 q 0,-4.2186 -1.6722,-6.366 -1.6532,-2.1473 -4.9978,-2.2043 z m 29.283,23.05 V 658.83 h 8.5323 q 5.5868,0 9.1024,3.6486 3.5345,3.6485 3.5345,9.5774 v 1.2352 q 0,5.9289 -3.5345,9.5774 -3.5155,3.6295 -9.1784,3.6295 z m 5.7198,-23.05 V 681.9 h 2.7364 q 3.3635,0 5.1118,-2.1853 1.7673,-2.1853 1.8053,-6.2519 v -1.4442 q 0,-4.2186 -1.6722,-6.366 -1.6532,-2.1473 -4.9978,-2.2043 z m 16.875,23.05 10.3,-27.668 h 5.2828 l 10.357,27.668 h -6.0809 l -1.9003,-5.7008 h -10.014 l -1.9003,5.7008 z m 9.4824,-10.319 h 6.936 l -3.4585,-10.395 z m 15.069,-12.732 v -4.6177 h 22.518 v 4.6177 h -8.4563 v 23.05 h -5.7008 v -23.05 z m 21.169,23.05 10.3,-27.668 h 5.2828 l 10.357,27.668 h -6.0809 l -1.9003,-5.7008 h -10.014 l -1.9003,5.7008 z m 9.4824,-10.319 h 6.936 l -3.4585,-10.395 z"
       id="path23" /><path
       d="m 347.28,730.79 v 4.5987 h -17.806 v -27.668 h 5.7198 v 23.069 z m 9.3304,-23.069 v 27.668 h -5.7008 v -27.668 z m 3.0595,4.6177 v -4.6177 h 22.518 v 4.6177 h -8.4563 v 23.05 h -5.7008 v -23.05 z m 25.768,23.05 v -27.668 h 18.509 v 4.6177 h -12.789 v 6.594 h 10.927 v 4.4657 h -10.927 v 7.3921 h 12.846 v 4.5987 z m 37.322,0 -5.1688,-10.148 h -4.5417 v 10.148 h -5.7199 v -27.668 h 10.3 q 4.7697,0 7.4871,2.1473 2.7364,2.1283 2.7364,6.2139 0,3.0024 -1.3302,4.8457 -1.3302,1.8433 -3.6105,2.8694 l 5.9859,11.326 v 0.26603 z m -9.7104,-23.05 v 8.3042 h 4.5797 q 2.2423,0 3.3635,-1.1212 1.1402,-1.1402 1.1402,-3.0024 0,-1.9193 -1.1022,-3.0404 -1.1022,-1.1402 -3.4015,-1.1402 z m 16.798,23.05 10.3,-27.668 h 5.2828 l 10.357,27.668 h -6.0809 l -1.9003,-5.7008 h -10.014 l -1.9003,5.7008 z m 9.4824,-10.319 h 6.936 l -3.4585,-10.395 z m 34.68,1.1022 h 5.7008 q -0.28504,4.2186 -3.1735,6.917 -2.8694,2.6794 -7.9622,2.6794 -5.3208,0 -8.3802,-3.5725 -3.0594,-3.5915 -3.0594,-9.7294 v -1.8053 q 0,-6.1379 3.1355,-9.7294 3.1355,-3.6105 8.3612,-3.6105 5.1878,0 7.9432,2.7744 2.7554,2.7554 3.1545,7.012 h -5.7008 q -0.19003,-2.4704 -1.3872,-3.7816 -1.1782,-1.3302 -4.0096,-1.3302 -5.5488,0 -5.7008,8.1902 v 2.2803 q 0,4.2946 1.2922,6.461 1.3112,2.1663 4.3516,2.1663 2.6984,0 3.9526,-1.2162 1.2732,-1.2352 1.4822,-3.7056 z m 13.264,-18.452 5.7388,12.466 5.7389,-12.466 h 6.2519 l -9.1024,17.635 v 10.033 h -5.7769 v -10.033 l -9.1024,-17.635 z"
       id="path24" /></g></g>
<path
   sodipodi:type="star"
   style="opacity:0.99;fill:none;stroke:#0056a6;stroke-width:0.999997;stroke-opacity:1"
   id="path7289"
   inkscape:flatsided="true"
   sodipodi:sides="5"
   sodipodi:cx="590.83527"
   sodipodi:cy="414.96899"
   sodipodi:r1="183.19762"
   sodipodi:r2="148.20998"
   sodipodi:arg1="0.93244087"
   sodipodi:arg2="1.5607594"
   inkscape:rounded="0"
   inkscape:randomized="0"
   d="m 699.99825,562.09075 -215.35087,2.16153 -68.60282,-204.14289 172.952,-128.32878 175.49302,124.83134 z"
   inkscape:transform-center-x="0.54958415"
   inkscape:transform-center-y="-15.869985"
   transform="matrix(0.96724514,0,0,0.93614166,-32.09672,68.599067)" /></svg>
