<?xml version="1.0" encoding="UTF-8" standalone="no"?>
<svg
   version="1.1"
   class="digis-schema img-fluid w-100"
   preserveAspectRatio="xMidYMid meet"
   viewBox="0 0 1082.7 1012.7"
   xml:space="preserve"
   id="svg25"
   sodipodi:docname="digis_schema.svg"
   inkscape:version="1.4.2 (ebf0e940d0, 2025-05-08)"
   xmlns:inkscape="http://www.inkscape.org/namespaces/inkscape"
   xmlns:sodipodi="http://sodipodi.sourceforge.net/DTD/sodipodi-0.dtd"
   xmlns="http://www.w3.org/2000/svg"
   xmlns:svg="http://www.w3.org/2000/svg"><sodipodi:namedview
   id="namedview25"
   pagecolor="#ffffff"
   bordercolor="#000000"
   borderopacity="0.25"
   inkscape:showpageshadow="2"
   inkscape:pageopacity="0.0"
   inkscape:pagecheckerboard="0"
   inkscape:deskcolor="#d1d1d1"
   inkscape:document-units="pt"
   showgrid="false"
   inkscape:zoom="0.42732299"
   inkscape:cx="720.76628"
   inkscape:cy="675.13335"
   inkscape:window-width="1470"
   inkscape:window-height="787"
   inkscape:window-x="0"
   inkscape:window-y="0"
   inkscape:window-maximized="1"
   inkscape:current-layer="text1" /><defs
   id="defs10"><filter
     id="filter835"
     x="-0.0089185186"
     y="-0.014366425"
     width="1.0256751"
     height="1.0404242"
     color-interpolation-filters="sRGB"><feFlood
       flood-color="rgb(221,221,221)"
       flood-opacity=".86667"
       result="flood"
       id="feFlood1" /><feComposite
       in="flood"
       in2="SourceGraphic"
       operator="in"
       result="composite1"
       id="feComposite1" /><feGaussianBlur
       in="composite1"
       result="blur"
       stdDeviation="2"
       id="feGaussianBlur1" /><feOffset
       dx="4"
       dy="4"
       result="offset"
       id="feOffset1" /><feComposite
       in="SourceGraphic"
       in2="offset"
       result="composite2"
       id="feComposite2" /></filter><filter
     id="filter847"
     x="-0.01114762"
     y="-0.0096244065"
     width="1.0303709"
     height="1.0268941"
     color-interpolation-filters="sRGB"><feFlood
       flood-color="rgb(221,221,221)"
       flood-opacity=".86667"
       result="flood"
       id="feFlood2" /><feComposite
       in="flood"
       in2="SourceGraphic"
       operator="in"
       result="composite1"
       id="feComposite3" /><feGaussianBlur
       in="composite1"
       result="blur"
       stdDeviation="2"
       id="feGaussianBlur3" /><feOffset
       dx="4"
       dy="4"
       result="offset"
       id="feOffset3" /><feComposite
       in="SourceGraphic"
       in2="offset"
       result="composite2"
       id="feComposite4" /></filter><filter
     id="filter859"
     x="-0.011511397"
     y="-0.0095203549"
     width="1.0309163"
     height="1.0266374"
     color-interpolation-filters="sRGB"><feFlood
       flood-color="rgb(221,221,221)"
       flood-opacity=".86667"
       result="flood"
       id="feFlood4" /><feComposite
       in="flood"
       in2="SourceGraphic"
       operator="in"
       result="composite1"
       id="feComposite5" /><feGaussianBlur
       in="composite1"
       result="blur"
       stdDeviation="2"
       id="feGaussianBlur5" /><feOffset
       dx="4"
       dy="4"
       result="offset"
       id="feOffset5" /><feComposite
       in="SourceGraphic"
       in2="offset"
       result="composite2"
       id="feComposite6" /></filter><filter
     id="filter871"
     x="-0.010255494"
     y="-0.014366815"
     width="1.0256751"
     height="1.0404252"
     color-interpolation-filters="sRGB"><feFlood
       flood-color="rgb(221,221,221)"
       flood-opacity=".86667"
       result="flood"
       id="feFlood6" /><feComposite
       in="flood"
       in2="SourceGraphic"
       operator="in"
       result="composite1"
       id="feComposite7" /><feGaussianBlur
       in="composite1"
       result="blur"
       stdDeviation="2"
       id="feGaussianBlur7" /><feOffset
       dx="4"
       dy="4"
       result="offset"
       id="feOffset7" /><feComposite
       in="SourceGraphic"
       in2="offset"
       result="composite2"
       id="feComposite8" /></filter><filter
     id="filter883"
     x="-0.014159601"
     y="-0.010905324"
     width="1.0386428"
     height="1.0267835"
     color-interpolation-filters="sRGB"><feFlood
       flood-color="rgb(221,221,221)"
       flood-opacity=".86667"
       result="flood"
       id="feFlood8" /><feComposite
       in="flood"
       in2="SourceGraphic"
       operator="in"
       result="composite1"
       id="feComposite9" /><feGaussianBlur
       in="composite1"
       result="blur"
       stdDeviation="2"
       id="feGaussianBlur9" /><feOffset
       dx="4"
       dy="4"
       result="offset"
       id="feOffset9" /><feComposite
       in="SourceGraphic"
       in2="offset"
       result="composite2"
       id="feComposite10" /></filter></defs><g
   fill="#0056a6"
   fill-rule="evenodd"
   stroke="#ccc"
   id="g10"><path
     id="edgeai"
     d="m 29.942,595.1 193.04,-584.21 194.74,585.9 z"
     filter="url(#filter883)"
     transform="matrix(1.0000906,0,0,0.95909705,8.7552849,28.283434)" /><path
     id="newmedia"
     d="m 243.19,30.299 615.28,1.5352 -496.14,367.5 z"
     filter="url(#filter835)"
     transform="matrix(0.9638331,0,0,0.97259328,14.600769,9.711921)" /><path
     id="remotesensing"
     d="m 860.13,45.039 196.32,583.12 -507.47,-351.68 z"
     filter="url(#filter847)"
     transform="matrix(0.95291176,0,0,1.0030154,25.608944,-0.14398087)" /><path
     id="digitaltwin"
     d="M 1035.3,640.35 537.95,1002.58 721.17,412.97 Z"
     filter="url(#filter859)"
     transform="matrix(0.97602556,0,0,0.98261383,12.76303,7.0791157)" /><path
     id="literacy"
     d="m 642.84511,611.98977 -615.279997,1.5352 496.139997,367.49 z"
     filter="url(#filter871)"
     transform="matrix(0.97771406,0,0,1.0046336,14.526143,-4.5780626)" /></g><path
   d="m455.98 431.4v-36.543h11.269q7.379 0 12.022 4.8189 4.6683 4.8189 4.6683 12.65v1.6314q0 7.8307-4.6683 12.65-4.6432 4.7938-12.123 4.7938zm7.5547-30.445v24.371h3.6142q4.4424 0 6.7515-2.8863 2.3342-2.8863 2.3844-8.2574v-1.9075q0-5.5719-2.2087-8.408-2.1836-2.8361-6.6009-2.9114zm33.883-6.099v36.543h-7.5296v-36.543zm35.941 17.343v14.582q-1.3051 1.5561-4.6432 3.3381-3.313 1.782-9.3367 1.782-7.1029 0-11.495-4.593-4.3672-4.6181-4.3672-13.076v-2.1836q0-8.4582 4.1915-13.076 4.1914-4.6432 11.144-4.6432 7.1029 0 10.491 3.4134 3.3883 3.4134 3.9907 8.7343h-7.3288q-0.42668-2.7608-1.9828-4.4173-1.5561-1.6565-4.9695-1.6565-7.4041 0-7.8558 10.24l-0.0251 3.5891q0 5.7727 2.1334 8.6841 2.1585 2.9114 6.4754 2.9114 2.7106 0 4.066-0.60236 1.3553-0.62746 1.9577-1.2047v-6.2997h-6.8268v-5.5217zm14.08-17.343v36.543h-7.5296v-36.543zm4.0409 6.099v-6.099h29.742v6.099h-11.169v30.445h-7.5296v-30.445zm27.96 30.445 13.603-36.543h6.9774l13.679 36.543h-8.0315l-2.5099-7.5296h-13.227l-2.5099 7.5296zm12.524-13.629h9.161l-4.5679-13.729zm48.666 7.5547v6.0738h-23.517v-36.543h7.5547v30.47z"
   fill="#1e2a38"
   stroke="#fff"
   stroke-width=".78135"
   aria-label="DIGITAL"
   id="path10" /><path
   d="m470.24 519.39v-36.543h24.446v6.0989h-16.891v8.7092h14.432v5.8982h-14.432v9.7633h16.967v6.0738zm27.182-30.445v-6.0989h29.742v6.0989h-11.169v30.445h-7.5296v-30.445zm56.271 30.445v-15.661h-14.683v15.661h-7.5547v-36.543h7.5547v14.808h14.683v-14.808h7.5296v36.543zm22.112-36.543v36.543h-7.5296v-36.543zm28.186 24.371h7.5296q-0.37647 5.5719-4.1914 9.1359-3.7899 3.5389-10.516 3.5389-7.0276 0-11.068-4.7185-4.0409-4.7436-4.0409-12.85v-2.3844q0-8.1068 4.1412-12.85 4.1413-4.7687 11.043-4.7687 6.8519 0 10.491 3.6644 3.6393 3.6393 4.1664 9.2614h-7.5296q-0.25098-3.2628-1.8322-4.9946-1.5561-1.7569-5.2958-1.7569-7.3288 0-7.5296 10.817v3.0118q0 5.6723 1.7067 8.5335 1.7318 2.8612 5.7476 2.8612 3.564 0 5.2205-1.6063 1.6816-1.6314 1.9577-4.8942zm31.448 2.5852q0-1.8322-1.2549-3.0369-1.2549-1.2298-6.0989-2.7859-4.8189-1.5812-8.3327-4.066-3.6895-2.5852-3.6895-7.3539 0-4.593 3.7899-7.4041t9.7131-2.811q6.0738 0 9.7382 3.1875 3.6644 3.1624 3.6644 8.0817h-7.5296q0-2.3091-1.4808-3.7899-1.4808-1.4808-4.5177-1.4808-2.9616 0-4.4173 1.2549-1.4306 1.2298-1.4306 2.9867 0 1.8071 1.8573 3.0118t5.3962 2.284q5.9986 1.8322 9.0606 4.593 3.0871 2.7608 3.0871 7.2786 0 4.7938-3.6142 7.4794-3.6142 2.6604-9.6378 2.6604-3.6393 0-7.0276-1.28-3.3883-1.28-5.5719-3.9405-2.1836-2.6604-2.1836-6.8017h7.5547q0 3.3381 1.9828 4.6934 2.0079 1.3553 5.2456 1.3553 2.9114 0 4.2918-1.1796 1.4055-1.1796 1.4055-2.9365z"
   fill="#1e2a38"
   stroke="#fff"
   stroke-width=".78135"
   aria-label="ETHICS"
   id="path11" /><g
   fill="#ffffff"
   stroke="#ffffff"
   stroke-width="0.4335"
   id="g25"
   transform="translate(-6,21)"><g
     id="text4"
     style="font-size:40px;font-family:Roboto;-inkscape-font-specification:Roboto;opacity:0.985325;stroke-width:3.40157;stroke-linecap:round;stroke-linejoin:round"
     aria-label="LANGUAGE&#10;AND MEDIA"><path
       d="m 705.19043,270.79254 v 3.06641 h -17.24609 v -28.4375 h 3.76953 v 25.37109 z m 1.93359,3.06641 10.83985,-28.4375 h 3.30078 l 10.8789,28.4375 h -3.86718 l -2.71485,-7.44141 h -11.89453 l -2.69531,7.44141 z m 7.67578,-10.52735 h 9.64844 l -4.82422,-13.26171 z m 43.02735,-17.91015 v 28.4375 h -3.78906 l -14.31641,-21.9336 v 21.9336 h -3.76953 v -28.4375 h 3.76953 l 14.375,21.99219 v -21.99219 z m 27.67578,14.27734 v 10.41016 q -0.80078,1.17187 -3.04688,2.65625 -2.24609,1.48437 -7.01171,1.48437 -5.19532,0 -8.53516,-3.55468 -3.33984,-3.57422 -3.33984,-9.96094 v -2.20703 q 0,-6.34766 2.96875,-9.92188 2.96875,-3.57422 8.47656,-3.57422 4.88281,0 7.40234,2.46094 2.53906,2.46094 3.08594,6.25 h -3.76953 q -0.39063,-2.30469 -1.9336,-3.96484 -1.52343,-1.66016 -4.78515,-1.66016 -3.92578,0 -5.78125,2.77344 -1.85547,2.7539 -1.875,7.5 v 2.34375 q 0,4.92187 2.22656,7.69531 2.22656,2.75391 5.87891,2.75391 3.02734,0 4.375,-0.70313 1.34765,-0.72265 1.91406,-1.36719 v -6.36718 h -6.58203 v -3.04688 z m 22.5,-14.27734 h 3.75 v 19.23828 q 0,4.80469 -3.08594,7.20703 -3.08594,2.38281 -7.22656,2.38281 -4.35547,0 -7.32422,-2.38281 -2.94922,-2.40234 -2.94922,-7.20703 v -19.23828 h 3.73047 v 19.23828 q 0,3.33984 1.79688,4.94141 1.8164,1.58203 4.74609,1.58203 2.96875,0 4.76562,-1.58203 1.79688,-1.60157 1.79688,-4.94141 z m 6.50391,28.4375 10.83984,-28.4375 h 3.30078 l 10.87891,28.4375 h -3.86719 l -2.71484,-7.44141 H 821.0498 l -2.69531,7.44141 z m 7.67578,-10.52735 h 9.64843 l -4.82421,-13.26171 z m 41.95312,-3.63281 v 10.41016 q -0.80078,1.17187 -3.04687,2.65625 -2.2461,1.48437 -7.01172,1.48437 -5.19531,0 -8.53516,-3.55468 -3.33984,-3.57422 -3.33984,-9.96094 v -2.20703 q 0,-6.34766 2.96875,-9.92188 2.96875,-3.57422 8.47656,-3.57422 4.88281,0 7.40234,2.46094 2.53907,2.46094 3.08594,6.25 h -3.76953 q -0.39062,-2.30469 -1.93359,-3.96484 -1.52344,-1.66016 -4.78516,-1.66016 -3.92578,0 -5.78125,2.77344 -1.85547,2.7539 -1.875,7.5 v 2.34375 q 0,4.92187 2.22656,7.69531 2.22657,2.75391 5.87891,2.75391 3.02734,0 4.375,-0.70313 1.34766,-0.72265 1.91406,-1.36719 v -6.36718 h -6.58203 v -3.04688 z m 6.23047,14.16016 v -28.4375 h 17.87109 v 3.08594 h -14.10156 v 9.14062 h 12.30469 v 3.06641 h -12.30469 v 10.07812 h 14.29688 v 3.06641 z"
       id="path7" /><path
       d="m 685.20996,323.85895 10.83984,-28.4375 h 3.30079 l 10.8789,28.4375 h -3.86719 l -2.71484,-7.44141 h -11.89453 l -2.69531,7.44141 z m 7.67578,-10.52735 h 9.64844 l -4.82422,-13.26171 z m 43.02735,-17.91015 v 28.4375 h -3.78907 l -14.3164,-21.9336 v 21.9336 h -3.76953 v -28.4375 h 3.76953 l 14.375,21.99219 v -21.99219 z m 6.66015,28.4375 v -28.4375 h 8.04688 q 5.60547,0 9.0625,3.61328 3.47656,3.59375 3.47656,9.76562 v 1.69922 q 0,6.17188 -3.49609,9.76563 -3.47657,3.59375 -9.39454,3.59375 z m 3.76953,-25.35156 v 22.28515 h 3.92578 q 4.55079,0 6.85547,-2.8125 2.30469,-2.8125 2.30469,-7.48047 v -1.73828 q 0,-4.90234 -2.30469,-7.57812 -2.30468,-2.67578 -6.5039,-2.67578 z m 46.5625,20.09765 9.29688,-23.18359 h 4.84375 v 28.4375 h -3.75 V 312.7652 l 0.37109,-11.89453 -9.35547,22.98828 h -2.85156 l -9.33594,-23.02735 0.3711,11.9336 v 11.09375 h -3.75 v -28.4375 h 4.84375 z m 20.76172,5.25391 v -28.4375 h 17.8711 v 3.08594 h -14.10157 v 9.14062 h 12.30469 v 3.06641 h -12.30469 v 10.07812 h 14.29688 v 3.06641 z m 22.73438,0 v -28.4375 h 8.04687 q 5.60547,0 9.0625,3.61328 3.47656,3.59375 3.47656,9.76562 v 1.69922 q 0,6.17188 -3.49609,9.76563 -3.47656,3.59375 -9.39453,3.59375 z m 3.76953,-25.35156 v 22.28515 h 3.92578 q 4.55078,0 6.85547,-2.8125 2.30469,-2.8125 2.30469,-7.48047 v -1.73828 q 0,-4.90234 -2.30469,-7.57812 -2.30469,-2.67578 -6.50391,-2.67578 z m 26.52344,-3.08594 v 28.4375 h -3.76954 v -28.4375 z m 4.45312,28.4375 10.83984,-28.4375 h 3.30079 l 10.8789,28.4375 h -3.86719 l -2.71484,-7.44141 h -11.89453 l -2.69531,7.44141 z m 7.67578,-10.52735 h 9.64844 l -4.82422,-13.26171 z"
       id="path8" /></g><g
     aria-label="EDGE  AI"
     id="g13"
     transform="translate(42.122704,15.796014)"><path
       d="m 162.57,350.33 v -27.668 h 18.509 v 4.6177 H 168.29 v 6.594 h 10.927 v 4.4657 H 168.29 v 7.3921 h 12.846 v 4.5987 z m 21.891,0 v -27.668 h 8.5323 q 5.5868,0 9.1024,3.6485 3.5345,3.6486 3.5345,9.5774 v 1.2352 q 0,5.9289 -3.5345,9.5774 -3.5155,3.6295 -9.1784,3.6295 z m 5.7198,-23.05 v 18.452 h 2.7364 q 3.3635,0 5.1118,-2.1853 1.7673,-2.1853 1.8053,-6.2519 v -1.4442 q 0,-4.2186 -1.6722,-6.366 -1.6532,-2.1473 -4.9977,-2.2043 z m 41.502,8.5133 v 11.041 q -0.98815,1.1782 -3.5155,2.5274 -2.5084,1.3492 -7.069,1.3492 -5.3778,0 -8.7033,-3.4775 -3.3065,-3.4965 -3.3065,-9.9005 v -1.6532 q 0,-6.404 3.1735,-9.9005 3.1735,-3.5155 8.4373,-3.5155 5.3778,0 7.9432,2.5844 2.5654,2.5844 3.0214,6.613 h -5.5488 q -0.32305,-2.0903 -1.5012,-3.3445 -1.1782,-1.2542 -3.7626,-1.2542 -5.6058,0 -5.9479,7.7532 l -0.019,2.7174 q 0,4.3706 1.6152,6.575 1.6342,2.2043 4.9027,2.2043 2.0523,0 3.0784,-0.45606 1.0262,-0.47507 1.4822,-0.91214 v -4.7697 h -5.1688 v -4.1806 z m 4.5987,14.537 v -27.668 h 18.509 v 4.6177 h -12.789 v 6.594 h 10.927 v 4.4657 h -10.927 v 7.3921 h 12.846 v 4.5987 z"
       id="path12" /><path
       d="m 194.11,399.21 10.3,-27.668 h 5.2828 l 10.357,27.668 h -6.0809 l -1.9003,-5.7008 h -10.014 l -1.9003,5.7008 z m 9.4824,-10.319 h 6.936 l -3.4585,-10.395 z m 25.103,-17.35 v 27.668 h -5.7008 v -27.668 z"
       id="path13" /></g><g
     aria-label="REMOTE SENSING"
     id="g22"
     transform="translate(-11.70075,-27.299245)"><path
       d="m 723.1,646.95 -5.1688,-10.148 h -4.5417 v 10.148 h -5.7198 v -27.668 h 10.3 q 4.7697,0 7.4871,2.1473 2.7364,2.1283 2.7364,6.2139 0,3.0024 -1.3302,4.8457 -1.3302,1.8433 -3.6105,2.8694 l 5.9859,11.326 v 0.26604 z m -9.7104,-23.05 v 8.3042 h 4.5797 q 2.2423,0 3.3635,-1.1212 1.1402,-1.1402 1.1402,-3.0024 0,-1.9193 -1.1022,-3.0405 -1.1022,-1.1402 -3.4015,-1.1402 z m 19.117,23.05 v -27.668 h 18.509 v 4.6177 h -12.789 v 6.594 h 10.927 v 4.4657 h -10.927 v 7.3921 h 12.846 v 4.5987 z m 36.447,-7.6011 7.088,-20.067 h 7.4681 v 27.668 h -5.7199 v -7.5631 l 0.57009,-12.998 -7.4491,20.561 h -3.9146 l -7.4491,-20.561 0.57009,12.998 v 7.5631 h -5.7198 v -27.668 h 7.4681 z m 42.281,-5.6058 q 0,6.3279 -3.2875,9.9575 -3.2685,3.6295 -8.4753,3.6295 -5.2068,0 -8.5133,-3.6295 -3.3065,-3.6295 -3.3065,-9.9575 v -1.2352 q 0,-6.328 3.2875,-9.9575 3.2875,-3.6485 8.4943,-3.6485 5.2068,0 8.4943,3.6485 3.3065,3.6295 3.3065,9.9575 z m -5.7769,-1.2732 q 0,-4.3326 -1.5772,-6.594 -1.5772,-2.2613 -4.4467,-2.2613 -2.8695,0 -4.4277,2.2423 -1.5582,2.2233 -1.5772,6.518 v 1.3682 q 0,4.3136 1.5772,6.613 1.5772,2.2803 4.4657,2.2803 2.8694,0 4.4087,-2.2613 1.5582,-2.2613 1.5772,-6.537 z m 6.594,-8.5703 v -4.6177 h 22.518 v 4.6177 h -8.4563 v 23.05 h -5.7008 v -23.05 z m 25.768,23.05 v -27.668 h 18.509 v 4.6177 h -12.789 v 6.594 h 10.927 v 4.4657 h -10.927 v 7.3921 h 12.846 v 4.5987 z"
       id="path21" /><path
       d="m 722.03,688.34 q 0,-1.3872 -0.95014,-2.2994 -0.95014,-0.93113 -4.6177,-2.1093 -3.6485,-1.1972 -6.3089,-3.0785 -2.7934,-1.9573 -2.7934,-5.5678 0,-3.4775 2.8694,-5.6058 2.8694,-2.1283 7.3541,-2.1283 4.5987,0 7.3731,2.4134 2.7744,2.3944 2.7744,6.1189 h -5.7008 q 0,-1.7483 -1.1212,-2.8694 -1.1212,-1.1212 -3.4205,-1.1212 -2.2423,0 -3.3445,0.95014 -1.0832,0.93114 -1.0832,2.2613 0,1.3682 1.4062,2.2803 1.4062,0.91214 4.0856,1.7293 4.5417,1.3872 6.86,3.4775 2.3373,2.0903 2.3373,5.5108 0,3.6295 -2.7364,5.6628 -2.7364,2.0143 -7.2971,2.0143 -2.7554,0 -5.3208,-0.96915 -2.5654,-0.96914 -4.2186,-2.9834 -1.6532,-2.0143 -1.6532,-5.1498 h 5.7198 q 0,2.5274 1.5012,3.5535 1.5202,1.0262 3.9716,1.0262 2.2043,0 3.2495,-0.89313 1.0642,-0.89313 1.0642,-2.2233 z m 9.5584,7.2591 v -27.668 h 18.509 v 4.6177 h -12.789 v 6.594 h 10.927 v 4.4657 h -10.927 v 7.3921 h 12.846 v 4.5987 z m 44.41,-27.668 v 27.668 h -5.7008 l -11.098,-18.224 v 18.224 h -5.7198 v -27.668 h 5.7198 l 11.098,18.243 v -18.243 z m 19.345,20.409 q 0,-1.3872 -0.95014,-2.2994 -0.95014,-0.93113 -4.6177,-2.1093 -3.6485,-1.1972 -6.3089,-3.0785 -2.7934,-1.9573 -2.7934,-5.5678 0,-3.4775 2.8694,-5.6058 2.8694,-2.1283 7.3541,-2.1283 4.5987,0 7.3731,2.4134 2.7744,2.3944 2.7744,6.1189 h -5.7008 q 0,-1.7483 -1.1212,-2.8694 -1.1212,-1.1212 -3.4205,-1.1212 -2.2423,0 -3.3445,0.95014 -1.0832,0.93114 -1.0832,2.2613 0,1.3682 1.4062,2.2803 1.4062,0.91214 4.0856,1.7293 4.5417,1.3872 6.86,3.4775 2.3374,2.0903 2.3374,5.5108 0,3.6295 -2.7364,5.6628 -2.7364,2.0143 -7.2971,2.0143 -2.7554,0 -5.3208,-0.96915 -2.5654,-0.96914 -4.2186,-2.9834 -1.6532,-2.0143 -1.6532,-5.1498 h 5.7198 q 0,2.5274 1.5012,3.5535 1.5202,1.0262 3.9716,1.0262 2.2043,0 3.2495,-0.89313 1.0642,-0.89313 1.0642,-2.2233 z m 15.62,-20.409 v 27.668 h -5.7008 v -27.668 z m 27.82,0 v 27.668 h -5.7008 l -11.098,-18.224 v 18.224 h -5.7198 v -27.668 h 5.7198 l 11.098,18.243 v -18.243 z m 26.889,13.131 v 11.041 q -0.98815,1.1782 -3.5155,2.5274 -2.5084,1.3492 -7.069,1.3492 -5.3778,0 -8.7033,-3.4775 -3.3065,-3.4965 -3.3065,-9.9005 v -1.6532 q 0,-6.404 3.1735,-9.9005 3.1735,-3.5155 8.4373,-3.5155 5.3778,0 7.9432,2.5844 2.5654,2.5844 3.0214,6.613 h -5.5488 q -0.32305,-2.0903 -1.5012,-3.3445 -1.1782,-1.2542 -3.7626,-1.2542 -5.6058,0 -5.9479,7.7532 l -0.019,2.7174 q 0,4.3706 1.6152,6.575 1.6342,2.2043 4.9027,2.2043 2.0523,0 3.0784,-0.45607 1.0262,-0.47507 1.4822,-0.91213 v -4.7697 h -5.1688 v -4.1806 z"
       id="path22" /></g><g
     aria-label="AI AND DATA LITERACY"
     id="g24"
     transform="translate(5.265338,-33.347141)"><path
       d="m 299.78,686.5 10.3,-27.668 h 5.2828 l 10.357,27.668 h -6.0809 l -1.9003,-5.7008 h -10.014 l -1.9003,5.7008 z m 9.4824,-10.319 h 6.936 l -3.4585,-10.395 z m 25.103,-17.35 v 27.668 h -5.7008 v -27.668 z m 12.675,27.668 10.3,-27.668 h 5.2828 l 10.357,27.668 h -6.0809 l -1.9003,-5.7008 h -10.014 l -1.9003,5.7008 z m 9.4824,-10.319 h 6.936 l -3.4585,-10.395 z m 41.559,-17.35 v 27.668 h -5.7008 l -11.098,-18.224 v 18.224 h -5.7198 V 658.83 h 5.7198 l 11.098,18.243 V 658.83 Z m 4.9788,27.668 V 658.83 h 8.5323 q 5.5868,0 9.1024,3.6486 3.5345,3.6485 3.5345,9.5774 v 1.2352 q 0,5.9289 -3.5345,9.5774 -3.5155,3.6295 -9.1784,3.6295 z m 5.7198,-23.05 V 681.9 h 2.7364 q 3.3635,0 5.1118,-2.1853 1.7673,-2.1853 1.8053,-6.2519 v -1.4442 q 0,-4.2186 -1.6722,-6.366 -1.6532,-2.1473 -4.9978,-2.2043 z m 29.283,23.05 V 658.83 h 8.5323 q 5.5868,0 9.1024,3.6486 3.5345,3.6485 3.5345,9.5774 v 1.2352 q 0,5.9289 -3.5345,9.5774 -3.5155,3.6295 -9.1784,3.6295 z m 5.7198,-23.05 V 681.9 h 2.7364 q 3.3635,0 5.1118,-2.1853 1.7673,-2.1853 1.8053,-6.2519 v -1.4442 q 0,-4.2186 -1.6722,-6.366 -1.6532,-2.1473 -4.9978,-2.2043 z m 16.875,23.05 10.3,-27.668 h 5.2828 l 10.357,27.668 h -6.0809 l -1.9003,-5.7008 h -10.014 l -1.9003,5.7008 z m 9.4824,-10.319 h 6.936 l -3.4585,-10.395 z m 15.069,-12.732 v -4.6177 h 22.518 v 4.6177 h -8.4563 v 23.05 h -5.7008 v -23.05 z m 21.169,23.05 10.3,-27.668 h 5.2828 l 10.357,27.668 h -6.0809 l -1.9003,-5.7008 h -10.014 l -1.9003,5.7008 z m 9.4824,-10.319 h 6.936 l -3.4585,-10.395 z"
       id="path23" /><path
       d="m 347.28,730.79 v 4.5987 h -17.806 v -27.668 h 5.7198 v 23.069 z m 9.3304,-23.069 v 27.668 h -5.7008 v -27.668 z m 3.0595,4.6177 v -4.6177 h 22.518 v 4.6177 h -8.4563 v 23.05 h -5.7008 v -23.05 z m 25.768,23.05 v -27.668 h 18.509 v 4.6177 h -12.789 v 6.594 h 10.927 v 4.4657 h -10.927 v 7.3921 h 12.846 v 4.5987 z m 37.322,0 -5.1688,-10.148 h -4.5417 v 10.148 h -5.7199 v -27.668 h 10.3 q 4.7697,0 7.4871,2.1473 2.7364,2.1283 2.7364,6.2139 0,3.0024 -1.3302,4.8457 -1.3302,1.8433 -3.6105,2.8694 l 5.9859,11.326 v 0.26603 z m -9.7104,-23.05 v 8.3042 h 4.5797 q 2.2423,0 3.3635,-1.1212 1.1402,-1.1402 1.1402,-3.0024 0,-1.9193 -1.1022,-3.0404 -1.1022,-1.1402 -3.4015,-1.1402 z m 16.798,23.05 10.3,-27.668 h 5.2828 l 10.357,27.668 h -6.0809 l -1.9003,-5.7008 h -10.014 l -1.9003,5.7008 z m 9.4824,-10.319 h 6.936 l -3.4585,-10.395 z m 34.68,1.1022 h 5.7008 q -0.28504,4.2186 -3.1735,6.917 -2.8694,2.6794 -7.9622,2.6794 -5.3208,0 -8.3802,-3.5725 -3.0594,-3.5915 -3.0594,-9.7294 v -1.8053 q 0,-6.1379 3.1355,-9.7294 3.1355,-3.6105 8.3612,-3.6105 5.1878,0 7.9432,2.7744 2.7554,2.7554 3.1545,7.012 h -5.7008 q -0.19003,-2.4704 -1.3872,-3.7816 -1.1782,-1.3302 -4.0096,-1.3302 -5.5488,0 -5.7008,8.1902 v 2.2803 q 0,4.2946 1.2922,6.461 1.3112,2.1663 4.3516,2.1663 2.6984,0 3.9526,-1.2162 1.2732,-1.2352 1.4822,-3.7056 z m 13.264,-18.452 5.7388,12.466 5.7389,-12.466 h 6.2519 l -9.1024,17.635 v 10.033 h -5.7769 v -10.033 l -9.1024,-17.635 z"
       id="path24" /></g><g
     id="text1"
     style="font-size:40px;font-family:Roboto;-inkscape-font-specification:Roboto;opacity:0.985325;stroke-width:3.40157;stroke-linecap:round;stroke-linejoin:round"
     aria-label="COMPLEX SOCIO&#10;TECNICAL&#10;SYSTEMS"
     transform="matrix(0.94706354,0,0,0.94706354,17.994018,3.3423267)"><g
       id="text2"
       style="font-size:42.2358px;opacity:0.985325;stroke-width:3.5917"
       aria-label="COMPLEX SOCIO&#10;TECHNICAL&#10;SYSTEMS"><path
         style="stroke-width:3.59171"
         d="m 359.82388,73.470594 h 3.95961 q -0.45371,4.268951 -3.21718,7.114918 -2.76348,2.845967 -8.16669,2.845967 -5.23823,0 -8.45541,-3.732754 -3.19656,-3.753377 -3.25843,-9.960885 v -3.21718 q 0,-6.310623 3.23781,-10.125868 3.25842,-3.815246 8.82662,-3.815246 5.09387,0 7.83672,2.804721 2.74285,2.804721 3.19656,7.238655 h -3.95961 q -0.4537,-3.134688 -2.02105,-4.949508 -1.56734,-1.835442 -5.05262,-1.835442 -3.98023,0 -6.04253,2.928459 -2.06229,2.928459 -2.06229,7.712983 v 3.031574 q 0,4.433934 1.87669,7.568622 1.87669,3.114066 5.87754,3.114066 3.79462,0 5.34134,-1.773574 1.56735,-1.773573 2.08292,-4.949508 z m 32.48115,-4.516426 q 0,6.764328 -3.27905,10.620819 -3.27905,3.856492 -8.76476,3.856492 -5.34134,0 -8.7235,-3.856492 -3.38217,-3.856491 -3.38217,-10.620819 v -1.897311 q 0,-6.743705 3.36154,-10.600197 3.36154,-3.877114 8.70289,-3.877114 5.44446,0 8.72351,3.815246 3.29967,3.794622 3.36154,10.414589 z m -3.93899,-1.938557 q 0,-5.361967 -2.14478,-8.207934 -2.14479,-2.845967 -6.00128,-2.845967 -3.69151,0 -5.91879,2.845967 -2.20665,2.845967 -2.20665,8.207934 v 1.938557 q 0,5.403213 2.22727,8.269803 2.24791,2.845967 5.93941,2.845967 3.87712,0 5.98066,-2.845967 2.12416,-2.86659 2.12416,-8.269803 z m 24.83004,10.455836 9.81652,-24.479442 h 5.11449 V 83.01902 h -3.9596 V 71.305184 l 0.39183,-12.559376 -9.87839,24.273212 h -3.01095 l -9.85777,-24.314458 0.39183,12.600622 V 83.01902 h -3.9596 V 52.992005 h 5.11449 z M 439.0985,71.243316 V 83.01902 h -3.98023 V 52.992005 h 11.07453 q 5.11449,0 7.8161,2.577869 2.72223,2.577868 2.72223,6.578721 0,4.351442 -2.72223,6.723081 -2.70161,2.37164 -7.8161,2.37164 z m 0,-14.992885 v 11.755081 h 7.0943 q 3.5059,0 5.032,-1.629213 1.5261,-1.629213 1.5261,-4.186458 0,-2.309771 -1.5261,-4.12459 -1.5261,-1.81482 -5.032,-1.81482 z m 40.87469,23.530786 V 83.01902 H 461.76313 V 52.992005 h 3.98023 v 26.789212 z m 4.53705,3.237803 V 52.992005 h 18.87 v 3.258426 h -14.88977 v 9.651541 h 12.99246 v 3.237803 h -12.99246 v 10.641442 h 15.096 v 3.237803 z m 26.58298,-30.027015 7.21803,11.507606 7.21804,-11.507606 h 4.64016 l -9.48656,14.869147 9.71341,15.157868 h -4.68141 l -7.40364,-11.734458 -7.40363,11.734458 h -4.68141 l 9.71341,-15.157868 -9.48656,-14.869147 z m 50.38187,22.437769 q 0,-2.062295 -1.40236,-3.299672 -1.38174,-1.237377 -5.83629,-2.536622 -4.45456,-1.319869 -7.05305,-3.340918 -2.57787,-2.041672 -2.57787,-5.506328 0,-3.505901 2.7841,-5.836295 2.80472,-2.330393 7.42426,-2.330393 5.07325,0 7.8161,2.784098 2.76347,2.784098 2.76347,6.29 h -3.9596 q 0,-2.516 -1.62922,-4.165836 -1.62921,-1.649836 -4.99075,-1.649836 -3.17593,0 -4.70203,1.402361 -1.5261,1.381737 -1.5261,3.464655 0,1.876689 1.60859,3.134689 1.62921,1.237377 5.27947,2.268524 5.21761,1.464229 7.60987,3.629639 2.39226,2.144787 2.39226,5.650689 0,3.670885 -2.86659,5.856917 -2.86659,2.186033 -7.60986,2.186033 -2.76348,0 -5.38259,-1.031147 -2.5985,-1.031148 -4.28958,-3.052197 -1.67046,-2.041672 -1.67046,-5.032 h 3.95961 q 0,3.07282 2.2479,4.47518 2.2479,1.402361 5.13512,1.402361 3.11406,0 4.78452,-1.278623 1.69108,-1.299246 1.69108,-3.485279 z m 32.19242,-6.475606 q 0,6.764328 -3.27905,10.620819 -3.27905,3.856492 -8.76475,3.856492 -5.34135,0 -8.72351,-3.856492 -3.38217,-3.856491 -3.38217,-10.620819 v -1.897311 q 0,-6.743705 3.36155,-10.600197 3.36154,-3.877114 8.70288,-3.877114 5.44446,0 8.72351,3.815246 3.29967,3.794622 3.36154,10.414589 z m -3.93898,-1.938557 q 0,-5.361967 -2.14479,-8.207934 -2.14479,-2.845967 -6.00128,-2.845967 -3.69151,0 -5.91879,2.845967 -2.20665,2.845967 -2.20665,8.207934 v 1.938557 q 0,5.403213 2.22728,8.269803 2.2479,2.845967 5.93941,2.845967 3.87711,0 5.98065,-2.845967 2.12417,-2.86659 2.12417,-8.269803 z m 28.00596,6.454983 h 3.95961 q -0.4537,4.268951 -3.21718,7.114918 -2.76347,2.845967 -8.16669,2.845967 -5.23823,0 -8.45541,-3.732754 -3.19655,-3.753377 -3.25842,-9.960885 v -3.21718 q 0,-6.310623 3.2378,-10.125868 3.25843,-3.815246 8.82662,-3.815246 5.09387,0 7.83672,2.804721 2.74286,2.804721 3.19656,7.238655 h -3.95961 q -0.4537,-3.134688 -2.02104,-4.949508 -1.56735,-1.835442 -5.05263,-1.835442 -3.98023,0 -6.04252,2.928459 -2.0623,2.928459 -2.0623,7.712983 v 3.031574 q 0,4.433934 1.87669,7.568622 1.87669,3.114066 5.87754,3.114066 3.79463,0 5.34135,-1.773574 1.56734,-1.773573 2.08291,-4.949508 z M 631.36626,52.992005 V 83.01902 h -3.98023 V 52.992005 Z m 30.33638,15.962163 q 0,6.764328 -3.27905,10.620819 -3.27905,3.856492 -8.76476,3.856492 -5.34134,0 -8.72351,-3.856492 -3.38216,-3.856491 -3.38216,-10.620819 v -1.897311 q 0,-6.743705 3.36154,-10.600197 3.36154,-3.877114 8.70289,-3.877114 5.44446,0 8.7235,3.815246 3.29968,3.794622 3.36155,10.414589 z m -3.93899,-1.938557 q 0,-5.361967 -2.14479,-8.207934 -2.14478,-2.845967 -6.00127,-2.845967 -3.69151,0 -5.91879,2.845967 -2.20666,2.845967 -2.20666,8.207934 v 1.938557 q 0,5.403213 2.22728,8.269803 2.2479,2.845967 5.93941,2.845967 3.87712,0 5.98066,-2.845967 2.12416,-2.86659 2.12416,-8.269803 z"
         id="path3" /><path
         style="stroke-width:3.59171"
         d="m 339.24218,109.04518 v -3.25842 H 362.443 v 3.25842 h -9.65155 v 26.76859 h -3.91836 v -26.76859 z m 27.65537,26.76859 v -30.02701 h 18.87 v 3.25842 h -14.88977 v 9.65154 h 12.99246 v 3.23781 h -12.99246 v 10.64144 h 15.096 v 3.2378 z m 42.13269,-9.54842 h 3.95961 q -0.45371,4.26895 -3.21718,7.11491 -2.76348,2.84597 -8.16669,2.84597 -5.23823,0 -8.45541,-3.73275 -3.19656,-3.75338 -3.25843,-9.96089 v -3.21718 q 0,-6.31062 3.23781,-10.12587 3.25842,-3.81524 8.82662,-3.81524 5.09387,0 7.83672,2.80472 2.74285,2.80472 3.19656,7.23865 h -3.95961 q -0.4537,-3.13468 -2.02105,-4.9495 -1.56734,-1.83545 -5.05262,-1.83545 -3.98023,0 -6.04253,2.92846 -2.06229,2.92846 -2.06229,7.71299 v 3.03157 q 0,4.43393 1.87669,7.56862 1.87669,3.11407 5.87754,3.11407 3.79462,0 5.34134,-1.77358 1.56735,-1.77357 2.08292,-4.9495 z m 28.48029,9.54842 v -13.87924 h -15.13725 v 13.87924 h -3.98023 v -30.02701 h 3.98023 v 12.90996 h 15.13725 v -12.90996 h 3.95961 v 30.02701 z m 34.11036,-30.02701 v 30.02701 h -4.00085 L 452.50342,112.6542 v 23.15957 h -3.98023 v -30.02701 h 3.98023 l 15.17849,23.22144 v -23.22144 z m 11.30138,0 v 30.02701 h -3.98023 v -30.02701 z m 25.34561,20.47859 h 3.95961 q -0.45371,4.26895 -3.21718,7.11491 -2.76348,2.84597 -8.16669,2.84597 -5.23823,0 -8.45541,-3.73275 -3.19656,-3.75338 -3.25843,-9.96089 v -3.21718 q 0,-6.31062 3.23781,-10.12587 3.25842,-3.81524 8.82662,-3.81524 5.09387,0 7.83672,2.80472 2.74285,2.80472 3.19656,7.23865 h -3.95961 q -0.4537,-3.13468 -2.02105,-4.9495 -1.56734,-1.83545 -5.05262,-1.83545 -3.98023,0 -6.04253,2.92846 -2.06229,2.92846 -2.06229,7.71299 v 3.03157 q 0,4.43393 1.87669,7.56862 1.87669,3.11407 5.87754,3.11407 3.79462,0 5.34134,-1.77358 1.56735,-1.77357 2.08292,-4.9495 z m 6.4756,9.54842 11.44574,-30.02701 h 3.48528 l 11.48698,30.02701 h -4.08334 l -2.86659,-7.85734 h -12.55938 l -2.84597,7.85734 z M 522.8483,124.698 h 10.18774 l -5.09387,-14.00298 z m 40.54472,7.87797 v 3.2378 h -18.21006 v -30.02701 h 3.98023 v 26.78921 z"
         id="path4" /><path
         style="stroke-width:3.59171"
         d="m 357.69972,181.01928 q 0,-2.0623 -1.40236,-3.29967 -1.38174,-1.23738 -5.8363,-2.53663 -4.45456,-1.31986 -7.05305,-3.34091 -2.57787,-2.04168 -2.57787,-5.50633 0,-3.5059 2.7841,-5.8363 2.80472,-2.33039 7.42426,-2.33039 5.07325,0 7.8161,2.7841 2.76348,2.7841 2.76348,6.29 h -3.95961 q 0,-2.516 -1.62921,-4.16584 -1.62922,-1.64983 -4.99076,-1.64983 -3.17593,0 -4.70203,1.40236 -1.5261,1.38173 -1.5261,3.46465 0,1.87669 1.60859,3.13469 1.62922,1.23738 5.27948,2.26853 5.2176,1.46422 7.60987,3.62963 2.39226,2.14479 2.39226,5.65069 0,3.67089 -2.86659,5.85692 -2.86659,2.18603 -7.60987,2.18603 -2.76347,0 -5.38259,-1.03114 -2.59849,-1.03115 -4.28957,-3.0522 -1.67046,-2.04167 -1.67046,-5.032 h 3.9596 q 0,3.07282 2.24791,4.47518 2.2479,1.40236 5.13511,1.40236 3.11407,0 4.78452,-1.27862 1.69109,-1.29925 1.69109,-3.48528 z m 10.45583,-22.43777 7.79548,15.07538 7.8161,-15.07538 h 4.51642 l -10.35272,18.80813 v 11.21888 h -3.98023 v -11.21888 l -10.35272,-18.80813 z m 39.65794,22.43777 q 0,-2.0623 -1.40236,-3.29967 -1.38174,-1.23738 -5.8363,-2.53663 -4.45456,-1.31986 -7.05305,-3.34091 -2.57787,-2.04168 -2.57787,-5.50633 0,-3.5059 2.7841,-5.8363 2.80472,-2.33039 7.42426,-2.33039 5.07325,0 7.8161,2.7841 2.76348,2.7841 2.76348,6.29 h -3.95961 q 0,-2.516 -1.62921,-4.16584 -1.62922,-1.64983 -4.99076,-1.64983 -3.17593,0 -4.70203,1.40236 -1.5261,1.38173 -1.5261,3.46465 0,1.87669 1.60859,3.13469 1.62922,1.23738 5.27948,2.26853 5.2176,1.46422 7.60987,3.62963 2.39226,2.14479 2.39226,5.65069 0,3.67089 -2.86659,5.85692 -2.86659,2.18603 -7.60987,2.18603 -2.76348,0 -5.38259,-1.03114 -2.59849,-1.03115 -4.28957,-3.0522 -1.67046,-2.04167 -1.67046,-5.032 h 3.9596 q 0,3.07282 2.24791,4.47518 2.2479,1.40236 5.13511,1.40236 3.11407,0 4.78452,-1.27862 1.69109,-1.29925 1.69109,-3.48528 z m 6.61996,-19.17934 v -3.25843 h 23.20082 v 3.25843 h -9.65154 v 26.76858 h -3.91836 v -26.76858 z m 27.65537,26.76858 v -30.02701 h 18.87 v 3.25843 h -14.88977 v 9.65154 h 12.99246 v 3.2378 h -12.99246 v 10.64144 h 15.096 v 3.2378 z m 38.95676,-5.54757 9.81652,-24.47944 h 5.11449 v 30.02701 h -3.95961 v -11.71383 l 0.39184,-12.55938 -9.87839,24.27321 h -3.01095 l -9.85777,-24.31445 0.39183,12.60062 v 11.71383 h -3.9596 v -30.02701 h 5.11449 z m 37.92561,-2.04167 q 0,-2.0623 -1.40236,-3.29967 -1.38174,-1.23738 -5.8363,-2.53663 -4.45456,-1.31986 -7.05305,-3.34091 -2.57787,-2.04168 -2.57787,-5.50633 0,-3.5059 2.7841,-5.8363 2.80472,-2.33039 7.42426,-2.33039 5.07325,0 7.8161,2.7841 2.76348,2.7841 2.76348,6.29 h -3.95961 q 0,-2.516 -1.62921,-4.16584 -1.62922,-1.64983 -4.99076,-1.64983 -3.17593,0 -4.70203,1.40236 -1.5261,1.38173 -1.5261,3.46465 0,1.87669 1.60859,3.13469 1.62922,1.23738 5.27948,2.26853 5.2176,1.46422 7.60987,3.62963 2.39226,2.14479 2.39226,5.65069 0,3.67089 -2.86659,5.85692 -2.86659,2.18603 -7.60987,2.18603 -2.76348,0 -5.38259,-1.03114 -2.59849,-1.03115 -4.28957,-3.0522 -1.67046,-2.04167 -1.67046,-5.032 h 3.9596 q 0,3.07282 2.24791,4.47518 2.2479,1.40236 5.13511,1.40236 3.11407,0 4.78452,-1.27862 1.69109,-1.29925 1.69109,-3.48528 z"
         id="path5" /></g></g></g>
<path
   sodipodi:type="star"
   style="opacity:0.99;fill:none;stroke:#0056a6;stroke-width:0.999997;stroke-opacity:1"
   id="path7289"
   inkscape:flatsided="true"
   sodipodi:sides="5"
   sodipodi:cx="590.83527"
   sodipodi:cy="414.96899"
   sodipodi:r1="183.19762"
   sodipodi:r2="148.20998"
   sodipodi:arg1="0.93244087"
   sodipodi:arg2="1.5607594"
   inkscape:rounded="0"
   inkscape:randomized="0"
   d="m 699.99825,562.09075 -215.35087,2.16153 -68.60282,-204.14289 172.952,-128.32878 175.49302,124.83134 z"
   inkscape:transform-center-x="0.54958415"
   inkscape:transform-center-y="-15.869985"
   transform="matrix(0.96724514,0,0,0.93614166,-32.09672,68.599067)" /></svg>
