<?xml version="1.0" encoding="UTF-8" standalone="no"?>
<!-- Created with Inkscape (http://www.inkscape.org/) -->

<svg
   width="21.9604mm"
   height="19.111099mm"
   viewBox="0 0 21.9604 19.111099"
   version="1.1"
   id="svg1"
   inkscape:version="1.4.2 (ebf0e940d0, 2025-05-08)"
   sodipodi:docname="most.svg"
   xmlns:inkscape="http://www.inkscape.org/namespaces/inkscape"
   xmlns:sodipodi="http://sodipodi.sourceforge.net/DTD/sodipodi-0.dtd"
   xmlns="http://www.w3.org/2000/svg"
   xmlns:svg="http://www.w3.org/2000/svg">
  <sodipodi:namedview
     id="namedview1"
     pagecolor="#ffffff"
     bordercolor="#000000"
     borderopacity="0.25"
     inkscape:showpageshadow="2"
     inkscape:pageopacity="0.0"
     inkscape:pagecheckerboard="0"
     inkscape:deskcolor="#d1d1d1"
     inkscape:document-units="mm"
     inkscape:zoom="0.51402217"
     inkscape:cx="131.31729"
     inkscape:cy="162.44436"
     inkscape:window-width="1470"
     inkscape:window-height="787"
     inkscape:window-x="0"
     inkscape:window-y="0"
     inkscape:window-maximized="1"
     inkscape:current-layer="layer1" />
  <defs
     id="defs1" />
  <g
     inkscape:label="Layer 1"
     inkscape:groupmode="layer"
     id="layer1"
     transform="translate(-69.8499,-105.30417)">
    <path
       style="fill:#0053bb;fill-opacity:1;stroke:none;stroke-width:0.0644849;stroke-dasharray:none;stroke-opacity:1"
       d="m 73.6576,120.71107 c -0.3648,-1.5306 -2.9997,-4.0163 -3.047,-5.8231 1.3456,2.804 2.529,0.3846 3.8602,-0.7585 -1.1365,3.0228 -1.5056,4.0368 -0.8132,6.5816 z m 6.2086,2.9359 c 1.756,-0.049 1.9575,-1.7432 2.7261,-4.8192 0.3221,2.1059 -0.5367,5.3116 2.5051,4.7517 -0.7679,1.2856 -4.3842,0.3457 -5.2312,0.067 z"
       id="path35-8-0-2-7"
       sodipodi:nodetypes="cccccccc" />
    <path
       style="fill:#0053bb;fill-opacity:1;stroke:none;stroke-width:0.0110744"
       d="m 84.5757,113.36827 c 0.3003,0.2662 2.301,0.4869 2.7521,-2.0015 -0.1112,4.1818 -2.7561,2.994 -2.7521,2.0015 z"
       id="path39-9-5-9-5"
       sodipodi:nodetypes="ccc" />
    <path
       style="fill:#0053bb;fill-opacity:1;stroke:none;stroke-width:0.0110744"
       d="m 82.687,111.95177 c -0.7439,-1.2183 -5.0637,-1.9795 -6.3612,-0.3095 2.8553,-4.48 6.3001,-0.59 6.3612,0.3095 z"
       id="path39-6-0-6-8-3"
       sodipodi:nodetypes="ccc" />
    <path
       style="fill:none;stroke:#0053bb;stroke-width:0.644848;stroke-linecap:butt;stroke-linejoin:miter;stroke-dasharray:none;stroke-opacity:1"
       d="m 72.2781,118.29287 c 9.149,-19.5702 10.9564,-0.4675 14.576,-4.2449 0.8556,-0.8929 0.9507,-4.189 -0.3284,-4.3238 -1.9427,-0.2049 -4.0779,7.0586 -4.3749,14.0875"
       id="path31-4-3-2-9"
       sodipodi:nodetypes="cssc" />
    <path
       id="path30-2-6-0-0"
       style="baseline-shift:baseline;display:inline;overflow:visible;vector-effect:none;fill:#0053bb;stroke-width:0.0129445;enable-background:accumulate;stop-color:#000000"
       d="m 80.8287,105.30417 -5.4911,0.046 -2.7817,4.7348 -2.706,4.7784 2.7096,4.7763 2.4144,4.1026 0.4988,-0.8476 -2.1687,-3.6852 -2.4658,-4.3465 2.4625,-4.3485 2.5313,-4.3086 4.9971,-0.042 4.9876,0.02 0.4638,-0.8253 z m 5.8538,0.6345 -0.4985,0.8505 2.1767,3.7195 2.4637,4.3427 h 0.9859 l -2.7051,-4.7684 z m 4.771,9.5541 h -0.9349 l -2.1546,3.708 -2.5313,4.3087 -4.9971,0.042 -4.9971,-0.038 v 0 l -0.4895,0.8598 5.4891,0.042 5.4912,-0.046 2.7817,-4.7348 z" />
  </g>
</svg>
