<?xml version="1.0" encoding="UTF-8" standalone="no"?>
<!-- Created with Inkscape (http://www.inkscape.org/) -->

<svg
   version="1.1"
   id="svg840"
   xml:space="preserve"
   width="63.999996"
   height="64"
   viewBox="0 0 63.999996 64.000002"
   xmlns="http://www.w3.org/2000/svg"
   xmlns:svg="http://www.w3.org/2000/svg"><defs
     id="defs844"><clipPath
       clipPathUnits="userSpaceOnUse"
       id="clipPath862"><path
         d="M 0,851.89 H 605.276 V 0 H 0 Z"
         id="path860" /></clipPath></defs><g
     id="g846"
     transform="matrix(1.3333333,0,0,-1.3333333,-122.66707,838.46971)"><g
       id="g848"
       transform="matrix(0.12121215,0,0,0.12643304,119.62492,617.1664)"><path
         d="m 0,0 -0.024,38.607 -11.742,6.73 -10.905,6.296 0.041,-64.911 -0.041,-0.071 0.041,-0.023 v -0.175 h 0.303 l 56.084,-32.428 v 13.139 3.667 9.793 z"
         style="fill:#1c5db1;fill-opacity:1;fill-rule:nonzero;stroke:none"
         id="path850" /></g><g
       id="g852"
       transform="matrix(0.12121215,0,0,0.12643304,129.53875,617.1664)"><path
         d="m 0,0 0.024,38.607 11.743,6.73 10.905,6.296 -0.041,-64.911 0.041,-0.071 -0.041,-0.023 v -0.175 h -0.304 l -56.083,-32.428 v 13.139 3.667 9.793 z"
         style="fill:#1c5db1;fill-opacity:1;fill-rule:nonzero;stroke:none"
         id="path854" /></g><g
       id="g856"
       transform="matrix(0.12121215,0,0,0.12643304,80.848747,549.42993)"><g
         id="g858"
         clip-path="url(#clipPath862)"><g
           id="g864"
           transform="translate(380.5322,554.9894)"><path
             d="m 0,0 c 0,-10.881 -8.821,-19.703 -19.702,-19.703 -10.882,0 -19.703,8.822 -19.703,19.703 0,10.881 8.821,19.703 19.703,19.703 C -8.821,19.703 0,10.881 0,0"
             style="fill:#1c5db1;fill-opacity:1;fill-rule:nonzero;stroke:none"
             id="path866" /></g><g
           id="g868"
           transform="translate(178.5981,338.7902)"><path
             d="m 0,0 -0.024,-38.607 -11.742,-6.73 -10.905,-6.297 0.041,64.911 -0.041,0.072 0.041,0.023 v 0.175 l 0.303,10e-4 56.083,32.427 V 32.836 29.169 19.376 Z"
             style="fill:#1c5db1;fill-opacity:1;fill-rule:nonzero;stroke:none"
             id="path870" /></g><g
           id="g872"
           transform="translate(260.3877,338.7902)"><path
             d="m 0,0 0.024,-38.607 11.742,-6.73 10.905,-6.297 -0.041,64.911 0.041,0.072 -0.041,0.023 v 0.175 l -0.303,10e-4 -56.083,32.427 V 32.836 29.169 19.376 Z"
             style="fill:#1c5db1;fill-opacity:1;fill-rule:nonzero;stroke:none"
             id="path874" /></g><g
           id="g876"
           transform="translate(239.2275,319.55)"><path
             d="m 0,0 c 0,10.882 -8.821,19.703 -19.703,19.703 -10.881,0 -19.703,-8.821 -19.703,-19.703 0,-10.881 8.822,-19.702 19.703,-19.702 C -8.821,-19.702 0,-10.881 0,0"
             style="fill:#1c5db1;fill-opacity:1;fill-rule:nonzero;stroke:none"
             id="path878" /></g><g
           id="g880"
           transform="translate(219.1011,511.8942)"><path
             d="m 0,0 -33.447,19.283 -11.699,-6.804 -10.906,-6.296 56.236,-32.42 0.041,-0.071 0.041,0.024 0.151,-0.088 0.152,0.263 56.124,32.356 -11.378,6.569 -3.176,1.834 -8.48,4.896 z"
             style="fill:#1c5db1;fill-opacity:1;fill-rule:nonzero;stroke:none"
             id="path882" /></g><g
           id="g884"
           transform="translate(259.9961,582.7263)"><path
             d="m 0,0 -33.423,19.325 0.042,13.533 V 45.451 L 22.813,12.959 h 0.083 v -0.047 l 0.151,-0.087 -0.151,-0.263 0.041,-64.783 -11.379,6.569 -3.176,1.834 -8.48,4.896 z"
             style="fill:#1c5db1;fill-opacity:1;fill-rule:nonzero;stroke:none"
             id="path886" /></g><g
           id="g888"
           transform="translate(232.7534,574.0207)"><path
             d="m 0,0 c 9.424,-5.441 12.652,-17.491 7.211,-26.915 -5.44,-9.423 -17.49,-12.652 -26.914,-7.211 -9.423,5.44 -12.652,17.491 -7.212,26.915 C -21.474,2.212 -9.424,5.441 0,0"
             style="fill:#1c5db1;fill-opacity:1;fill-rule:nonzero;stroke:none"
             id="path890" /></g><g
           id="g892"
           transform="translate(431.9482,392.1652)"><path
             d="m 0,0 33.447,19.282 11.699,-6.803 10.906,-6.296 -56.236,-32.42 -0.041,-0.072 -0.041,0.024 -0.151,-0.087 -0.151,0.262 -56.125,32.356 11.379,6.569 3.175,1.834 8.481,4.896 z"
             style="fill:#1c5db1;fill-opacity:1;fill-rule:nonzero;stroke:none"
             id="path894" /></g><g
           id="g896"
           transform="translate(391.0537,462.9968)"><path
             d="M 0,0 33.423,19.325 33.38,32.858 V 45.451 L -22.813,12.959 h -0.083 v -0.047 l -0.152,-0.087 0.152,-0.263 -0.041,-64.783 11.378,6.569 3.176,1.833 8.481,4.897 z"
             style="fill:#1c5db1;fill-opacity:1;fill-rule:nonzero;stroke:none"
             id="path898" /></g><g
           id="g900"
           transform="translate(418.2959,454.2912)"><path
             d="m 0,0 c -9.424,-5.441 -12.652,-17.491 -7.212,-26.915 5.441,-9.423 17.491,-12.652 26.915,-7.211 9.424,5.44 12.652,17.491 7.212,26.914 C 21.474,2.212 9.424,5.441 0,0"
             style="fill:#1c5db1;fill-opacity:1;fill-rule:nonzero;stroke:none"
             id="path902" /></g><g
           id="g904"
           transform="translate(361.8867,364.8117)"><path
             d="m 0,0 33.448,-19.283 11.698,6.804 10.906,6.296 -56.235,32.42 -0.041,0.071 -0.041,-0.024 -0.152,0.088 -0.151,-0.263 -56.124,-32.356 11.378,-6.569 3.175,-1.833 8.481,-4.897 z"
             style="fill:#1c5db1;fill-opacity:1;fill-rule:nonzero;stroke:none"
             id="path906" /></g><g
           id="g908"
           transform="translate(320.9922,293.9797)"><path
             d="M 0,0 33.423,-19.325 33.381,-32.858 V -45.45 l -56.194,32.49 h -0.083 v 0.048 l -0.151,0.088 0.151,0.261 -0.041,64.785 11.378,-6.57 3.177,-1.834 8.481,-4.896 z"
             style="fill:#1c5db1;fill-opacity:1;fill-rule:nonzero;stroke:none"
             id="path910" /></g><g
           id="g912"
           transform="translate(348.2354,302.6857)"><path
             d="m 0,0 c -9.424,5.44 -12.653,17.49 -7.212,26.914 5.441,9.424 17.49,12.652 26.914,7.212 C 29.126,28.685 32.354,16.635 26.914,7.211 21.474,-2.213 9.423,-5.441 0,0"
             style="fill:#1c5db1;fill-opacity:1;fill-rule:nonzero;stroke:none"
             id="path914" /></g><g
           id="g916"
           transform="translate(189.3848,414.6408)"><path
             d="m 0,0 -33.291,-19.553 0.135,-13.532 0.086,-12.592 55.971,32.873 h 0.082 v 0.048 l 0.151,0.088 -0.153,0.262 L 22.58,52.376 11.247,45.729 8.083,43.874 -0.363,38.92 Z"
             style="fill:#1c5db1;fill-opacity:1;fill-rule:nonzero;stroke:none"
             id="path918" /></g><g
           id="g920"
           transform="translate(148.0083,485.1921)"><path
             d="m 0,0 -33.315,-19.51 -11.746,6.723 -10.947,6.222 56.012,32.803 0.041,0.071 0.041,-0.023 0.151,0.088 0.154,-0.261 56.343,-31.973 -11.333,-6.647 -3.163,-1.855 -8.447,-4.954 z"
             style="fill:#1c5db1;fill-opacity:1;fill-rule:nonzero;stroke:none"
             id="path922" /></g><g
           id="g924"
           transform="translate(142.1167,457.2057)"><path
             d="m 0,0 c 9.386,5.505 21.458,2.358 26.963,-7.028 5.505,-9.386 2.358,-21.458 -7.028,-26.963 -9.387,-5.505 -21.458,-2.358 -26.963,7.028 C -12.533,-17.576 -9.386,-5.504 0,0"
             style="fill:#1c5db1;fill-opacity:1;fill-rule:nonzero;stroke:none"
             id="path926" /></g></g></g></g></svg>
