<?xml version="1.0" encoding="UTF-8" standalone="no"?>
<svg
   xmlns:dc="http://purl.org/dc/elements/1.1/"
   xmlns:cc="http://creativecommons.org/ns#"
   xmlns:rdf="http://www.w3.org/1999/02/22-rdf-syntax-ns#"
   xmlns:svg="http://www.w3.org/2000/svg"
   xmlns="http://www.w3.org/2000/svg"
   xmlns:sodipodi="http://sodipodi.sourceforge.net/DTD/sodipodi-0.dtd"
   xmlns:inkscape="http://www.inkscape.org/namespaces/inkscape"
   version="1.0"
   width="48pt"
   height="48pt"
   viewBox="0 0 48 48"
   preserveAspectRatio="xMidYMid meet"
   id="svg897"
   sodipodi:docname="comune.svg"
   inkscape:version="1.0.1 (3bc2e813f5, 2020-09-07)">
  <metadata
     id="metadata903">
    <rdf:RDF>
      <cc:Work
         rdf:about="">
        <dc:format>image/svg+xml</dc:format>
        <dc:type
           rdf:resource="http://purl.org/dc/dcmitype/StillImage" />
        <dc:title></dc:title>
      </cc:Work>
    </rdf:RDF>
  </metadata>
  <defs
     id="defs901" />
  <sodipodi:namedview
     pagecolor="#ffffff"
     bordercolor="#666666"
     borderopacity="1"
     objecttolerance="10"
     gridtolerance="10"
     guidetolerance="10"
     inkscape:pageopacity="0"
     inkscape:pageshadow="2"
     inkscape:window-width="1600"
     inkscape:window-height="801"
     id="namedview899"
     showgrid="false"
     fit-margin-top="0"
     fit-margin-left="0"
     fit-margin-right="0"
     fit-margin-bottom="0"
     inkscape:zoom="3.69375"
     inkscape:cx="59.226333"
     inkscape:cy="51.577689"
     inkscape:window-x="0"
     inkscape:window-y="28"
     inkscape:window-maximized="1"
     inkscape:current-layer="svg897" />
  <g
     transform="matrix(0.05438333,0,0,-0.0616307,-0.04355575,48.493048)"
     fill="#000000"
     stroke="none"
     id="g895"
     style="fill:#0068b4;fill-opacity:1">
    <path
       d="m 373,783 c -18,-7 -16,-48 2,-63 21,-17 19,-44 -5,-65 -12,-10 -18,-25 -15,-33 6,-17 -41,-72 -61,-72 -19,0 -28,95 -14,131 11,26 11,33 -4,47 -13,13 -20,14 -34,6 -25,-16 -27,-45 -4,-63 23,-18 41,-114 23,-125 -19,-12 -100,31 -111,59 -12,31 -46,32 -64,2 -9,-15 -7,-22 12,-37 27,-23 57,-119 42,-134 -14,-14 -12,-44 3,-53 15,-8 31,-83 18,-83 -14,0 -103,98 -97,108 11,18 -6,42 -30,42 -14,0 -27,-7 -31,-16 -9,-23 11,-49 35,-47 13,2 35,-15 66,-51 25,-30 46,-59 46,-65 0,-19 -41,-33 -81,-26 -32,5 -40,3 -46,-10 -16,-43 43,-69 62,-28 11,26 41,35 83,27 24,-5 32,-2 41,14 9,17 7,26 -14,48 -28,30 -34,81 -10,90 20,8 73,-32 77,-59 2,-17 10,-22 33,-22 24,0 31,5 33,25 5,36 17,47 58,53 41,7 94,-15 94,-38 0,-8 8,-19 19,-24 25,-14 56,9 49,37 -4,14 3,29 23,48 27,25 43,22 18,-3 -6,-6 -8,-20 -4,-32 5,-16 15,-21 38,-21 32,0 89,-30 88,-46 -1,-5 -18,-9 -39,-9 -30,0 -38,-4 -40,-21 -4,-25 22,-49 43,-40 8,3 19,16 25,30 5,13 15,26 22,28 22,8 67,-25 70,-52 2,-20 8,-25 33,-25 23,0 31,5 33,22 3,23 -30,49 -49,38 -5,-4 -21,1 -36,10 l -25,17 28,19 c 19,13 39,18 56,15 37,-7 62,18 47,46 -9,16 -17,19 -44,14 -27,-5 -39,-2 -55,14 -11,11 -20,24 -20,29 0,5 -10,13 -22,17 -29,9 -46,33 -41,55 6,23 40,34 58,19 8,-6 24,-9 35,-5 16,5 20,14 18,33 -4,37 -35,40 -65,8 -27,-30 -36,-32 -52,-12 -14,17 -4,65 15,73 16,6 25,29 18,48 -10,24 -53,18 -63,-8 -11,-28 -61,-52 -90,-42 -26,8 -28,54 -5,90 13,21 14,28 4,41 -19,22 -54,14 -58,-13 -2,-13 -13,-30 -25,-38 -19,-13 -23,-13 -43,6 -13,12 -20,27 -17,35 10,28 -22,50 -54,37 z m 62,-83 c 18,-20 18,-21 -1,-34 -25,-18 -34,-12 -34,25 0,34 10,37 35,9 z m 103,-33 c 4,-44 -6,-46 -39,-11 -24,25 -24,26 -4,40 28,21 40,13 43,-29 z m -46,-24 c 15,-16 27,-39 29,-53 3,-29 -30,-100 -46,-100 -18,0 -60,92 -56,125 2,25 24,54 42,55 3,0 17,-12 31,-27 z m 183,-13 c 10,-16 -5,-68 -21,-74 -21,-8 -64,15 -64,34 0,9 15,24 33,33 39,19 44,20 52,7 z M 426,538 c 14,-27 22,-53 19,-58 -7,-11 -116,26 -127,43 -10,16 50,77 69,70 8,-3 25,-28 39,-55 z m -221,10 c 25,-12 45,-29 45,-37 0,-20 -65,-65 -83,-58 -14,5 -39,96 -31,109 8,12 20,10 69,-14 z m 402,7 c 29,-20 33,-48 12,-76 -17,-23 -18,-23 -25,-4 -4,11 -13,34 -20,52 -17,44 -5,55 33,28 z m -35,-53 20,-52 -28,-33 c -15,-17 -35,-32 -44,-33 -10,-1 -22,-4 -28,-8 -12,-7 -82,23 -82,35 0,17 34,27 51,16 25,-16 52,9 46,42 -5,27 22,93 36,88 5,-1 18,-26 29,-55 z M 371,484 c 69,-20 72,-23 58,-40 -8,-10 -16,-11 -29,-4 -10,6 -26,7 -34,4 -15,-6 -17,-10 -20,-40 -2,-17 -27,-44 -36,-39 -14,9 -22,106 -9,121 14,17 5,17 70,-2 z m -88,-53 c 11,-69 0,-81 -46,-52 -49,30 -53,55 -14,86 18,14 37,23 42,22 6,-2 14,-27 18,-56 z m 414,40 c 27,-44 -16,-85 -63,-60 -28,15 -31,35 -7,61 21,23 55,23 70,-1 z m 22,-80 c 9,-6 22,-6 34,0 13,8 25,6 43,-6 29,-19 25,-29 -25,-55 l -38,-19 -39,26 c -21,14 -41,28 -44,30 -6,6 31,33 44,33 6,0 18,-4 25,-9 z"
       id="path887"
       style="fill:#0068b4;fill-opacity:1" />
    <path
       d="m 342,239 c -57,-15 -109,-30 -114,-31 -6,-2 41,-18 105,-35 l 116,-31 107,29 c 59,15 109,30 111,33 3,3 -15,10 -38,16 -24,6 -69,18 -99,26 -30,8 -62,17 -70,19 -8,1 -62,-10 -118,-26 z"
       id="path889"
       style="fill:#0068b4;fill-opacity:1" />
    <path
       d="m 265,153 c -47,-11 -30,-22 74,-48 l 111,-27 111,27 c 61,15 107,31 102,36 -18,18 -98,21 -156,6 -50,-13 -64,-13 -110,-1 -52,14 -94,16 -132,7 z"
       id="path891"
       style="fill:#0068b4;fill-opacity:1" />
    <path
       d="M 273,87 C 249,82 230,74 230,71 230,68 279,52 339,37 L 448,8 559,37 c 61,15 111,30 111,34 0,3 -22,11 -49,17 -40,9 -59,8 -106,-5 -55,-16 -98,-13 -188,11 -7,2 -31,-1 -54,-7 z"
       id="path893"
       style="fill:#0068b4;fill-opacity:1" />
  </g>
</svg>
