<?xml version="1.0" encoding="UTF-8" standalone="no"?>
<svg
   width="64pt"
   height="64pt"
   version="1.1"
   viewBox="0 0 64 64"
   id="svg898"
   xmlns="http://www.w3.org/2000/svg"
   xmlns:svg="http://www.w3.org/2000/svg">
  <defs
     id="defs902" />
  <g
     fill="#004388"
     id="g896"
     transform="matrix(0.65895416,0,0,0.65894941,-0.99871092,-0.9990991)">
    <path
       d="m 88.484,40 h -4.3945 c -4.5469,-8.6367 -14.242,-13.184 -23.938,-11.062 6.9688,1.668 12.574,6.668 15.152,12.727 2.5742,1.8164 4.2422,4.8477 4.2422,8.1836 0,3.332 -1.668,6.2109 -4.0898,8.1836 -0.30469,0.91016 -0.91016,1.9688 -1.2109,2.5742 0.60547,3.0312 0.45312,6.2109 0,8.9375 4.3945,-1.9688 7.8789,-5.4531 10.152,-9.6953 h 4.2422 c 5.4531,0 10,-4.3945 10,-9.6953 v -0.15234 -0.30469 c -0.15625,-5.4531 -4.7031,-9.6953 -10.156,-9.6953 z"
       id="path880" />
    <path
       d="m 76.516,49.848 c 0,3.9336 -3.1875,7.1211 -7.1211,7.1211 -3.9336,0 -7.1211,-3.1875 -7.1211,-7.1211 0,-3.9336 3.1875,-7.1211 7.1211,-7.1211 3.9336,0 7.1211,3.1875 7.1211,7.1211"
       id="path882" />
    <path
       d="m 1.5156,50.305 c 0,5.4531 4.5469,9.6953 10,9.6953 h 4.2422 c 4.6953,8.9375 14.695,13.184 23.938,11.062 -7.1211,-1.668 -12.574,-6.668 -15.152,-12.727 -2.5742,-1.8164 -4.2422,-4.8477 -4.2422,-8.1836 0,-3.332 1.668,-6.2109 4.0898,-8.1836 0.30469,-0.91016 0.91016,-2.1211 1.2109,-2.5742 -0.60547,-3.0312 -0.45312,-6.2109 0,-8.9375 -4.3945,1.9688 -7.8789,5.4531 -10.152,9.6953 h -3.9336 c -5.4531,0 -10,4.3945 -10,9.6953 v 0.15234 0.30469 z"
       id="path884" />
    <path
       d="m 37.727,50.152 c 0,3.9336 -3.1875,7.1211 -7.1211,7.1211 -3.9336,0 -7.1211,-3.1875 -7.1211,-7.1211 0,-3.9336 3.1875,-7.1211 7.1211,-7.1211 3.9336,0 7.1211,3.1875 7.1211,7.1211"
       id="path886" />
    <path
       d="m 50.152,79.547 c -3.332,0 -6.3633,-1.668 -8.1836,-4.0898 -0.91016,-0.30469 -1.9688,-0.91016 -2.5742,-1.2109 -3.0312,0.60547 -6.0625,0.60547 -8.9375,0 1.9688,4.3945 5.4531,7.8789 9.6953,10.152 v 4.2422 c 0,5.4531 4.3945,10 9.6953,10 h 0.15234 0.30469 c 5.4531,0 9.6953,-4.5469 9.6953,-10 V 84.246 c 8.4844,-4.5469 13.184,-14.242 11.062,-23.938 -1.668,6.9688 -6.5156,12.574 -12.727,15.152 -1.8203,2.418 -4.8516,4.0859 -8.1836,4.0859 z"
       id="path888" />
    <path
       d="m 57.273,69.395 c 0,3.9336 -3.1875,7.1211 -7.1211,7.1211 -3.9336,0 -7.1211,-3.1875 -7.1211,-7.1211 0,-3.9336 3.1875,-7.1211 7.1211,-7.1211 3.9336,0 7.1211,3.1875 7.1211,7.1211"
       id="path890" />
    <path
       d="M 69.547,25.758 C 67.5782,21.3635 64.0939,17.8791 59.8517,15.606 l -0.0039,-4.0898 c 0,-5.4531 -4.3945,-10 -9.6953,-10 h -0.15234 -0.30469 c -5.4531,0 -9.6953,4.5469 -9.6953,10 v 4.3945 c -8.6367,4.5469 -13.184,14.242 -11.062,23.938 1.668,-6.9688 6.5156,-12.574 12.727,-15.152 1.8164,-2.5742 4.8477,-4.2422 8.1836,-4.2422 3.332,0 6.3633,1.668 8.1836,4.0898 1.0625,0.45312 2.1211,1.0625 2.5742,1.2109 2.8789,-0.44922 6.0625,-0.60156 8.9414,0.0039 z"
       id="path892" />
    <path
       d="m 56.969,30.605 c 0,3.9336 -3.1875,7.1211 -7.1211,7.1211 -3.9336,0 -7.1211,-3.1875 -7.1211,-7.1211 0,-3.9336 3.1875,-7.1211 7.1211,-7.1211 3.9336,0 7.1211,3.1875 7.1211,7.1211"
       id="path894" />
  </g>
</svg>
