<?xml version="1.0" encoding="UTF-8" standalone="no"?>
<svg
   xmlns:dc="http://purl.org/dc/elements/1.1/"
   xmlns:cc="http://creativecommons.org/ns#"
   xmlns:rdf="http://www.w3.org/1999/02/22-rdf-syntax-ns#"
   xmlns:svg="http://www.w3.org/2000/svg"
   xmlns="http://www.w3.org/2000/svg"
   xmlns:sodipodi="http://sodipodi.sourceforge.net/DTD/sodipodi-0.dtd"
   xmlns:inkscape="http://www.inkscape.org/namespaces/inkscape"
   version="1.0"
   width="48.058342"
   height="79.507904"
   viewBox="0 0 36.043755 59.630928"
   preserveAspectRatio="xMidYMid meet"
   id="svg146"
   sodipodi:docname="modis.svg"
   inkscape:version="1.0.2 (e86c870879, 2021-01-15)">
  <metadata
     id="metadata152">
    <rdf:RDF>
      <cc:Work
         rdf:about="">
        <dc:format>image/svg+xml</dc:format>
        <dc:type
           rdf:resource="http://purl.org/dc/dcmitype/StillImage" />
        <dc:title></dc:title>
      </cc:Work>
    </rdf:RDF>
  </metadata>
  <defs
     id="defs150" />
  <sodipodi:namedview
     pagecolor="#ffffff"
     bordercolor="#666666"
     borderopacity="1"
     objecttolerance="10"
     gridtolerance="10"
     guidetolerance="10"
     inkscape:pageopacity="0"
     inkscape:pageshadow="2"
     inkscape:window-width="1920"
     inkscape:window-height="995"
     id="namedview148"
     showgrid="false"
     fit-margin-top="0"
     fit-margin-left="0"
     fit-margin-right="0"
     fit-margin-bottom="0"
     units="px"
     inkscape:zoom="5.397974"
     inkscape:cx="83.394426"
     inkscape:cy="65.392927"
     inkscape:window-x="0"
     inkscape:window-y="24"
     inkscape:window-maximized="1"
     inkscape:current-layer="svg146" />
  <path
     style="fill:#2d67b2;fill-opacity:1;stroke:#7f7ffe;stroke-width:0.102838"
     d="m 19.764745,28.606653 c 0,-0.581478 0.03891,-0.871667 0.116859,-0.871667 0.06427,0 0.549196,-0.204062 1.077606,-0.453471 3.818997,-1.802564 6.571719,-5.312378 7.475235,-9.531182 0.295368,-1.379165 0.320661,-3.796753 0.0537,-5.133003 C 27.530698,7.8248938 24.213338,3.9495888 19.732644,2.3892461 18.167964,1.8443671 16.918888,1.6367672 15.180196,1.6326173 13.414355,1.6284024 12.190436,1.8370565 10.546158,2.4226284 6.2845107,3.9403169 2.9809874,7.6435155 1.9852658,12.019258 c -0.9315407,4.093692 0.046597,8.325395 2.6716444,11.558294 1.2911343,1.590107 2.7412306,2.718527 4.7239056,3.676002 l 1.1032012,0.532759 0.0043,0.806687 0.0043,0.806688 -0.283314,-0.07005 C 9.7277788,29.210586 8.4097578,28.612184 7.6313518,28.159208 3.3336063,25.658225 0.45833112,21.129674 0.09588272,16.290864 -0.48144008,8.5834063 4.6121919,1.9186213 12.349515,0.25754626 c 1.368361,-0.2937644 4.430377,-0.26697599 5.857565,0.0512456 6.012052,1.34051304 10.511689,5.84179984 11.821403,11.82573714 0.269965,1.233442 0.274076,4.601941 0.0071,5.835592 -0.671524,3.103258 -1.990652,5.534916 -4.185421,7.715328 -1.639469,1.628744 -3.427335,2.795548 -5.441543,3.551279 l -0.643897,0.24159 v -0.871665 z"
     id="path979" />
  <path
     style="fill:#2d67b2;fill-opacity:1;stroke:#7f7ffe;stroke-width:0.102838"
     d="M 9.4416178,24.713174 C 4.9705212,21.986692 2.9403151,16.878481 4.3717198,11.956783 5.4396065,8.2849946 8.3128108,5.458909 12.193079,4.2636881 c 0.88413,-0.2723344 1.021183,-0.2853206 2.987117,-0.2830406 1.930091,0.00224 2.116349,0.019503 2.943533,0.2728455 2.043457,0.625851 3.658698,1.5915676 5.049113,3.0187522 1.022382,1.0494173 1.60982,1.8787871 2.161343,3.0514708 1.722907,3.663354 1.37247,7.741145 -0.962276,11.197317 -0.575787,0.852348 -1.927623,2.175236 -2.855763,2.79461 -0.714536,0.47683 -1.56422,0.955679 -1.695785,0.955679 -0.03059,0 -0.05361,-0.381099 -0.05115,-0.846886 l 0.0044,-0.846884 0.617705,-0.400232 c 1.450175,-0.939618 2.701852,-2.355805 3.456844,-3.911183 0.717212,-1.477545 0.893273,-2.288334 0.902779,-4.157435 0.0068,-1.349388 -0.02758,-1.723679 -0.226722,-2.463666 C 23.631119,9.3261148 20.888571,6.6125128 17.583591,5.7776015 16.586107,5.5256148 14.866868,5.4240268 13.850761,5.5570329 10.684369,5.9715062 7.7729678,8.1218442 6.4159713,11.048312 5.8313829,12.309024 5.635537,13.16208 5.5759402,14.707289 c -0.041496,1.075901 -0.013749,1.592503 0.1212993,2.258361 0.2241401,1.105124 0.8130547,2.530656 1.4233413,3.445353 0.546644,0.819309 1.94076,2.19739 2.794025,2.761886 l 0.5780202,0.382403 v 0.858015 c 0,0.471907 -0.03477,0.855432 -0.07727,0.852274 -0.0425,-0.0031 -0.4806792,-0.251739 -0.9737382,-0.552407 z"
     id="path981" />
  <path
     style="fill:#2d67b2;fill-opacity:1;stroke:#7f7ffe;stroke-width:0.102838"
     d="m 9.7976778,20.399458 c -1.651195,-1.796529 -2.263359,-3.390133 -2.164385,-5.634398 0.08607,-1.951508 0.712239,-3.42282 2.065103,-4.8523175 3.0759872,-3.2502277 8.0949082,-3.1651485 11.1451912,0.1889305 0.755054,0.830255 1.539441,2.390912 1.768433,3.518564 0.335721,1.653236 0.02921,3.585851 -0.805909,5.08131 -0.399646,0.715658 -1.322604,1.86503 -1.729404,2.153656 l -0.311962,0.221337 v -1.064901 c 0,-0.989568 0.01905,-1.089911 0.269228,-1.418464 0.698452,-0.917245 1.06713,-2.114027 1.068855,-3.469656 0.0023,-1.803074 -0.5521,-3.130173 -1.801724,-4.312921 -1.243948,-1.1773754 -2.456647,-1.6557544 -4.197367,-1.6557544 -2.572661,0 -4.852076,1.6603024 -5.6426132,4.1100234 -0.552245,1.711304 -0.202828,3.926255 0.8413892,5.333551 0.171284,0.230841 0.193601,0.414572 0.168055,1.383647 l -0.02946,1.11746 z"
     id="path983" />
  <path
     style="fill:#2d67b2;fill-opacity:1;stroke:#7f7ffe;stroke-width:0.088063"
     d="m 15.893171,58.266041 v -1.320852 l -2.14285,-3.414828 C 12.571756,51.65221 11.449914,49.890537 11.257341,49.615532 11.064769,49.340529 9.1979448,47.361054 7.1088428,45.216702 1.9210636,39.891721 2.2381934,40.273031 2.2512772,39.376053 c 0.023078,-1.582102 2.0779882,-2.630042 3.8608016,-1.968892 0.6529062,0.242128 0.86875,0.436985 3.805146,3.435168 1.1954222,1.220577 2.2138032,2.230935 2.2630672,2.24524 0.05389,0.01564 0.09992,-4.848175 0.115549,-12.205763 l 0.02597,-12.231773 0.228513,-0.356663 c 1.122059,-1.751315 3.868193,-1.739295 5.030068,0.02202 l 0.220752,0.334644 0.04893,8.005077 0.04893,8.005079 0.206533,0.02388 c 0.286092,0.03309 0.328753,-0.239308 0.332687,-2.124224 0.0037,-1.764078 0.06209,-1.953356 0.782894,-2.537237 1.389382,-1.125451 3.623171,-0.790913 4.461948,0.668231 0.216686,0.376949 0.232364,0.501666 0.24491,1.948264 0.0073,0.850045 0.04082,1.9375 0.07435,2.416567 0.05201,0.743324 0.08604,0.874906 0.232165,0.897466 0.158048,0.02439 0.17123,-0.08569 0.17123,-1.430091 0,-1.407367 0.0085,-1.470397 0.252821,-1.867497 0.893211,-1.451941 3.180824,-1.72438 4.524594,-0.538845 0.58326,0.514576 0.701862,0.786445 0.702216,1.609655 1.95e-4,0.382831 0.02911,1.311297 0.06433,2.063261 0.05859,1.251304 0.07914,1.367203 0.242449,1.367203 0.232889,0 0.266793,-0.150101 0.304346,-1.34739 0.03372,-1.074973 0.102306,-1.256157 0.675818,-1.785269 0.507763,-0.468453 1.080384,-0.691461 1.882548,-0.733161 0.909036,-0.04726 1.528951,0.1548 2.165091,0.705694 0.834622,0.722777 0.78074,0.267979 0.77818,6.568228 l -0.0024,5.587704 -0.907302,5.389559 c -0.706898,4.199125 -0.920486,5.682789 -0.966994,6.717132 l -0.05969,1.327576 h -9.084285 -9.084332 z m 0,-38.13941 c 0.923037,-0.542566 0.910894,-1.609946 -0.02357,-2.071463 -0.384169,-0.189736 -1.135059,-0.209646 -1.538176,-0.04079 -0.851636,0.356738 -1.039418,1.297292 -0.380394,1.905296 0.164258,0.151541 0.437276,0.309615 0.606707,0.351275 0.40978,0.100759 1.033085,0.03341 1.33543,-0.144323 z"
     id="path1041" />
</svg>
