<?xml version="1.0" encoding="UTF-8" standalone="no"?>
<svg
   xmlns:dc="http://purl.org/dc/elements/1.1/"
   xmlns:cc="http://creativecommons.org/ns#"
   xmlns:rdf="http://www.w3.org/1999/02/22-rdf-syntax-ns#"
   xmlns:svg="http://www.w3.org/2000/svg"
   xmlns="http://www.w3.org/2000/svg"
   xmlns:sodipodi="http://sodipodi.sourceforge.net/DTD/sodipodi-0.dtd"
   xmlns:inkscape="http://www.inkscape.org/namespaces/inkscape"
   version="1.0"
   width="64"
   height="115"
   viewBox="0 0 47.999998 86.25"
   preserveAspectRatio="xMidYMid meet"
   id="svg146"
   sodipodi:docname="modis.svg"
   inkscape:version="1.0.2 (e86c870879, 2021-01-15)">
  <metadata
     id="metadata152">
    <rdf:RDF>
      <cc:Work
         rdf:about="">
        <dc:format>image/svg+xml</dc:format>
        <dc:type
           rdf:resource="http://purl.org/dc/dcmitype/StillImage" />
        <dc:title></dc:title>
      </cc:Work>
    </rdf:RDF>
  </metadata>
  <defs
     id="defs150" />
  <sodipodi:namedview
     pagecolor="#ffffff"
     bordercolor="#666666"
     borderopacity="1"
     objecttolerance="10"
     gridtolerance="10"
     guidetolerance="10"
     inkscape:pageopacity="0"
     inkscape:pageshadow="2"
     inkscape:window-width="1920"
     inkscape:window-height="995"
     id="namedview148"
     showgrid="false"
     fit-margin-top="0"
     fit-margin-left="0"
     fit-margin-right="0"
     fit-margin-bottom="0"
     units="px"
     inkscape:zoom="0.477118"
     inkscape:cx="691.60431"
     inkscape:cy="336.2907"
     inkscape:window-x="0"
     inkscape:window-y="24"
     inkscape:window-maximized="1"
     inkscape:current-layer="svg146" />
  <g
     transform="matrix(0.00655392,0,0,-0.00653033,-0.02745629,86.315333)"
     fill="#000000"
     stroke="none"
     id="g144">
    <path
       d="m 2660,13213 c -593,-41 -1114,-282 -1525,-705 -426,-437 -655,-999 -655,-1611 0,-356 76,-691 229,-1004 81,-165 127,-241 237,-388 267,-359 642,-637 1062,-789 40,-14 77,-26 83,-26 5,0 9,57 9,134 v 134 l -57,22 c -100,40 -284,137 -378,199 -424,281 -736,716 -859,1196 -43,169 -57,273 -63,460 -15,491 124,921 428,1322 409,538 1104,848 1779,793 482,-39 918,-232 1263,-559 845,-803 860,-2130 32,-2956 -192,-192 -442,-357 -682,-450 l -73,-28 v -138 -139 l 98,35 c 53,20 160,66 237,104 606,299 1053,851 1220,1505 51,204 69,343 69,566 1,279 -30,476 -115,735 -243,739 -862,1321 -1613,1515 -241,63 -502,89 -726,73 z"
       id="path136" />
    <path
       d="m 2537,12605 c -991,-161 -1640,-1108 -1426,-2080 47,-212 151,-448 277,-625 86,-122 291,-327 409,-410 83,-58 276,-169 296,-170 4,0 7,64 7,143 l -1,142 -102,65 c -134,85 -327,275 -416,409 -111,167 -187,355 -227,556 -26,128 -26,385 0,520 118,628 612,1103 1244,1195 108,16 390,7 492,-15 278,-61 517,-187 719,-380 270,-258 427,-591 450,-955 28,-441 -123,-840 -438,-1151 -86,-84 -294,-239 -322,-239 -5,0 -9,-61 -9,-146 v -145 l 23,6 c 12,4 65,31 117,60 323,182 560,431 720,760 381,782 119,1724 -612,2199 -174,113 -388,202 -596,247 -128,28 -472,36 -605,14 z"
       id="path138" />
    <path
       d="m 2690,12060 c -670,-62 -1152,-686 -1045,-1350 42,-253 149,-458 344,-650 l 106,-105 3,180 c 2,172 2,181 -20,210 -117,158 -174,314 -185,505 -23,432 261,817 684,926 89,23 112,25 248,21 164,-5 252,-25 380,-89 125,-63 265,-185 344,-301 212,-312 204,-750 -19,-1045 l -40,-52 v -176 -175 l 33,22 c 62,44 184,177 240,261 310,466 261,1055 -121,1460 -178,188 -461,331 -699,352 -136,13 -170,13 -253,6 z"
       id="path140" />
    <path
       d="m 2653,11460 c -215,-56 -375,-209 -449,-430 -18,-53 -19,-169 -24,-3314 l -5,-3259 -559,707 c -585,742 -607,766 -731,826 -100,47 -176,62 -295,58 -129,-5 -222,-35 -323,-105 -119,-80 -213,-219 -248,-363 -34,-138 -8,-317 63,-442 27,-48 215,-292 549,-712 62,-78 1035,-1315 1196,-1520 112,-143 109,-138 844,-1591 l 293,-580 4,-362 4,-363 h 1984 1984 v 334 c 0,183 4,356 10,384 5,27 93,684 195,1459 102,774 190,1438 195,1475 6,42 10,601 10,1480 0,1564 3,1482 -66,1626 -46,96 -167,221 -261,270 -178,94 -399,93 -576,0 -130,-69 -252,-215 -299,-358 -19,-59 -22,-92 -26,-347 -4,-310 0,-291 -62,-274 l -25,7 -5,539 c -5,536 -6,540 -29,604 -34,90 -113,204 -185,263 -330,275 -811,147 -974,-260 l -27,-67 -3,-382 -3,-382 -32,6 c -18,3 -33,7 -35,8 -2,2 -5,281 -6,622 -2,551 -5,625 -20,683 -53,196 -211,364 -406,430 -89,31 -232,37 -324,16 -198,-47 -376,-205 -447,-399 -23,-61 -24,-69 -27,-544 -3,-539 4,-492 -71,-477 l -31,6 -2,2127 -3,2126 -21,55 c -53,138 -122,236 -216,307 -159,120 -338,159 -515,113 z m 279,-272 c 67,-31 119,-81 155,-151 24,-45 28,-64 28,-137 0,-73 -4,-93 -28,-142 -99,-202 -364,-245 -521,-83 -59,60 -86,133 -86,228 0,233 238,383 452,285 z"
       id="path142" />
  </g>
  <path
     style="fill:#2d67b2;fill-opacity:1;stroke:#7f7ffe;stroke-width:0.102838"
     d="M 19.489747,83.826011 19.449127,81.439334 16.1829,75.047201 C 14.38647,71.53152 12.760712,68.413443 12.570099,68.118138 12.379487,67.822833 9.7102438,64.398313 6.6384464,60.508101 3.5666496,56.617885 0.9150667,53.234703 0.7460399,52.989914 -0.61384019,51.020516 0.10786723,48.397877 2.3310433,47.230123 c 0.4915123,-0.258174 0.6332026,-0.282104 1.67033,-0.282104 1.0758005,0 1.1653799,0.01673 1.7667732,0.329877 0.7974952,0.415263 1.0556827,0.709589 5.1873185,5.913394 l 3.245242,4.087395 0.02834,-2.906975 c 0.01559,-1.598835 0.06194,-11.244939 0.103023,-21.435787 l 0.07468,-18.528817 0.277741,-0.590524 c 0.807,-1.715827 2.737037,-2.71787 4.413609,-2.291473 1.307356,0.332497 2.189096,1.059029 2.809818,2.31522 l 0.328624,0.665055 0.05151,13.962958 0.05151,13.962958 h 0.309072 0.30907 l 0.06094,-3.188798 c 0.06037,-3.158822 0.06347,-3.194302 0.329988,-3.77436 0.331146,-0.720717 1.18673,-1.593804 1.929236,-1.968706 1.888666,-0.953614 4.25146,-0.114768 5.262104,1.868166 l 0.350548,0.687797 0.05861,4.265804 c 0.03224,2.346192 0.06701,4.271967 0.07727,4.2795 0.01026,0.0075 0.134559,0.03577 0.276216,0.06275 l 0.25756,0.04906 v -2.511744 -2.511745 l 0.302396,-0.630591 c 0.568198,-1.184874 1.434199,-1.935832 2.626053,-2.277197 1.700262,-0.486981 3.550009,0.330269 4.516091,1.995286 l 0.33374,0.575193 0.09291,3.712174 0.09291,3.712172 0.250038,0.04763 c 0.13752,0.02619 0.26568,-0.0044 0.284799,-0.068 0.01912,-0.06359 0.06096,-0.943023 0.09298,-1.954286 0.05592,-1.765956 0.07034,-1.864483 0.364948,-2.491775 1.186096,-2.525505 4.276143,-3.132339 6.265652,-1.230469 0.380745,0.363975 0.760343,0.850958 0.927211,1.189514 l 0.282537,0.573238 V 52.90188 62.961846 l -1.265198,9.341397 c -1.194368,8.81849 -1.268816,9.469257 -1.329954,11.625422 l -0.06476,2.284021 H 32.431454 19.530374 Z M 18.949658,17.181543 c 0.908407,-0.268797 1.483975,-1.079607 1.483975,-2.090495 0,-2.181492 -3.02316,-2.871244 -4.027946,-0.918999 -0.271022,0.526582 -0.26097,1.422362 0.02251,2.005843 0.30346,0.624608 1.060341,1.093026 1.849,1.144309 0.08888,0.0058 0.391485,-0.05752 0.672464,-0.140658 z"
     id="path154" />
  <path
     style="fill:#2d67b2;fill-opacity:1;stroke:#7f7ffe;stroke-width:0.102838"
     d="m 22.906199,28.674953 c 0,-0.581478 0.03891,-0.871667 0.116859,-0.871667 0.06427,0 0.549196,-0.204062 1.077606,-0.453471 3.818997,-1.802564 6.571719,-5.312378 7.475235,-9.531182 0.295368,-1.379165 0.320661,-3.796753 0.0537,-5.133003 C 30.672152,7.8931941 27.354792,4.0178891 22.874098,2.4575464 21.309418,1.9126674 20.060342,1.7050675 18.32165,1.7009176 16.555809,1.6967027 15.33189,1.9053568 13.687612,2.4909287 9.4259649,4.0086172 6.1224416,7.7118158 5.12672,12.087558 c -0.9315407,4.093692 0.046597,8.325395 2.6716444,11.558294 1.2911343,1.590107 2.7412306,2.718527 4.7239056,3.676002 l 1.103201,0.532759 0.0043,0.806687 0.0043,0.806688 -0.283314,-0.07005 C 12.869233,29.278886 11.551212,28.680484 10.772806,28.227508 6.4750605,25.726525 3.5997853,21.197974 3.2373369,16.359164 2.6600141,8.6517066 7.7536461,1.9869216 15.490969,0.32584653 16.85933,0.03208213 19.921346,0.05887054 21.348534,0.37709213 27.360586,1.7176052 31.860223,6.218892 33.169937,12.202829 c 0.269965,1.233442 0.274076,4.601941 0.0071,5.835592 -0.671524,3.103258 -1.990652,5.534916 -4.185421,7.715328 -1.639469,1.628744 -3.427335,2.795548 -5.441543,3.551279 l -0.643897,0.24159 v -0.871665 z"
     id="path979" />
  <path
     style="fill:#2d67b2;fill-opacity:1;stroke:#7f7ffe;stroke-width:0.102838"
     d="M 12.583072,24.781474 C 8.1119754,22.054992 6.0817693,16.946781 7.513174,12.025083 8.5810607,8.3532949 11.454265,5.5272093 15.334533,4.3319884 16.218663,4.059654 16.355716,4.0466678 18.32165,4.0489478 c 1.930091,0.00224 2.116349,0.019503 2.943533,0.2728455 2.043457,0.625851 3.658698,1.5915676 5.049113,3.0187522 1.022382,1.0494173 1.60982,1.8787871 2.161343,3.0514705 1.722907,3.663354 1.37247,7.741145 -0.962276,11.197317 -0.575787,0.852348 -1.927623,2.175236 -2.855763,2.79461 -0.714536,0.47683 -1.56422,0.955679 -1.695785,0.955679 -0.03059,0 -0.05361,-0.381099 -0.05115,-0.846886 l 0.0044,-0.846884 0.617705,-0.400232 c 1.450175,-0.939618 2.701852,-2.355805 3.456844,-3.911183 0.717212,-1.477545 0.893273,-2.288334 0.902779,-4.157435 0.0068,-1.349388 -0.02758,-1.723679 -0.226722,-2.463666 C 26.772573,9.3944151 24.030025,6.6808131 20.725045,5.8459018 19.727561,5.5939151 18.008322,5.4923271 16.992215,5.6253332 13.825823,6.0398065 10.914422,8.1901445 9.5574255,11.116612 8.9728371,12.377324 8.7769912,13.23038 8.7173944,14.775589 c -0.041496,1.075901 -0.013749,1.592503 0.1212993,2.258361 0.2241401,1.105124 0.8130547,2.530656 1.4233413,3.445353 0.546644,0.819309 1.94076,2.19739 2.794025,2.761886 l 0.57802,0.382403 v 0.858015 c 0,0.471907 -0.03477,0.855432 -0.07727,0.852274 -0.0425,-0.0031 -0.480679,-0.251739 -0.973738,-0.552407 z"
     id="path981" />
  <path
     style="fill:#2d67b2;fill-opacity:1;stroke:#7f7ffe;stroke-width:0.102838"
     d="m 12.939132,20.467758 c -1.651195,-1.796529 -2.263359,-3.390133 -2.164385,-5.634398 0.08607,-1.951508 0.712239,-3.42282 2.065103,-4.8523172 3.075987,-3.2502277 8.094908,-3.1651485 11.145191,0.1889302 0.755054,0.830255 1.539441,2.390912 1.768433,3.518564 0.335721,1.653236 0.02921,3.585851 -0.805909,5.08131 -0.399646,0.715658 -1.322604,1.86503 -1.729404,2.153656 l -0.311962,0.221337 v -1.064901 c 0,-0.989568 0.01905,-1.089911 0.269228,-1.418464 0.698452,-0.917245 1.06713,-2.114027 1.068855,-3.469656 0.0023,-1.803074 -0.5521,-3.130173 -1.801724,-4.312921 -1.243948,-1.1773751 -2.456647,-1.6557541 -4.197367,-1.6557541 -2.572661,0 -4.852076,1.6603021 -5.642613,4.1100231 -0.552245,1.711304 -0.202828,3.926255 0.841389,5.333551 0.171284,0.230841 0.193601,0.414572 0.168055,1.383647 l -0.02946,1.11746 z"
     id="path983" />
  <path
     style="fill:#2d67b2;fill-opacity:1;stroke:#7f7ffe;stroke-width:0.102838"
     d="m 19.593234,83.752195 -0.03825,-2.335349 -2.151277,-4.208759 C 13.817325,70.191678 12.708037,68.10946 12.210774,67.460561 11.76563,66.879667 2.3438285,54.857371 1.2558841,53.48203 0.08045096,51.996088 -0.13542102,50.659924 0.56132673,49.182994 0.8836077,48.499838 1.5842323,47.776669 2.2837013,47.405199 c 0.5780968,-0.307014 0.6759853,-0.325686 1.7074598,-0.325686 0.9119883,0 1.1755115,0.03771 1.5824445,0.226431 0.8574637,0.397665 1.1765706,0.768891 7.5469064,8.779532 l 1.080195,1.358336 0.06665,-0.383136 c 0.03666,-0.210721 0.10074,-9.875943 0.142412,-21.478267 l 0.07577,-21.095135 0.3035,-0.603239 c 0.405402,-0.805774 1.077674,-1.501182 1.859826,-1.923825 0.603596,-0.326158 0.701906,-0.347039 1.621282,-0.344356 0.839396,0.0024 1.06286,0.04175 1.569741,0.276043 0.768255,0.355112 1.480506,1.079504 1.959648,1.99305 l 0.384009,0.73216 0.01396,13.433917 c 0.0077,7.388653 0.03568,13.676433 0.06221,13.972843 0.04776,0.533603 0.05166,0.538927 0.394213,0.538927 0.448263,0 0.440374,0.05725 0.488736,-3.546642 0.03823,-2.849322 0.04145,-2.885532 0.308349,-3.466404 0.347378,-0.756041 1.232779,-1.63985 2.003153,-1.999553 0.508149,-0.237264 0.728942,-0.277473 1.523644,-0.277473 0.83982,0 0.994742,0.03206 1.607682,0.332726 0.806916,0.395814 1.495795,1.090073 1.923291,1.938312 l 0.30402,0.603238 0.04769,4.234668 c 0.02623,2.329067 0.0669,4.252258 0.09038,4.27376 0.02348,0.0215 0.193357,0.07126 0.377511,0.110566 l 0.334827,0.07147 V 42.26006 39.682659 l 0.318914,-0.629492 c 0.818995,-1.616579 2.572964,-2.569108 4.134219,-2.245174 1.159771,0.240631 2.133739,0.957349 2.816688,2.072727 0.343668,0.561269 0.353924,0.609122 0.353924,1.651456 0,0.590389 0.03051,2.25488 0.0678,3.698867 l 0.0678,2.625432 0.247086,0.04706 c 0.454996,0.08667 0.507306,-0.09709 0.58296,-2.04783 0.06699,-1.727372 0.08782,-1.866879 0.368064,-2.465336 0.387302,-0.827081 0.984046,-1.460431 1.782536,-1.891885 0.610038,-0.329626 0.698612,-0.348037 1.674348,-0.348037 0.974822,0 1.064722,0.01864 1.671373,0.346457 0.759387,0.410357 1.55142,1.210071 1.923982,1.94264 l 0.268029,0.527027 v 9.810043 9.810044 l -0.97362,7.208055 c -1.567658,11.606038 -1.702003,12.807565 -1.704095,15.240648 l -9.04e-4,1.052183 H 32.4469 19.631484 Z M 19.37384,17.088979 c 0.342586,-0.175667 0.585168,-0.403177 0.801315,-0.751527 0.269,-0.43353 0.30999,-0.596667 0.30999,-1.233708 0,-0.627545 -0.04079,-0.795537 -0.281008,-1.157219 -0.811898,-1.222445 -2.678799,-1.341398 -3.616969,-0.23046 -0.638581,0.756177 -0.634508,2.125549 0.0086,2.887071 0.670162,0.793575 1.794482,0.990201 2.778087,0.485843 z"
     id="path985" />
</svg>
