<?xml version="1.0" encoding="UTF-8" standalone="no"?>
<svg
   version="1.0"
   width="63.999977pt"
   height="63.999989pt"
   viewBox="0 0 63.999977 63.999989"
   preserveAspectRatio="xMidYMid"
   id="svg64"
   sodipodi:docname="most.svg"
   inkscape:version="1.2.2 (b0a8486541, 2022-12-01)"
   inkscape:export-filename="most.png"
   inkscape:export-xdpi="72.000023"
   inkscape:export-ydpi="72.000023"
   xmlns:inkscape="http://www.inkscape.org/namespaces/inkscape"
   xmlns:sodipodi="http://sodipodi.sourceforge.net/DTD/sodipodi-0.dtd"
   xmlns="http://www.w3.org/2000/svg"
   xmlns:svg="http://www.w3.org/2000/svg">
  <defs
     id="defs68" />
  <sodipodi:namedview
     id="namedview66"
     pagecolor="#ffffff"
     bordercolor="#000000"
     borderopacity="0.25"
     inkscape:showpageshadow="2"
     inkscape:pageopacity="0.0"
     inkscape:pagecheckerboard="0"
     inkscape:deskcolor="#d1d1d1"
     inkscape:document-units="pt"
     showgrid="false"
     inkscape:zoom="3.7633136"
     inkscape:cx="11.160377"
     inkscape:cy="72.409591"
     inkscape:window-width="1534"
     inkscape:window-height="823"
     inkscape:window-x="66"
     inkscape:window-y="40"
     inkscape:window-maximized="1"
     inkscape:current-layer="g62" />
  <g
     transform="matrix(0.01353723,0,0,-0.01348444,-1.7598399,66.857324)"
     fill="#000000"
     stroke="none"
     id="g62">
    <path
       d="M 2300,4950 C 1654,4912 1037,4587 637,4075 471,3862 314,3560 241,3314 192,3148 130,2803 130,2694 v -34 h 123 124 l 6,93 c 8,109 28,234 62,372 81,338 278,704 504,939 346,360 820,587 1327,637 145,14 450,6 584,-16 255,-42 543,-149 758,-283 91,-56 251,-177 321,-242 24,-22 46,-40 50,-40 16,0 173,169 166,179 -15,26 -218,188 -326,261 -267,181 -538,293 -862,355 -202,39 -380,46 -495,21 -15,-3 -25,0 -29,9 -3,8 -8,14 -12,13 -3,0 -62,-4 -131,-8 z"
       id="path2"
       style="fill:#1c5db1;fill-opacity:1" />
    <path
       d="m 2370,4568 c -57,-29 -83,-76 -75,-133 8,-51 41,-101 81,-120 l 32,-15 7,-393 c 7,-352 6,-397 -9,-425 -36,-69 -1,-188 60,-205 26,-8 35,-5 60,17 16,14 53,48 82,74 l 53,47 9,90 c 5,50 10,158 10,240 0,83 3,160 6,173 4,12 20,30 36,38 56,29 85,112 57,167 -21,41 -63,77 -101,88 -51,13 -119,-15 -142,-60 -32,-60 -9,-165 41,-192 25,-14 26,-15 19,-103 -3,-49 -6,-158 -6,-243 0,-104 -3,-153 -11,-153 -6,0 -25,15 -41,33 l -31,32 -5,391 -5,392 22,12 c 27,14 60,83 61,123 0,49 -35,103 -83,126 -55,27 -72,26 -127,-1 z m 124,-92 c 38,-51 -11,-109 -78,-92 -36,9 -61,62 -42,91 32,49 84,50 120,1 z m 200,-352 c 36,-36 28,-96 -15,-109 -55,-18 -99,27 -79,80 6,16 17,33 23,37 20,13 55,9 71,-8 z m -164,-698 c 36,-44 -25,-95 -74,-62 -25,16 -35,54 -19,69 12,13 80,7 93,-7 z"
       id="path4"
       style="fill:#1c5db1;fill-opacity:1" />
    <path
       d="m 2762,4533 c -41,-20 -62,-59 -62,-115 0,-122 131,-179 217,-93 28,28 33,40 33,83 0,110 -93,172 -188,125 z m 96,-69 c 29,-20 31,-79 3,-94 -63,-33 -122,39 -74,92 20,22 42,23 71,2 z"
       id="path6"
       style="fill:#1c5db1;fill-opacity:1" />
    <path
       d="m 1954,4521 c -39,-24 -68,-92 -59,-138 9,-50 58,-100 105,-108 52,-9 123,22 144,64 64,122 -73,253 -190,182 z m 114,-67 c 26,-18 30,-65 6,-88 -22,-22 -70,-20 -94,4 -26,26 -25,46 5,75 28,29 51,31 83,9 z"
       id="path8"
       style="fill:#1c5db1;fill-opacity:1" />
    <path
       d="m 1582,4391 c -96,-45 -109,-188 -23,-252 l 31,-23 v -538 c 0,-431 3,-538 13,-538 13,0 346,-330 388,-383 12,-16 57,-53 100,-83 110,-78 129,-102 130,-172 0,-31 0,-449 -1,-928 l -1,-871 42,-7 c 23,-4 44,-4 48,-1 3,4 7,434 9,957 l 3,950 -54,52 c -324,311 -480,460 -522,496 -27,24 -53,52 -56,64 -3,12 -6,242 -7,511 l -1,490 31,20 c 51,33 72,69 72,125 0,109 -104,176 -202,131 z m 93,-67 c 22,-9 46,-59 38,-81 -12,-34 -36,-53 -68,-53 -53,0 -85,52 -60,100 19,37 50,49 90,34 z"
       id="path10"
       style="fill:#1c5db1;fill-opacity:1" />
    <path
       d="m 3293,4370 c -25,-10 -53,-58 -53,-90 0,-29 27,-77 49,-90 74,-39 172,34 157,116 -12,61 -85,91 -153,64 z m 87,-55 c 15,-19 4,-52 -21,-60 -22,-7 -49,10 -49,31 0,7 7,20 16,28 19,20 38,20 54,1 z"
       id="path12"
       style="fill:#1c5db1;fill-opacity:1" />
    <path
       d="m 1959,4189 c -60,-64 -46,-192 26,-219 l 22,-8 5,-340 5,-339 44,-41 44,-41 9,36 c 6,24 5,42 -3,55 -8,12 -11,116 -11,339 v 321 l 29,34 c 61,68 59,148 -5,203 -29,26 -43,31 -85,31 -44,0 -55,-4 -80,-31 z m 126,-54 c 32,-31 32,-58 -1,-84 -33,-26 -58,-27 -84,-1 -26,26 -25,58 2,87 28,30 53,29 83,-2 z"
       id="path14"
       style="fill:#1c5db1;fill-opacity:1" />
    <path
       d="m 4160,4111 -85,-89 43,-48 c 121,-136 289,-438 365,-655 67,-194 111,-394 123,-563 l 7,-96 h 118 c 65,0 120,3 123,8 10,16 -17,254 -45,395 -16,82 -50,210 -75,285 -30.7472,92.2417 -81.0487,208.6545 -137.317,321.7809 C 4544.9796,3773.7296 4488.2381,3874.9034 4437,3952 c -79,118 -175,246 -187,247 -3,1 -43,-39 -90,-88 z"
       id="path16"
       sodipodi:nodetypes="ccccccsccssccc"
       style="fill:#1c5db1;fill-opacity:1" />
    <path
       d="m 1180,4139 c -96,-40 -120,-174 -44,-246 l 34,-32 v -245 -244 l -36,-23 c -71,-44 -94,-122 -53,-188 11,-18 33,-38 49,-44 37,-14 40,-30 40,-259 0,-211 1,-217 70,-283 36,-35 110,-141 110,-159 0,-3 -18,-3 -40,0 -28,5 -40,3 -40,-5 0,-7 55,-69 123,-139 197,-202 218,-228 227,-269 5,-21 6,-303 3,-628 l -6,-590 48,-18 c 26,-9 50,-16 51,-14 2,2 4,299 4,661 l 1,659 -33,36 c -108,115 -183,218 -237,323 -31,62 -87,153 -124,202 l -67,88 v 199 c 0,123 4,199 10,199 14,0 50,75 50,105 0,35 -26,94 -45,101 -13,5 -15,41 -15,268 v 261 l 34,19 c 68,37 95,130 57,204 -28,55 -113,85 -171,61 z m 100,-91 c 28,-31 23,-75 -12,-101 -24,-18 -30,-18 -58,-7 -52,21 -66,74 -30,110 27,27 74,26 100,-2 z m -52,-774 c 25,-17 31,-71 10,-92 -33,-33 -98,0 -98,49 0,27 30,59 55,59 6,0 21,-7 33,-16 z"
       id="path18"
       style="fill:#1c5db1;fill-opacity:1" />
    <path
       d="m 3054,4060 c -139,-28 -228,-132 -226,-267 1,-96 50,-176 135,-220 44,-23 65,-28 132,-28 66,0 87,4 122,24 158,90 183,307 51,427 -64,57 -136,79 -214,64 z"
       id="path20"
       style="fill:#1c5db1;fill-opacity:1" />
    <path
       d="m 3693,4034 c -52,-19 -128,-85 -152,-133 -84,-163 27,-359 214,-378 183,-19 330,167 271,344 -18,54 -86,128 -145,158 -47,24 -136,28 -188,9 z"
       id="path22"
       style="fill:#1c5db1;fill-opacity:1" />
    <path
       d="m 1750,3862 c -39,-39 -46,-60 -41,-121 4,-42 30,-81 66,-98 l 35,-17 v -207 c 0,-113 3,-219 6,-235 4,-20 20,-38 48,-56 22,-14 92,-73 154,-130 62,-57 160,-143 217,-193 105,-90 195,-186 195,-208 1,-22 -1,-1229 -1,-1512 -1,-154 -1,-331 0,-392 l 1,-113 h 45 45 v 991 c 0,545 3,995 6,1000 9,15 18,11 57,-25 l 37,-34 V 1551 590 h 44 44 l 6,113 c 4,61 5,276 2,477 -2,201 -5,588 -5,861 l -1,496 -56,38 c -56,39 -154,132 -249,236 -27,31 -61,62 -75,71 l -25,15 -3,335 -3,335 26,17 c 41,27 65,75 65,129 0,125 -159,172 -239,71 -16,-20 -21,-41 -21,-82 0,-50 3,-57 41,-96 l 42,-41 -6,-205 c -4,-123 -2,-242 5,-298 6,-51 8,-96 4,-99 -9,-9 -45,19 -156,123 -58,55 -116,106 -129,115 -24,15 -24,15 -25,223 -1,184 1,208 16,217 9,5 26,25 38,45 33,53 25,134 -18,177 -26,26 -40,31 -91,35 -60,4 -62,4 -101,-36 z m 138,-48 c 27,-18 30,-69 5,-96 -36,-40 -115,-8 -115,47 0,54 63,82 110,49 z m 414,-61 c 37,-33 9,-113 -40,-113 -33,0 -62,29 -62,62 0,59 60,89 102,51 z"
       id="path24"
       style="fill:#1c5db1;fill-opacity:1" />
    <path
       d="m 1373,3781 c -51,-24 -73,-63 -73,-131 0,-60 20,-100 62,-125 l 30,-17 -3,-320 -4,-320 76,-72 c 42,-39 157,-153 255,-254 190,-195 198,-209 109,-198 -41,5 -57,19 -178,154 -41,45 -57,52 -57,24 0,-9 48,-65 106,-122 58,-58 112,-118 120,-133 13,-23 15,-118 14,-635 -1,-334 -1,-680 -1,-769 l 1,-161 28,-10 c 15,-5 35,-13 45,-17 16,-7 17,34 17,846 -1,683 2,854 12,861 18,11 46,10 69,-2 19,-10 19,-31 19,-874 V 642 l 42,-10 c 23,-6 45,-9 47,-6 8,8 14,1750 6,1809 -6,50 -7,51 -36,47 -22,-3 -35,-14 -48,-40 l -18,-35 -64,58 c -84,76 -245,242 -369,381 l -100,112 v 276 276 l 25,16 c 86,57 85,203 -2,247 -50,26 -85,28 -130,8 z m 97,-71 c 25,-13 42,-67 30,-91 -11,-19 -53,-35 -80,-30 -47,9 -66,76 -33,113 18,20 54,23 83,8 z"
       id="path26"
       style="fill:#1c5db1;fill-opacity:1" />
    <path
       d="m 871,3763 c -96,-48 -95,-214 2,-261 l 27,-13 v -567 -568 l 241,-244 c 133,-135 248,-255 257,-268 13,-20 15,-85 13,-477 l -2,-454 46,-27 c 25,-14 48,-25 50,-22 2,2 5,233 6,513 l 2,510 -261,264 -262,263 v 534 535 l 35,21 c 42,24 63,61 71,120 14,111 -118,193 -225,141 z m 123,-74 c 52,-41 19,-129 -50,-129 -61,0 -90,92 -42,133 27,23 59,22 92,-4 z"
       id="path28"
       style="fill:#1c5db1;fill-opacity:1" />
    <path
       d="m 3038,3441 c -72,-7 -101,-15 -172,-49 -201,-96 -277,-231 -300,-533 -5,-62 -3,-67 18,-77 12,-5 63,-56 112,-111 49,-56 91,-101 94,-101 3,0 21,25 39,56 53,86 116,142 182,162 l 57,17 7,65 c 11,110 34,191 80,285 44,91 84,140 164,206 l 44,36 -64,21 c -79,26 -148,32 -261,23 z m -219,-652 c 1,-93 -11,-159 -30,-159 -13,0 -11,187 3,256 11,54 13,56 19,29 4,-16 7,-73 8,-126 z"
       id="path30"
       style="fill:#1c5db1;fill-opacity:1" />
    <path
       d="m 3685,3419 c -129,-21 -279,-99 -348,-180 -75,-87 -134,-243 -151,-396 l -7,-63 h 32 c 78,0 172,-71 232,-175 l 43,-74 57,64 c 78,87 145,120 247,120 125,0 212,-56 312,-198 l 48,-67 42,7 c 24,5 76,8 117,8 h 73 l -4,225 c -5,203 -7,233 -30,307 -30,99 -73,173 -155,262 -123,135 -308,194 -508,160 z m -191,-634 7,-130 -20,24 c -22,24 -26,56 -22,166 6,151 27,115 35,-60 z m 573,-87 c -2,-18 -4,-6 -4,27 0,33 2,48 4,33 2,-15 2,-42 0,-60 z"
       id="path32"
       style="fill:#1c5db1;fill-opacity:1" />
    <path
       d="m 632,3343 c -87,-43 -96,-208 -13,-253 21,-11 21,-17 21,-485 v -474 l 78,-68 c 42,-38 112,-95 155,-127 43,-32 131,-111 197,-175 98,-96 119,-122 124,-154 9,-49 -2,-66 -23,-38 -10,12 -35,26 -56,31 -98,22 -175,-42 -175,-145 0,-86 47,-135 130,-135 47,0 77,13 102,44 17,20 18,14 18,-141 v -161 l 46,-27 c 25,-15 47,-25 50,-22 2,2 4,150 5,328 l 1,324 -174,170 c -95,94 -219,208 -276,254 l -102,83 v 443 443 l 34,22 c 40,24 76,91 76,141 0,102 -121,170 -218,122 z m 112,-74 c 19,-15 26,-30 26,-54 0,-36 -37,-75 -70,-75 -23,0 -70,55 -70,81 0,25 43,69 68,69 11,0 31,-9 46,-21 z m 374,-1755 c 45,-31 18,-114 -36,-114 -31,0 -72,36 -72,62 0,24 44,68 67,68 10,0 29,-7 41,-16 z"
       id="path34"
       style="fill:#1c5db1;fill-opacity:1" />
    <path
       d="m 3033,2671 c -25,-12 -55,-37 -73,-63 -30,-40 -32,-48 -28,-113 3,-56 9,-78 32,-112 34,-50 88,-89 138,-98 98,-18 205,74 224,192 7,46 -23,127 -60,162 -53,49 -161,64 -233,32 z"
       id="path36"
       style="fill:#1c5db1;fill-opacity:1" />
    <path
       d="m 3684,2568 c -72,-50 -89,-78 -88,-151 1,-170 167,-279 296,-194 21,14 45,46 67,89 40,80 37,122 -12,196 -63,94 -174,119 -263,60 z"
       id="path38"
       style="fill:#1c5db1;fill-opacity:1" />
    <path
       d="m 130,2513 c 0,-56 32,-301 51,-398 58,-285 224,-672 383,-890 60,-83 146,-189 156,-193 4,-1 46,37 93,85 l 86,88 -34,35 c -61,64 -186,262 -265,425 -122,250 -201,533 -217,788 l -6,87 H 254 130 Z"
       id="path40"
       style="fill:#1c5db1;fill-opacity:1" />
    <path
       d="m 4610,2498 c 0,-74 -38,-302 -71,-430 C 4426,1632 4170,1218 3855,960 3589,742 3291,592 2980,517 c -179,-43 -296,-57 -485,-57 -192,0 -311,14 -475,55 -178,44 -282,83 -448,165 -203,102 -314,179 -545,382 l -48,42 -85,-86 -85,-87 72,-68 c 380,-359 853,-577 1384,-639 227,-26 488,-10 750,47 241,51 549,183 770,329 508,335 875,872 1013,1481 32,139 68,418 58,444 -4,12 -28,15 -126,15 h -120 z"
       id="path42"
       style="fill:#1c5db1;stroke:#ff00ff;fill-opacity:1" />
    <path
       d="m 4203,2380 c -112,-68 -60,-230 74,-230 98,0 170,103 123,178 -42,68 -132,92 -197,52 z m 111,-66 c 24,-24 20,-61 -9,-80 -23,-15 -27,-15 -50,0 -29,19 -32,51 -8,78 20,22 46,23 67,2 z"
       id="path44"
       style="fill:#1c5db1;fill-opacity:1" />
    <path
       d="m 2930,2180 c -95,-52 -158,-144 -176,-260 -6,-35 -3,-41 36,-77 23,-21 46,-39 50,-41 5,-2 20,17 35,42 44,75 51,77 81,12 l 25,-56 h 99 c 64,0 116,-6 146,-16 25,-8 47,-14 49,-12 1,2 18,39 36,83 25,62 47,95 96,146 l 64,66 -40,36 c -51,46 -131,87 -173,88 -18,1 -62,-2 -98,-6 -50,-6 -74,-4 -104,9 -52,22 -62,20 -126,-14 z"
       id="path46"
       style="fill:#1c5db1;fill-opacity:1" />
    <path
       d="m 3593,2072 c -101,-51 -159,-123 -198,-245 -14,-43 -25,-83 -25,-90 0,-12 95,-67 116,-67 6,0 24,33 40,73 38,91 59,98 103,33 46,-66 65,-76 144,-76 83,0 131,19 151,59 9,17 26,35 37,42 27,14 52,-8 85,-73 17,-34 30,-48 45,-48 16,0 144,29 157,35 5,3 -37,113 -68,178 -38,81 -84,128 -165,170 -59,31 -61,31 -218,32 -147,1 -161,-1 -204,-23 z"
       id="path48"
       style="fill:#1c5db1;fill-opacity:1" />
    <path
       d="m 802,1834 c -32,-22 -52,-67 -52,-114 0,-84 45,-130 125,-130 86,1 135,48 135,131 0,51 -10,67 -59,104 -41,29 -113,34 -149,9 z m 132,-75 c 22,-63 -21,-112 -74,-84 -16,9 -30,20 -30,24 0,5 -3,16 -6,25 -3,9 5,26 20,41 34,34 77,31 90,-6 z"
       id="path50"
       style="fill:#1c5db1;fill-opacity:1" />
    <path
       d="m 3080,1555 c 0,-44 -1,-46 -42,-64 l -43,-19 -33,31 -32,31 -48,-49 -48,-50 35,-31 35,-30 -16,-40 c -15,-37 -18,-39 -62,-42 l -47,-3 3,-57 3,-57 47,-3 c 46,-3 48,-4 59,-45 10,-40 10,-42 -20,-67 l -31,-25 46,-59 46,-59 34,37 c 18,20 35,36 36,36 2,0 21,-9 43,-20 37,-19 39,-22 36,-60 l -3,-40 h 66 66 v 43 c 0,40 2,43 42,60 l 43,17 30,-36 31,-36 52,60 52,60 -35,21 c -38,22 -41,32 -24,80 10,29 14,31 62,31 h 52 v 63 62 l -48,-3 -47,-4 -19,44 c -18,43 -18,43 3,58 52,36 52,38 0,91 l -49,50 -28,-32 c -25,-27 -32,-30 -50,-20 -12,6 -35,15 -51,21 -27,10 -28,12 -21,55 l 6,45 h -65 -66 z m 147,-142 c 76,-36 123,-139 102,-227 -27,-117 -68,-148 -189,-142 -115,5 -160,41 -181,146 -19,96 22,183 103,223 43,21 121,21 165,0 z"
       id="path52"
       style="fill:#1c5db1;fill-opacity:1" />
    <path
       d="m 3094,1340 c -77,-31 -84,-154 -12,-204 27,-19 84,-20 116,-2 32,17 62,65 62,99 0,42 -27,92 -56,106 -29,13 -80,14 -110,1 z"
       id="path54"
       style="fill:#1c5db1;fill-opacity:1" />
    <path
       d="m 3726,1454 c -28,-29 -34,-62 -14,-82 10,-10 18,-6 39,19 20,25 30,30 48,24 27,-8 43,-47 35,-81 -5,-20 -2,-24 15,-24 31,0 54,41 45,84 -14,79 -113,114 -168,60 z"
       id="path56"
       style="fill:#1c5db1;fill-opacity:1" />
    <path
       d="m 3663,1325 c -115,-50 -50,-252 75,-231 65,10 99,65 87,141 -5,39 -13,51 -47,75 -45,33 -67,36 -115,15 z m 85,-77 c 21,-21 14,-57 -13,-70 -41,-18 -68,18 -49,66 7,19 45,21 62,4 z"
       id="path58"
       style="fill:#1c5db1;fill-opacity:1" />
    <path
       d="m 2820,822 c -54,-55 -48,-135 12,-172 81,-49 168,-2 168,91 0,40 -5,53 -31,78 -25,25 -39,31 -76,31 -36,0 -50,-6 -73,-28 z m 94,-38 c 30,-11 40,-43 20,-65 -25,-27 -62,-25 -76,6 -9,21 -8,28 7,45 20,22 25,23 49,14 z"
       id="path60"
       style="fill:#1c5db1;fill-opacity:1" />
  </g>
</svg>
