<?xml version="1.0" encoding="UTF-8" standalone="no"?>
<svg
   id="Layer_1"
   data-name="Layer 1"
   viewBox="0 0 63.999996 63.999973"
   version="1.1"
   width="63.999996"
   height="63.999973"
   xmlns="http://www.w3.org/2000/svg"
   xmlns:svg="http://www.w3.org/2000/svg">
  <defs
     id="defs84">
    <style
       id="style82">.cls-1{fill:#fff;}.cls-2{fill:#0068b4;}</style>
  </defs>
  <path
     class="cls-2"
     d="m 25.993798,0.84417535 c 0.01765,0.0088 0.03987,0.01279 0.0467,0.02501 a 0.06578558,0.06565755 0 0 1 -0.0018,0.05173 c -0.01937,0.04093 -0.04272,0.0798699 -0.06578,0.11880895 a 6.6907635,6.6777428 0 0 0 -0.768923,1.943862 c -0.07006,0.309528 -0.127583,0.622183 -0.142393,0.94166 -0.0094,0.198962 -0.04215,0.397925 -0.0356,0.598308 a 9.2962712,9.2781799 0 0 0 0.088,1.003623 6.6853526,6.6723424 0 0 0 0.541095,1.822494 6.8018302,6.7885933 0 0 0 1.025228,1.604489 c 0.06493,0.07589 0.129578,0.152348 0.193085,0.229375 a 0.06037464,0.06025715 0 0 1 -0.02079,0.09152 1.0033013,1.0013488 0 0 1 -0.129007,0.04207 22.434021,22.390363 0 0 0 -3.515116,1.0985557 23.235694,23.190476 0 0 0 -11.332775,9.805997 22.785163,22.740821 0 0 0 -2.1592479,4.963827 c -0.175143,0.582959 -0.330352,1.171319 -0.450531,1.768205 -0.01623,0.07987 -0.03845,0.158887 -0.05838,0.237904 a 0.06094422,0.06082561 0 0 1 -0.09085,0.02643 c -0.02848,-0.02188 -0.05696,-0.04491 -0.08544,-0.06793 -0.09142,-0.07504 -0.181124,-0.152349 -0.27368,-0.225682 a 6.8063866,6.7931411 0 0 0 -2.84131,-1.330489 6.3726575,6.360256 0 0 0 -1.082187,-0.133303 c -0.310417,-0.01193 -0.619125,0.0018 -0.927833,0.0145 a 4.1331,4.1250566 0 0 0 -0.541094,0.06651 c -0.860338,0.150924 -1.668846,0.442546 -2.41583998,0.898455 a 1.2393889,1.236977 0 0 1 -0.144671,0.07447 0.0552485,0.05514098 0 0 1 -0.04841,-0.0094 0.06293772,0.06281524 0 0 1 -0.01623,-0.04832 c 0.01623,-0.107439 0.0336,-0.215163 0.05382,-0.322034 C 1.2751271,23.559963 2.0468971,21.075492 3.1427541,18.695335 A 31.626345,31.564798 0 0 1 21.956386,1.8782103 c 0.9509,-0.312654 1.91547,-0.57699 2.890577,-0.803239 0.353989,-0.08214 0.711966,-0.15121095 1.067378,-0.22539495 a 0.53881521,0.53776665 0 0 1 0.07946,-0.0054 z"
     id="path88"
     style="stroke-width:0.0284507" />
  <path
     class="cls-2"
     d="m 38.036546,62.732818 c -0.01083,-0.01478 -0.03133,-0.03155 -0.02848,-0.04178 a 0.73246974,0.7310443 0 0 1 0.04699,-0.125346 7.1766086,7.1626423 0 0 0 0.445405,-1.14119 8.0284035,8.0127798 0 0 0 0.222134,-1.065016 c 0.06778,-0.480922 0.04471,-0.961272 0.03674,-1.442762 -0.08031,-0.773109 -0.260293,-1.519789 -0.582671,-2.230652 a 6.9872257,6.9736281 0 0 0 -1.400862,-2.033677 c -0.05069,-0.05173 -0.09854,-0.106303 -0.146665,-0.160592 -0.02336,-0.02643 -0.0046,-0.07504 0.03275,-0.08783 a 0.6288076,0.62758391 0 0 1 0.07689,-0.02643 22.632802,22.588757 0 0 0 5.832132,-2.108147 23.140006,23.094974 0 0 0 11.752553,-15.002041 c 0.04984,-0.202658 0.09369,-0.406735 0.142391,-0.609962 0.0074,-0.03183 0.06522,-0.05514 0.08971,-0.0361 0.04272,0.03354 0.08544,0.06679 0.125306,0.104029 a 7.850982,7.8357032 0 0 0 0.59805,0.518723 c 0.856922,0.661408 1.813234,1.105093 2.87634,1.312582 0.268269,0.0523 0.536253,0.100333 0.810501,0.108293 0.127015,0.0037 0.253459,0.02615 0.38076,0.0307 a 3.175934,3.1697535 0 0 0 0.599758,-0.02244 c 0.03589,-0.0054 0.07234,-0.0083 0.108789,-0.01023 0.539384,-0.02842 1.061966,-0.145528 1.574581,-0.310097 a 6.5534966,6.540743 0 0 0 0.95916,-0.394798 1.2920743,1.2895599 0 0 1 0.148374,-0.0685 0.08742932,0.08725917 0 0 1 0.07348,0.0065 c 0.01595,0.01507 0.01624,0.04889 0.01909,0.07475 a 0.17457385,0.17423412 0 0 1 -0.0051,0.054 c -0.14809,0.682158 -0.299312,1.366018 -0.484138,2.040784 A 31.661658,31.600043 0 0 1 47.386115,59.2754 31.369469,31.308421 0 0 1 42.271071,61.589899 32.408652,32.345584 0 0 1 38.890377,62.56055 c -0.265707,0.06111 -0.533122,0.113695 -0.799965,0.170539 a 0.25630745,0.25580866 0 0 1 -0.05382,0.0018 z"
     id="path90"
     style="stroke-width:0.0284507" />
  <path
     class="cls-2"
     d="m 38.347817,0.96156335 a 31.613529,31.552007 0 0 1 23.580286,21.22074965 29.663884,29.606157 0 0 1 0.810215,3.052935 c 0.02848,0.133303 0.06094,0.265472 0.08743,0.397925 a 0.27994469,0.27939989 0 0 1 -0.006,0.107153 c -0.0026,0.01278 -0.02393,0.02842 -0.0393,0.03098 a 0.08543582,0.08526955 0 0 1 -0.05155,-0.0074 c -0.05838,-0.02558 -0.115908,-0.05287 -0.172865,-0.081 a 6.7465817,6.7334522 0 0 0 -1.832598,-0.605414 c -0.350572,-0.06225 -0.701144,-0.107442 -1.057695,-0.103177 -0.118188,0.0015 -0.236658,0 -0.355129,0 -0.642476,0 -1.266442,0.116818 -1.87731,0.308108 a 6.7699341,6.7567593 0 0 0 -2.776379,1.676966 c -0.01281,0.0128 -0.0245,0.02842 -0.03816,0.03894 -0.03303,0.02842 -0.06208,0.07333 -0.113914,0.0486 -0.0356,-0.01648 -0.04186,-0.05685 -0.04955,-0.09181 A 22.782884,22.738547 0 0 0 52.231136,20.914055 23.245946,23.200708 0 0 0 43.52608,11.896231 22.622265,22.57824 0 0 0 38.035692,9.5791733 c -0.359685,-0.09834 -0.72051,-0.191572 -1.083896,-0.273715 a 0.06692472,0.06679448 0 0 1 -0.03332,-0.108008 c 0.01168,-0.01393 0.02365,-0.02842 0.03589,-0.04064 0.03076,-0.03354 0.06208,-0.06651 0.09227,-0.100618 a 6.8505285,6.837197 0 0 0 1.594796,-3.180839 c 0.08145,-0.391103 0.13812,-0.787322 0.130146,-1.189794 -0.0034,-0.163434 -0.0054,-0.327436 0,-0.490869 0.0068,-0.255808 -0.03417,-0.508491 -0.07291,-0.758899 a 6.8089497,6.795699 0 0 0 -0.857205,-2.398064 0.90818272,0.90641533 0 0 1 -0.06094,-0.12079795 c -0.0051,-0.01279 0.0046,-0.03297 0.01111,-0.04804 a 0.0284786,0.02842318 0 0 1 0.02277,-0.0099 c 0.176567,0.03468 0.354843,0.06878 0.533405,0.102608 z"
     id="path92"
     style="stroke-width:0.0284507" />
  <path
     class="cls-2"
     d="m 25.690501,62.740207 c -0.02563,-0.0037 -0.0618,-0.0068 -0.0974,-0.01422 -0.702853,-0.147801 -1.402571,-0.308959 -2.095456,-0.498826 A 31.619511,31.557977 0 0 1 1.7923951,41.471139 c -0.303867,-0.942797 -0.557327,-1.899238 -0.776042,-2.864773 -0.02221,-0.09749 -0.04129,-0.195269 -0.05895,-0.293612 a 0.10309255,0.10289193 0 0 1 0.01481,-0.05031 c 0.008,-0.01905 0.04585,-0.02558 0.07262,-0.01365 0.02677,0.01193 0.05069,0.02046 0.07461,0.03326 0.04813,0.02587 0.09455,0.05457 0.142393,0.08044 a 6.8143606,6.8010996 0 0 0 2.081217,0.713989 c 0.232101,0.03979 0.466479,0.08158 0.704845,0.07674 0.07234,0 0.144956,0.01165 0.217862,0.01535 a 1.9855284,1.9816644 0 0 0 0.27254,0.0085 c 0.308138,-0.0253 0.616846,-0.02842 0.9247,-0.07219 a 6.9356797,6.9221823 0 0 0 1.578854,-0.4164 6.7986974,6.7854667 0 0 0 2.094602,-1.309456 c 0.04699,-0.04292 0.09227,-0.08783 0.139545,-0.130179 0.04727,-0.04235 0.09398,-0.03098 0.117332,0.0415 0.01424,0.04292 0.02848,0.08527 0.04015,0.129894 a 22.526577,22.482739 0 0 0 1.6993189,4.620473 23.186426,23.141304 0 0 0 13.652926,11.753555 20.743816,20.703447 0 0 0 2.213358,0.587222 1.2530586,1.2506201 0 0 1 0.181693,0.05685 0.04869841,0.04860365 0 0 1 0.0114,0.04406 c -0.04642,0.05542 -0.09483,0.109711 -0.145811,0.160874 a 6.85537,6.8420289 0 0 0 -1.053707,1.353513 6.7682254,6.7550539 0 0 0 -0.820469,2.125199 6.0944216,6.0825614 0 0 0 -0.113914,0.835927 c -0.0114,0.190152 -0.03759,0.380017 -0.0319,0.571021 0.0037,0.127053 0.01394,0.254104 0.0222,0.380872 0.0029,0.04519 0.01083,0.09038 0.01338,0.135578 0.05155,0.835926 0.277666,1.625806 0.629946,2.382715 0.03816,0.08214 0.07348,0.165708 0.109357,0.248988 0.008,0.01848 -0.02336,0.05685 -0.045,0.05855 z"
     id="path94"
     style="stroke-width:0.0284507" />
  <path
     class="cls-2"
     d="m 32.401485,17.558429 c -0.209604,0 -0.419491,0.0091 -0.62824,-0.0018 -0.641337,-0.03354 -1.206638,-0.255808 -1.671978,-0.705181 a 1.8696204,1.865982 0 0 1 -0.535398,-0.933416 1.2561913,1.2537467 0 0 1 -0.0356,-0.214312 c -0.01168,-0.227384 -0.01652,-0.452497 0.04272,-0.676756 a 2.0954558,2.0913779 0 0 1 0.498377,-0.896751 c 0.336048,-0.363816 0.750696,-0.601151 1.224578,-0.735023 a 2.7461919,2.7408476 0 0 1 0.80851,-0.109714 c 0.256307,0.0054 0.509767,0 0.763795,0.02842 a 1.9650238,1.9611997 0 0 0 0.245485,0.0125 c 0.338042,-0.004 0.67295,0.04036 1.00729,0.07532 0.32494,0.03411 0.649026,0.08385 0.972259,0.137 q 0.821891,0.135296 1.626982,0.345058 a 17.818209,17.783533 0 0 1 2.977438,1.063312 18.610199,18.573982 0 0 1 2.319013,1.273927 c 0.238366,0.153769 0.211597,0.145526 0.478727,0.05684 0.295037,-0.09863 0.598049,-0.150074 0.904194,-0.203509 a 0.69487797,0.69352569 0 0 1 0.109074,-0.0068 c 0.199348,-0.0031 0.400693,-0.0062 0.600898,-0.0083 0.339465,-0.0037 0.670387,0.05684 0.99675,0.142116 a 4.6021425,4.5931866 0 0 1 3.307507,3.378948 c 0.0954,0.401902 0.123313,0.80665 0.119893,1.216795 -0.0046,0.580972 -0.135843,1.134086 -0.358545,1.667873 -0.02449,0.05884 -0.05297,0.115967 -0.07718,0.174805 a 0.18511094,0.18475069 0 0 0 0.0083,0.158031 c 0.03275,0.06509 0.06408,0.130747 0.09825,0.194983 0.760949,1.439068 1.303464,2.958285 1.659733,4.5443 a 13.832628,13.805709 0 0 1 0.242923,1.36744 c 0.0262,0.216299 0.06009,0.431746 0.08914,0.647763 0.0071,0.054 0.0083,0.108861 0.01197,0.16315 0.0051,0.08186 0.0068,0.163718 0.01595,0.245007 0.06607,0.588929 0.05496,1.18013 0.05411,1.771049 a 0.26371189,0.26319868 0 0 1 -0.01168,0.08015 c -0.0046,0.01393 -0.0228,0.02445 -0.03702,0.03326 a 0.0284786,0.02842318 0 0 1 -0.02506,-0.0054 c -0.04158,-0.03468 -0.08287,-0.0702 -0.123027,-0.106586 a 2.9990818,2.9932454 0 0 0 -1.44301,-0.732181 2.8957046,2.8900693 0 0 0 -1.003872,-0.03667 3.4439178,3.4372156 0 0 0 -1.368398,0.511619 c -0.05354,0.03382 -0.108217,0.06594 -0.162611,0.09834 a 0.04585055,0.04576133 0 0 1 -0.06066,-0.03553 c -0.0023,-0.09976 -0.0046,-0.198962 -0.0063,-0.29958 -0.0046,-0.281675 0.0037,-0.564201 -0.04386,-0.8436 a 0.600329,0.59916073 0 0 1 -0.0063,-0.08158 c -0.01083,-0.309529 -0.05895,-0.614225 -0.103092,-0.920059 a 13.660618,13.634033 0 0 0 -0.394428,-1.80852 13.93686,13.909738 0 0 0 -0.787149,-2.089671 c -0.02848,-0.05685 -0.05696,-0.113694 -0.08686,-0.170539 a 0.13783645,0.13756821 0 0 0 -0.131286,-0.08072 c -0.05439,0 -0.109074,0.0034 -0.163752,0.0043 q -0.232387,0.0043 -0.464486,0.0074 c -0.572705,0.0074 -1.121488,-0.111987 -1.648913,-0.326865 -0.939794,-0.382861 -1.683085,-1.002202 -2.215635,-1.867687 a 4.7166266,4.7074478 0 0 1 -0.669227,-2.734367 c 0.01281,-0.198963 0.05525,-0.395366 0.08544,-0.592908 0.01027,-0.06878 -0.0063,-0.126768 -0.06607,-0.166276 -0.05981,-0.03951 -0.121604,-0.07987 -0.18454,-0.116818 a 13.994387,13.967153 0 0 0 -3.70222,-1.50643 13.019849,12.994511 0 0 0 -1.310015,-0.25723 c -0.224411,-0.03212 -0.449108,-0.07049 -0.677507,-0.07845 -0.172579,-0.006 -0.344021,-0.03724 -0.5166,-0.04491 -0.181696,-0.0083 -0.364242,-0.0021 -0.546221,-0.0021 z m 11.515892,6.052717 c 0.154355,-0.0085 0.310987,-0.004 0.463063,-0.02842 a 2.9962341,2.9904032 0 0 0 0.855782,-0.269452 c 1.203506,-0.590634 1.869051,-1.926808 1.600782,-3.226603 -0.189383,-0.91693 -0.705701,-1.601646 -1.532435,-2.049309 a 2.8786175,2.8730154 0 0 0 -1.390609,-0.34108 2.9720272,2.9662436 0 0 0 -2.86979,3.638167 c 0.358263,1.528033 1.733494,2.314503 2.872352,2.276699 z"
     id="path96"
     style="stroke-width:0.0284507" />
  <path
     class="cls-2"
     d="m 14.789175,33.966282 a 2.9882601,2.9824447 0 0 0 2.43834,0.0182 3.2608003,3.2544545 0 0 0 0.895936,-0.568463 c 0.04727,-0.04178 0.09825,-0.0793 0.148373,-0.117672 0.01966,-0.01507 0.05981,0.0046 0.06436,0.03041 0.03731,0.205216 0.0749,0.410715 0.111068,0.616214 a 13.329981,13.30404 0 0 0 0.622826,2.284087 13.692798,13.666151 0 0 0 1.556641,3.023658 c 0.05126,0.07475 0.107649,0.146096 0.165746,0.215734 a 0.10935785,0.10914503 0 0 0 0.09882,0.03638 0.70769335,0.70631612 0 0 0 0.08002,-0.01535 4.9134138,4.903852 0 0 1 0.700575,-0.108576 3.5529907,3.5460764 0 0 1 0.844674,0.01165 6.24963,6.2374676 0 0 1 0.697156,0.127904 c 1.435037,0.373765 2.864093,1.506427 3.316049,3.403393 a 4.1578765,4.1497849 0 0 1 0.124167,1.025791 c -0.0037,0.227386 -0.0048,0.247851 0.225834,0.343353 a 13.791334,13.764495 0 0 0 1.732354,0.579832 12.448853,12.424626 0 0 0 1.226858,0.261493 q 0.524576,0.08527 1.055418,0.133874 c 0.372784,0.03468 0.744714,0.04747 1.118069,0.04491 0.22128,0 0.434015,0.05145 0.643048,0.113695 a 2.5471265,2.5421696 0 0 1 1.133447,0.682155 2.0063178,2.0024133 0 0 1 0.555048,1.103389 1.7750715,1.7716171 0 0 1 -0.07604,0.833936 2.01002,2.0061083 0 0 1 -0.624535,0.909541 2.499852,2.4949871 0 0 1 -1.32995,0.584381 c -0.05439,0.0068 -0.10822,0.01535 -0.162043,0.02473 a 1.5822713,1.5791921 0 0 1 -0.381329,0.0094 c -0.163468,-0.01136 -0.326934,-0.02388 -0.490403,-0.03183 -0.254596,-0.01221 -0.508627,-0.02388 -0.76294,-0.04661 -0.244632,-0.02216 -0.488409,-0.05315 -0.732755,-0.0776 -0.252891,-0.0253 -0.505211,-0.06538 -0.755253,-0.111987 -0.455658,-0.08527 -0.911314,-0.177645 -1.360138,-0.291622 A 18.363005,18.327269 0 0 1 24.857209,48.05341 c -0.11648,-0.05059 -0.235519,-0.0955 -0.353421,-0.142117 -0.130146,0.01962 -0.231816,0.102323 -0.343735,0.160024 a 4.664226,4.655149 0 0 1 -1.476047,0.468981 c -0.287918,0.0415 -0.580678,0.04065 -0.872868,0.03297 -1.75656,-0.0469 -3.717312,-1.284729 -4.256982,-3.511115 -0.101669,-0.419243 -0.127869,-0.842749 -0.12075,-1.271369 a 4.1499025,4.1418264 0 0 1 0.196217,-1.178711 c 0.03645,-0.115965 0.03588,-0.210616 -0.045,-0.303274 -0.03588,-0.04093 -0.0655,-0.08755 -0.09768,-0.131316 a 17.998478,17.963452 0 0 1 -2.689234,-5.303196 16.732035,16.699473 0 0 1 -0.525717,-2.113834 c -0.04699,-0.268313 -0.09939,-0.535776 -0.140114,-0.804943 -0.01994,-0.133874 -0.03873,-0.270589 -0.0037,-0.406167 m 10.868858,10.423634 c 0.01168,-1.623533 -1.332227,-2.946348 -2.9444,-2.956012 -1.49883,-0.0079 -2.939846,1.149718 -2.986267,2.950896 0.03218,1.68663 1.329382,2.942651 2.96918,2.974202 1.873321,-0.03752 2.996801,-1.561287 2.961487,-2.969086 z"
     id="path98"
     style="stroke-width:0.0284507" />
  <path
     class="cls-2"
     d="m 9.0077341,32.326546 c 0,0.0182 0,0.03638 0,0.05457 0.01082,1.136927 -0.47901,2.212744 -1.156231,2.952315 -0.618555,0.67562 -1.37153,1.129821 -2.262056,1.352091 -0.453094,0.113691 -0.915017,0.165139 -1.380358,0.127053 -1.120063,-0.09209 -2.093177,-0.516735 -2.893711,-1.31429 -0.62909198,-0.62531 -1.03348898,-1.376818 -1.22685798,-2.240884 -0.07775,-0.347615 -0.09056,-0.701767 -0.0882800026,-1.057057 C 0.01306012,30.289169 1.3427221,28.548533 3.1952551,27.998544 a 4.2057204,4.1975359 0 0 1 0.773763,-0.157748 c 0.170872,-0.01733 0.341744,-0.04207 0.516318,-0.04121 2.254935,0.0128 3.987004,1.584307 4.414183,3.500314 0.08885,0.393094 0.108789,0.554536 0.108219,1.026644 z"
     id="path100"
     style="stroke-width:0.0284507" />
  <path
     class="cls-2"
     d="m 31.892001,63.999922 c -2.452293,0.01193 -4.516138,-2.018046 -4.498195,-4.526675 a 4.5360723,4.5272449 0 0 1 1.338495,-3.183396 c 0.880843,-0.863212 1.949643,-1.276771 3.17451,-1.310595 1.235117,0.03667 2.312462,0.45335 3.191596,1.333615 0.879134,0.880268 1.294922,1.956369 1.328241,3.189651 -0.03531,1.223619 -0.448536,2.293184 -1.320268,3.165489 -0.884828,0.886521 -1.964452,1.320828 -3.214379,1.331911 z"
     id="path102"
     style="stroke-width:0.0284507" />
  <path
     class="cls-2"
     d="m 63.999921,31.939993 c -0.0054,0.101755 -0.0026,0.303274 -0.02848,0.50053 a 4.573664,4.5647633 0 0 1 -0.175713,0.769132 4.5038913,4.4951265 0 0 1 -4.318496,3.123425 4.4520604,4.4433964 0 0 1 -1.925722,-0.438287 c -1.265874,-0.605696 -2.154975,-1.752573 -2.447451,-3.041279 -0.06664,-0.293044 -0.113916,-0.58836 -0.109928,-0.88993 0.0026,-0.198963 -0.0077,-0.401336 0.01338,-0.599446 a 4.3888379,4.3802969 0 0 1 0.170871,-0.852694 c 0.524008,-1.673274 1.822633,-2.663254 3.061167,-3.01087 0.262858,-0.0739 0.527993,-0.136715 0.80281,-0.14922 0.06351,-0.0029 0.126447,-0.01507 0.189955,-0.01962 a 2.9369986,2.931283 0 0 1 0.299594,-0.01591 c 1.061967,0.03212 2.018564,0.357563 2.841024,1.03915 0.805662,0.667945 1.315429,1.519503 1.543542,2.538476 0.06778,0.311516 0.08487,0.629573 0.08344,1.046541 z"
     id="path104"
     style="stroke-width:0.0284507" />
  <path
     class="cls-2"
     d="M 31.915638,2.9134602e-4 C 32.114989,0.01052135 32.317756,0.00659135 32.51369,0.03440135 a 4.5172765,4.5084854 0 0 1 3.796196,3.48439795 c 0.04016,0.176508 0.07746,0.355005 0.07946,0.538335 0,0.07248 0.01567,0.144674 0.02135,0.217153 a 2.2782884,2.2738547 0 0 1 0.01394,0.244724 c -0.03019,1.029487 -0.331777,1.965178 -0.98052,2.776092 -0.653013,0.816598 -1.488577,1.350385 -2.508394,1.591698 a 3.5262209,3.5193586 0 0 1 -0.836418,0.109145 c -0.199351,0 -0.400978,0.0043 -0.600612,-0.0085 A 4.0869647,4.0790112 0 0 1 30.538128,8.7964423 4.5135743,4.5047904 0 0 1 27.52851,5.6039513 c -0.08544,-0.334825 -0.140686,-0.675904 -0.131287,-1.023235 0,-0.027 0,-0.05457 0,-0.08158 -0.01909,-1.963189 1.306884,-3.79563195 3.331996,-4.34874695 A 4.3427024,4.3342513 0 0 1 31.915638,3.1534602e-4 Z"
     id="path106"
     style="stroke-width:0.0284507" />
  <path
     class="cls-2"
     d="m 17.731015,20.444803 c 0.04101,0.183612 0.07461,0.37149 0.125592,0.554819 0.334054,1.203439 1.308021,1.968307 2.305057,2.16528 0.125307,0.02473 0.248903,0.05344 0.377626,0.05372 a 1.03833,1.0363093 0 0 1 0.135843,0.0125 c 0.15521,0.02047 0.17543,0.06196 0.08544,0.188161 a 14.330434,14.302546 0 0 0 -0.990485,1.630354 13.824939,13.798035 0 0 0 -1.217176,3.316418 c -0.07604,0.336815 -0.142394,0.675335 -0.193371,1.016412 -0.03133,0.214881 -0.06294,0.430613 -0.07888,0.648617 -0.01539,0.208343 -0.0319,0.416685 -0.05098,0.625311 -0.06493,0.70063 -0.311271,1.3231 -0.834425,1.815388 -0.248902,0.234492 -0.533404,0.411001 -0.866318,0.498543 -0.193369,0.05088 -0.390442,0.0955 -0.592641,0.0776 -0.468757,-0.0415 -0.879988,-0.214027 -1.220307,-0.54544 -0.313265,-0.305835 -0.520303,-0.674767 -0.64447,-1.091449 -0.06493,-0.218576 -0.08401,-0.445676 -0.109358,-0.671072 a 0.68149303,0.6801668 0 0 1 0,-0.190721 c 0.05098,-0.287074 0.03588,-0.579833 0.08059,-0.868043 0.02848,-0.187878 0.04243,-0.378596 0.06379,-0.568464 0.03417,-0.29816 0.0823,-0.593759 0.135275,-0.888225 a 18.021831,17.986759 0 0 1 0.467048,-1.959209 18.226308,18.190838 0 0 1 1.988662,-4.410712 q 0.409806,-0.66084 0.876286,-1.283875 a 1.3712448,1.3685763 0 0 1 0.105086,-0.12421 c 0.01,-0.0091 0.03446,-0.0018 0.05212,-0.0018 z"
     id="path108"
     style="stroke-width:0.0284507" />
  <path
     class="cls-2"
     d="m 28.93706,13.604479 c 0,0.05912 -0.04556,0.09664 -0.0749,0.140127 a 3.0529065,3.0469654 0 0 0 -0.480433,1.148013 3.0574632,3.051513 0 0 0 0.262573,1.961199 3.1770733,3.1708904 0 0 0 0.549066,0.776521 c 0.04357,0.04576 0.08544,0.09266 0.126161,0.142117 a 0.0489832,0.04888788 0 0 1 -0.0083,0.04491 c -0.07746,0.02502 -0.155493,0.04917 -0.234947,0.06708 -2.204816,0.499962 -4.176959,1.46834 -5.909027,2.920766 -0.167454,0.14041 -0.330352,0.284231 -0.484136,0.440843 a 2.7373636,2.7320365 0 0 1 -1.153667,0.700915 2.3016409,2.2971617 0 0 1 -1.02523,0.07589 c -0.752119,-0.108575 -1.352165,-0.680451 -1.521042,-1.41917 -0.128441,-0.562211 -0.05354,-1.101399 0.189666,-1.6187 a 2.9569336,2.9511791 0 0 1 0.689468,-0.937966 q 2.741065,-2.490437 6.236812,-3.721447 a 17.312429,17.278738 0 0 1 2.443466,-0.66766 c 0.115908,-0.02245 0.231815,-0.04491 0.348292,-0.06509 0.01281,-0.0048 0.0299,0.0065 0.04613,0.01165 z"
     id="path110"
     style="stroke-width:0.0284507" />
  <path
     class="cls-2"
     d="m 50.036005,34.404851 c 0.01652,0.195267 -0.04272,0.380869 -0.05696,0.571022 a 0.14239303,0.14211592 0 0 1 -0.01567,0.0523 c -0.102809,0.20635 -0.128724,0.43459 -0.181695,0.653733 a 18.290384,18.25479 0 0 1 -4.061618,7.778288 c -0.07832,0.08868 -0.158626,0.175655 -0.239506,0.261778 -0.03019,0.03212 -0.05952,0.08527 -0.10708,0.07219 -0.05411,-0.01422 -0.03645,-0.07475 -0.04129,-0.117954 -0.0021,-0.01789 0,-0.0361 0,-0.05429 -0.03304,-1.28416 -0.939794,-2.479922 -2.25693,-2.82356 -0.158056,-0.0415 -0.31953,-0.06992 -0.479294,-0.104313 -0.05696,-0.01193 -0.06351,-0.04491 -0.01966,-0.09692 0.0937,-0.110851 0.189383,-0.220851 0.281654,-0.333121 a 14.043085,14.015756 0 0 0 2.720847,-5.295239 c 0.06351,-0.236765 0.113914,-0.476373 0.170871,-0.715128 a 3.5450169,3.5381179 0 0 1 0.22498,-0.670218 2.5898444,2.5848042 0 0 1 0.849517,-1.047396 2.3047735,2.3002883 0 0 1 0.427178,-0.242164 1.8593682,1.8557497 0 0 1 0.633366,-0.152063 c 0.668393,-0.04349 1.211194,0.198961 1.627836,0.718252 a 2.290819,2.2863609 0 0 1 0.479864,1.113621 c 0.02051,0.144106 0.05895,0.28622 0.04357,0.43118 z"
     id="path112"
     style="stroke-width:0.0284507" />
  <path
     class="cls-2"
     d="m 42.174487,41.869632 a 1.9080666,1.9043533 0 0 1 0.972258,0.225679 c 0.493535,0.261493 0.811356,0.664819 0.942642,1.206848 0.12189,0.502238 0.06379,0.991687 -0.136697,1.465217 a 2.692652,2.6874121 0 0 1 -0.51774,0.795849 3.5618192,3.5548877 0 0 1 -0.484136,0.437431 18.042336,18.007224 0 0 1 -4.829402,2.54956 17.087163,17.05391 0 0 1 -2.204245,0.613373 c -0.23153,0.04747 -0.462492,0.09578 -0.694022,0.142117 a 0.63165547,0.63042622 0 0 1 -0.108506,0.01108 c -0.04243,0 -0.09512,0.02075 -0.119039,-0.03212 -0.01624,-0.03581 0.0097,-0.06907 0.02848,-0.09948 a 2.9993667,2.9935297 0 0 0 0.424902,-0.937966 c 0.05696,-0.220563 0.101669,-0.442264 0.0954,-0.67164 0,-0.02842 0,-0.05457 0,-0.08186 0.01338,-0.791016 -0.266846,-1.472888 -0.773479,-2.069777 -0.06465,-0.07617 -0.136129,-0.146379 -0.203908,-0.219994 -0.03759,-0.04093 -0.0228,-0.09323 0.02848,-0.103176 q 0.711963,-0.131316 1.404848,-0.332835 a 13.772823,13.74602 0 0 0 4.157878,-1.999289 2.11653,2.112411 0 0 0 0.232953,-0.187877 2.6294297,2.6243126 0 0 1 1.239391,-0.651743 1.9972046,1.9933179 0 0 1 0.240929,-0.04633 c 0.102521,-0.0108 0.202768,-0.0094 0.303012,-0.01306 z"
     id="path114"
     style="stroke-width:0.0284507" />
  <path
     class="cls-1"
     d="m 43.916522,23.611146 c -1.139144,0.0378 -2.514089,-0.748666 -2.873206,-2.277835 a 2.9720272,2.9662436 0 0 1 2.869789,-3.638168 2.8786175,2.8730154 0 0 1 1.39061,0.341078 c 0.82588,0.447666 1.343051,1.132382 1.532434,2.049312 0.26827,1.299792 -0.397275,2.635969 -1.600781,3.226602 a 2.9962341,2.9904032 0 0 1 -0.855783,0.26945 c -0.152075,0.02558 -0.308707,0.02103 -0.463063,0.02956 z"
     id="path116"
     style="stroke-width:0.0284507" />
  <path
     class="cls-1"
     d="m 24.997045,43.972948 c 0.03531,1.407799 -1.088167,2.931567 -2.961773,2.970505 -1.639798,-0.03155 -2.936997,-1.287569 -2.96918,-2.974202 0.04642,-1.801176 1.48744,-2.958853 2.986267,-2.950893 1.612459,0.0083 2.956365,1.331057 2.944686,2.95459 z"
     id="path118"
     style="stroke-width:0.0284507" />
</svg>
