<svg id="Layer_1" data-name="Layer 1" xmlns="http://www.w3.org/2000/svg" viewBox="0 0 2500 2500"><defs><style>.cls-1{fill:#fff;}</style></defs><path class="cls-1" d="M2456.08,2457.6H43.84V42.48H2456.08ZM624.14,1305.13l-.44.34.65-.26c-1.23,4.77-.57,9.58.13,14.29,1.43,9.47,3.27,18.88,4.92,28.32a587.53,587.53,0,0,0,18.46,74.37,632,632,0,0,0,94.43,186.58c1.13,1.54,2.17,3.18,3.43,4.62,2.84,3.26,2.86,6.59,1.58,10.67a145.72,145.72,0,0,0-6.89,41.47c-.25,15.08.67,30,4.24,44.73,19,78.33,87.8,121.88,149.48,123.53,10.26.27,20.54.3,30.65-1.16a163.78,163.78,0,0,0,51.83-16.5c3.93-2,7.5-4.94,12.07-5.63,4.14,1.67,8.32,3.25,12.41,5a644.8,644.8,0,0,0,98.72,33.82c15.8,4,31.75,7.26,47.76,10.26,8.78,1.64,17.64,3.05,26.52,3.94,8.58.86,17.14,2,25.73,2.73,8.93.8,17.85,1.21,26.79,1.64,5.74.28,11.48.72,17.22,1.12a55.56,55.56,0,0,0,13.39-.33c1.89-.33,3.78-.63,5.69-.87a87.78,87.78,0,0,0,46.7-20.56,70.58,70.58,0,0,0,21.93-32,62.33,62.33,0,0,0,2.67-29.34,70.45,70.45,0,0,0-19.49-38.82,89.44,89.44,0,0,0-39.8-24c-7.34-2.16-14.81-4-22.58-4-13.11.09-26.17-.36-39.26-1.58q-18.64-1.76-37.06-4.71a437.13,437.13,0,0,1-43.08-9.2,484.27,484.27,0,0,1-60.83-20.4c-8.1-3.36-8.06-4-7.93-12.08a146,146,0,0,0-4.36-36.09c-15.87-66.71-66-106.59-116.44-119.74a219.45,219.45,0,0,0-24.48-4.5,124.76,124.76,0,0,0-29.66-.41,172.53,172.53,0,0,0-24.6,3.82,24.85,24.85,0,0,1-2.81.54,3.84,3.84,0,0,1-3.47-1.28c-2-2.45-4-5-5.82-7.59a480.81,480.81,0,0,1-54.66-106.38A468.07,468.07,0,0,1,776,1319.16c-1.27-7.23-2.59-14.46-3.9-21.68-.16-.91-1.57-1.6-2.26-1.07-1.76,1.35-3.55,2.67-5.21,4.14a114.5,114.5,0,0,1-31.46,20,104.93,104.93,0,0,1-85.62-.64C639.08,1316.08,630.94,1311.65,624.14,1305.13ZM1041,154.54a18.92,18.92,0,0,0-2.78.19c-12.5,2.61-25.05,5-37.48,7.93-34.24,8-68.11,17.24-101.5,28.26A1112,1112,0,0,0,238.59,782.59c-38.43,83.78-65.58,171.15-82.48,261.74-.71,3.76-1.32,7.55-1.89,11.33a2.21,2.21,0,0,0,.57,1.7,1.94,1.94,0,0,0,1.7.33,43.52,43.52,0,0,0,5.08-2.62c26.23-16,54.62-26.3,84.83-31.61a145.13,145.13,0,0,1,19-2.34c10.84-.45,21.68-.93,32.58-.51a223.77,223.77,0,0,1,38,4.69,239,239,0,0,1,99.81,46.8c3.25,2.58,6.4,5.3,9.61,7.94,1,.81,2,1.62,3,2.39a2.14,2.14,0,0,0,3.19-.93c.7-2.78,1.48-5.56,2.05-8.37,4.22-21,9.67-41.7,15.82-62.21a800.08,800.08,0,0,1,75.82-174.64,815.9,815.9,0,0,1,397.94-345,787.75,787.75,0,0,1,123.31-38.65,35.23,35.23,0,0,0,4.53-1.48,2.12,2.12,0,0,0,.73-3.22c-2.23-2.71-4.5-5.4-6.78-8.07a238.84,238.84,0,0,1-36-56.45,234.75,234.75,0,0,1-19-64.12A326.43,326.43,0,0,1,1007,284c-.23-7.06.92-14,1.25-21.05.53-11.24,2.55-22.24,5-33.13a234.94,234.94,0,0,1,27-68.39c.81-1.37,1.63-2.74,2.31-4.18a2.31,2.31,0,0,0,.06-1.82C1042.39,155,1041.61,154.85,1041,154.54Zm422.88,2177.4a9,9,0,0,0,1.87,0c9.37-2,18.76-3.89,28.09-6a1138,1138,0,0,0,118.71-34.15,1111.44,1111.44,0,0,0,661.56-629.29,1113.28,1113.28,0,0,0,43.16-128c6.46-23.74,11.77-47.75,17-71.8a6.13,6.13,0,0,0,.18-1.9c-.1-.91-.11-2.1-.67-2.63a3.07,3.07,0,0,0-2.58-.23,45.37,45.37,0,0,0-5.21,2.41,230.12,230.12,0,0,1-33.64,13.85c-18,5.79-36.35,9.88-55.29,10.91-1.28.07-2.56.17-3.82.36a111.52,111.52,0,0,1-21.06.79c-4.47-.16-8.91-1-13.37-1.08-9.63-.28-19-2-28.46-3.81-37.38-7.3-71-22.91-101-46.18a275.68,275.68,0,0,1-21-18.25c-1.38-1.31-2.9-2.48-4.4-3.66-.86-.67-2.89.15-3.15,1.27-1.66,7.15-3.2,14.33-5,21.46a814.38,814.38,0,0,1-412.68,527.85A794.73,794.73,0,0,1,1418.3,2038a22.08,22.08,0,0,0-2.7.93c-1.31.45-2,2.16-1.15,3.09,1.69,1.91,3.37,3.83,5.15,5.65a245.35,245.35,0,0,1,49.19,71.55c11.32,25,17.64,51.28,20.46,78.48.28,16.94,1.09,33.84-1.29,50.76a281.91,281.91,0,0,1-7.8,37.47,252,252,0,0,1-15.64,40.15,25.72,25.72,0,0,0-1.65,4.41C1462.77,2330.83,1463.49,2331.42,1463.87,2331.94ZM1474.8,158.67c-6.27-1.19-12.53-2.39-18.81-3.55a1,1,0,0,0-.8.35c-.23.53-.57,1.24-.39,1.69a31.89,31.89,0,0,0,2.14,4.25,239.09,239.09,0,0,1,30.1,84.37c1.36,8.81,2.8,17.69,2.56,26.7-.15,5.75-.08,11.52,0,17.27.28,14.16-1.71,28.1-4.57,41.86a240.55,240.55,0,0,1-56,111.91c-1.06,1.2-2.16,2.36-3.24,3.54-.43.47-.85.94-1.26,1.43a2.35,2.35,0,0,0,1.17,3.8c12.76,2.89,25.43,6.17,38.06,9.63a794.36,794.36,0,0,1,192.79,81.52,816.26,816.26,0,0,1,305.67,317.27,800,800,0,0,1,78.1,212.54c.27,1.28.49,2.65,1.74,3.23,1.84.87,2.86-.72,4-1.71.48-.41.89-.92,1.34-1.37a237.72,237.72,0,0,1,97.49-59c21.45-6.73,43.36-10.84,65.92-10.84,4.16,0,8.32,0,12.47,0,12.52-.15,24.83,1.44,37.14,3.63a236.9,236.9,0,0,1,64.35,21.3c2,1,4,2,6.07,2.85a3,3,0,0,0,1.81.26c.54-.14,1.29-.64,1.38-1.09a9.83,9.83,0,0,0,.21-3.77c-.93-4.69-2.11-9.34-3.07-14a1041.62,1041.62,0,0,0-28.45-107.41,1109.33,1109.33,0,0,0-828-746.6ZM1030.35,2332.2l2.29-.16c.76-.05,1.86-1.41,1.58-2.06-1.26-2.93-2.5-5.87-3.84-8.76-12.37-26.63-20.31-54.42-22.12-83.83-.09-1.59-.37-3.18-.47-4.77-.29-4.46-.65-8.93-.78-13.4-.2-6.72.72-13.4,1.12-20.09a214,214,0,0,1,4-29.41A237.66,237.66,0,0,1,1041,2095a240.72,240.72,0,0,1,37-47.62c1.79-1.8,3.49-3.71,5.12-5.66a1.71,1.71,0,0,0-.4-1.55,44,44,0,0,0-6.38-2,728.4,728.4,0,0,1-77.72-20.66A805.32,805.32,0,0,1,762,1895.29a816.61,816.61,0,0,1-242.82-291.35,791,791,0,0,1-59.67-162.56c-.38-1.55-.91-3.06-1.41-4.57-.82-2.55-2.32-3.09-4.12-1.46s-3.25,3.07-4.9,4.58A238.73,238.73,0,0,1,375.52,1486a243.54,243.54,0,0,1-55.43,14.65c-10.81,1.56-21.65,1.65-32.47,2.54a69.72,69.72,0,0,1-9.57-.3c-2.56-.13-5.11-.59-7.65-.54-8.37.17-16.6-1.3-24.75-2.7a239.28,239.28,0,0,1-73.08-25.12c-1.69-.91-3.32-1.92-5-2.83-.84-.45-1.75-.78-2.62-1.17s-2.27-.19-2.55.48a3.62,3.62,0,0,0-.52,1.77c.62,3.46,1.29,6.9,2.07,10.33,7.68,34,16.58,67.62,27.25,100.79a1109.27,1109.27,0,0,0,762.16,730.25c24.33,6.68,48.9,12.35,73.58,17.55C1028.18,2332,1029.45,2332.07,1030.35,2332.2ZM1266,742.59v.06c6.39,0,12.8-.22,19.18.07,6.06.27,12.08,1.37,18.14,1.58,8,.28,15.91,1.63,23.79,2.76a457.18,457.18,0,0,1,46,9.05,491.4,491.4,0,0,1,130,53c2.21,1.3,4.36,2.69,6.48,4.11s2.68,3.43,2.32,5.85c-1,6.95-2.54,13.88-3,20.86a165.62,165.62,0,0,0,23.52,96.3c18.7,30.45,44.8,52.24,77.8,65.71,18.52,7.56,37.79,11.76,57.9,11.5q8.16-.11,16.31-.26c1.92,0,3.84-.15,5.75-.15a4.84,4.84,0,0,1,4.61,2.84c1,2,2.1,4,3.05,6a489.38,489.38,0,0,1,27.64,73.52,479.68,479.68,0,0,1,13.85,63.63c1.55,10.76,3.24,21.48,3.62,32.37a21.08,21.08,0,0,0,.22,2.87c1.67,9.83,1.38,19.77,1.54,29.68.06,3.51.14,7,.22,10.54a1.61,1.61,0,0,0,2.13,1.25c1.91-1.14,3.83-2.27,5.71-3.46a120.93,120.93,0,0,1,48.05-18,101.68,101.68,0,0,1,35.25,1.29,105.31,105.31,0,0,1,50.67,25.76c1.41,1.28,2.86,2.53,4.32,3.75a1,1,0,0,0,.88.19c.5-.31,1.14-.68,1.3-1.17a9.26,9.26,0,0,0,.41-2.82c0-20.79.42-41.59-1.9-62.31-.32-2.86-.38-5.74-.56-8.62-.13-1.91-.17-3.84-.42-5.74-1-7.6-2.21-15.18-3.13-22.79a485.72,485.72,0,0,0-8.53-48.11c-12.51-55.8-31.56-109.25-58.28-159.88-1.2-2.26-2.3-4.57-3.45-6.86a6.5,6.5,0,0,1-.29-5.56c.85-2.07,1.85-4.08,2.71-6.15,7.82-18.78,12.43-38.24,12.59-58.68.12-14.43-.86-28.67-4.21-42.81A161.6,161.6,0,0,0,1712.1,694.85c-11.46-3.05-23.08-5.14-35-5-7,.07-14.07.18-21.1.29a24.4,24.4,0,0,0-3.83.24c-10.7,1.88-21.39,3.69-31.75,7.16-9.38,3.14-8.44,3.43-16.81-2a653.48,653.48,0,0,0-81.43-44.82,625.67,625.67,0,0,0-104.55-37.41q-28.28-7.37-57.13-12.14c-11.35-1.87-22.73-3.62-34.14-4.82-11.74-1.23-23.5-2.79-35.37-2.65a69,69,0,0,1-8.62-.44c-8.92-1-17.87-.82-26.82-1a96.43,96.43,0,0,0-28.39,3.86c-16.65,4.71-31.21,13.06-43,25.86a73.58,73.58,0,0,0-17.5,31.55c-2.08,7.89-1.91,15.83-1.5,23.81a44.11,44.11,0,0,0,1.25,7.54,65.65,65.65,0,0,0,18.8,32.84c16.34,15.82,36.19,23.63,58.71,24.81C1251.24,742.91,1258.61,742.59,1266,742.59ZM444.55,1262.17c0-16.61-.68-22.29-3.76-36.12-15-67.41-75.86-122.7-155-123.15-6.1,0-12.09.84-18.13,1.45a147.68,147.68,0,0,0-27.17,5.55c-65,19.35-111.74,80.59-112.19,147.83-.08,12.5.37,25,3.1,37.19,6.79,30.4,21,56.8,43.08,78.84,28.11,28.06,62.28,43,101.61,46.24,16.34,1.34,32.56-.49,48.47-4.47,31.27-7.82,57.71-23.8,79.43-47.57,23.78-26,41-63.85,40.6-103.87C444.54,1263.45,444.55,1262.81,444.55,1262.17Zm803.56,1114.35c43.92-.39,81.8-15.67,112.88-46.82,30.61-30.69,45.12-68.32,46.36-111.37-1.17-43.39-15.77-81.26-46.64-112.22s-68.7-45.63-112.07-46.92c-43,1.19-80.54,15.74-111.47,46.11a159.28,159.28,0,0,0-47,112C1089.53,2305.49,1162,2376.94,1248.11,2376.52ZM2375.55,1248.57c0-14.67-.51-25.86-3-36.82-8-35.85-25.91-65.81-54.2-89.31-28.88-24-62.47-35.43-99.76-36.56a103.13,103.13,0,0,0-10.52.56c-2.23.16-4.44.59-6.67.69-9.65.44-19,2.65-28.19,5.25-43.46,12.23-89.09,47.06-107.49,105.93a154.11,154.11,0,0,0-6,30c-.74,7-.38,14.05-.47,21.09-.14,10.61,1.52,21,3.86,31.31,10.27,45.31,41.49,85.66,85.94,107a159.68,159.68,0,0,0,107.45,10.59,158.86,158.86,0,0,0,111.81-105.06,160.6,160.6,0,0,0,6.17-27.06C2375.46,1259.24,2375.36,1252.15,2375.55,1248.57ZM1248.94,124.85a152.49,152.49,0,0,0-41.72,5.25c-71.06,19.5-117.62,84-117,153,0,.95,0,1.92,0,2.87-.33,12.25,1.63,24.25,4.61,36a158.49,158.49,0,0,0,105.73,112.32,143.51,143.51,0,0,0,33.73,6.72c7,.45,14.06.26,21.09.3a123.82,123.82,0,0,0,29.37-3.84c35.81-8.53,65.15-27.31,88.08-56,22.78-28.53,33.37-61.45,34.43-97.67a80,80,0,0,0-.49-8.61c-.2-2.55-.72-5.09-.75-7.64-.07-6.45-1.38-12.73-2.79-18.94A158.62,158.62,0,0,0,1270,126.05C1263.06,125.07,1256,125.21,1248.94,124.85ZM750.86,844.14c-.62,0-1.48-.26-1.76,0a48.15,48.15,0,0,0-3.69,4.37Q729,870.46,714.64,893.72a640,640,0,0,0-69.83,155.18,632.82,632.82,0,0,0-16.4,68.93c-1.86,10.36-3.55,20.76-4.75,31.25-.75,6.67-1.21,13.38-2.24,20-1.57,10.14-1,20.44-2.83,30.54a23.93,23.93,0,0,0,0,6.71c.89,7.93,1.56,15.92,3.84,23.61,4.36,14.66,11.59,27.64,22.63,38.4,12,11.66,26.39,17.73,42.85,19.19,7.1.63,14-.94,20.81-2.73,11.69-3.08,21.68-9.29,30.42-17.54,18.37-17.32,27-39.22,29.3-63.87.67-7.31,1.25-14.64,1.79-22,.56-7.67,1.67-15.26,2.77-22.82,1.75-12,4.12-23.91,6.79-35.76a485.45,485.45,0,0,1,42.74-116.68,503.2,503.2,0,0,1,34.78-57.36c3.11-4.44,2.4-5.9-3-6.62a36.46,36.46,0,0,0-4.77-.44c-4.52,0-8.86-1-13.26-1.89-35-6.93-69.22-33.8-80.94-76.18C753.48,857.21,752.3,850.6,750.86,844.14Zm393.49-240.66c-.57-.18-1.17-.58-1.67-.49-4.09.71-8.16,1.5-12.23,2.29a607.91,607.91,0,0,0-85.8,23.49Q921.8,671.84,825.7,759.7a103.83,103.83,0,0,0-24.21,33c-8.54,18.2-11.17,37.17-6.66,56.95,5.93,26,27,46.11,53.41,49.93a80.82,80.82,0,0,0,36-2.67,96.12,96.12,0,0,0,40.51-24.66c5.38-5.49,11.1-10.57,17-15.51,60.82-51.1,130.07-85.17,207.49-102.76,2.79-.63,5.53-1.48,8.25-2.36a1.72,1.72,0,0,0,.29-1.58c-1.39-1.73-2.9-3.38-4.43-5a111.56,111.56,0,0,1-19.28-27.32,107.36,107.36,0,0,1-9.22-69,107.2,107.2,0,0,1,16.87-40.39C1142.75,606.88,1144.3,605.56,1144.35,603.48Zm740.87,731.81c.54-5.1-.81-10.1-1.56-15.15a80.44,80.44,0,0,0-16.85-39.18c-14.63-18.25-33.69-26.8-57.16-25.27a65.29,65.29,0,0,0-22.24,5.35,80.93,80.93,0,0,0-15,8.52,90.94,90.94,0,0,0-29.83,36.85,124.48,124.48,0,0,0-7.9,23.58c-1.94,8.4-3.76,16.83-6,25.16a493.11,493.11,0,0,1-95.54,186.3c-3.24,4-6.6,7.82-9.89,11.72-1.54,1.83-1.3,3,.69,3.41,5.61,1.21,11.28,2.21,16.83,3.67,46.2,12.09,78.09,54.16,79.25,99.34,0,.64,0,1.28,0,1.91.17,1.52-.45,3.65,1.45,4.15,1.67.44,2.7-1.41,3.76-2.54,2.84-3,5.66-6.09,8.41-9.21a642.25,642.25,0,0,0,142.62-273.66c1.86-7.73,2.77-15.76,6.38-23a5,5,0,0,0,.55-1.84C1883.72,1348.69,1885.8,1342.16,1885.22,1335.29Zm-276,262.63c-3.52.13-7,.09-10.53.45a70.13,70.13,0,0,0-8.46,1.63,92.33,92.33,0,0,0-43.52,22.93,74.32,74.32,0,0,1-8.18,6.61,483.62,483.62,0,0,1-146,70.34q-24.37,7.06-49.33,11.71c-1.84.35-2.36,2.19-1,3.63,2.38,2.59,4.89,5.06,7.16,7.74,17.79,21,27.63,45,27.16,72.82,0,1,0,1.92,0,2.88.22,8.07-1.38,15.87-3.35,23.63a105.32,105.32,0,0,1-14.92,33c-.71,1.07-1.62,2.24-1,3.5.84,1.86,2.69,1.15,4.18,1.13a22.18,22.18,0,0,0,3.81-.39c8.13-1.64,16.24-3.34,24.37-5a600,600,0,0,0,77.4-21.58,633.54,633.54,0,0,0,169.58-89.7,125.07,125.07,0,0,0,17-15.39,94.55,94.55,0,0,0,18.18-28c7-16.66,9.08-33.88,4.8-51.55-4.61-19.07-15.77-33.26-33.1-42.46A67,67,0,0,0,1609.17,1597.92Z"/><path class="cls-1" d="M1041,154.54c.62.31,1.4.45,1.64.88a2.31,2.31,0,0,1-.06,1.82c-.68,1.44-1.5,2.81-2.31,4.18a234.94,234.94,0,0,0-27,68.39c-2.46,10.89-4.48,21.89-5,33.13-.33,7-1.48,14-1.25,21.05a326.43,326.43,0,0,0,3.09,35.31,234.75,234.75,0,0,0,19,64.12,238.84,238.84,0,0,0,36,56.45c2.28,2.67,4.55,5.36,6.78,8.07a2.12,2.12,0,0,1-.73,3.22,35.23,35.23,0,0,1-4.53,1.48A787.75,787.75,0,0,0,943.2,491.29a815.9,815.9,0,0,0-397.94,345,800.08,800.08,0,0,0-75.82,174.64c-6.15,20.51-11.6,41.21-15.82,62.21-.57,2.81-1.35,5.59-2.05,8.37a2.14,2.14,0,0,1-3.19.93c-1-.77-2-1.58-3-2.39-3.21-2.64-6.36-5.36-9.61-7.94A239,239,0,0,0,336,1025.3a223.77,223.77,0,0,0-38-4.69c-10.9-.42-21.74.06-32.58.51a145.13,145.13,0,0,0-19,2.34c-30.21,5.31-58.6,15.57-84.83,31.61a43.52,43.52,0,0,1-5.08,2.62,1.94,1.94,0,0,1-1.7-.33,2.21,2.21,0,0,1-.57-1.7c.57-3.78,1.18-7.57,1.89-11.33,16.9-90.59,44-178,82.48-261.74A1110.53,1110.53,0,0,1,899.23,190.92c33.39-11,67.26-20.3,101.5-28.26,12.43-2.89,25-5.32,37.48-7.93A18.92,18.92,0,0,1,1041,154.54Z"/><path class="cls-1" d="M1463.87,2331.94c-.38-.52-1.1-1.11-1-1.47a25.72,25.72,0,0,1,1.65-4.41,252,252,0,0,0,15.64-40.15,281.91,281.91,0,0,0,7.8-37.47c2.38-16.92,1.57-33.82,1.29-50.76-2.82-27.2-9.14-53.47-20.46-78.48a245.35,245.35,0,0,0-49.19-71.55c-1.78-1.82-3.46-3.74-5.15-5.65-.82-.93-.16-2.64,1.15-3.09a22.08,22.08,0,0,1,2.7-.93,794.73,794.73,0,0,0,204.79-74.17A812.54,812.54,0,0,0,2035.77,1436c1.75-7.13,3.29-14.31,5-21.46.26-1.12,2.29-1.94,3.15-1.27,1.5,1.18,3,2.35,4.4,3.66a275.68,275.68,0,0,0,21,18.25c30.09,23.27,63.67,38.88,101,46.18,9.42,1.84,18.83,3.53,28.46,3.81,4.46.13,8.9.92,13.37,1.08a111.52,111.52,0,0,0,21.06-.79c1.26-.19,2.54-.29,3.82-.36,18.94-1,37.29-5.12,55.29-10.91A230.12,230.12,0,0,0,2326,1460.3a45.37,45.37,0,0,1,5.21-2.41,3.07,3.07,0,0,1,2.58.23c.56.53.57,1.72.67,2.63a6.13,6.13,0,0,1-.18,1.9c-5.2,24-10.51,48.06-17,71.8a1111.77,1111.77,0,0,1-525.11,675.85,1101.51,1101.51,0,0,1-179.61,81.43,1138,1138,0,0,1-118.71,34.15c-9.33,2.15-18.72,4-28.09,6A9,9,0,0,1,1463.87,2331.94Z"/><path class="cls-1" d="M1474.8,158.67a1110.08,1110.08,0,0,1,828,746.6,1041.62,1041.62,0,0,1,28.45,107.41c1,4.69,2.14,9.34,3.07,14a9.83,9.83,0,0,1-.21,3.77c-.09.45-.84,1-1.38,1.09a3,3,0,0,1-1.81-.26c-2.05-.9-4.07-1.86-6.07-2.85a236.9,236.9,0,0,0-64.35-21.3c-12.31-2.19-24.62-3.78-37.14-3.63-4.15.05-8.31,0-12.47,0-22.56,0-44.47,4.11-65.92,10.84a237.72,237.72,0,0,0-97.49,59c-.45.45-.86,1-1.34,1.37-1.16,1-2.18,2.58-4,1.71-1.25-.58-1.47-2-1.74-3.23a800,800,0,0,0-78.1-212.54,816.26,816.26,0,0,0-305.67-317.27,794.36,794.36,0,0,0-192.79-81.52c-12.63-3.46-25.3-6.74-38.06-9.63a2.35,2.35,0,0,1-1.17-3.8c.41-.49.83-1,1.26-1.43,1.08-1.18,2.18-2.34,3.24-3.54a240.55,240.55,0,0,0,56-111.91c2.86-13.76,4.85-27.7,4.57-41.86-.12-5.75-.19-11.52,0-17.27.24-9-1.2-17.89-2.56-26.7a239.09,239.09,0,0,0-30.1-84.37,31.89,31.89,0,0,1-2.14-4.25c-.18-.45.16-1.16.39-1.69a1,1,0,0,1,.8-.35C1462.27,156.28,1468.53,157.48,1474.8,158.67Z"/><path class="cls-1" d="M1030.35,2332.2c-.9-.13-2.17-.24-3.42-.5-24.68-5.2-49.25-10.87-73.58-17.55A1110.29,1110.29,0,0,1,191.19,1583.9c-10.67-33.17-19.57-66.82-27.25-100.79-.78-3.43-1.45-6.87-2.07-10.33a3.62,3.62,0,0,1,.52-1.77c.28-.67,1.61-.9,2.55-.48s1.78.72,2.62,1.17c1.69.91,3.32,1.92,5,2.83a239.28,239.28,0,0,0,73.08,25.12c8.15,1.4,16.38,2.87,24.75,2.7,2.54,0,5.09.41,7.65.54a69.72,69.72,0,0,0,9.57.3c10.82-.89,21.66-1,32.47-2.54A243.54,243.54,0,0,0,375.52,1486a238.73,238.73,0,0,0,73.55-46.07c1.65-1.51,3.24-3.09,4.9-4.58s3.3-1.09,4.12,1.46c.5,1.51,1,3,1.41,4.57a791,791,0,0,0,59.67,162.56,814.17,814.17,0,0,0,479.41,413.52,728.4,728.4,0,0,0,77.72,20.66,44,44,0,0,1,6.38,2,1.71,1.71,0,0,1,.4,1.55c-1.63,1.95-3.33,3.86-5.12,5.66a240.72,240.72,0,0,0-37,47.62,237.66,237.66,0,0,0-28.81,74.77,214,214,0,0,0-4,29.41c-.4,6.69-1.32,13.37-1.12,20.09.13,4.47.49,8.94.78,13.4.1,1.59.38,3.18.47,4.77,1.81,29.41,9.75,57.2,22.12,83.83,1.34,2.89,2.58,5.83,3.84,8.76.28.65-.82,2-1.58,2.06Z"/><path class="cls-1" d="M1266,742.59c-7.36,0-14.73.32-22.06-.06-22.52-1.18-42.37-9-58.71-24.81a65.65,65.65,0,0,1-18.8-32.84,44.11,44.11,0,0,1-1.25-7.54c-.41-8-.58-15.92,1.5-23.81a73.58,73.58,0,0,1,17.5-31.55c11.8-12.8,26.36-21.15,43-25.86a96.43,96.43,0,0,1,28.39-3.86c9,.19,17.9,0,26.82,1a69,69,0,0,0,8.62.44c11.87-.14,23.63,1.42,35.37,2.65,11.41,1.2,22.79,2.95,34.14,4.82q28.86,4.76,57.13,12.14a625.67,625.67,0,0,1,104.55,37.41,653.48,653.48,0,0,1,81.43,44.82c8.37,5.41,7.43,5.12,16.81,2,10.36-3.47,21-5.28,31.75-7.16a24.4,24.4,0,0,1,3.83-.24c7-.11,14.07-.22,21.1-.29,11.92-.13,23.54,2,35,5a161.6,161.6,0,0,1,116.14,118.88c3.35,14.14,4.33,28.38,4.21,42.81-.16,20.44-4.77,39.9-12.59,58.68-.86,2.07-1.86,4.08-2.71,6.15a6.5,6.5,0,0,0,.29,5.56c1.15,2.29,2.25,4.6,3.45,6.86,26.72,50.63,45.77,104.08,58.28,159.88a485.72,485.72,0,0,1,8.53,48.11c.92,7.61,2.11,15.19,3.13,22.79.25,1.9.29,3.83.42,5.74.18,2.88.24,5.76.56,8.62,2.32,20.72,1.93,41.52,1.9,62.31a9.26,9.26,0,0,1-.41,2.82c-.16.49-.8.86-1.3,1.17a1,1,0,0,1-.88-.19c-1.46-1.22-2.91-2.47-4.32-3.75a105.31,105.31,0,0,0-50.67-25.76,101.68,101.68,0,0,0-35.25-1.29,120.93,120.93,0,0,0-48.05,18c-1.88,1.19-3.8,2.32-5.71,3.46a1.61,1.61,0,0,1-2.13-1.25c-.08-3.51-.16-7-.22-10.54-.16-9.91.13-19.85-1.54-29.68a21.08,21.08,0,0,1-.22-2.87c-.38-10.89-2.07-21.61-3.62-32.37a479.68,479.68,0,0,0-13.85-63.63,489.38,489.38,0,0,0-27.64-73.52c-1-2-2-4-3.05-6a4.84,4.84,0,0,0-4.61-2.84c-1.91,0-3.83.12-5.75.15q-8.16.15-16.31.26c-20.11.26-39.38-3.94-57.9-11.5-33-13.47-59.1-35.26-77.8-65.71A165.62,165.62,0,0,1,1509,840c.45-7,1.94-13.91,3-20.86.36-2.42-.22-4.46-2.32-5.85s-4.27-2.81-6.48-4.11a491.4,491.4,0,0,0-130-53,457.18,457.18,0,0,0-46-9.05c-7.88-1.13-15.77-2.48-23.79-2.76-6.06-.21-12.08-1.31-18.14-1.58-6.38-.29-12.79-.07-19.18-.07Zm404.37,212.95c5.42-.3,10.92-.14,16.26-1a105.21,105.21,0,0,0,30.05-9.48c42.26-20.78,65.63-67.79,56.21-113.52-6.65-32.26-24.78-56.35-53.81-72.1a101.08,101.08,0,0,0-48.83-12,104.36,104.36,0,0,0-100.77,128C1582.06,929.2,1630.35,956.87,1670.34,955.54Z"/><path class="cls-1" d="M647.56,1319.86a104.93,104.93,0,0,0,85.62.64,114.5,114.5,0,0,0,31.46-20c1.66-1.47,3.45-2.79,5.21-4.14.69-.53,2.1.16,2.26,1.07,1.31,7.22,2.63,14.45,3.9,21.68a468.07,468.07,0,0,0,21.87,80.36,480.81,480.81,0,0,0,54.66,106.38c1.8,2.63,3.78,5.14,5.82,7.59a3.84,3.84,0,0,0,3.47,1.28,24.85,24.85,0,0,0,2.81-.54,172.53,172.53,0,0,1,24.6-3.82,124.76,124.76,0,0,1,29.66.41,219.45,219.45,0,0,1,24.48,4.5c50.39,13.15,100.57,53,116.44,119.74a146,146,0,0,1,4.36,36.09c-.13,8-.17,8.72,7.93,12.08a484.27,484.27,0,0,0,60.83,20.4,437.13,437.13,0,0,0,43.08,9.2q18.42,3,37.06,4.71c13.09,1.22,26.15,1.67,39.26,1.58,7.77,0,15.24,1.81,22.58,4a89.44,89.44,0,0,1,39.8,24,70.45,70.45,0,0,1,19.49,38.82,62.33,62.33,0,0,1-2.67,29.34,70.58,70.58,0,0,1-21.93,32,87.78,87.78,0,0,1-46.7,20.56c-1.91.24-3.8.54-5.69.87a55.56,55.56,0,0,1-13.39.33c-5.74-.4-11.48-.84-17.22-1.12-8.94-.43-17.86-.84-26.79-1.64-8.59-.78-17.15-1.87-25.73-2.73-8.88-.89-17.74-2.3-26.52-3.94-16-3-32-6.25-47.76-10.26a644.8,644.8,0,0,1-98.72-33.82c-4.09-1.78-8.27-3.36-12.41-5-4.57.69-8.14,3.6-12.07,5.63a163.78,163.78,0,0,1-51.83,16.5c-10.11,1.46-20.39,1.43-30.65,1.16-61.68-1.65-130.53-45.2-149.48-123.53-3.57-14.75-4.49-29.65-4.24-44.73a145.72,145.72,0,0,1,6.89-41.47c1.28-4.08,1.26-7.41-1.58-10.67-1.26-1.44-2.3-3.08-3.43-4.62a632,632,0,0,1-94.43-186.58,587.53,587.53,0,0,1-18.46-74.37c-1.65-9.44-3.49-18.85-4.92-28.32-.7-4.71-1.36-9.52-.13-14.29M1006,1671.92c.41-57.12-46.78-103.66-103.39-104-52.63-.28-103.23,40.45-104.86,103.82,1.13,59.34,46.68,103.53,104.26,104.64C967.79,1775.06,1007.24,1721.45,1006,1671.92Z"/><path class="cls-1" d="M444.55,1262.17c0,.64,0,1.28,0,1.92.38,40-16.82,77.85-40.6,103.87-21.72,23.77-48.16,39.75-79.43,47.57-15.91,4-32.13,5.81-48.47,4.47-39.33-3.24-73.5-18.18-101.61-46.24-22.09-22-36.29-48.44-43.08-78.84-2.73-12.23-3.18-24.69-3.1-37.19.45-67.24,47.14-128.48,112.19-147.83a147.68,147.68,0,0,1,27.17-5.55c6-.61,12-1.48,18.13-1.45,79.18.45,140,55.74,155,123.15C443.87,1239.88,444.57,1245.56,444.55,1262.17Z"/><path class="cls-1" d="M1248.11,2376.52c-86.11.42-158.58-71-157.95-159.26a159.28,159.28,0,0,1,47-112c30.93-30.37,68.46-44.92,111.47-46.11,43.37,1.29,81.2,15.95,112.07,46.92s45.47,68.83,46.64,112.22c-1.24,43.05-15.75,80.68-46.36,111.37C1329.91,2360.85,1292,2376.13,1248.11,2376.52Z"/><path class="cls-1" d="M2375.55,1248.57c-.19,3.58-.09,10.67-1,17.61a160.6,160.6,0,0,1-6.17,27.06,158.15,158.15,0,0,1-151.64,109.89,156.33,156.33,0,0,1-67.62-15.42c-44.45-21.31-75.67-61.66-85.94-107-2.34-10.31-4-20.7-3.86-31.31.09-7-.27-14.12.47-21.09a154.11,154.11,0,0,1,6-30c18.4-58.87,64-93.7,107.49-105.93,9.23-2.6,18.54-4.81,28.19-5.25,2.23-.1,4.44-.53,6.67-.69a103.13,103.13,0,0,1,10.52-.56c37.29,1.13,70.88,12.58,99.76,36.56,28.29,23.5,46.19,53.46,54.2,89.31C2375,1222.71,2375.6,1233.9,2375.55,1248.57Z"/><path class="cls-1" d="M1248.94,124.85c7,.36,14.12.22,21,1.2a158.62,158.62,0,0,1,133.3,122.59c1.41,6.21,2.72,12.49,2.79,18.94,0,2.55.55,5.09.75,7.64a80,80,0,0,1,.49,8.61c-1.06,36.22-11.65,69.14-34.43,97.67-22.93,28.73-52.27,47.51-88.08,56a123.82,123.82,0,0,1-29.37,3.84c-7,0-14.08.15-21.09-.3a143.51,143.51,0,0,1-33.73-6.72A158.49,158.49,0,0,1,1094.89,322c-3-11.78-4.94-23.78-4.61-36,0-.95,0-1.92,0-2.87-.67-69.07,45.89-133.54,117-153A152.49,152.49,0,0,1,1248.94,124.85Z"/><path class="cls-1" d="M750.86,844.14c1.44,6.46,2.62,13.07,4.41,19.52C767,906,801.2,932.91,836.21,939.84c4.4.87,8.74,1.88,13.26,1.89a36.46,36.46,0,0,1,4.77.44c5.45.72,6.16,2.18,3,6.62a503.2,503.2,0,0,0-34.78,57.36,485.45,485.45,0,0,0-42.74,116.68c-2.67,11.85-5,23.76-6.79,35.76-1.1,7.56-2.21,15.15-2.77,22.82-.54,7.33-1.12,14.66-1.79,22-2.28,24.65-10.93,46.55-29.3,63.87-8.74,8.25-18.73,14.46-30.42,17.54-6.79,1.79-13.71,3.36-20.81,2.73-16.46-1.46-30.9-7.53-42.85-19.19-11-10.76-18.27-23.74-22.63-38.4-2.28-7.69-2.95-15.68-3.84-23.61a23.93,23.93,0,0,1,0-6.71c1.79-10.1,1.26-20.4,2.83-30.54,1-6.61,1.49-13.32,2.24-20,1.2-10.49,2.89-20.89,4.75-31.25a632.82,632.82,0,0,1,16.4-68.93,640,640,0,0,1,69.83-155.18q14.39-23.25,30.77-45.17a48.15,48.15,0,0,1,3.69-4.37C749.38,843.88,750.24,844.14,750.86,844.14Z"/><path class="cls-1" d="M1144.35,603.48c0,2.08-1.6,3.4-2.63,4.93a107.2,107.2,0,0,0-16.87,40.39,107.36,107.36,0,0,0,9.22,69,111.56,111.56,0,0,0,19.28,27.32c1.53,1.61,3,3.26,4.43,5a1.72,1.72,0,0,1-.29,1.58c-2.72.88-5.46,1.73-8.25,2.36-77.42,17.59-146.67,51.66-207.49,102.76-5.88,4.94-11.6,10-17,15.51a96.12,96.12,0,0,1-40.51,24.66,80.82,80.82,0,0,1-36,2.67c-26.41-3.82-47.48-23.94-53.41-49.93-4.51-19.78-1.88-38.75,6.66-56.95a103.83,103.83,0,0,1,24.21-33q96.25-87.62,219-130.93a607.91,607.91,0,0,1,85.8-23.49c4.07-.79,8.14-1.58,12.23-2.29C1143.18,602.9,1143.78,603.3,1144.35,603.48Z"/><path class="cls-1" d="M1885.22,1335.29c.58,6.87-1.5,13.4-2,20.09a5,5,0,0,1-.55,1.84c-3.61,7.26-4.52,15.29-6.38,23a642.25,642.25,0,0,1-142.62,273.66c-2.75,3.12-5.57,6.18-8.41,9.21-1.06,1.13-2.09,3-3.76,2.54-1.9-.5-1.28-2.63-1.45-4.15-.07-.63,0-1.27,0-1.91-1.16-45.18-33-87.25-79.25-99.34-5.55-1.46-11.22-2.46-16.83-3.67-2-.42-2.23-1.58-.69-3.41,3.29-3.9,6.65-7.77,9.89-11.72a493.11,493.11,0,0,0,95.54-186.3c2.23-8.33,4-16.76,6-25.16a124.48,124.48,0,0,1,7.9-23.58,90.94,90.94,0,0,1,29.83-36.85,80.93,80.93,0,0,1,15-8.52,65.29,65.29,0,0,1,22.24-5.35c23.47-1.53,42.53,7,57.16,25.27a80.44,80.44,0,0,1,16.85,39.18C1884.41,1325.19,1885.76,1330.19,1885.22,1335.29Z"/><path class="cls-1" d="M1609.17,1597.92a67,67,0,0,1,34.14,7.94c17.33,9.2,28.49,23.39,33.1,42.46,4.28,17.67,2.24,34.89-4.8,51.55a94.55,94.55,0,0,1-18.18,28,125.07,125.07,0,0,1-17,15.39,633.54,633.54,0,0,1-169.58,89.7,600,600,0,0,1-77.4,21.58c-8.13,1.67-16.24,3.37-24.37,5a22.18,22.18,0,0,1-3.81.39c-1.49,0-3.34.73-4.18-1.13-.57-1.26.34-2.43,1-3.5a105.32,105.32,0,0,0,14.92-33c2-7.76,3.57-15.56,3.35-23.63,0-1,0-1.92,0-2.88.47-27.83-9.37-51.82-27.16-72.82-2.27-2.68-4.78-5.15-7.16-7.74-1.32-1.44-.8-3.28,1-3.63q25-4.62,49.33-11.71a483.62,483.62,0,0,0,146-70.34,74.32,74.32,0,0,0,8.18-6.61,92.33,92.33,0,0,1,43.52-22.93,70.13,70.13,0,0,1,8.46-1.63C1602.13,1598,1605.65,1598.05,1609.17,1597.92Z"/><path class="cls-1" d="M1670.34,955.54c-40,1.33-88.28-26.34-100.89-80.14a104.36,104.36,0,0,1,100.77-128,101.08,101.08,0,0,1,48.83,12c29,15.75,47.16,39.84,53.81,72.1,9.42,45.73-13.95,92.74-56.21,113.52a105.21,105.21,0,0,1-30.05,9.48C1681.26,955.4,1675.76,955.24,1670.34,955.54Z"/><path class="cls-1" d="M1006,1671.92c1.24,49.53-38.21,103.14-104,104.51-57.58-1.11-103.13-45.3-104.26-104.64,1.63-63.37,52.23-104.1,104.86-103.82C959.22,1568.26,1006.41,1614.8,1006,1671.92Z"/></svg>