<?xml version="1.0" encoding="UTF-8" standalone="no"?>
<svg
   id="Layer_1"
   data-name="Layer 1"
   viewBox="0 0 267 267"
   version="1.1"
   width="267"
   height="267"
   xmlns="http://www.w3.org/2000/svg"
   xmlns:svg="http://www.w3.org/2000/svg">
  <defs
     id="defs84">
    <style
       id="style82">.cls-1{fill:#fff;}.cls-2{fill:#0068b4;}</style>
  </defs>
  <path
     class="cls-1"
     d="M 273.33125,267.32801 H 6.3312541 V 0.3280122 H 273.33125 Z M 70.562054,139.9184 l -0.0487,0.0376 0.0719,-0.0287 c -0.13614,0.52734 -0.0631,1.0591 0.0144,1.57981 0.15828,1.04694 0.36194,2.08725 0.54457,3.13087 a 65.031054,64.953505 0 0 0 2.04326,8.22187 69.953238,69.86982 0 0 0 10.45203,20.62707 c 0.12507,0.17025 0.24019,0.35156 0.37965,0.51076 0.31435,0.3604 0.31656,0.72855 0.17488,1.1796 a 16.129092,16.109858 0 0 0 -0.76262,4.58466 c -0.0277,1.66715 0.0742,3.3166 0.46931,4.94506 2.10302,8.65965 9.71819,13.47426 16.545266,13.65667 1.13563,0.0298 2.27348,0.0332 3.39251,-0.12824 a 18.128072,18.106454 0 0 0 5.73683,-1.82413 c 0.43499,-0.22111 0.83014,-0.54614 1.33597,-0.62242 0.45824,0.18463 0.9209,0.3593 1.37361,0.55277 a 71.370013,71.284905 0 0 0 10.92687,3.73892 c 1.74883,0.44221 3.51427,0.80262 5.28634,1.13428 0.97182,0.18131 1.95249,0.33719 2.93538,0.43558 0.94968,0.0951 1.89715,0.22111 2.84794,0.30181 0.98842,0.0884 1.97574,0.13377 2.96526,0.18131 0.63534,0.0309 1.27067,0.0796 1.90601,0.12382 a 6.1496866,6.1423532 0 0 0 1.48208,-0.0365 c 0.20919,-0.0365 0.41839,-0.0696 0.6298,-0.0962 a 9.7159735,9.7043874 0 0 0 5.16901,-2.27298 7.8121829,7.8028669 0 0 0 2.42733,-3.53771 6.8990275,6.8908005 0 0 0 0.29553,-3.24364 7.7977938,7.788495 0 0 0 -2.15726,-4.29169 9.8997115,9.8879062 0 0 0 -4.40528,-2.65328 c -0.81243,-0.2388 -1.63925,-0.44221 -2.49928,-0.44221 -1.45109,0.01 -2.89664,-0.0398 -4.34551,-0.17468 q -2.06318,-0.19457 -4.10201,-0.52071 a 48.383954,48.326257 0 0 1 -4.76833,-1.01709 53.601669,53.53775 0 0 1 -6.733,-2.25529 c -0.89655,-0.37146 -0.89212,-0.44221 -0.87773,-1.33549 a 16.160084,16.140813 0 0 0 -0.48259,-3.98987 c -1.75658,-7.37503 -7.30524,-11.7839 -12.88822,-13.23768 a 24.289934,24.260968 0 0 0 -2.70958,-0.49749 13.809123,13.792656 0 0 0 -3.282926,-0.0453 19.09657,19.073798 0 0 0 -2.72287,0.42232 2.7505348,2.7472548 0 0 1 -0.31102,0.0597 0.42503234,0.42452549 0 0 1 -0.38408,-0.1415 c -0.22137,-0.27086 -0.44275,-0.55277 -0.64419,-0.8391 a 53.218697,53.155235 0 0 1 -6.05007,-11.76069 51.808564,51.746783 0 0 1 -2.4218,-8.88076 c -0.14057,-0.7993 -0.28668,-1.5986 -0.43167,-2.3968 -0.0177,-0.10061 -0.17378,-0.17689 -0.25015,-0.11829 -0.19481,0.14924 -0.39294,0.29517 -0.57668,0.45769 a 12.67349,12.658377 0 0 1 -3.48216,2.21107 11.61423,11.60038 0 0 1 -9.47689,-0.0708 c -0.93751,-0.42342 -1.83849,-0.91317 -2.59115,-1.63398 z M 116.70241,12.716632 a 2.0941697,2.0916725 0 0 0 -0.30771,0.021 c -1.38357,0.28855 -2.77267,0.55277 -4.14849,0.87669 -3.78987,0.88443 -7.53879,1.90595 -11.23458,3.12425 a 123.08228,122.93551 0 0 0 -73.124376,65.41119 c -4.25364,9.26217 -7.25875,18.921228 -9.12934,28.936278 -0.0786,0.41568 -0.1461,0.83468 -0.2092,1.25257 a 0.24461496,0.24432326 0 0 0 0.0631,0.18794 0.21472988,0.21447381 0 0 0 0.18817,0.0365 4.8170331,4.8112889 0 0 0 0.56228,-0.28965 c 2.90328,-1.76885 6.04564,-2.90756 9.38945,-3.49459 a 16.063787,16.044631 0 0 1 2.10303,-0.2587 c 1.19983,-0.0497 2.39966,-0.10281 3.60613,-0.0564 a 24.768095,24.73856 0 0 1 4.20605,0.51849 26.453835,26.42229 0 0 1 11.04752,5.17391 c 0.35973,0.28523 0.70839,0.58593 1.06369,0.87779 0.11068,0.0896 0.22137,0.1791 0.33205,0.26423 a 0.23686698,0.23658452 0 0 0 0.35309,-0.10282 c 0.0775,-0.30734 0.16382,-0.61468 0.22691,-0.92533 0.46709,-2.32163 1.07033,-4.61008 1.75104,-6.87754 a 88.557258,88.451655 0 0 1 8.39218,-19.307058 90.308303,90.200611 0 0 1 44.046186,-38.14097 87.192506,87.08853 0 0 1 13.64863,-4.27289 3.8994503,3.8948003 0 0 0 0.5014,-0.16362 0.23465327,0.23437345 0 0 0 0.0808,-0.35598 c -0.24682,-0.2996 -0.49808,-0.59699 -0.75044,-0.89217 a 26.436126,26.404601 0 0 1 -3.98468,-6.24074 25.983422,25.952437 0 0 1 -2.10303,-7.08869 36.131069,36.087983 0 0 1 -0.33316,-3.90144 c -0.0255,-0.78051 0.10183,-1.54775 0.13836,-2.32715 0.0587,-1.24262 0.28224,-2.45871 0.55342,-3.66264 a 26.004452,25.973442 0 0 1 2.98851,-7.56075 c 0.0897,-0.15146 0.18042,-0.30292 0.25569,-0.46212 a 0.25568351,0.25537861 0 0 0 0.007,-0.2012 c -0.0255,-0.0475 -0.11179,-0.0641 -0.17931,-0.0984 z m 46.80668,240.719228 a 0.99616954,0.99498162 0 0 0 0.20698,0 c 1.03713,-0.22111 2.07646,-0.43006 3.10916,-0.66333 a 125.9601,125.8099 0 0 0 13.13948,-3.7754 123.0203,122.8736 0 0 0 73.2251,-69.57022 123.22396,123.07701 0 0 0 4.77719,-14.15085 c 0.71502,-2.62454 1.30276,-5.27893 1.88165,-7.93774 a 0.67850214,0.67769303 0 0 0 0.0199,-0.21005 c -0.0111,-0.10061 -0.0122,-0.23216 -0.0742,-0.29076 a 0.3398045,0.33939928 0 0 0 -0.28557,-0.0254 5.0218013,5.0158129 0 0 0 -0.57667,0.26643 25.470948,25.440574 0 0 1 -3.72346,1.53117 c -1.99234,0.6401 -4.02342,1.09226 -6.1198,1.20613 -0.14168,0.008 -0.28335,0.0188 -0.42282,0.0398 a 12.343647,12.328928 0 0 1 -2.33103,0.0873 c -0.49477,-0.0177 -0.98621,-0.11055 -1.47987,-0.1194 -1.0659,-0.0309 -2.10302,-0.2211 -3.15011,-0.42121 -4.13742,-0.80704 -7.85867,-2.53278 -11.17923,-5.10536 a 30.51378,30.477392 0 0 1 -2.3244,-2.0176 c -0.15275,-0.14482 -0.32099,-0.27417 -0.48702,-0.40462 -0.0952,-0.0741 -0.31988,0.0166 -0.34866,0.1404 -0.18373,0.79046 -0.35419,1.58423 -0.55342,2.37248 a 90.140061,90.03257 0 0 1 -45.6777,58.35567 87.965091,87.860193 0 0 1 -22.6706,8.19644 2.4439359,2.4410216 0 0 0 -0.29885,0.10281 c -0.145,0.0497 -0.22137,0.2388 -0.12729,0.34161 0.18706,0.21116 0.37301,0.42342 0.57003,0.62463 a 27.156688,27.124304 0 0 1 5.44462,7.9101 c 1.25296,2.76384 1.95249,5.66919 2.26462,8.67624 0.031,1.87278 0.12065,3.74113 -0.14278,5.6117 a 31.20335,31.166141 0 0 1 -0.86335,4.14244 27.892747,27.859485 0 0 1 -1.73112,4.43872 2.8468312,2.8434364 0 0 0 -0.18263,0.48754 c -0.0111,0.0376 0.0686,0.10282 0.11069,0.16031 z m 1.20869,-240.262638 c -0.694,-0.13156 -1.38689,-0.26422 -2.082,-0.39246 a 0.1106855,0.11055351 0 0 0 -0.0885,0.0387 c -0.0255,0.0586 -0.0631,0.13708 -0.0432,0.18683 a 3.5297607,3.5255515 0 0 0 0.23687,0.46985 26.463797,26.432239 0 0 1 3.33163,9.3274 c 0.15053,0.97398 0.30992,1.9557 0.28335,2.95178 -0.0166,0.63569 -0.009,1.27358 0,1.90926 0.031,1.56544 -0.18927,3.10656 -0.50583,4.62777 a 26.625398,26.593648 0 0 1 -6.19839,12.37205 c -0.11732,0.13266 -0.23908,0.2609 -0.35862,0.39135 -0.0476,0.052 -0.0941,0.10393 -0.13946,0.1581 a 0.26011093,0.25980076 0 0 0 0.1295,0.4201 c 1.41235,0.3195 2.81473,0.68211 4.21269,1.06463 a 87.924137,87.819288 0 0 1 21.33906,9.01232 90.348149,90.24041 0 0 1 33.83324,35.07532 88.548403,88.44281 0 0 1 8.64453,23.497038 c 0.0299,0.14151 0.0542,0.29297 0.1926,0.35709 0.20366,0.0962 0.31656,-0.0796 0.44274,-0.18904 0.0531,-0.0453 0.0985,-0.10171 0.14832,-0.15146 a 26.312158,26.280781 0 0 1 10.79073,-6.52266 c 2.3742,-0.74402 4.79932,-1.1984 7.29639,-1.1984 0.46045,0 0.9209,0 1.38024,0 1.38579,-0.0166 2.74833,0.1592 4.11086,0.40131 a 26.221396,26.190127 0 0 1 7.12262,2.35479 c 0.22137,0.11055 0.44274,0.22111 0.67186,0.31508 a 0.33205651,0.33166054 0 0 0 0.20034,0.0287 c 0.0598,-0.0155 0.14278,-0.0708 0.15274,-0.1205 a 1.0880385,1.086741 0 0 0 0.0233,-0.41679 c -0.10294,-0.5185 -0.23355,-1.03257 -0.33981,-1.54775 a 115.29223,115.15475 0 0 0 -3.149,-11.874548 122.78675,122.64033 0 0 0 -91.6476,-82.53926 z m -49.19417,240.291378 0.25347,-0.0177 c 0.0841,-0.006 0.20587,-0.15588 0.17488,-0.22774 -0.13946,-0.32392 -0.27671,-0.64895 -0.42503,-0.96845 -1.36918,-2.94404 -2.24803,-6.01632 -2.44837,-9.2677 -0.01,-0.17578 -0.041,-0.35156 -0.052,-0.52734 -0.0321,-0.49307 -0.0719,-0.98724 -0.0863,-1.48142 -0.0221,-0.74292 0.0797,-1.48141 0.12396,-2.22102 a 23.686698,23.658452 0 0 1 0.44275,-3.25138 26.305517,26.274148 0 0 1 3.19549,-8.26055 26.644215,26.612442 0 0 1 4.09536,-5.26456 c 0.19813,-0.199 0.38629,-0.41016 0.56671,-0.62573 a 0.18927221,0.18904651 0 0 0 -0.0443,-0.17136 4.8701622,4.8643546 0 0 0 -0.70618,-0.22111 80.623321,80.527179 0 0 1 -8.60247,-2.28404 89.13725,89.030955 0 0 1 -26.190406,-13.51185 90.386889,90.279104 0 0 1 -26.87665,-32.20976 87.552234,87.447829 0 0 1 -6.60461,-17.97158 c -0.0421,-0.17136 -0.10072,-0.33829 -0.15606,-0.50523 -0.0908,-0.28191 -0.2568,-0.34161 -0.45603,-0.16141 -0.19923,0.1802 -0.35973,0.3394 -0.54236,0.50634 a 26.42395,26.39244 0 0 1 -8.14202,5.0932 26.956348,26.924203 0 0 1 -6.1353,1.61961 c -1.19651,0.17246 -2.39634,0.18241 -3.59396,0.2808 a 7.7169933,7.7077909 0 0 1 -1.05926,-0.0332 c -0.28335,-0.0144 -0.5656,-0.0652 -0.84674,-0.0597 -0.92644,0.0188 -1.83738,-0.14372 -2.73947,-0.2985 a 26.484827,26.453245 0 0 1 -8.0889,-2.7771 c -0.18706,-0.10061 -0.36747,-0.21226 -0.55342,-0.31287 -0.093,-0.0497 -0.1937,-0.0862 -0.29,-0.12935 -0.0963,-0.0431 -0.25126,-0.021 -0.28225,0.0531 a 0.40068152,0.40020372 0 0 0 -0.0576,0.19568 c 0.0686,0.38251 0.14279,0.76282 0.22912,1.14202 0.85007,3.75882 1.83517,7.47563 3.01618,11.14269 a 122.78011,122.6337 0 0 0 84.360066,80.7317 c 2.69298,0.7385 5.41252,1.36533 8.14424,1.94021 0.13725,0.0332 0.27782,0.0409 0.37744,0.0553 z M 141.60665,77.727632 v 0.007 c 0.70728,0 1.41677,-0.0243 2.12294,0.008 0.67076,0.0298 1.33708,0.15146 2.00784,0.17468 0.88548,0.031 1.761,0.1802 2.63321,0.30512 a 50.603199,50.542855 0 0 1 5.09153,1.00051 54.390857,54.325996 0 0 1 14.38912,5.85934 c 0.24461,0.14372 0.48258,0.29739 0.71724,0.45437 0.23465,0.15699 0.29663,0.3792 0.25679,0.64674 -0.11069,0.76835 -0.28114,1.53449 -0.33206,2.30615 a 18.331733,18.309873 0 0 0 2.60332,10.6463 c 2.06982,3.366358 4.95871,5.775318 8.61134,7.264468 2.04989,0.83579 4.1828,1.30011 6.40869,1.27137 q 0.90319,-0.0122 1.80528,-0.0288 c 0.21251,0 0.42503,-0.0166 0.63644,-0.0166 a 0.53571784,0.535079 0 0 1 0.51026,0.31397 c 0.11069,0.22111 0.23244,0.44222 0.33759,0.66332 a 54.167272,54.102678 0 0 1 3.05935,8.1279 53.093623,53.030309 0 0 1 1.53299,7.03452 c 0.17156,1.18956 0.35862,2.37469 0.40068,3.57862 a 2.3332504,2.3304681 0 0 0 0.0243,0.31729 c 0.18485,1.08674 0.15275,2.18564 0.17046,3.28122 0.007,0.38805 0.0155,0.77388 0.0243,1.16524 a 0.17820366,0.17799116 0 0 0 0.23576,0.13819 c 0.21141,-0.12603 0.42393,-0.25096 0.63202,-0.38252 a 13.385198,13.369236 0 0 1 5.31843,-1.98996 11.254502,11.241081 0 0 1 3.90167,0.14261 11.65629,11.64239 0 0 1 5.60843,2.84786 c 0.15607,0.14151 0.31656,0.2797 0.47816,0.41458 a 0.1106855,0.11055351 0 0 0 0.0974,0.021 c 0.0553,-0.0343 0.12618,-0.0752 0.14389,-0.12934 a 1.0249478,1.0237255 0 0 0 0.0454,-0.31176 c 0,-2.29841 0.0465,-4.59792 -0.2103,-6.88859 -0.0354,-0.31619 -0.0421,-0.63458 -0.062,-0.95297 -0.0144,-0.21116 -0.0188,-0.42453 -0.0465,-0.63458 -0.11068,-0.84021 -0.24461,-1.6782 -0.34644,-2.51952 a 53.762163,53.698052 0 0 0 -0.94415,-5.31873 c -1.38467,-6.16888 -3.49323,-12.07797 -6.45075,-17.675288 -0.13282,-0.24985 -0.25458,-0.50523 -0.38186,-0.7584 a 0.71945578,0.71859783 0 0 1 -0.0321,-0.61468 c 0.0941,-0.22884 0.20476,-0.45105 0.29995,-0.6799 0.86557,-2.0762 1.37583,-4.22757 1.39353,-6.48728 0.0133,-1.59529 -0.0952,-3.16957 -0.46598,-4.7328 a 17.886777,17.865448 0 0 0 -12.84937,-13.14647 c -1.26846,-0.33719 -2.55462,-0.56825 -3.87399,-0.55277 -0.7748,0.008 -1.55735,0.0199 -2.33547,0.0321 a 2.7007263,2.6975057 0 0 0 -0.42392,0.0265 c -1.18434,0.20784 -2.36757,0.40794 -3.51427,0.79156 -1.03823,0.34714 -0.93418,0.3792 -1.86062,-0.2211 a 72.330763,72.24451 0 0 0 -9.01312,-4.95501 69.252599,69.170016 0 0 0 -11.57217,-4.13581 q -3.13019,-0.81478 -6.32346,-1.34212 c -1.25628,-0.20673 -2.51589,-0.4002 -3.77881,-0.53287 -1.29945,-0.13598 -2.60111,-0.30844 -3.91494,-0.29296 a 7.6372998,7.6281924 0 0 1 -0.95411,-0.0486 c -0.98732,-0.11055 -1.97795,-0.0906 -2.96859,-0.11055 a 10.673403,10.660675 0 0 0 -3.14236,0.42674 c -1.84291,0.5207 -3.45449,1.44383 -4.75948,2.85891 a 8.1442394,8.1345275 0 0 0 -1.93699,3.48796 c -0.23023,0.87227 -0.21141,1.75007 -0.16603,2.63228 a 4.8823376,4.8765155 0 0 0 0.13836,0.83358 7.2665033,7.2578381 0 0 0 2.08088,3.63057 c 1.8086,1.74896 4.00571,2.61238 6.49835,2.74284 0.81022,0.042 1.62597,0.007 2.44394,0.007 z M 50.684044,135.16902 c 0,-1.83629 -0.0753,-2.46423 -0.41618,-3.99319 -1.66028,-7.45241 -8.3966,-13.56491 -17.15625,-13.61466 -0.67519,0 -1.33819,0.0929 -2.00673,0.1603 a 16.346035,16.326543 0 0 0 -3.00733,0.61357 c -7.19455,2.13921 -12.368,8.90951 -12.4178,16.34313 -0.009,1.38192 0.041,2.76383 0.34312,4.11148 0.75156,3.36083 2.3244,6.27944 4.76833,8.71604 3.11137,3.10213 6.8935,4.7538 11.24676,5.112 1.8086,0.14814 3.60392,-0.0542 5.36492,-0.49418 3.46114,-0.86453 6.38766,-2.63117 8.79175,-5.25903 2.6321,-2.87439 4.53811,-7.05884 4.49383,-11.48319 -0.006,-0.0708 -0.004,-0.14151 -0.004,-0.21227 z m 88.942436,123.19531 c 4.86131,-0.0431 9.05408,-1.73237 12.49418,-5.17611 3.38808,-3.39289 4.99413,-7.55302 5.13138,-12.31235 -0.1295,-4.79692 -1.74551,-8.98358 -5.16237,-12.40631 -3.41686,-3.42274 -7.60409,-5.04456 -12.40452,-5.18718 -4.75948,0.13156 -8.91462,1.74012 -12.33812,5.09763 a 17.629987,17.608964 0 0 0 -5.20222,12.38199 c -0.0708,9.74972 7.95054,17.64876 17.48167,17.60233 z M 264.41775,133.6655 c 0,-1.62182 -0.0564,-2.85892 -0.33206,-4.07058 -0.88548,-3.96335 -2.86786,-7.27553 -5.99915,-9.87354 -3.1966,-2.65328 -6.91453,-3.91691 -11.04199,-4.04183 a 11.414996,11.401384 0 0 0 -1.16441,0.0619 c -0.24683,0.0177 -0.49145,0.0652 -0.73827,0.0763 -1.06812,0.0486 -2.10303,0.29296 -3.12023,0.5804 -4.81039,1.35207 -9.86097,5.20265 -11.89758,11.71094 a 17.057743,17.037402 0 0 0 -0.66412,3.3166 c -0.0819,0.77388 -0.0421,1.55328 -0.052,2.33158 -0.0155,1.17297 0.16824,2.32162 0.42725,3.46143 1.13674,5.00918 4.59234,9.47001 9.51231,11.82922 a 17.674261,17.653185 0 0 0 11.89316,1.17076 17.583499,17.562531 0 0 0 12.37574,-11.61475 17.776092,17.754894 0 0 0 0.68293,-2.99158 c 0.10847,-0.76724 0.0974,-1.55106 0.11844,-1.94684 z M 139.71835,9.4343022 a 16.878432,16.858305 0 0 0 -4.6178,0.5804098 c -7.86531,2.15579 -13.01883,9.28649 -12.9502,16.91468 0,0.10503 0,0.21227 0,0.31729 -0.0365,1.35428 0.18041,2.68093 0.51026,3.97993 a 17.542546,17.521626 0 0 0 11.70278,12.41737 15.884477,15.865535 0 0 0 3.73342,0.74292 c 0.7748,0.0498 1.55624,0.0287 2.33436,0.0332 a 13.705079,13.688736 0 0 0 3.25083,-0.42453 c 3.96365,-0.94302 7.21116,-3.01921 9.74918,-6.19099 2.52141,-3.1541 3.69357,-6.79352 3.8109,-10.79777 a 8.8548403,8.844281 0 0 0 -0.0542,-0.95186 c -0.0221,-0.28191 -0.0797,-0.56272 -0.083,-0.84463 -0.008,-0.71307 -0.15275,-1.40735 -0.30881,-2.09388 A 17.556935,17.535998 0 0 0 142.04939,9.5669922 c -0.76816,-0.10834 -1.5496,-0.0929 -2.33104,-0.13266 z M 84.588114,88.954342 c -0.0686,0 -0.16381,-0.0287 -0.1948,0 a 5.329507,5.3231516 0 0 0 -0.40843,0.48312 q -1.81635,2.42665 -3.40579,4.99812 a 70.838723,70.754248 0 0 0 -7.72917,17.155698 70.044001,69.960474 0 0 0 -1.81524,7.62045 c -0.20588,1.14533 -0.39294,2.29509 -0.52576,3.4548 -0.083,0.73739 -0.13393,1.4792 -0.24794,2.21107 -0.17377,1.12101 -0.11068,2.25971 -0.31324,3.3763 a 2.6487041,2.6455456 0 0 0 0,0.74182 c 0.0985,0.87669 0.17267,1.76001 0.42504,2.61016 0.48258,1.62072 1.28284,3.0557 2.50481,4.24526 1.32822,1.28905 2.92099,1.96011 4.74287,2.12152 0.78587,0.0696 1.5496,-0.10392 2.30337,-0.30181 1.29391,-0.3405 2.39966,-1.02704 3.36705,-1.93911 2.03329,-1.91479 2.98851,-4.33591 3.24309,-7.06105 0.0742,-0.80815 0.13835,-1.6185 0.19812,-2.43218 0.062,-0.84794 0.18485,-1.68705 0.3066,-2.52283 0.1937,-1.32664 0.45603,-2.64333 0.75156,-3.95339 a 53.732278,53.668203 0 0 1 4.7307,-12.89939 55.696946,55.630528 0 0 1 3.84964,-6.34135 c 0.34423,-0.49085 0.26564,-0.652258 -0.33206,-0.731858 a 4.0355935,4.0307811 0 0 0 -0.52797,-0.0486 c -0.5003,0 -0.98067,-0.11056 -1.46769,-0.20895 -3.87399,-0.76614 -7.66165,-3.73671 -8.95888,-8.42197 -0.20588,-0.71086 -0.33649,-1.44162 -0.49588,-2.15579 z m 43.553636,-26.60581 c -0.0631,-0.0199 -0.1295,-0.0641 -0.18484,-0.0542 -0.4527,0.0785 -0.90319,0.16583 -1.35368,0.25317 a 67.286825,67.206586 0 0 0 -9.49682,2.5969 q -13.59771,4.76154 -24.234586,14.47477 a 11.492476,11.478771 0 0 0 -2.6797,3.64827 c -0.94525,2.01207 -1.23636,4.10927 -0.73716,6.29602 0.65636,2.87439 2.98851,5.09762 5.91171,5.51994 a 8.9456024,8.9349349 0 0 0 3.98468,-0.29518 10.639091,10.626404 0 0 0 4.483866,-2.72625 c 0.59549,-0.60694 1.22861,-1.16855 1.88165,-1.71469 6.73189,-5.64928 14.39686,-9.41584 22.96614,-11.36048 0.30881,-0.0696 0.61209,-0.16361 0.91315,-0.2609 a 0.19037907,0.19015204 0 0 0 0.0321,-0.17468 c -0.15385,-0.19125 -0.32099,-0.37367 -0.49034,-0.55276 a 12.348075,12.33335 0 0 1 -2.13401,-3.02033 11.883196,11.869025 0 0 1 -1.02052,-7.62819 11.865486,11.851337 0 0 1 1.86726,-4.46525 c 0.11401,-0.16031 0.28557,-0.30624 0.2911,-0.53619 z m 82.00357,80.904168 c 0.0598,-0.56383 -0.0896,-1.11659 -0.17267,-1.67489 a 8.9035419,8.8929246 0 0 0 -1.86505,-4.33149 c -1.61933,-2.0176 -3.72899,-2.96283 -6.32678,-2.79368 a 7.2266566,7.2180389 0 0 0 -2.46165,0.59146 8.9577778,8.9470958 0 0 0 -1.66028,0.94191 10.06574,10.053736 0 0 0 -3.30175,4.0739 13.778132,13.761701 0 0 0 -0.87441,2.60685 c -0.21473,0.92865 -0.41618,1.86062 -0.66412,2.78153 a 54.580129,54.515043 0 0 1 -10.57489,20.59612 c -0.35862,0.44221 -0.73052,0.86453 -1.09468,1.29569 -0.17045,0.20231 -0.14389,0.33166 0.0764,0.37698 0.62095,0.13377 1.24854,0.24433 1.86284,0.40574 5.11367,1.33659 8.64343,5.98757 8.77183,10.98238 0,0.0708 0,0.14151 0,0.21116 0.0188,0.16804 -0.0498,0.40352 0.16049,0.4588 0.18485,0.0486 0.29885,-0.15588 0.41618,-0.28081 0.31435,-0.33166 0.62648,-0.67327 0.93086,-1.0182 a 71.087765,71.002994 0 0 0 15.78597,-30.25407 c 0.20588,-0.85458 0.3066,-1.74233 0.70617,-2.54273 a 0.55342752,0.55276756 0 0 0 0.0609,-0.20342 c 0.0587,-0.74182 0.28889,-1.46373 0.22469,-2.22323 z m -30.5492,29.03467 c -0.38961,0.0144 -0.77479,0.01 -1.16551,0.0498 a 7.7623744,7.7531179 0 0 0 -0.9364,0.1802 10.219593,10.207406 0 0 0 -4.81704,2.53499 8.2261467,8.2163371 0 0 1 -0.9054,0.73076 53.529723,53.46589 0 0 1 -16.16009,7.77633 q -2.6974,0.78051 -5.46011,1.29458 c -0.20366,0.0387 -0.26122,0.24212 -0.11069,0.40131 0.26343,0.28634 0.54125,0.5594 0.79251,0.85569 1.96909,2.32162 3.05824,4.97491 3.00622,8.0505 0,0.11056 0,0.21227 0,0.3184 0.0243,0.89217 -0.15275,1.75448 -0.3708,2.61238 a 11.657397,11.643496 0 0 1 -1.65143,3.64826 c -0.0786,0.1183 -0.17931,0.24764 -0.11068,0.38694 0.093,0.20563 0.29774,0.12714 0.46266,0.12493 a 2.4550045,2.4520769 0 0 0 0.42171,-0.0431 c 0.89988,-0.18131 1.79754,-0.36925 2.69741,-0.55277 a 66.411302,66.332108 0 0 0 8.56706,-2.38574 70.123694,70.040073 0 0 0 18.77005,-9.91665 13.843436,13.826928 0 0 0 1.88165,-1.70142 10.465314,10.452835 0 0 0 2.01226,-3.0955 c 0.7748,-1.84182 1.00503,-3.74555 0.53129,-5.69903 -0.51026,-2.10826 -1.74551,-3.67701 -3.66369,-4.6941 a 7.4159288,7.4070854 0 0 0 -3.79651,-0.87669 z"
     id="path86"
     style="stroke-width:0.110619" />
  <path
     class="cls-2"
     d="m 114.48987,15.909573 c 0.0686,0.03427 0.15496,0.04975 0.18152,0.09729 a 0.25568351,0.25537861 0 0 1 -0.007,0.201207 c -0.0753,0.159197 -0.16603,0.310656 -0.25568,0.462114 a 26.004452,25.973442 0 0 0 -2.98851,7.560755 c -0.27229,1.203927 -0.49587,2.420016 -0.55343,3.662637 -0.0365,0.773875 -0.16381,1.54775 -0.13836,2.327152 a 36.131069,36.087983 0 0 0 0.34202,3.903644 25.983422,25.952437 0 0 0 2.10303,7.088692 26.436126,26.404601 0 0 0 3.98467,6.240745 c 0.25237,0.295178 0.50362,0.592567 0.75045,0.892167 a 0.23465327,0.23437345 0 0 1 -0.0808,0.355983 3.8994503,3.8948003 0 0 1 -0.5014,0.163619 87.192506,87.08853 0 0 0 -13.66192,4.272893 90.308303,90.200611 0 0 0 -44.046181,38.140955 88.557258,88.451655 0 0 0 -8.392175,19.307074 c -0.680715,2.26745 -1.283951,4.55591 -1.751044,6.87753 -0.06309,0.31066 -0.149426,0.618 -0.226905,0.92534 a 0.23686698,0.23658452 0 0 1 -0.353087,0.10281 c -0.110686,-0.0851 -0.221371,-0.17467 -0.332057,-0.26422 -0.3553,-0.29186 -0.70396,-0.59257 -1.063687,-0.8778 a 26.453835,26.42229 0 0 0 -11.043093,-5.17501 24.768095,24.73856 0 0 0 -4.206049,-0.51849 c -1.206472,-0.0464 -2.406303,0.007 -3.606134,0.0564 a 16.063787,16.044631 0 0 0 -2.103025,0.2587 c -3.343809,0.58703 -6.48617,1.72131 -9.389451,3.49459 a 4.8170331,4.8112889 0 0 1 -0.562282,0.28965 0.21472988,0.21447381 0 0 1 -0.188166,-0.0365 0.24461496,0.24432326 0 0 1 -0.06309,-0.18794 c 0.06309,-0.41789 0.130609,-0.83689 0.209195,-1.25257 1.870585,-10.01505 4.870162,-19.678534 9.129341,-28.936284 A 122.91957,122.77299 0 0 1 98.797984,19.931509 c 3.695786,-1.216088 7.444706,-2.244236 11.234576,-3.124242 1.37582,-0.319499 2.76714,-0.588145 4.14849,-0.876689 a 2.0941697,2.0916725 0 0 1 0.30882,-0.02101 z"
     id="path88"
     style="stroke-width:0.110619" />
  <path
     class="cls-2"
     d="m 161.29545,256.6288 c -0.0421,-0.0575 -0.12176,-0.12272 -0.11069,-0.16252 a 2.8468312,2.8434364 0 0 1 0.18263,-0.48754 27.892747,27.859485 0 0 0 1.73112,-4.43872 31.20335,31.166141 0 0 0 0.86335,-4.14244 c 0.26343,-1.87057 0.17378,-3.73892 0.14278,-5.6117 -0.31213,-3.00705 -1.01166,-5.9113 -2.26462,-8.67624 a 27.156688,27.124304 0 0 0 -5.44462,-7.9101 c -0.19702,-0.20121 -0.38297,-0.41347 -0.57003,-0.62463 -0.0908,-0.10281 -0.0177,-0.29186 0.12729,-0.34161 a 2.4439359,2.4410216 0 0 1 0.29885,-0.10282 87.965091,87.860193 0 0 0 22.66728,-8.19975 89.936399,89.829151 0 0 0 45.6777,-58.35125 c 0.1937,-0.78825 0.36415,-1.58202 0.55342,-2.37248 0.0288,-0.12382 0.25347,-0.21447 0.34866,-0.1404 0.16603,0.13045 0.33206,0.2598 0.48702,0.40463 a 30.51378,30.477392 0 0 0 2.32439,2.0176 c 3.33053,2.57258 7.04735,4.29832 11.17924,5.10536 1.04266,0.20342 2.08421,0.39025 3.15011,0.42121 0.49366,0.0144 0.9851,0.10171 1.47987,0.1194 a 12.343647,12.328928 0 0 0 2.33103,-0.0873 c 0.13947,-0.021 0.28114,-0.0321 0.42282,-0.0398 2.09638,-0.11055 4.12746,-0.56604 6.1198,-1.20614 a 25.470948,25.440574 0 0 0 3.72789,-1.53559 5.0218013,5.0158129 0 0 1 0.57667,-0.26643 0.3398045,0.33939928 0 0 1 0.28557,0.0254 c 0.062,0.0586 0.0631,0.19016 0.0742,0.29076 a 0.67850214,0.67769303 0 0 1 -0.0199,0.21005 c -0.57557,2.65329 -1.16331,5.3132 -1.88166,7.93774 a 123.05682,122.91008 0 0 1 -58.12206,74.7176 121.92119,121.7758 0 0 1 -19.88023,9.00237 125.9601,125.8099 0 0 1 -13.13947,3.7754 c -1.0327,0.23769 -2.07204,0.44222 -3.10916,0.66332 a 0.99616954,0.99498162 0 0 1 -0.20919,0.007 z"
     id="path90"
     style="stroke-width:0.110619" />
  <path
     class="cls-2"
     d="m 162.50524,16.366159 a 122.86976,122.72324 0 0 1 91.6476,82.539257 115.29223,115.15475 0 0 1 3.149,11.874554 c 0.11068,0.51849 0.23687,1.03257 0.3398,1.54775 a 1.0880385,1.086741 0 0 1 -0.0232,0.41678 c -0.01,0.0497 -0.093,0.11056 -0.15275,0.12051 a 0.33205651,0.33166054 0 0 1 -0.20034,-0.0288 c -0.2269,-0.0995 -0.45049,-0.20563 -0.67186,-0.31507 a 26.221396,26.190127 0 0 0 -7.12261,-2.35479 c -1.36254,-0.24212 -2.72508,-0.4179 -4.11086,-0.40131 -0.45935,0.006 -0.9198,0 -1.38025,0 -2.49706,0 -4.92218,0.45437 -7.29639,1.1984 a 26.312158,26.280781 0 0 0 -10.79073,6.52265 c -0.0498,0.0498 -0.0952,0.11056 -0.14832,0.15146 -0.12839,0.11056 -0.24129,0.28523 -0.44274,0.18905 -0.13835,-0.0641 -0.16271,-0.22111 -0.19259,-0.35709 A 88.548403,88.44281 0 0 0 216.46442,93.972466 90.348149,90.24041 0 0 0 182.63118,58.897151 87.924137,87.819288 0 0 0 161.29213,49.884828 c -1.39796,-0.382515 -2.80035,-0.74513 -4.21269,-1.06463 a 0.26011093,0.25980076 0 0 1 -0.12951,-0.420103 c 0.0454,-0.05417 0.0919,-0.110554 0.13947,-0.158092 0.11954,-0.130453 0.24129,-0.258695 0.35862,-0.391359 A 26.625398,26.593648 0 0 0 163.64641,35.4786 c 0.31656,-1.521216 0.53682,-3.062332 0.50583,-4.62777 -0.0133,-0.635683 -0.021,-1.273577 0,-1.909259 0.0266,-0.994982 -0.13282,-1.977803 -0.28336,-2.951779 a 26.463797,26.432239 0 0 0 -3.33163,-9.3274 3.5297607,3.5255515 0 0 1 -0.23687,-0.469852 c -0.0199,-0.04975 0.0177,-0.128242 0.0432,-0.186836 a 0.1106855,0.11055351 0 0 1 0.0885,-0.03869 c 0.68625,0.134876 1.37914,0.26754 2.07314,0.399099 z"
     id="path92"
     style="stroke-width:0.110619" />
  <path
     class="cls-2"
     d="m 113.31107,256.65754 c -0.0996,-0.0144 -0.24019,-0.0265 -0.37855,-0.0553 -2.73172,-0.57488 -5.45126,-1.20171 -8.14424,-1.94021 A 122.89301,122.74646 0 0 1 20.428223,173.93035 c -1.181014,-3.66706 -2.166115,-7.38719 -3.01618,-11.14269 -0.08634,-0.3792 -0.160494,-0.75951 -0.229119,-1.14202 a 0.40068152,0.40020372 0 0 1 0.05756,-0.19568 c 0.03099,-0.0741 0.178204,-0.0995 0.282249,-0.0531 0.104044,0.0464 0.19702,0.0796 0.289996,0.12935 0.187058,0.10061 0.367475,0.21226 0.553427,0.31287 a 26.484827,26.453245 0 0 0 8.088897,2.7771 c 0.902087,0.15478 1.813028,0.31729 2.739466,0.2985 0.281141,0 0.563389,0.0453 0.846744,0.0597 a 7.7169933,7.7077909 0 0 0 1.05926,0.0332 c 1.197617,-0.0984 2.397448,-0.11055 3.593959,-0.2808 a 26.956348,26.924203 0 0 0 6.136404,-1.61961 26.42395,26.39244 0 0 0 8.140919,-5.0932 c 0.182631,-0.16694 0.358621,-0.34161 0.542359,-0.50634 0.183738,-0.16472 0.365262,-0.1205 0.456024,0.16141 0.05534,0.16694 0.110686,0.33166 0.156067,0.50523 a 87.552234,87.447829 0 0 0 6.604604,17.97158 90.116817,90.009354 0 0 0 53.063731,45.71609 80.623321,80.527179 0 0 0 8.60248,2.28403 4.8701622,4.8643546 0 0 1 0.70617,0.22111 0.18927221,0.18904651 0 0 1 0.0443,0.17136 c -0.18041,0.21558 -0.36858,0.42673 -0.56671,0.62573 a 26.644215,26.612442 0 0 0 -4.09536,5.26456 26.305517,26.274148 0 0 0 -3.18885,8.26608 23.686698,23.658452 0 0 0 -0.44274,3.25138 c -0.0443,0.73961 -0.14611,1.4781 -0.12397,2.22102 0.0144,0.49418 0.0542,0.98835 0.0863,1.48142 0.0111,0.17578 0.0421,0.35156 0.052,0.52734 0.20034,3.25138 1.07918,6.32366 2.44836,9.2677 0.14832,0.3195 0.28557,0.64453 0.42503,0.96845 0.031,0.0719 -0.0908,0.22111 -0.17488,0.22774 z"
     id="path94"
     style="stroke-width:0.110619" />
  <path
     class="cls-2"
     d="m 139.39411,80.920566 c -0.81465,0 -1.6304,0.0354 -2.44173,-0.007 -2.49263,-0.13046 -4.68974,-0.99498 -6.49834,-2.74284 a 7.2665033,7.2578381 0 0 1 -2.08089,-3.63057 4.8823376,4.8765155 0 0 1 -0.13836,-0.83358 c -0.0454,-0.88442 -0.0642,-1.76001 0.16603,-2.63228 a 8.1442394,8.1345275 0 0 1 1.937,-3.48796 c 1.30609,-1.41508 2.91767,-2.33821 4.75947,-2.85891 a 10.673403,10.660675 0 0 1 3.14237,-0.42674 c 0.99617,0.021 1.98127,0 2.96858,0.11055 a 7.6372998,7.6281924 0 0 0 0.95411,0.0486 c 1.31384,-0.0155 2.6155,0.15698 3.91495,0.29296 1.26292,0.13267 2.52252,0.32614 3.7788,0.53287 q 3.19438,0.52624 6.32346,1.34212 a 69.252599,69.170016 0 0 1 11.57217,4.13581 72.330763,72.24451 0 0 1 9.01312,4.95501 c 0.92644,0.59809 0.8224,0.56603 1.86063,0.2211 1.1467,-0.38362 2.32439,-0.58372 3.51426,-0.79156 a 2.7007263,2.6975057 0 0 1 0.42393,-0.0265 c 0.77479,-0.0122 1.55734,-0.0243 2.33546,-0.0321 1.31937,-0.0144 2.60554,0.2211 3.87399,0.55277 a 17.886777,17.865448 0 0 1 12.85502,13.1426 c 0.37079,1.56322 0.47927,3.13751 0.46598,4.73279 -0.0177,2.25972 -0.52797,4.41109 -1.39353,6.487284 -0.0952,0.22885 -0.20587,0.45106 -0.29996,0.67991 a 0.71945578,0.71859783 0 0 0 0.0321,0.61467 c 0.12729,0.25317 0.24905,0.50855 0.38187,0.7584 2.95752,5.59733 5.06607,11.50641 6.45075,17.6753 a 53.762163,53.698052 0 0 1 0.94415,5.31873 c 0.10183,0.84131 0.23354,1.6793 0.34644,2.51951 0.0277,0.21005 0.0321,0.42342 0.0465,0.63458 0.0199,0.31839 0.0266,0.63679 0.062,0.95297 0.25679,2.29067 0.21363,4.59018 0.21031,6.88859 a 1.0249478,1.0237255 0 0 1 -0.0454,0.31176 c -0.0177,0.0542 -0.0886,0.0951 -0.1439,0.12935 a 0.1106855,0.11055351 0 0 1 -0.0974,-0.021 c -0.1616,-0.13487 -0.32209,-0.27306 -0.47816,-0.41457 a 11.65629,11.64239 0 0 0 -5.60843,-2.84786 11.254502,11.241081 0 0 0 -3.90167,-0.14262 13.385198,13.369236 0 0 0 -5.31844,1.98997 c -0.20809,0.13156 -0.4206,0.25648 -0.63201,0.38251 a 0.17820366,0.17799116 0 0 1 -0.23576,-0.13819 c -0.009,-0.38804 -0.0177,-0.77387 -0.0243,-1.16523 -0.0177,-1.09559 0.0144,-2.19449 -0.17046,-3.28123 a 2.3332504,2.3304681 0 0 1 -0.0244,-0.31729 c -0.0421,-1.20393 -0.22912,-2.38906 -0.40068,-3.57862 a 53.093623,53.030309 0 0 0 -1.53299,-7.03452 54.167272,54.102678 0 0 0 -3.05935,-8.12789 c -0.11069,-0.22111 -0.22137,-0.44222 -0.33759,-0.66332 a 0.53571784,0.535079 0 0 0 -0.51026,-0.31397 c -0.21141,0 -0.42393,0.0133 -0.63644,0.0166 q -0.9032,0.0166 -1.80528,0.0287 c -2.22589,0.0288 -4.3588,-0.43558 -6.4087,-1.27136 -3.65262,-1.48916 -6.54151,-3.89812 -8.61133,-7.26447 a 18.331733,18.309873 0 0 1 -2.60112,-10.635254 c 0.0498,-0.77388 0.21473,-1.5378 0.33206,-2.30615 0.0399,-0.26754 -0.0243,-0.49307 -0.25679,-0.64674 -0.23244,-0.15367 -0.47263,-0.31065 -0.71724,-0.45437 a 54.390857,54.325996 0 0 0 -14.38912,-5.85934 50.603199,50.542855 0 0 0 -5.09153,-1.00051 c -0.8722,-0.12492 -1.74551,-0.27417 -2.63321,-0.30512 -0.67075,-0.0232 -1.33708,-0.14483 -2.00783,-0.17468 -0.70618,-0.0321 -1.41567,-0.008 -2.12295,-0.008 z M 184.152,104.46294 c 0.59992,-0.0332 1.20869,-0.0155 1.79975,-0.11055 a 11.645222,11.631335 0 0 0 3.3261,-1.04805 c 4.67757,-2.2973 7.26429,-7.494424 6.22163,-12.550044 -0.73606,-3.56645 -2.74279,-6.22969 -5.95599,-7.9709 a 11.188091,11.174749 0 0 0 -5.40477,-1.32665 11.551139,11.537365 0 0 0 -11.15378,14.15085 c 1.39243,5.943364 6.73743,9.002384 11.16374,8.855344 z"
     id="path96"
     style="stroke-width:0.110619" />
  <path
     class="cls-2"
     d="m 70.941764,144.7398 a 11.61423,11.60038 0 0 0 9.4769,0.0708 12.67349,12.658377 0 0 0 3.48216,-2.21107 c 0.18374,-0.16251 0.38187,-0.30844 0.57667,-0.45769 0.0764,-0.0586 0.23244,0.0177 0.25015,0.11829 0.145,0.7982 0.2911,1.5975 0.43168,2.3968 a 51.808564,51.746783 0 0 0 2.42069,8.88408 53.218697,53.155235 0 0 0 6.05007,11.76068 c 0.19923,0.29076 0.41839,0.56825 0.64419,0.83911 a 0.42503234,0.42452549 0 0 0 0.38408,0.1415 2.7505348,2.7472548 0 0 0 0.31102,-0.0597 19.09657,19.073798 0 0 1 2.72287,-0.42231 13.809123,13.792656 0 0 1 3.282926,0.0453 24.289934,24.260968 0 0 1 2.70958,0.49749 c 5.57744,1.45378 11.13164,5.85933 12.88822,13.23768 a 16.160084,16.140813 0 0 1 0.48259,3.98987 c -0.0144,0.88443 -0.0188,0.96403 0.87773,1.33549 a 53.601669,53.53775 0 0 0 6.733,2.25529 48.383954,48.326257 0 0 0 4.76833,1.01709 q 2.03883,0.33166 4.10201,0.52071 c 1.44887,0.13487 2.89442,0.18462 4.34551,0.17467 0.86003,0 1.68685,0.20011 2.49928,0.44222 a 9.8997115,9.8879062 0 0 1 4.40528,2.65328 7.7977938,7.788495 0 0 1 2.15726,4.29169 6.8990275,6.8908005 0 0 1 -0.29553,3.24364 7.8121829,7.8028669 0 0 1 -2.42733,3.53771 9.7159735,9.7043874 0 0 1 -5.16901,2.27298 c -0.21141,0.0265 -0.42061,0.0597 -0.6298,0.0962 a 6.1496866,6.1423532 0 0 1 -1.48208,0.0365 c -0.63534,-0.0442 -1.27067,-0.0929 -1.90601,-0.12382 -0.98952,-0.0475 -1.97684,-0.0929 -2.96526,-0.18131 -0.95079,-0.0862 -1.89826,-0.20674 -2.84794,-0.30181 -0.98289,-0.0984 -1.96356,-0.25428 -2.93538,-0.43558 -1.77097,-0.33166 -3.54193,-0.69096 -5.28634,-1.13428 a 71.370013,71.284905 0 0 1 -10.92687,-3.73892 c -0.45271,-0.19679 -0.91537,-0.37146 -1.37361,-0.55277 -0.50583,0.0763 -0.90098,0.39799 -1.33597,0.62242 a 18.128072,18.106454 0 0 1 -5.73683,1.82413 c -1.11903,0.16141 -2.256876,0.15809 -3.392506,0.12824 -6.82708,-0.18241 -14.44778,-4.99702 -16.54527,-13.65667 -0.39515,-1.63067 -0.49698,-3.27792 -0.46931,-4.94506 a 16.129092,16.109858 0 0 1 0.76262,-4.58466 c 0.14168,-0.45105 0.13947,-0.8192 -0.17488,-1.1796 -0.13946,-0.1592 -0.25458,-0.34051 -0.37965,-0.51076 a 69.953238,69.86982 0 0 1 -10.45203,-20.62707 65.031054,64.953505 0 0 1 -2.04326,-8.22187 c -0.18263,-1.04362 -0.38629,-2.08393 -0.54457,-3.13087 -0.0775,-0.52071 -0.15053,-1.05247 -0.0144,-1.57981 m 42.243116,40.54329 c 0.0454,-6.31482 -5.17786,-11.45998 -11.443766,-11.49757 -5.82538,-0.0309 -11.42606,4.47189 -11.60648,11.47767 0.12507,6.56024 5.1668,11.4456 11.54007,11.56832 7.280886,-0.14593 11.647426,-6.07271 11.510176,-11.54842 z"
     id="path98"
     style="stroke-width:0.110619" />
  <path
     class="cls-2"
     d="m 48.471502,138.36196 c 0,0.0708 0,0.14151 0,0.21227 0.04206,4.42214 -1.86173,8.60659 -4.493831,11.48319 -2.404089,2.62786 -5.330614,4.3945 -8.79175,5.25903 -1.761006,0.44221 -3.556325,0.64232 -5.364926,0.49418 -4.353261,-0.3582 -8.135385,-2.00987 -11.246754,-5.112 -2.445043,-2.43218 -4.016777,-5.35521 -4.768332,-8.71604 -0.302171,-1.35207 -0.35198,-2.72956 -0.343125,-4.11148 0.04981,-7.43362 5.217715,-14.20392 12.417807,-16.34313 a 16.346035,16.326543 0 0 1 3.007325,-0.61357 c 0.664113,-0.0674 1.328226,-0.16362 2.006728,-0.1603 8.764078,0.0498 15.495971,6.16225 17.156253,13.61466 0.345339,1.52896 0.422819,2.1569 0.420605,3.99319 z"
     id="path100"
     style="stroke-width:0.110619" />
  <path
     class="cls-2"
     d="m 137.41394,261.55727 c -9.53113,0.0464 -17.55251,-7.8493 -17.48277,-17.60675 a 17.629987,17.608964 0 0 1 5.20222,-12.38199 c 3.4235,-3.35751 7.57752,-4.96607 12.33811,-5.09763 4.80043,0.14262 8.98766,1.76333 12.40452,5.18717 3.41686,3.42385 5.03287,7.6094 5.16237,12.40632 -0.13725,4.75933 -1.74329,8.91946 -5.13138,12.31234 -3.43899,3.44817 -7.63508,5.13743 -12.49307,5.18054 z"
     id="path102"
     style="stroke-width:0.110619" />
  <path
     class="cls-2"
     d="m 262.20521,136.85844 c -0.021,0.39578 -0.01,1.1796 -0.11069,1.94684 a 17.776092,17.754894 0 0 1 -0.68293,2.99158 17.504912,17.484038 0 0 1 -16.78435,12.14873 17.303465,17.282831 0 0 1 -7.48455,-1.70474 c -4.91997,-2.35589 -8.37557,-6.81673 -9.51231,-11.82922 -0.25901,-1.13981 -0.44275,-2.28846 -0.42725,-3.46143 0.01,-0.77388 -0.0299,-1.56102 0.052,-2.33158 a 17.057743,17.037402 0 0 1 0.66411,-3.3166 c 2.03662,-6.50829 7.08388,-10.35887 11.89759,-11.71094 1.02163,-0.28744 2.05211,-0.53176 3.12022,-0.5804 0.24683,-0.0111 0.49145,-0.0586 0.73828,-0.0763 a 11.414996,11.401384 0 0 1 1.16441,-0.0619 c 4.12746,0.12492 7.84539,1.39076 11.04198,4.04183 3.1313,2.59801 5.11257,5.91019 5.99916,9.87354 0.26343,1.21166 0.32984,2.44876 0.32431,4.07058 z"
     id="path104"
     style="stroke-width:0.110619" />
  <path
     class="cls-2"
     d="m 137.50581,12.627239 c 0.7748,0.0398 1.56288,0.02432 2.3244,0.132664 a 17.556935,17.535998 0 0 1 14.75437,13.552755 c 0.15607,0.686538 0.30107,1.380814 0.30882,2.093884 0,0.281911 0.0609,0.562717 0.083,0.844629 a 8.8548403,8.844281 0 0 1 0.0542,0.951865 c -0.11733,4.004249 -1.28949,7.64367 -3.81091,10.797762 -2.53801,3.176202 -5.78553,5.252397 -9.74917,6.190997 a 13.705079,13.688736 0 0 1 -3.25084,0.424525 c -0.7748,0 -1.55845,0.01658 -2.33435,-0.03317 a 15.884477,15.865535 0 0 1 -3.73338,-0.74292 17.542546,17.521626 0 0 1 -11.69724,-12.41737 c -0.33206,-1.30232 -0.54679,-2.628963 -0.51026,-3.979927 0,-0.105025 0,-0.212262 0,-0.317288 -0.0742,-7.635931 5.07936,-14.763316 12.9502,-16.914688 a 16.878432,16.858305 0 0 1 4.61116,-0.583722 z"
     id="path106"
     style="stroke-width:0.110619" />
  <path
     class="cls-2"
     d="m 82.375574,92.147276 c 0.15939,0.71417 0.29,1.44493 0.48813,2.158 1.29834,4.68084 5.08378,7.655834 8.95888,8.421974 0.48702,0.0962 0.96739,0.20784 1.46769,0.20895 a 4.0355935,4.0307811 0 0 1 0.52797,0.0486 c 0.60324,0.0796 0.68183,0.24101 0.33206,0.73186 a 55.696946,55.630528 0 0 0 -3.84964,6.34135 53.732278,53.668203 0 0 0 -4.7307,12.89939 c -0.29553,1.31006 -0.55343,2.62675 -0.75156,3.95339 -0.12175,0.83579 -0.24461,1.67489 -0.30659,2.52283 -0.0598,0.81036 -0.12397,1.62072 -0.19813,2.43218 -0.25236,2.72514 -1.20979,5.14627 -3.24309,7.06105 -0.96739,0.91207 -2.07314,1.59861 -3.36705,1.93911 -0.75155,0.19789 -1.5175,0.37146 -2.30337,0.30181 -1.82188,-0.16141 -3.42018,-0.83247 -4.74287,-2.12152 -1.21754,-1.18956 -2.02222,-2.62454 -2.50481,-4.24525 -0.25237,-0.85016 -0.32652,-1.73348 -0.42503,-2.61017 a 2.6487041,2.6455456 0 0 1 0,-0.74182 c 0.19812,-1.11659 0.13946,-2.25529 0.31324,-3.3763 0.11068,-0.73076 0.16492,-1.47257 0.24793,-2.21107 0.13282,-1.15971 0.31988,-2.30946 0.52576,-3.4548 a 70.044001,69.960474 0 0 1 1.81524,-7.62045 70.838723,70.754248 0 0 1 7.72917,-17.155704 q 1.59276,-2.57037 3.40579,-4.9937 a 5.329507,5.3231516 0 0 1 0.40843,-0.48312 c 0.0387,-0.0354 0.13393,-0.007 0.20255,-0.007 z"
     id="path108"
     style="stroke-width:0.110619" />
  <path
     class="cls-2"
     d="m 125.92921,65.541466 c 0,0.22995 -0.17709,0.37588 -0.2911,0.54503 a 11.865486,11.851337 0 0 0 -1.86726,4.46526 11.883196,11.869025 0 0 0 1.02052,7.62819 12.348075,12.33335 0 0 0 2.13401,3.02032 c 0.16935,0.17799 0.33206,0.3604 0.49034,0.55277 a 0.19037907,0.19015204 0 0 1 -0.0321,0.17467 c -0.30106,0.0973 -0.60434,0.19126 -0.91315,0.26091 -8.56928,1.94463 -16.23425,5.71119 -22.96614,11.36048 -0.65083,0.54613 -1.28395,1.10553 -1.88165,1.71468 a 10.639091,10.626404 0 0 1 -4.483866,2.72625 8.9456024,8.9349349 0 0 1 -3.98468,0.29518 c -2.9232,-0.42231 -5.25535,-2.64665 -5.91171,-5.51994 -0.4992,-2.18675 -0.20809,-4.28395 0.73716,-6.29602 a 11.492476,11.478771 0 0 1 2.6797,-3.64827 q 10.653476,-9.68669 24.240116,-14.47477 a 67.286825,67.206586 0 0 1 9.49682,-2.5969 c 0.45049,-0.0873 0.90098,-0.17467 1.35368,-0.25317 0.0498,-0.0188 0.11622,0.0254 0.17931,0.0453 z"
     id="path110"
     style="stroke-width:0.110619" />
  <path
     class="cls-2"
     d="m 207.93278,146.44564 c 0.0642,0.7595 -0.16603,1.48141 -0.22137,2.22102 a 0.55342752,0.55276756 0 0 1 -0.0609,0.20342 c -0.39958,0.80261 -0.5003,1.69036 -0.70618,2.54273 a 71.087765,71.002994 0 0 1 -15.78596,30.25407 c -0.30439,0.34493 -0.61652,0.68322 -0.93087,1.0182 -0.11733,0.12492 -0.23133,0.33166 -0.41618,0.2808 -0.2103,-0.0553 -0.14167,-0.29075 -0.16049,-0.45879 -0.008,-0.0696 0,-0.14041 0,-0.21116 -0.1284,-4.99481 -3.65262,-9.64579 -8.77183,-10.98239 -0.6143,-0.1614 -1.24189,-0.27196 -1.86283,-0.40573 -0.22138,-0.0464 -0.24683,-0.17467 -0.0764,-0.37698 0.36416,-0.43116 0.73606,-0.85901 1.09468,-1.29569 a 54.580129,54.515043 0 0 0 10.5749,-20.59612 c 0.24682,-0.92091 0.44274,-1.85288 0.66411,-2.78153 a 13.778132,13.761701 0 0 1 0.87441,-2.60685 10.06574,10.053736 0 0 1 3.30175,-4.0739 8.9577778,8.9470958 0 0 1 1.66028,-0.94191 7.2266566,7.2180389 0 0 1 2.46165,-0.59146 c 2.59779,-0.16915 4.70745,0.77387 6.32678,2.79368 a 8.9035419,8.8929246 0 0 1 1.86505,4.33149 c 0.0797,0.56051 0.22912,1.11327 0.16935,1.6771 z"
     id="path112"
     style="stroke-width:0.110619" />
  <path
     class="cls-2"
     d="m 177.37805,175.48031 a 7.4159288,7.4070854 0 0 1 3.7788,0.87779 c 1.91818,1.01709 3.15343,2.58585 3.66369,4.6941 0.47374,1.95348 0.24794,3.85722 -0.53129,5.69904 a 10.465314,10.452835 0 0 1 -2.01226,3.0955 13.843436,13.826928 0 0 1 -1.88165,1.70141 70.123694,70.040073 0 0 1 -18.77005,9.91665 66.411302,66.332108 0 0 1 -8.56706,2.38575 c -0.89987,0.18462 -1.79753,0.37256 -2.6974,0.55277 a 2.4550045,2.4520769 0 0 1 -0.42172,0.0431 c -0.16492,0 -0.36969,0.0807 -0.46266,-0.12492 -0.0631,-0.1393 0.0376,-0.26865 0.11068,-0.38694 a 11.657397,11.643496 0 0 0 1.65143,-3.64827 c 0.22137,-0.85789 0.39515,-1.72021 0.3708,-2.61238 0,-0.11055 0,-0.21226 0,-0.31839 0.052,-3.0767 -1.03713,-5.72888 -3.00622,-8.05051 -0.25126,-0.29628 -0.52908,-0.56935 -0.79251,-0.85568 -0.1461,-0.1592 -0.0886,-0.36262 0.11069,-0.40131 q 2.76713,-0.51076 5.46011,-1.29458 a 53.529723,53.46589 0 0 0 16.16009,-7.77634 8.2261467,8.2163371 0 0 0 0.9054,-0.73076 10.219593,10.207406 0 0 1 4.81704,-2.53499 7.7623744,7.7531179 0 0 1 0.9364,-0.1802 c 0.39846,-0.042 0.78808,-0.0365 1.17769,-0.0508 z"
     id="path114"
     style="stroke-width:0.110619" />
  <path
     class="cls-1"
     d="m 184.14868,104.46294 c -4.42742,0.14704 -9.77131,-2.91198 -11.16706,-8.859764 a 11.551139,11.537365 0 0 1 11.15378,-14.15085 11.188091,11.174749 0 0 1 5.40477,1.32664 c 3.20988,1.74122 5.21993,4.40446 5.95599,7.97091 1.04266,5.05561 -1.54406,10.252744 -6.22163,12.550044 a 11.645222,11.631335 0 0 1 -3.3261,1.04804 c -0.59106,0.0995 -1.19983,0.0818 -1.79975,0.11498 z"
     id="path116"
     style="stroke-width:0.110619" />
  <path
     class="cls-1"
     d="m 110.61587,183.66127 c 0.13725,5.47571 -4.22929,11.40249 -11.511286,11.55394 -6.37327,-0.12271 -11.41499,-5.00807 -11.54007,-11.56832 0.18042,-7.00577 5.78111,-11.50862 11.60648,-11.47766 6.267016,0.0321 11.490266,5.17722 11.444876,11.49204 z"
     id="path118"
     style="stroke-width:0.110619" />
</svg>
