<?xml version="1.0" encoding="UTF-8" standalone="no"?>
<svg
   width="1082.7053pt"
   height="1012.6719pt"
   version="1.1"
   viewBox="0 0 1082.7054 1012.6718"
   id="svg2792"
   sodipodi:docname="digis_schema_path.svg"
   inkscape:version="1.4.2 (ebf0e940d0, 2025-05-08)"
   xml:space="preserve"
   inkscape:export-filename="../../../tmp/schema_digis_label_centered.png"
   inkscape:export-xdpi="600"
   inkscape:export-ydpi="600"
   xmlns:inkscape="http://www.inkscape.org/namespaces/inkscape"
   xmlns:sodipodi="http://sodipodi.sourceforge.net/DTD/sodipodi-0.dtd"
   xmlns:xlink="http://www.w3.org/1999/xlink"
   xmlns="http://www.w3.org/2000/svg"
   xmlns:svg="http://www.w3.org/2000/svg"><defs
     id="defs2796"><rect
       x="878.42255"
       y="478.81314"
       width="134.93436"
       height="74.336426"
       id="rect712" /><rect
       x="1251.3477"
       y="595.0094"
       width="122.59159"
       height="76.70195"
       id="rect642" /><linearGradient
       inkscape:collect="always"
       id="linearGradient38965"><stop
         style="stop-color:#f1f7fc;stop-opacity:1;"
         offset="0"
         id="stop38961" /><stop
         style="stop-color:#b9b6b5;stop-opacity:0;"
         offset="1"
         id="stop38963" /></linearGradient><linearGradient
       inkscape:collect="always"
       id="linearGradient38957"><stop
         style="stop-color:#f1f7fc;stop-opacity:1;"
         offset="0"
         id="stop38953" /><stop
         style="stop-color:#b9b6b5;stop-opacity:0;"
         offset="1"
         id="stop38955" /></linearGradient><linearGradient
       inkscape:collect="always"
       id="linearGradient38949"><stop
         style="stop-color:#f1f7fc;stop-opacity:1;"
         offset="0"
         id="stop38945" /><stop
         style="stop-color:#b9b6b5;stop-opacity:0;"
         offset="1"
         id="stop38947" /></linearGradient><linearGradient
       inkscape:collect="always"
       id="linearGradient38941"><stop
         style="stop-color:#f1f7fc;stop-opacity:1;"
         offset="0"
         id="stop38937" /><stop
         style="stop-color:#b9b6b5;stop-opacity:0;"
         offset="1"
         id="stop38939" /></linearGradient><linearGradient
       inkscape:collect="always"
       id="linearGradient38933"><stop
         style="stop-color:#f1f7fc;stop-opacity:1;"
         offset="0"
         id="stop38929" /><stop
         style="stop-color:#b9b6b5;stop-opacity:0;"
         offset="1"
         id="stop38931" /></linearGradient><linearGradient
       inkscape:collect="always"
       xlink:href="#linearGradient38933"
       id="linearGradient38935"
       x1="625.84998"
       y1="429.10999"
       x2="1133.3199"
       y2="429.10999"
       gradientUnits="userSpaceOnUse"
       gradientTransform="translate(-60.37,-95.510576)" /><linearGradient
       inkscape:collect="always"
       xlink:href="#linearGradient38941"
       id="linearGradient38943"
       x1="311.06"
       y1="290.82761"
       x2="926.34003"
       y2="290.82761"
       gradientUnits="userSpaceOnUse"
       gradientTransform="translate(-60.37,-95.510576)" /><linearGradient
       inkscape:collect="always"
       xlink:href="#linearGradient38949"
       id="linearGradient38951"
       x1="78.311996"
       y1="394.85001"
       x2="466.09201"
       y2="394.85001"
       gradientUnits="userSpaceOnUse"
       gradientTransform="translate(-60.37,-95.510576)" /><linearGradient
       inkscape:collect="always"
       xlink:href="#linearGradient38957"
       id="linearGradient38959"
       x1="598.34998"
       y1="803.28497"
       x2="1095.7"
       y2="803.28497"
       gradientUnits="userSpaceOnUse"
       gradientTransform="translate(-60.37,-95.510576)" /><linearGradient
       inkscape:collect="always"
       xlink:href="#linearGradient38965"
       id="linearGradient38967"
       x1="66.68"
       y1="904.52258"
       x2="681.96002"
       y2="904.52258"
       gradientUnits="userSpaceOnUse"
       gradientTransform="translate(-60.37,-95.510576)" /><filter
       style="color-interpolation-filters:sRGB"
       inkscape:label="Drop Shadow"
       id="filter835"
       x="-0.0089185183"
       y="-0.014366425"
       width="1.0256751"
       height="1.0404242"><feFlood
         flood-opacity="0.866667"
         flood-color="rgb(221,221,221)"
         result="flood"
         id="feFlood825" /><feComposite
         in="flood"
         in2="SourceGraphic"
         operator="in"
         result="composite1"
         id="feComposite827" /><feGaussianBlur
         in="composite1"
         stdDeviation="2"
         result="blur"
         id="feGaussianBlur829" /><feOffset
         dx="4"
         dy="4"
         result="offset"
         id="feOffset831" /><feComposite
         in="SourceGraphic"
         in2="offset"
         operator="over"
         result="composite2"
         id="feComposite833" /></filter><filter
       style="color-interpolation-filters:sRGB"
       inkscape:label="Drop Shadow"
       id="filter847"
       x="-0.01114762"
       y="-0.0096244065"
       width="1.0303709"
       height="1.0268941"><feFlood
         flood-opacity="0.866667"
         flood-color="rgb(221,221,221)"
         result="flood"
         id="feFlood837" /><feComposite
         in="flood"
         in2="SourceGraphic"
         operator="in"
         result="composite1"
         id="feComposite839" /><feGaussianBlur
         in="composite1"
         stdDeviation="2"
         result="blur"
         id="feGaussianBlur841" /><feOffset
         dx="4"
         dy="4"
         result="offset"
         id="feOffset843" /><feComposite
         in="SourceGraphic"
         in2="offset"
         operator="over"
         result="composite2"
         id="feComposite845" /></filter><filter
       style="color-interpolation-filters:sRGB"
       inkscape:label="Drop Shadow"
       id="filter859"
       x="-0.011511397"
       y="-0.0095203538"
       width="1.0309163"
       height="1.0266374"><feFlood
         flood-opacity="0.866667"
         flood-color="rgb(221,221,221)"
         result="flood"
         id="feFlood849" /><feComposite
         in="flood"
         in2="SourceGraphic"
         operator="in"
         result="composite1"
         id="feComposite851" /><feGaussianBlur
         in="composite1"
         stdDeviation="2"
         result="blur"
         id="feGaussianBlur853" /><feOffset
         dx="4"
         dy="4"
         result="offset"
         id="feOffset855" /><feComposite
         in="SourceGraphic"
         in2="offset"
         operator="over"
         result="composite2"
         id="feComposite857" /></filter><filter
       style="color-interpolation-filters:sRGB"
       inkscape:label="Drop Shadow"
       id="filter871"
       x="-0.010255494"
       y="-0.014366812"
       width="1.0256751"
       height="1.0404252"><feFlood
         flood-opacity="0.866667"
         flood-color="rgb(221,221,221)"
         result="flood"
         id="feFlood861" /><feComposite
         in="flood"
         in2="SourceGraphic"
         operator="in"
         result="composite1"
         id="feComposite863" /><feGaussianBlur
         in="composite1"
         stdDeviation="2"
         result="blur"
         id="feGaussianBlur865" /><feOffset
         dx="4"
         dy="4"
         result="offset"
         id="feOffset867" /><feComposite
         in="SourceGraphic"
         in2="offset"
         operator="over"
         result="composite2"
         id="feComposite869" /></filter><filter
       style="color-interpolation-filters:sRGB"
       inkscape:label="Drop Shadow"
       id="filter883"
       x="-0.014159601"
       y="-0.010905324"
       width="1.0386428"
       height="1.0267835"><feFlood
         flood-opacity="0.866667"
         flood-color="rgb(221,221,221)"
         result="flood"
         id="feFlood873" /><feComposite
         in="flood"
         in2="SourceGraphic"
         operator="in"
         result="composite1"
         id="feComposite875" /><feGaussianBlur
         in="composite1"
         stdDeviation="2"
         result="blur"
         id="feGaussianBlur877" /><feOffset
         dx="4"
         dy="4"
         result="offset"
         id="feOffset879" /><feComposite
         in="SourceGraphic"
         in2="offset"
         operator="over"
         result="composite2"
         id="feComposite881" /></filter></defs><sodipodi:namedview
     id="namedview2794"
     pagecolor="#ffffff"
     bordercolor="#000000"
     borderopacity="0.25"
     inkscape:showpageshadow="2"
     inkscape:pageopacity="0.0"
     inkscape:pagecheckerboard="0"
     inkscape:deskcolor="#d1d1d1"
     inkscape:document-units="pt"
     showgrid="false"
     inkscape:zoom="0.295"
     inkscape:cx="1176.2712"
     inkscape:cy="761.01695"
     inkscape:window-width="1470"
     inkscape:window-height="787"
     inkscape:window-x="0"
     inkscape:window-y="0"
     inkscape:window-maximized="1"
     inkscape:current-layer="svg2792" /><path
     d="M 17.942004,590.59943 210.982,6.389429 405.722,592.28943 Z"
     fill-rule="evenodd"
     id="edgeai"
     style="fill:url(#linearGradient38951);fill-opacity:1;stroke:#cccccc;stroke-opacity:1;filter:url(#filter883)" /><path
     d="m 250.69,10.799429 615.28002,1.5352 L 369.83,379.83463 Z"
     fill-rule="evenodd"
     id="newmedia"
     style="fill:url(#linearGradient38943);fill-opacity:1;stroke:#cccccc;stroke-opacity:1;filter:url(#filter835)" /><path
     d="M 876.63002,42.039427 1072.95,625.15943 565.48,273.47943 Z"
     fill-rule="evenodd"
     id="digitaltwin"
     style="fill:url(#linearGradient38935);fill-opacity:1;stroke:#cccccc;stroke-width:1;stroke-dasharray:none;stroke-opacity:1;filter:url(#filter847)" /><path
     d="M 1035.33,640.34943 537.98,1002.5795 721.2,412.96943 Z"
     fill-rule="evenodd"
     id="remotesensing"
     style="fill:url(#linearGradient38959);fill-opacity:1;stroke:#cccccc;stroke-opacity:1;filter:url(#filter859)" /><path
     d="M 621.59,624.49943 6.3100004,626.03463 502.45,993.52469 Z"
     fill-rule="evenodd"
     id="literacy"
     style="fill:url(#linearGradient38967);fill-opacity:1;stroke:#cccccc;stroke-opacity:1;filter:url(#filter871)" /><path
     style="font-weight:bold;font-size:51.4018px;font-family:Roboto;-inkscape-font-specification:'Roboto Bold';text-align:end;text-anchor:end;fill:#1e2a38;stroke:#ffffff;stroke-width:0.78135"
     d="M 455.97594,431.40207 V 394.8586 h 11.26924 q 7.37897,0 12.0222,4.81892 4.66832,4.81892 4.66832,12.64966 v 1.63141 q 0,7.83074 -4.66832,12.64966 -4.64323,4.79382 -12.12259,4.79382 z m 7.55466,-30.44452 v 24.37067 h 3.61419 q 4.44244,0 6.7515,-2.88633 2.33416,-2.88633 2.38436,-8.25742 v -1.90748 q 0,-5.57188 -2.20867,-8.40801 -2.18357,-2.83614 -6.60091,-2.91143 z m 33.88302,-6.09895 v 36.54347 h -7.52956 V 394.8586 Z m 35.9411,17.34309 v 14.58225 q -1.30513,1.55611 -4.64323,3.3381 -3.31301,1.782 -9.33666,1.782 -7.10288,0 -11.49512,-4.59303 -4.36715,-4.61813 -4.36715,-13.07634 v -2.18357 q 0,-8.45821 4.19146,-13.07634 4.19145,-4.64323 11.14374,-4.64323 7.10289,0 10.49119,3.4134 3.3883,3.41341 3.99067,8.73429 h -7.32877 q -0.42668,-2.76083 -1.98279,-4.41734 -1.55611,-1.6565 -4.96951,-1.6565 -7.40406,0 -7.85584,10.2402 l -0.0251,3.58909 q 0,5.77266 2.13338,8.68409 2.15847,2.91143 6.47542,2.91143 2.71064,0 4.06596,-0.60236 1.35532,-0.62746 1.95769,-1.20473 v -6.29973 h -6.8268 v -5.52168 z M 547.435,394.8586 v 36.54347 h -7.52956 V 394.8586 Z m 4.04086,6.09895 v -6.09895 h 29.74176 v 6.09895 h -11.16885 v 30.44452 h -7.52956 v -30.44452 z m 27.95977,30.44452 13.60341,-36.54347 h 6.97739 l 13.6787,36.54347 h -8.03153 l -2.50986,-7.52956 h -13.22692 l -2.50986,7.52956 z m 12.52417,-13.62851 h 9.16096 l -4.56793,-13.72889 z m 48.66605,7.55466 v 6.07385 H 617.10852 V 394.8586 h 7.55466 v 30.46962 z"
     id="text5690"
     aria-label="DIGITAL" /><path
     style="font-weight:bold;font-size:51.4018px;font-family:Roboto;-inkscape-font-specification:'Roboto Bold';text-align:end;text-anchor:end;fill:#1e2a38;stroke:#ffffff;stroke-width:0.78135"
     d="m 470.23523,519.38983 v -36.54346 h 24.44597 v 6.09894 h -16.89132 v 8.70919 h 14.43166 v 5.89816 h -14.43166 v 9.76333 h 16.96661 v 6.07384 z m 27.18171,-30.44452 v -6.09894 h 29.74176 v 6.09894 h -11.16885 v 30.44452 h -7.52956 v -30.44452 z m 56.27091,30.44452 v -15.66148 h -14.68264 v 15.66148 h -7.55466 v -36.54346 h 7.55466 v 14.80813 h 14.68264 v -14.80813 h 7.52956 v 36.54346 z m 22.11181,-36.54346 v 36.54346 h -7.52956 v -36.54346 z m 28.18565,24.37067 h 7.52956 q -0.37647,5.57188 -4.19145,9.13587 -3.78988,3.53889 -10.51629,3.53889 -7.02759,0 -11.06845,-4.71852 -4.04086,-4.74363 -4.04086,-12.85045 v -2.38436 q 0,-8.10683 4.14125,-12.85045 4.14126,-4.76872 11.04336,-4.76872 6.8519,0 10.49119,3.66438 3.63928,3.63929 4.16635,9.26136 h -7.52956 q -0.25098,-3.26281 -1.83219,-4.99461 -1.55611,-1.75689 -5.29579,-1.75689 -7.32877,0 -7.52956,10.81746 v 3.01183 q 0,5.67227 1.7067,8.5335 1.7318,2.86123 5.74756,2.86123 3.564,0 5.2205,-1.6063 1.6816,-1.63141 1.95768,-4.89422 z m 31.44847,2.58515 q 0,-1.83219 -1.25493,-3.03692 -1.25493,-1.22983 -6.09894,-2.78594 -4.81892,-1.58121 -8.33272,-4.06596 -3.68948,-2.58515 -3.68948,-7.35387 0,-4.59303 3.78988,-7.40407 3.78988,-2.81104 9.71313,-2.81104 6.07385,0 9.73823,3.18752 3.66439,3.16241 3.66439,8.08173 h -7.52956 q 0,-2.30907 -1.48082,-3.78988 -1.48081,-1.48082 -4.51773,-1.48082 -2.96163,0 -4.41734,1.25493 -1.43062,1.22983 -1.43062,2.98673 0,1.80709 1.85729,3.01182 1.85729,1.20473 5.39619,2.28397 5.99855,1.83219 9.06057,4.59303 3.08712,2.76084 3.08712,7.27857 0,4.79382 -3.61419,7.47937 -3.61419,2.66044 -9.63784,2.66044 -3.63929,0 -7.02759,-1.28002 -3.3883,-1.28003 -5.57187,-3.94047 -2.18358,-2.66045 -2.18358,-6.80171 h 7.55466 q 0,3.33811 1.98279,4.69343 2.00788,1.35532 5.24559,1.35532 2.91143,0 4.29185,-1.17963 1.40552,-1.17963 1.40552,-2.93653 z"
     id="text5690-3"
     aria-label="ETHICS" /><g
     id="text9152"
     style="font-weight:bold;font-size:38.9178px;font-family:Inter;-inkscape-font-specification:'Inter, Bold';text-align:end;text-anchor:end;fill:#00000f;stroke:#ffffff;stroke-width:0.4335"
     aria-label="EDGE &#10;AI"><path
       style="font-family:Roboto;-inkscape-font-specification:'Roboto Bold';text-align:center;text-anchor:middle"
       d="m 162.56672,350.32626 v -27.66812 h 18.50876 v 4.61769 h -12.78891 v 6.59398 h 10.92663 v 4.46567 h -10.92663 v 7.3921 h 12.84592 v 4.59868 z m 21.89126,0 v -27.66812 h 8.53227 q 5.58684,0 9.10236,3.64854 3.53453,3.64855 3.53453,9.57743 v 1.23518 q 0,5.92889 -3.53453,9.57743 -3.51552,3.62954 -9.17837,3.62954 z m 5.71985,-23.05043 v 18.45175 h 2.73641 q 3.3635,0 5.11176,-2.18533 1.76727,-2.18532 1.80527,-6.25193 v -1.44421 q 0,-4.21863 -1.67225,-6.36595 -1.65324,-2.14732 -4.99774,-2.20433 z m 41.50219,8.51327 v 11.04064 q -0.98815,1.17818 -3.51553,2.52738 -2.50837,1.3492 -7.06905,1.3492 -5.3778,0 -8.7033,-3.47752 -3.30649,-3.49652 -3.30649,-9.90047 v -1.65325 q 0,-6.40395 3.17347,-9.90048 3.17348,-3.51552 8.43726,-3.51552 5.3778,0 7.94319,2.58439 2.56538,2.58438 3.02145,6.61298 h -5.54883 q -0.32305,-2.09031 -1.50123,-3.3445 -1.17817,-1.25418 -3.76256,-1.25418 -5.60583,0 -5.94788,7.75315 l -0.019,2.71741 q 0,4.37065 1.61525,6.57498 1.63424,2.20432 4.90273,2.20432 2.0523,0 3.07845,-0.45606 1.02616,-0.47507 1.48223,-0.91214 v -4.76971 h -5.16877 v -4.18062 z m 4.59869,14.53716 v -27.66812 h 18.50876 v 4.61769 h -12.78891 v 6.59398 h 10.92663 v 4.46567 h -10.92663 v 7.3921 h 12.84592 v 4.59868 z"
       id="path23" /><path
       style="font-family:Roboto;-inkscape-font-specification:'Roboto Bold';text-align:center;text-anchor:middle"
       d="m 194.11142,399.21189 10.29954,-27.66812 h 5.28278 l 10.35655,27.66812 h -6.08091 l -1.90028,-5.70085 h -10.0145 l -1.90028,5.70085 z m 9.48241,-10.31854 h 6.93604 l -3.45852,-10.39455 z m 25.10275,-17.34958 v 27.66812 h -5.70085 v -27.66812 z"
       id="path24" /></g><path
     style="font-weight:bold;font-size:38.9178px;font-family:Roboto;-inkscape-font-specification:'Roboto Bold';text-align:end;text-anchor:end;fill:#00000f;stroke:#ffffff;stroke-width:0.4335"
     d="m 683.74809,248.09926 v -27.66813 h 8.53227 q 5.58683,0 9.10236,3.64855 3.53452,3.64854 3.53452,9.57743 v 1.23518 q 0,5.92888 -3.53452,9.57743 -3.51553,3.62954 -9.17837,3.62954 z m 5.71985,-23.05044 v 18.45175 h 2.73641 q 3.3635,0 5.11176,-2.18532 1.76726,-2.18533 1.80527,-6.25193 v -1.44422 q 0,-4.21863 -1.67225,-6.36595 -1.65325,-2.14732 -4.99775,-2.20433 z m 25.65382,-4.61769 v 27.66813 h -5.70085 v -27.66813 z m 27.21206,13.13096 v 11.04065 q -0.98815,1.17817 -3.51552,2.52737 -2.50838,1.34921 -7.06906,1.34921 -5.3778,0 -8.70329,-3.47752 -3.3065,-3.49652 -3.3065,-9.90048 v -1.65325 q 0,-6.40395 3.17348,-9.90047 3.17347,-3.51553 8.43725,-3.51553 5.37781,0 7.94319,2.58439 2.56538,2.58439 3.02145,6.61299 h -5.54883 q -0.32305,-2.09032 -1.50122,-3.3445 -1.17818,-1.25419 -3.76256,-1.25419 -5.60584,0 -5.94789,7.75316 l -0.019,2.7174 q 0,4.37065 1.61524,6.57498 1.63424,2.20433 4.90273,2.20433 2.05231,0 3.07846,-0.45607 1.02615,-0.47507 1.48222,-0.91213 v -4.76972 h -5.16877 v -4.18062 z m 10.66059,-13.13096 v 27.66813 h -5.70085 v -27.66813 z m 3.05946,4.61769 v -4.61769 h 22.51835 v 4.61769 h -8.45626 v 23.05044 h -5.70085 v -23.05044 z m 21.16915,23.05044 10.29954,-27.66813 h 5.28279 l 10.35654,27.66813 h -6.08091 l -1.90028,-5.70085 h -10.01449 l -1.90029,5.70085 z m 9.48242,-10.31854 h 6.93603 l -3.45851,-10.39455 z m 36.84649,5.71985 v 4.59869 h -17.80566 v -27.66813 h 5.71985 v 23.06944 z m 10.1285,-18.45175 v -4.61769 h 22.51836 v 4.61769 h -8.45626 v 23.05044 h -5.70085 v -23.05044 z m 57.0085,-4.61769 -6.11891,27.66813 h -5.73886 l -4.50367,-18.50876 -4.50367,18.50876 h -5.73885 l -6.15692,-27.66813 h 5.68184 l 3.74356,19.62993 4.56068,-19.62993 h 4.82672 l 4.56068,19.62993 3.72456,-19.62993 z m 9.15938,0 v 27.66813 h -5.70085 v -27.66813 z m 27.82014,0 v 27.66813 h -5.70085 l -11.09765,-18.22372 v 18.22372 h -5.71985 v -27.66813 h 5.71985 l 11.09765,18.24272 v -18.24272 z"
     id="text9152-7"
     aria-label="DIGITAL TWIN" /><g
     id="text9152-7-9"
     style="font-weight:bold;font-size:38.9178px;font-family:Roboto;-inkscape-font-specification:'Roboto Bold';text-align:end;text-anchor:end;fill:#00000f;stroke:#ffffff;stroke-width:0.4335"
     aria-label="NEW MEDIA AND&#10;EDUCATION FOR&#10;RESILIENT &#10;SOCIETY"><path
       style="text-align:start;text-anchor:start"
       d="M 347.59535,31.545186 V 59.21331 H 341.8945 L 330.79685,40.989594 V 59.21331 H 325.077 V 31.545186 h 5.71985 L 341.8945,49.787905 V 31.545186 Z M 352.5741,59.21331 V 31.545186 h 18.50875 v 4.617688 h -12.7889 v 6.593983 h 10.92663 v 4.465666 h -10.92663 v 7.392102 h 12.84591 V 59.21331 Z M 405.42097,31.545186 399.30206,59.21331 H 393.5632 L 389.05953,40.704551 384.55586,59.21331 H 378.817 l -6.15691,-27.668124 h 5.68184 l 3.74356,19.629926 4.56068,-19.629926 h 4.82672 l 4.56068,19.629926 3.72456,-19.629926 z m 27.34508,20.066991 7.08805,-20.066991 h 7.46812 V 59.21331 h -5.71986 v -7.563127 l 0.57009,-12.997937 -7.44911,20.561064 h -3.91458 l -7.44911,-20.561064 0.57008,12.997937 v 7.563127 h -5.71985 V 31.545186 h 7.46811 z m 19.53491,7.601133 V 31.545186 h 18.50876 v 4.617688 h -12.78891 v 6.593983 h 10.92663 v 4.465666 h -10.92663 v 7.392102 h 12.84591 v 4.598685 z m 21.89126,0 V 31.545186 h 8.53227 q 5.58683,0 9.10235,3.648544 3.53453,3.648544 3.53453,9.577428 v 1.235184 q 0,5.928883 -3.53453,9.577427 -3.51552,3.629541 -9.17836,3.629541 z m 5.71985,-23.050436 v 18.451751 h 2.73641 q 3.3635,0 5.11176,-2.185326 1.76726,-2.185326 1.80527,-6.251932 v -1.444215 q 0,-4.218629 -1.67225,-6.365949 -1.65325,-2.14732 -4.99775,-2.204329 z M 505.5659,31.545186 V 59.21331 h -5.70085 V 31.545186 Z m 3.32549,27.668124 10.29953,-27.668124 h 5.28279 l 10.35654,27.668124 h -6.0809 l -1.90029,-5.700849 h -10.01449 l -1.90028,5.700849 z m 9.48241,-10.318538 h 6.93603 l -3.45851,-10.394549 z m 26.41395,10.318538 10.29953,-27.668124 h 5.28279 l 10.35655,27.668124 h -6.08091 l -1.90028,-5.700849 h -10.0145 l -1.90028,5.700849 z m 9.48241,-10.318538 h 6.93604 L 557.74768,38.500223 Z M 595.82935,31.545186 V 59.21331 H 590.1285 L 579.03084,40.989594 V 59.21331 h -5.71985 V 31.545186 h 5.71985 L 590.1285,49.787905 V 31.545186 Z m 4.97876,27.668124 V 31.545186 h 8.53227 q 5.58683,0 9.10235,3.648544 3.53453,3.648544 3.53453,9.577428 v 1.235184 q 0,5.928883 -3.53453,9.577427 -3.51552,3.629541 -9.17836,3.629541 z m 5.71985,-23.050436 v 18.451751 h 2.73641 q 3.3635,0 5.11176,-2.185326 1.76726,-2.185326 1.80527,-6.251932 v -1.444215 q 0,-4.218629 -1.67225,-6.365949 -1.65325,-2.14732 -4.99775,-2.204329 z"
       id="path15" /><path
       style="text-align:start;text-anchor:start"
       d="M 325.077,107.86056 V 80.192437 h 18.50876 v 4.617689 h -12.78891 v 6.593982 h 10.92663 v 4.465666 h -10.92663 v 7.392106 h 12.84591 v 4.59868 z m 21.89126,0 V 80.192437 h 8.53227 q 5.58683,0 9.10236,3.648544 3.53452,3.648544 3.53452,9.577428 v 1.235184 q 0,5.928887 -3.53452,9.577427 -3.51553,3.62954 -9.17837,3.62954 z m 5.71985,-23.050434 v 18.451754 h 2.73641 q 3.3635,0 5.11176,-2.18533 1.76726,-2.185326 1.80527,-6.251932 v -1.444215 q 0,-4.218629 -1.67225,-6.365949 -1.65325,-2.14732 -4.99774,-2.204328 z m 34.83219,-4.617689 h 5.71985 v 18.242719 q 0,4.826724 -3.00244,7.316094 -3.00245,2.48937 -7.60114,2.48937 -4.65569,0 -7.63913,-2.48937 -2.98345,-2.48937 -2.98345,-7.316094 V 80.192437 h 5.71985 v 18.242719 q 0,2.736404 1.2922,3.971594 1.31119,1.23518 3.61053,1.23518 4.76971,0 4.88373,-4.959737 z m 26.41394,18.451751 h 5.70085 q -0.28504,4.218632 -3.17347,6.917032 -2.86943,2.6794 -7.96219,2.6794 -5.32079,0 -8.38025,-3.57253 -3.05945,-3.59154 -3.05945,-9.729455 v -1.805269 q 0,-6.137915 3.13546,-9.72945 3.13547,-3.610538 8.36125,-3.610538 5.18777,0 7.94318,2.774413 2.75542,2.755411 3.15448,7.012046 h -5.70085 q -0.19003,-2.470369 -1.38721,-3.781564 -1.17818,-1.330198 -4.0096,-1.330198 -5.54883,0 -5.70085,8.19022 v 2.28034 q 0,4.29464 1.29219,6.460965 1.3112,2.16632 4.35165,2.16632 2.6984,0 3.95259,-1.21618 1.27319,-1.23518 1.48222,-3.705552 z m 7.12606,9.216372 10.29954,-27.668123 h 5.28278 l 10.35655,27.668123 h -6.08091 l -1.90028,-5.70085 h -10.01449 l -1.90029,5.70085 z m 9.48242,-10.318537 h 6.93603 l -3.45852,-10.394549 z m 15.06924,-12.731897 v -4.617689 h 22.51836 v 4.617689 h -8.45626 v 23.050434 h -5.70085 V 84.810126 Z m 31.82975,-4.617689 v 27.668123 h -5.70085 V 80.192437 Z m 28.04818,14.461156 q 0,6.327947 -3.28749,9.957487 -3.26849,3.62954 -8.47526,3.62954 -5.20678,0 -8.51327,-3.62954 -3.30649,-3.62954 -3.30649,-9.957487 v -1.235184 q 0,-6.327944 3.28749,-9.957485 3.28749,-3.648543 8.49426,-3.648543 5.20678,0 8.49427,3.648543 3.30649,3.629541 3.30649,9.957485 z m -5.77686,-1.27319 q 0,-4.332646 -1.57724,-6.593983 -1.57723,-2.261337 -4.44666,-2.261337 -2.86943,0 -4.42766,2.242334 -1.55823,2.223332 -1.57723,6.517972 v 1.368204 q 0,4.313643 1.57723,6.612987 1.57724,2.28034 4.46567,2.28034 2.86943,0 4.40865,-2.26134 1.55824,-2.261336 1.57724,-6.536973 z M 532.13185,80.192437 V 107.86056 H 526.431 L 515.33335,89.636845 V 107.86056 H 509.6135 V 80.192437 h 5.71985 L 526.431,98.435156 V 80.192437 Z m 14.6702,27.668123 V 80.192437 h 18.03369 v 4.617689 H 552.5219 v 7.145065 h 10.94563 v 4.598685 H 552.5219 v 11.306684 z m 44.08657,-13.206967 q 0,6.327947 -3.28749,9.957487 -3.26849,3.62954 -8.47526,3.62954 -5.20678,0 -8.51327,-3.62954 -3.3065,-3.62954 -3.3065,-9.957487 v -1.235184 q 0,-6.327944 3.28749,-9.957485 3.28749,-3.648543 8.49427,-3.648543 5.20678,0 8.49427,3.648543 3.30649,3.629541 3.30649,9.957485 z m -5.77686,-1.27319 q 0,-4.332646 -1.57724,-6.593983 -1.57723,-2.261337 -4.44666,-2.261337 -2.86943,0 -4.42766,2.242334 -1.55823,2.223332 -1.57724,6.517972 v 1.368204 q 0,4.313643 1.57724,6.612987 1.57723,2.28034 4.46567,2.28034 2.86942,0 4.40865,-2.26134 1.55823,-2.261336 1.57724,-6.536973 z m 25.33078,14.480157 -5.16877,-10.147511 h -4.54168 v 10.147511 h -5.71985 V 80.192437 h 10.29953 q 4.76971,0 7.48712,2.14732 2.73641,2.128318 2.73641,6.213927 0,3.002447 -1.3302,4.845722 -1.3302,1.843275 -3.61054,2.869428 l 5.98589,11.325686 v 0.26604 z m -9.71045,-23.050434 v 8.304237 h 4.57968 q 2.24234,0 3.3635,-1.121167 1.14017,-1.14017 1.14017,-3.002447 0,-1.919286 -1.10216,-3.040453 -1.10216,-1.14017 -3.40151,-1.14017 z"
       id="path16" /><path
       style="text-align:start;text-anchor:start"
       d="m 340.5073,156.50781 -5.16877,-10.14751 h -4.54168 v 10.14751 H 325.077 v -27.66812 h 10.29953 q 4.76971,0 7.48712,2.14732 2.73641,2.12832 2.73641,6.21392 0,3.00245 -1.3302,4.84573 -1.3302,1.84327 -3.61054,2.86942 l 5.98589,11.32569 v 0.26604 z m -9.71045,-23.05043 v 8.30423 h 4.57968 q 2.24234,0 3.3635,-1.12116 1.14017,-1.14017 1.14017,-3.00245 0,-1.91929 -1.10216,-3.04045 -1.10217,-1.14017 -3.40151,-1.14017 z m 19.11685,23.05043 v -27.66812 h 18.50876 v 4.61769 h -12.78891 v 6.59398 h 10.92663 v 4.46567 h -10.92663 v 7.3921 h 12.84592 v 4.59868 z m 36.2574,-7.25908 q 0,-1.38721 -0.95014,-2.29934 -0.95014,-0.93114 -4.61769,-2.10932 -3.64854,-1.19718 -6.30894,-3.07846 -2.79341,-1.95729 -2.79341,-5.56783 0,-3.47751 2.86943,-5.60583 2.86942,-2.12832 7.35409,-2.12832 4.59869,0 7.3731,2.41336 2.77441,2.39436 2.77441,6.11891 h -5.70085 q 0,-1.74826 -1.12116,-2.86942 -1.12117,-1.12117 -3.42051,-1.12117 -2.24234,0 -3.3445,0.95014 -1.08316,0.93114 -1.08316,2.26134 0,1.3682 1.40621,2.28034 1.40621,0.91213 4.08561,1.72926 4.54167,1.3872 6.86002,3.47751 2.33735,2.09031 2.33735,5.51082 0,3.62955 -2.73641,5.66285 -2.73641,2.0143 -7.29709,2.0143 -2.75541,0 -5.32079,-0.96915 -2.56538,-0.96914 -4.21863,-2.98344 -1.65325,-2.0143 -1.65325,-5.14977 h 5.71986 q 0,2.52738 1.50122,3.55353 1.52023,1.02616 3.97159,1.02616 2.20433,0 3.24949,-0.89314 1.06415,-0.89313 1.06415,-2.22333 z m 15.62033,-20.40904 v 27.66812 h -5.70085 v -27.66812 z m 23.10745,23.06944 v 4.59868 h -17.80566 v -27.66812 h 5.71986 v 23.06944 z m 9.33038,-23.06944 v 27.66812 h -5.70085 v -27.66812 z m 5.30179,27.66812 v -27.66812 h 18.50876 v 4.61769 H 445.2509 v 6.59398 h 10.92663 v 4.46567 H 445.2509 v 7.3921 h 12.84592 v 4.59868 z m 44.40962,-27.66812 v 27.66812 h -5.70084 L 467.14217,138.2841 v 18.22371 h -5.71985 v -27.66812 h 5.71985 l 11.09766,18.24272 v -18.24272 z m 2.73641,4.61769 v -4.61769 h 22.51836 v 4.61769 h -8.45626 v 23.05043 h -5.70085 v -23.05043 z"
       id="path17" /><path
       style="text-align:start;text-anchor:start"
       d="m 339.44314,197.89598 q 0,-1.38721 -0.95014,-2.29934 -0.95015,-0.93114 -4.61769,-2.10932 -3.64855,-1.19717 -6.30894,-3.07845 -2.79342,-1.9573 -2.79342,-5.56783 0,-3.47752 2.86943,-5.60584 2.86943,-2.12832 7.3541,-2.12832 4.59868,0 7.37309,2.41336 2.77442,2.39436 2.77442,6.11891 h -5.70085 q 0,-1.74826 -1.12117,-2.86942 -1.12117,-1.12117 -3.42051,-1.12117 -2.24233,0 -3.3445,0.95014 -1.08316,0.93114 -1.08316,2.26134 0,1.3682 1.40621,2.28034 1.40621,0.91213 4.08561,1.72926 4.54168,1.3872 6.86002,3.47751 2.33735,2.09032 2.33735,5.51083 0,3.62954 -2.73641,5.66284 -2.73641,2.0143 -7.29708,2.0143 -2.75542,0 -5.3208,-0.96914 -2.56538,-0.96915 -4.21863,-2.98345 -1.65324,-2.0143 -1.65324,-5.14977 h 5.71985 q 0,2.52738 1.50122,3.55353 1.52023,1.02616 3.9716,1.02616 2.20432,0 3.24948,-0.89314 1.06416,-0.89313 1.06416,-2.22333 z m 32.30481,-5.94788 q 0,6.32794 -3.28749,9.95748 -3.26848,3.62954 -8.47526,3.62954 -5.20678,0 -8.51327,-3.62954 -3.30649,-3.62954 -3.30649,-9.95748 v -1.23519 q 0,-6.32794 3.28749,-9.95748 3.28749,-3.64855 8.49426,-3.64855 5.20678,0 8.49427,3.64855 3.30649,3.62954 3.30649,9.95748 z m -5.77686,-1.27319 q 0,-4.33265 -1.57723,-6.59399 -1.57724,-2.26133 -4.44667,-2.26133 -2.86942,0 -4.42766,2.24233 -1.55823,2.22333 -1.57723,6.51797 v 1.36821 q 0,4.31364 1.57723,6.61298 1.57724,2.28034 4.46567,2.28034 2.86943,0 4.40866,-2.26134 1.55823,-2.26133 1.57723,-6.53697 z m 25.93887,5.26378 h 5.70085 q -0.28504,4.21863 -3.17348,6.91703 -2.86942,2.6794 -7.96218,2.6794 -5.3208,0 -8.38025,-3.57253 -3.05946,-3.59154 -3.05946,-9.72945 v -1.80527 q 0,-6.13792 3.13547,-9.72945 3.13547,-3.61054 8.36125,-3.61054 5.18777,0 7.94318,2.77441 2.75541,2.75541 3.15447,7.01205 h -5.70085 q -0.19003,-2.47037 -1.38721,-3.78156 -1.17817,-1.3302 -4.00959,-1.3302 -5.54883,0 -5.70085,8.19022 v 2.28034 q 0,4.29464 1.29219,6.46096 1.31119,2.16632 4.35165,2.16632 2.6984,0 3.95259,-1.21618 1.27319,-1.23518 1.48222,-3.70555 z m 15.50631,-18.45175 v 27.66812 h -5.70085 v -27.66812 z m 5.30179,27.66812 v -27.66812 h 18.50876 v 4.61769 h -12.78891 v 6.59398 h 10.92663 v 4.46567 h -10.92663 v 7.3921 h 12.84591 v 4.59868 z m 20.58007,-23.05043 v -4.61769 h 22.51836 v 4.61769 h -8.45627 v 23.05043 h -5.70085 v -23.05043 z m 29.89145,-4.61769 5.73886,12.46586 5.73885,-12.46586 h 6.25193 l -9.10235,17.63463 v 10.03349 h -5.77686 v -10.03349 l -9.10236,-17.63463 z"
       id="path18" /></g><path
     style="font-weight:bold;font-size:38.9178px;font-family:Roboto;-inkscape-font-specification:'Roboto Bold';text-align:end;text-anchor:end;fill:#00000f;stroke:#ffffff;stroke-width:0.4335"
     d="M 678.9062,295.52612 V 267.858 h 18.03369 v 4.61769 h -12.31384 v 7.14506 h 10.94564 v 4.59869 h -10.94564 v 11.30668 z m 44.08657,-13.20697 q 0,6.32795 -3.28749,9.95749 -3.26848,3.62954 -8.47526,3.62954 -5.20678,0 -8.51327,-3.62954 -3.30649,-3.62954 -3.30649,-9.95749 v -1.23518 q 0,-6.32794 3.28749,-9.95748 3.28749,-3.64855 8.49427,-3.64855 5.20677,0 8.49426,3.64855 3.30649,3.62954 3.30649,9.95748 z m -5.77686,-1.27319 q 0,-4.33264 -1.57723,-6.59398 -1.57724,-2.26134 -4.44666,-2.26134 -2.86943,0 -4.42766,2.24234 -1.55824,2.22333 -1.57724,6.51797 v 1.3682 q 0,4.31365 1.57724,6.61299 1.57723,2.28034 4.46566,2.28034 2.86943,0 4.40866,-2.26134 1.55823,-2.26133 1.57723,-6.53697 z m 25.33078,14.48016 -5.16877,-10.14751 h -4.54168 v 10.14751 h -5.71985 V 267.858 h 10.29953 q 4.76971,0 7.48712,2.14732 2.73641,2.12832 2.73641,6.21393 0,3.00244 -1.3302,4.84572 -1.3302,1.84327 -3.61054,2.86943 l 5.98589,11.32568 v 0.26604 z m -9.71045,-23.05043 v 8.30424 h 4.57968 q 2.24234,0 3.3635,-1.12117 1.14017,-1.14017 1.14017,-3.00245 0,-1.91929 -1.10216,-3.04045 -1.10216,-1.14017 -3.40151,-1.14017 z m 45.64481,23.05043 v -11.85776 h -11.11666 v 11.85776 h -5.71985 V 267.858 h 5.71985 v 11.21167 h 11.11666 V 267.858 h 5.70085 v 27.66812 z M 804.40091,267.858 h 5.71985 v 18.24272 q 0,4.82672 -3.00245,7.31609 -3.00245,2.48937 -7.60113,2.48937 -4.6557,0 -7.63914,-2.48937 -2.98344,-2.48937 -2.98344,-7.31609 V 267.858 h 5.71985 v 18.24272 q 0,2.73641 1.29219,3.97159 1.3112,1.23518 3.61054,1.23518 4.76971,0 4.88373,-4.95974 z m 24.93172,20.06699 7.08805,-20.06699 h 7.46812 v 27.66812 h -5.71986 V 287.963 l 0.57009,-12.99794 -7.44911,20.56106 h -3.91459 l -7.44911,-20.56106 0.57009,12.99794 v 7.56312 h -5.71985 V 267.858 h 7.46811 z m 17.55862,7.60113 10.29953,-27.66812 h 5.28279 l 10.35654,27.66812 h -6.0809 l -1.90029,-5.70085 h -10.01449 l -1.90028,5.70085 z m 9.48241,-10.31853 h 6.93603 l -3.45851,-10.39455 z M 897.93284,267.858 v 27.66812 h -5.70085 l -11.09765,-18.22371 v 18.22371 h -5.71985 V 267.858 h 5.71985 l 11.09765,18.24272 V 267.858 Z"
     id="text14316"
     aria-label="FOR HUMAN" /><path
     style="font-weight:bold;font-size:38.9178px;font-family:Roboto;-inkscape-font-specification:'Roboto Bold';text-align:end;text-anchor:end;fill:#00000f;stroke:#ffffff;stroke-width:0.4335"
     d="m 696.55174,334.93193 q 0,-1.38721 -0.95014,-2.29935 -0.95014,-0.93113 -4.61769,-2.10931 -3.64854,-1.19718 -6.30894,-3.07846 -2.79341,-1.95729 -2.79341,-5.56783 0,-3.47752 2.86942,-5.60583 2.86943,-2.12832 7.3541,-2.12832 4.59869,0 7.3731,2.41336 2.77441,2.39436 2.77441,6.11891 h -5.70085 q 0,-1.74826 -1.12116,-2.86943 -1.12117,-1.12116 -3.42051,-1.12116 -2.24234,0 -3.3445,0.95014 -1.08316,0.93114 -1.08316,2.26133 0,1.36821 1.40621,2.28034 1.4062,0.91214 4.0856,1.72926 4.54168,1.38721 6.86003,3.47752 2.33735,2.09031 2.33735,5.51082 0,3.62954 -2.73641,5.66285 -2.73641,2.0143 -7.29709,2.0143 -2.75541,0 -5.32079,-0.96915 -2.56539,-0.96914 -4.21863,-2.98344 -1.65325,-2.0143 -1.65325,-5.14977 h 5.71985 q 0,2.52738 1.50123,3.55353 1.52022,1.02615 3.97159,1.02615 2.20433,0 3.24948,-0.89313 1.06416,-0.89313 1.06416,-2.22333 z m 32.30482,-5.94789 q 0,6.32794 -3.28749,9.95749 -3.26849,3.62954 -8.47527,3.62954 -5.20677,0 -8.51326,-3.62954 -3.3065,-3.62955 -3.3065,-9.95749 v -1.23518 q 0,-6.32795 3.28749,-9.95749 3.28749,-3.64854 8.49427,-3.64854 5.20678,0 8.49427,3.64854 3.30649,3.62954 3.30649,9.95749 z m -5.77686,-1.27319 q 0,-4.33264 -1.57724,-6.59398 -1.57723,-2.26134 -4.44666,-2.26134 -2.86943,0 -4.42766,2.24234 -1.55823,2.22333 -1.57724,6.51797 v 1.3682 q 0,4.31364 1.57724,6.61299 1.57723,2.28034 4.46566,2.28034 2.86943,0 4.40866,-2.26134 1.55823,-2.26134 1.57724,-6.53697 z m 25.93886,5.26379 h 5.70085 q -0.28504,4.21862 -3.17347,6.91703 -2.86943,2.6794 -7.96219,2.6794 -5.32079,0 -8.38025,-3.57254 -3.05945,-3.59153 -3.05945,-9.72945 v -1.80527 q 0,-6.13791 3.13546,-9.72945 3.13547,-3.61053 8.36125,-3.61053 5.18777,0 7.94319,2.77441 2.75541,2.75541 3.15447,7.01204 h -5.70085 q -0.19003,-2.47036 -1.38721,-3.78156 -1.17818,-1.3302 -4.0096,-1.3302 -5.54883,0 -5.70085,8.19022 v 2.28034 q 0,4.29464 1.29219,6.46097 1.3112,2.16632 4.35165,2.16632 2.6984,0 3.95259,-1.21618 1.27319,-1.23519 1.48222,-3.70555 z m 15.50631,-18.45175 v 27.66812 h -5.70085 v -27.66812 z m 5.30179,27.66812 v -27.66812 h 18.50876 v 4.61768 h -12.78891 v 6.59399 h 10.92663 v 4.46566 h -10.92663 v 7.3921 h 12.84592 v 4.59869 z m 20.58007,-23.05044 v -4.61768 h 22.51836 v 4.61768 h -8.45626 v 23.05044 h -5.70085 v -23.05044 z m 29.89146,-4.61768 5.73885,12.46585 5.73886,-12.46585 h 6.25193 l -9.10236,17.63462 v 10.0335 h -5.77686 v -10.0335 l -9.10236,-17.63462 z"
     id="text16537"
     aria-label="SOCIETY" /><g
     id="text22402"
     style="font-weight:bold;font-size:38.9178px;font-family:Roboto;-inkscape-font-specification:'Roboto Bold';text-align:center;text-anchor:middle;fill:#00000f;stroke:#ffffff;stroke-width:0.4335"
     aria-label="REMOTE&#10;SENSING"><path
       style="text-align:start;text-anchor:start"
       d="m 723.09775,646.95154 -5.16877,-10.14751 h -4.54168 v 10.14751 h -5.71985 v -27.66813 h 10.29954 q 4.76971,0 7.48711,2.14732 2.73641,2.12832 2.73641,6.21393 0,3.00245 -1.3302,4.84572 -1.3302,1.84328 -3.61054,2.86943 l 5.9859,11.32569 v 0.26604 z M 713.3873,623.9011 v 8.30424 h 4.57969 q 2.24233,0 3.3635,-1.12117 1.14017,-1.14017 1.14017,-3.00244 0,-1.91929 -1.10217,-3.04046 -1.10216,-1.14017 -3.4015,-1.14017 z m 19.11685,23.05044 v -27.66813 h 18.50876 v 4.61769 h -12.7889 v 6.59399 h 10.92662 v 4.46566 h -10.92662 v 7.3921 h 12.84591 v 4.59869 z m 36.44744,-7.60113 7.08805,-20.067 h 7.46812 v 27.66813 h -5.71986 v -7.56313 l 0.57009,-12.99794 -7.44911,20.56107 h -3.91459 l -7.44911,-20.56107 0.57009,12.99794 v 7.56313 h -5.71985 v -27.66813 h 7.46811 z m 42.2813,-5.60584 q 0,6.32794 -3.28749,9.95748 -3.26849,3.62954 -8.47527,3.62954 -5.20677,0 -8.51327,-3.62954 -3.30649,-3.62954 -3.30649,-9.95748 v -1.23518 q 0,-6.32795 3.28749,-9.95749 3.28749,-3.64854 8.49427,-3.64854 5.20677,0 8.49426,3.64854 3.3065,3.62954 3.3065,9.95749 z m -5.77686,-1.27319 q 0,-4.33265 -1.57724,-6.59398 -1.57723,-2.26134 -4.44666,-2.26134 -2.86943,0 -4.42766,2.24233 -1.55823,2.22334 -1.57724,6.51798 v 1.3682 q 0,4.31364 1.57724,6.61299 1.57723,2.28034 4.46566,2.28034 2.86943,0 4.40866,-2.26134 1.55823,-2.26134 1.57724,-6.53698 z m 6.59398,-8.57028 v -4.61769 h 22.51835 v 4.61769 h -8.45626 v 23.05044 h -5.70085 V 623.9011 Z m 25.76783,23.05044 v -27.66813 h 18.50876 v 4.61769 h -12.78891 v 6.59399 h 10.92663 v 4.46566 h -10.92663 v 7.3921 h 12.84592 v 4.59869 z"
       id="path19" /><path
       style="text-align:start;text-anchor:start"
       d="m 722.03359,688.33971 q 0,-1.38721 -0.95014,-2.29935 -0.95014,-0.93113 -4.61769,-2.10931 -3.64854,-1.19718 -6.30894,-3.07846 -2.79341,-1.95729 -2.79341,-5.56783 0,-3.47752 2.86942,-5.60583 2.86943,-2.12832 7.3541,-2.12832 4.59868,0 7.3731,2.41336 2.77441,2.39436 2.77441,6.11891 h -5.70085 q 0,-1.74826 -1.12117,-2.86943 -1.12116,-1.12116 -3.4205,-1.12116 -2.24234,0 -3.3445,0.95014 -1.08316,0.93114 -1.08316,2.26133 0,1.36821 1.4062,2.28034 1.40621,0.91214 4.08561,1.72926 4.54168,1.38721 6.86003,3.47752 2.33734,2.09031 2.33734,5.51082 0,3.62954 -2.7364,5.66285 -2.73641,2.0143 -7.29709,2.0143 -2.75541,0 -5.32079,-0.96915 -2.56539,-0.96914 -4.21863,-2.98344 -1.65325,-2.0143 -1.65325,-5.14977 h 5.71985 q 0,2.52738 1.50123,3.55353 1.52022,1.02615 3.97159,1.02615 2.20433,0 3.24948,-0.89313 1.06416,-0.89313 1.06416,-2.22333 z m 9.55843,7.25908 v -27.66812 h 18.50876 v 4.61768 h -12.78891 v 6.59399 h 10.92663 v 4.46566 h -10.92663 v 7.3921 h 12.84591 v 4.59869 z m 44.40961,-27.66812 v 27.66812 h -5.70085 l -11.09765,-18.22372 v 18.22372 h -5.71985 v -27.66812 h 5.71985 l 11.09765,18.24271 v -18.24271 z m 19.34489,20.40904 q 0,-1.38721 -0.95014,-2.29935 -0.95014,-0.93113 -4.61769,-2.10931 -3.64854,-1.19718 -6.30894,-3.07846 -2.79342,-1.95729 -2.79342,-5.56783 0,-3.47752 2.86943,-5.60583 2.86943,-2.12832 7.3541,-2.12832 4.59868,0 7.3731,2.41336 2.77441,2.39436 2.77441,6.11891 h -5.70085 q 0,-1.74826 -1.12117,-2.86943 -1.12116,-1.12116 -3.42051,-1.12116 -2.24233,0 -3.3445,0.95014 -1.08316,0.93114 -1.08316,2.26133 0,1.36821 1.40621,2.28034 1.40621,0.91214 4.08561,1.72926 4.54168,1.38721 6.86002,3.47752 2.33735,2.09031 2.33735,5.51082 0,3.62954 -2.73641,5.66285 -2.7364,2.0143 -7.29708,2.0143 -2.75541,0 -5.3208,-0.96915 -2.56538,-0.96914 -4.21863,-2.98344 -1.65324,-2.0143 -1.65324,-5.14977 h 5.71985 q 0,2.52738 1.50122,3.55353 1.52023,1.02615 3.9716,1.02615 2.20432,0 3.24948,-0.89313 1.06416,-0.89313 1.06416,-2.22333 z m 15.62033,-20.40904 v 27.66812 H 805.266 v -27.66812 z m 27.82015,0 v 27.66812 h -5.70085 l -11.09766,-18.22372 v 18.22372 h -5.71985 v -27.66812 h 5.71985 l 11.09766,18.24271 v -18.24271 z m 26.889,13.13095 v 11.04065 q -0.98815,1.17817 -3.51553,2.52737 -2.50837,1.34921 -7.06905,1.34921 -5.3778,0 -8.7033,-3.47752 -3.30649,-3.49652 -3.30649,-9.90048 v -1.65324 q 0,-6.40396 3.17347,-9.90048 3.17348,-3.51552 8.43726,-3.51552 5.3778,0 7.94319,2.58438 2.56538,2.58439 3.02145,6.61299 h -5.54883 q -0.32305,-2.09032 -1.50123,-3.3445 -1.17817,-1.25419 -3.76256,-1.25419 -5.60583,0 -5.94788,7.75316 l -0.019,2.7174 q 0,4.37065 1.61525,6.57498 1.63424,2.20433 4.90273,2.20433 2.0523,0 3.07845,-0.45607 1.02616,-0.47507 1.48223,-0.91213 v -4.76971 h -5.16877 v -4.18063 z"
       id="path20" /></g><g
     id="text23132"
     style="font-weight:bold;font-size:38.9178px;font-family:Inter;-inkscape-font-specification:'Inter, Bold';text-align:center;text-anchor:middle;fill:#00000f;stroke:#ffffff;stroke-width:0.4335"
     aria-label="AI AND DATA&#10;LITERACY"><path
       style="font-family:Roboto;-inkscape-font-specification:'Roboto Bold'"
       d="m 299.77834,686.50159 10.29954,-27.66813 h 5.28278 l 10.35655,27.66813 h -6.08091 l -1.90028,-5.70085 h -10.0145 l -1.90028,5.70085 z m 9.48241,-10.31854 h 6.93604 l -3.45852,-10.39455 z m 25.10275,-17.34959 v 27.66813 h -5.70085 v -27.66813 z m 12.67488,27.66813 10.29954,-27.66813 h 5.28279 l 10.35654,27.66813 h -6.08091 l -1.90028,-5.70085 h -10.01449 l -1.90029,5.70085 z m 9.48242,-10.31854 h 6.93603 l -3.45851,-10.39455 z m 41.55919,-17.34959 v 27.66813 h -5.70085 l -11.09765,-18.22372 v 18.22372 h -5.71985 v -27.66813 h 5.71985 l 11.09765,18.24272 v -18.24272 z m 4.97875,27.66813 v -27.66813 h 8.53227 q 5.58683,0 9.10236,3.64855 3.53452,3.64854 3.53452,9.57742 v 1.23519 q 0,5.92888 -3.53452,9.57743 -3.51553,3.62954 -9.17837,3.62954 z m 5.71985,-23.05044 v 18.45175 h 2.73641 q 3.3635,0 5.11176,-2.18532 1.76726,-2.18533 1.80527,-6.25194 v -1.44421 q 0,-4.21863 -1.67225,-6.36595 -1.65325,-2.14732 -4.99775,-2.20433 z m 29.28337,23.05044 v -27.66813 h 8.53227 q 5.58683,0 9.10236,3.64855 3.53452,3.64854 3.53452,9.57742 v 1.23519 q 0,5.92888 -3.53452,9.57743 -3.51553,3.62954 -9.17837,3.62954 z m 5.71985,-23.05044 v 18.45175 h 2.73641 q 3.3635,0 5.11176,-2.18532 1.76726,-2.18533 1.80527,-6.25194 v -1.44421 q 0,-4.21863 -1.67225,-6.36595 -1.65325,-2.14732 -4.99775,-2.20433 z m 16.87451,23.05044 10.29953,-27.66813 h 5.28279 l 10.35654,27.66813 h -6.0809 l -1.90029,-5.70085 H 468.5995 l -1.90028,5.70085 z m 9.48241,-10.31854 h 6.93603 l -3.45851,-10.39455 z m 15.06925,-12.7319 v -4.61769 h 22.51836 v 4.61769 h -8.45626 v 23.05044 h -5.70085 v -23.05044 z m 21.16916,23.05044 10.29954,-27.66813 h 5.28278 l 10.35655,27.66813 h -6.08091 l -1.90028,-5.70085 h -10.0145 l -1.90028,5.70085 z m 9.48241,-10.31854 h 6.93604 l -3.45852,-10.39455 z"
       id="path21" /><path
       style="font-family:Roboto;-inkscape-font-specification:'Roboto Bold'"
       d="m 347.27592,730.78853 v 4.59868 h -17.80565 v -27.66812 h 5.71985 v 23.06944 z m 9.33039,-23.06944 v 27.66812 h -5.70085 v -27.66812 z m 3.05946,4.61769 v -4.61769 h 22.51835 v 4.61769 h -8.45626 v 23.05043 h -5.70085 v -23.05043 z m 25.76784,23.05043 v -27.66812 h 18.50876 v 4.61769 h -12.78891 v 6.59398 h 10.92663 v 4.46567 h -10.92663 v 7.3921 h 12.84591 v 4.59868 z m 37.32156,0 -5.16877,-10.14751 h -4.54167 v 10.14751 h -5.71986 v -27.66812 h 10.29954 q 4.76971,0 7.48711,2.14732 2.73641,2.12832 2.73641,6.21393 0,3.00244 -1.3302,4.84572 -1.3302,1.84327 -3.61053,2.86943 l 5.98589,11.32569 v 0.26603 z m -9.71044,-23.05043 v 8.30424 h 4.57968 q 2.24233,0 3.3635,-1.12117 1.14017,-1.14017 1.14017,-3.00245 0,-1.91928 -1.10217,-3.04045 -1.10216,-1.14017 -3.4015,-1.14017 z m 16.7985,23.05043 10.29953,-27.66812 h 5.28279 l 10.35654,27.66812 h -6.0809 l -1.90029,-5.70084 h -10.01449 l -1.90028,5.70084 z m 9.48241,-10.31853 h 6.93603 l -3.45851,-10.39455 z m 34.68016,1.10216 h 5.70085 q -0.28504,4.21863 -3.17347,6.91703 -2.86943,2.6794 -7.96219,2.6794 -5.32079,0 -8.38025,-3.57253 -3.05945,-3.59154 -3.05945,-9.72945 v -1.80527 q 0,-6.13792 3.13547,-9.72945 3.13546,-3.61054 8.36124,-3.61054 5.18777,0 7.94319,2.77441 2.75541,2.75542 3.15447,7.01205 h -5.70085 q -0.19003,-2.47037 -1.38721,-3.78156 -1.17818,-1.3302 -4.0096,-1.3302 -5.54883,0 -5.70085,8.19022 v 2.28034 q 0,4.29464 1.29219,6.46096 1.3112,2.16632 4.35165,2.16632 2.69841,0 3.95259,-1.21618 1.27319,-1.23518 1.48222,-3.70555 z m 13.26399,-18.45175 5.73885,12.46586 5.73886,-12.46586 h 6.25193 l -9.10236,17.63463 v 10.03349 h -5.77686 v -10.03349 l -9.10236,-17.63463 z"
       id="path22" /></g><path
     sodipodi:type="star"
     style="opacity:0.99;fill:none;stroke:#b9b6b5;stroke-width:0.999997;stroke-opacity:1"
     id="path7289"
     inkscape:flatsided="true"
     sodipodi:sides="5"
     sodipodi:cx="590.83527"
     sodipodi:cy="414.96899"
     sodipodi:r1="183.19762"
     sodipodi:r2="148.20998"
     sodipodi:arg1="0.93244087"
     sodipodi:arg2="1.5607594"
     inkscape:rounded="0"
     inkscape:randomized="0"
     d="m 699.99825,562.09075 -215.35087,2.16153 -68.60282,-204.14289 172.952,-128.32878 175.49302,124.83134 z"
     inkscape:transform-center-x="0.54958415"
     inkscape:transform-center-y="-15.869985"
     transform="matrix(0.96724514,0,0,0.93614166,-30.59712,67.995667)" /><text
     xml:space="preserve"
     style="font-weight:600;font-size:24px;font-family:Inter;-inkscape-font-specification:'Inter, Semi-Bold';opacity:0.99;fill:#000000;fill-opacity:1;stroke:#b9b6b5;stroke-width:0.999997;stroke-opacity:1"
     x="586.15472"
     y="-924.27008"
     id="text11701"
     transform="rotate(70.961953)"><tspan
       sodipodi:role="line"
       style="font-style:normal;font-variant:normal;font-weight:normal;font-stretch:normal;font-size:24px;font-family:Inter;-inkscape-font-specification:Inter;text-align:center;text-anchor:middle;fill:#000000;fill-opacity:1;stroke-width:1"
       x="586.15472"
       y="-924.27008"
       id="tspan14873" /></text><text
     xml:space="preserve"
     style="font-weight:600;font-size:14px;font-family:Inter;-inkscape-font-specification:'Inter, Semi-Bold';opacity:0.99;fill:#000000;fill-opacity:1;stroke:#b9b6b5;stroke-width:0.999997;stroke-opacity:1"
     x="2750.187"
     y="362.86572"
     id="text11913"><tspan
       sodipodi:role="line"
       id="tspan11911"
       style="stroke-width:1"
       x="2750.187"
       y="362.86572">+++</tspan></text><text
     xml:space="preserve"
     style="font-weight:600;font-size:24px;font-family:Inter;-inkscape-font-specification:'Inter, Semi-Bold';opacity:0.99;fill:#000000;fill-opacity:1;stroke:#b9b6b5;stroke-width:0.999997;stroke-opacity:1"
     x="497.31403"
     y="-62.638165"
     id="text17059"
     transform="rotate(-0.47266705)"><tspan
       sodipodi:role="line"
       style="font-style:normal;font-variant:normal;font-weight:normal;font-stretch:normal;font-size:24px;font-family:Inter;-inkscape-font-specification:Inter;text-align:center;text-anchor:middle;stroke-width:1"
       x="497.31403"
       y="-62.638165"
       id="tspan19243" /></text><text
     xml:space="preserve"
     style="font-weight:600;font-size:24px;font-family:Inter;-inkscape-font-specification:'Inter, Semi-Bold';opacity:0.99;fill:#000000;fill-opacity:1;stroke:#b9b6b5;stroke-width:0.999997;stroke-opacity:1"
     x="730.0351"
     y="517.53741"
     id="text19973"
     transform="rotate(37.894698)"
     inkscape:transform-center-x="56.753261"
     inkscape:transform-center-y="29.59468"><tspan
       sodipodi:role="line"
       style="font-style:normal;font-variant:normal;font-weight:normal;font-stretch:normal;font-size:24px;font-family:Inter;-inkscape-font-specification:Inter;text-align:center;text-anchor:middle;stroke-width:1"
       x="730.0351"
       y="517.53741"
       id="tspan27993" /></text><text
     xml:space="preserve"
     style="font-weight:600;font-size:14px;font-family:Inter;-inkscape-font-specification:'Inter, Semi-Bold';opacity:0.99;fill:#000000;fill-opacity:1;stroke:#b9b6b5;stroke-width:0.999997;stroke-opacity:1"
     x="21.577824"
     y="110.34379"
     id="text21433"><tspan
       sodipodi:role="line"
       id="tspan21431"
       style="stroke-width:1"
       x="21.577824"
       y="110.34379" /></text><text
     xml:space="preserve"
     style="font-weight:600;font-size:24px;font-family:Inter;-inkscape-font-specification:'Inter, Semi-Bold';opacity:0.99;fill:#000000;fill-opacity:1;stroke:#b9b6b5;stroke-width:0.999997;stroke-opacity:1"
     x="-217.24255"
     y="104.55716"
     id="text22163"
     transform="rotate(-69.945916)"
     inkscape:transform-center-x="12.31678"
     inkscape:transform-center-y="0.89222739"><tspan
       sodipodi:role="line"
       style="font-style:normal;font-variant:normal;font-weight:normal;font-stretch:normal;font-size:24px;font-family:Inter;-inkscape-font-specification:Inter;text-align:center;text-anchor:middle;stroke-width:1"
       x="-217.24255"
       y="104.55716"
       id="tspan22893" /></text><text
     xml:space="preserve"
     style="font-weight:600;font-size:24px;font-family:Inter;-inkscape-font-specification:'Inter, Semi-Bold';opacity:0.99;fill:#000000;fill-opacity:1;stroke:#b9b6b5;stroke-width:0.999997;stroke-opacity:1"
     x="179.09529"
     y="1164.5004"
     id="text25807"
     transform="rotate(-37.212393)"><tspan
       sodipodi:role="line"
       style="font-style:normal;font-variant:normal;font-weight:normal;font-stretch:normal;font-size:24px;font-family:Inter;-inkscape-font-specification:Inter;text-align:center;text-anchor:middle;stroke-width:1"
       x="179.09529"
       y="1164.5004"
       id="tspan27991" /></text><text
     xml:space="preserve"
     style="font-size:24px;font-family:Inter;-inkscape-font-specification:Inter;opacity:0.99;fill:none;stroke:#00000f;stroke-width:0.999997"
     x="1204.0647"
     y="445.48642"
     id="text509"><tspan
       sodipodi:role="line"
       id="tspan507"
       style="stroke-width:1"
       x="1204.0647"
       y="445.48642" /></text><text
     xml:space="preserve"
     transform="matrix(0.75,0,0,0.75,-56.186777,-111.31583)"
     id="text640"
     style="font-size:32px;font-family:Inter;-inkscape-font-specification:Inter;text-align:center;white-space:pre;shape-inside:url(#rect642);display:inline;opacity:0.99;fill:none;stroke:#00000f;stroke-width:1.33333" /><text
     xml:space="preserve"
     style="font-size:24px;font-family:Inter;-inkscape-font-specification:Inter;text-align:start;text-anchor:start;opacity:0.99;fill:none;stroke:#00000f;stroke-width:0.999997"
     x="985.68488"
     y="15.178446"
     id="text650"><tspan
       sodipodi:role="line"
       id="tspan648"
       style="stroke-width:1"
       x="985.68488"
       y="15.178446" /></text><text
     xml:space="preserve"
     style="font-size:24px;font-family:Inter;-inkscape-font-specification:Inter;text-align:start;text-anchor:start;opacity:0.99;fill:none;stroke:#00000f;stroke-width:0.999997"
     x="829.41858"
     y="378.05673"
     id="text656"><tspan
       sodipodi:role="line"
       id="tspan654"
       style="stroke-width:1"
       x="829.41858"
       y="378.05673" /></text><text
     xml:space="preserve"
     transform="matrix(0.75,0,0,0.75,-56.186777,-111.31583)"
     id="text710"
     style="font-size:32px;font-family:Inter;-inkscape-font-specification:Inter;text-align:start;white-space:pre;shape-inside:url(#rect712);display:inline;opacity:0.99;fill:none;stroke:#00000f;stroke-width:1.33333" /></svg>
