<?xml version="1.0" encoding="UTF-8" standalone="no"?>
<!-- Created with Inkscape (http://www.inkscape.org/) -->

<svg
   width="127.60865mm"
   height="24.693804mm"
   viewBox="0 0 127.60865 24.693804"
   version="1.1"
   id="svg1"
   inkscape:version="1.4.2 (ebf0e940d0, 2025-05-08)"
   sodipodi:docname="FBK_Logo_Horizontal_colour.svg"
   xmlns:inkscape="http://www.inkscape.org/namespaces/inkscape"
   xmlns:sodipodi="http://sodipodi.sourceforge.net/DTD/sodipodi-0.dtd"
   xmlns="http://www.w3.org/2000/svg"
   xmlns:svg="http://www.w3.org/2000/svg">
  <sodipodi:namedview
     id="namedview1"
     pagecolor="#ffffff"
     bordercolor="#000000"
     borderopacity="0.25"
     inkscape:showpageshadow="2"
     inkscape:pageopacity="0.0"
     inkscape:pagecheckerboard="0"
     inkscape:deskcolor="#d1d1d1"
     inkscape:document-units="mm"
     inkscape:zoom="0.51402217"
     inkscape:cx="105.05384"
     inkscape:cy="251.93466"
     inkscape:window-width="1470"
     inkscape:window-height="787"
     inkscape:window-x="0"
     inkscape:window-y="0"
     inkscape:window-maximized="1"
     inkscape:current-layer="layer1" />
  <defs
     id="defs1">
    <clipPath
       clipPathUnits="userSpaceOnUse"
       id="clipPath3">
      <path
         d="M 0,150.015 H 442.304 V 0 H 0 Z"
         transform="translate(-213.4531,-77.969602)"
         id="path3" />
    </clipPath>
    <clipPath
       clipPathUnits="userSpaceOnUse"
       id="clipPath5">
      <path
         d="M 0,150.015 H 442.304 V 0 H 0 Z"
         transform="translate(-230.49801,-66.422702)"
         id="path5" />
    </clipPath>
    <clipPath
       clipPathUnits="userSpaceOnUse"
       id="clipPath7">
      <path
         d="M 0,150.015 H 442.304 V 0 H 0 Z"
         transform="translate(-250.61611,-66.422702)"
         id="path7" />
    </clipPath>
    <clipPath
       clipPathUnits="userSpaceOnUse"
       id="clipPath9">
      <path
         d="M 0,150.015 H 442.304 V 0 H 0 Z"
         transform="translate(-273.9745,-75.225302)"
         id="path9" />
    </clipPath>
    <clipPath
       clipPathUnits="userSpaceOnUse"
       id="clipPath11">
      <path
         d="M 0,150.015 H 442.304 V 0 H 0 Z"
         transform="translate(-289.32931,-66.422702)"
         id="path11" />
    </clipPath>
    <clipPath
       clipPathUnits="userSpaceOnUse"
       id="clipPath13">
      <path
         d="M 0,150.015 H 442.304 V 0 H 0 Z"
         id="path13" />
    </clipPath>
    <clipPath
       clipPathUnits="userSpaceOnUse"
       id="clipPath15">
      <path
         d="M 0,150.015 H 442.304 V 0 H 0 Z"
         transform="translate(-318.02791,-77.969602)"
         id="path15" />
    </clipPath>
    <clipPath
       clipPathUnits="userSpaceOnUse"
       id="clipPath17">
      <path
         d="M 0,150.015 H 442.304 V 0 H 0 Z"
         transform="translate(-334.84011,-66.422702)"
         id="path17" />
    </clipPath>
    <clipPath
       clipPathUnits="userSpaceOnUse"
       id="clipPath19">
      <path
         d="M 0,150.015 H 442.304 V 0 H 0 Z"
         transform="translate(-354.10121,-66.422702)"
         id="path19" />
    </clipPath>
    <clipPath
       clipPathUnits="userSpaceOnUse"
       id="clipPath21">
      <path
         d="M 0,150.015 H 442.304 V 0 H 0 Z"
         transform="translate(-198.65271,-59.169204)"
         id="path21" />
    </clipPath>
    <clipPath
       clipPathUnits="userSpaceOnUse"
       id="clipPath23">
      <path
         d="M 0,150.015 H 442.304 V 0 H 0 Z"
         transform="translate(-211.42921,-39.892703)"
         id="path23" />
    </clipPath>
    <clipPath
       clipPathUnits="userSpaceOnUse"
       id="clipPath25">
      <path
         d="M 0,150.015 H 442.304 V 0 H 0 Z"
         transform="translate(-228.4636,-62.169804)"
         id="path25" />
    </clipPath>
    <clipPath
       clipPathUnits="userSpaceOnUse"
       id="clipPath27">
      <path
         d="M 0,150.015 H 442.304 V 0 H 0 Z"
         transform="translate(-247.61301,-39.892703)"
         id="path27" />
    </clipPath>
    <clipPath
       clipPathUnits="userSpaceOnUse"
       id="clipPath29">
      <path
         d="M 0,150.015 H 442.304 V 0 H 0 Z"
         transform="translate(-271.53651,-51.031404)"
         id="path29" />
    </clipPath>
    <clipPath
       clipPathUnits="userSpaceOnUse"
       id="clipPath31">
      <path
         d="M 0,150.015 H 442.304 V 0 H 0 Z"
         transform="translate(-295.90851,-39.892703)"
         id="path31" />
    </clipPath>
    <clipPath
       clipPathUnits="userSpaceOnUse"
       id="clipPath33">
      <path
         d="M 0,150.015 H 442.304 V 0 H 0 Z"
         transform="translate(-314.56661,-39.892703)"
         id="path33" />
    </clipPath>
    <clipPath
       clipPathUnits="userSpaceOnUse"
       id="clipPath35">
      <path
         d="M 0,150.015 H 442.304 V 0 H 0 Z"
         transform="translate(-329.58301,-40.562199)"
         id="path35" />
    </clipPath>
    <clipPath
       clipPathUnits="userSpaceOnUse"
       id="clipPath37">
      <path
         d="M 0,150.015 H 442.304 V 0 H 0 Z"
         transform="translate(-344.39421,-40.562199)"
         id="path37" />
    </clipPath>
    <clipPath
       clipPathUnits="userSpaceOnUse"
       id="clipPath39">
      <path
         d="M 0,150.015 H 442.304 V 0 H 0 Z"
         transform="translate(-360.27341,-39.892703)"
         id="path39" />
    </clipPath>
    <clipPath
       clipPathUnits="userSpaceOnUse"
       id="clipPath41">
      <path
         d="M 0,150.015 H 442.304 V 0 H 0 Z"
         transform="translate(-374.51121,-39.892703)"
         id="path41" />
    </clipPath>
    <clipPath
       clipPathUnits="userSpaceOnUse"
       id="clipPath43">
      <path
         d="M 0,150.015 H 442.304 V 0 H 0 Z"
         transform="translate(-389.75781,-39.892703)"
         id="path43" />
    </clipPath>
    <clipPath
       clipPathUnits="userSpaceOnUse"
       id="clipPath45">
      <path
         d="M 0,150.015 H 442.304 V 0 H 0 Z"
         transform="translate(-89.8495,-51.504399)"
         id="path45" />
    </clipPath>
  </defs>
  <g
     inkscape:label="Layer 1"
     inkscape:groupmode="layer"
     id="layer1"
     transform="translate(-77.258334,-81.756254)">
    <path
       id="path1"
       d="m 130.63315,96.97815 h 1.49437 v -3.548944 h 2.5086 v -1.18992 h -2.5086 v -2.217561 h 2.62607 V 88.8311 h -4.12044 z"
       style="fill:#a19e9e;fill-opacity:1;fill-rule:nonzero;stroke:none;stroke-width:0.352778" />
    <path
       id="path2"
       d="M 0,0 C 0,6.353 2.15,8.635 4.831,8.635 7.51,8.635 9.661,6.353 9.661,0 9.661,-6.351 7.51,-8.634 4.831,-8.634 2.15,-8.634 0,-6.351 0,0 m -4.367,0 c 0,-8.304 4.4,-11.877 9.198,-11.877 4.797,0 9.197,3.573 9.197,11.877 0,8.306 -4.4,11.878 -9.197,11.878 C 0.033,11.878 -4.367,8.306 -4.367,0"
       style="fill:#a19e9e;fill-opacity:1;fill-rule:evenodd;stroke:none"
       transform="matrix(0.35277776,0,0,-0.35277776,137.3045,92.904661)"
       clip-path="url(#clipPath3)" />
    <path
       id="path4"
       d="M 0,0 H 3.837 V 17.999 H 3.904 L 11.547,0 h 5.062 V 23.094 H 12.772 V 4.962 H 12.705 L 5.029,23.094 H 0 Z"
       style="fill:#a19e9e;fill-opacity:1;fill-rule:nonzero;stroke:none"
       transform="matrix(0.35277776,0,0,-0.35277776,143.31756,96.97815)"
       clip-path="url(#clipPath5)" />
    <path
       id="path6"
       d="m 0,0 h 6.022 c 6.419,0 11.05,3.772 11.05,11.547 0,7.644 -3.838,11.547 -11.05,11.547 H 0 Z m 4.234,19.853 h 1.423 c 4.765,0 6.915,-3.242 6.915,-8.306 0,-5.061 -2.15,-8.304 -6.915,-8.304 H 4.234 Z"
       style="fill:#a19e9e;fill-opacity:1;fill-rule:evenodd;stroke:none"
       transform="matrix(0.35277776,0,0,-0.35277776,150.41478,96.97815)"
       clip-path="url(#clipPath7)" />
    <path
       id="path8"
       d="M 0,0 3.178,10.785 H 3.243 L 6.154,0 Z m 8.669,-8.803 h 4.368 L 5.592,14.291 H 0.959 L -6.782,-8.803 h 4.235 l 1.654,5.56 h 7.94 z"
       style="fill:#a19e9e;fill-opacity:1;fill-rule:evenodd;stroke:none"
       transform="matrix(0.35277776,0,0,-0.35277776,158.6551,93.872789)"
       clip-path="url(#clipPath9)" />
    <path
       id="path10"
       d="M 0,0 H 14.16 V 3.376 H 4.831 l 9.198,16.212 v 3.506 H 0.265 V 19.719 H 9.099 L 0,3.707 Z"
       style="fill:#a19e9e;fill-opacity:1;fill-rule:nonzero;stroke:none"
       transform="matrix(0.35277776,0,0,-0.35277776,164.07193,96.97815)"
       clip-path="url(#clipPath11)" />
    <path
       id="path12"
       d="m 306.449,66.423 h 4.235 v 23.094 h -4.235 z"
       style="fill:#a19e9e;fill-opacity:1;fill-rule:nonzero;stroke:none"
       transform="matrix(0.35277776,0,0,-0.35277776,62.002988,120.4106)"
       clip-path="url(#clipPath13)" />
    <path
       id="path14"
       d="M 0,0 C 0,6.353 2.15,8.635 4.831,8.635 7.51,8.635 9.661,6.353 9.661,0 9.661,-6.351 7.51,-8.634 4.831,-8.634 2.15,-8.634 0,-6.351 0,0 m -4.368,0 c 0,-8.304 4.401,-11.877 9.199,-11.877 4.797,0 9.197,3.573 9.197,11.877 0,8.306 -4.4,11.878 -9.197,11.878 C 0.033,11.878 -4.368,8.306 -4.368,0"
       style="fill:#a19e9e;fill-opacity:1;fill-rule:evenodd;stroke:none"
       transform="matrix(0.35277776,0,0,-0.35277776,174.19616,92.904661)"
       clip-path="url(#clipPath15)" />
    <path
       id="path16"
       d="M 0,0 H 3.837 V 17.999 H 3.904 L 11.547,0 h 5.061 V 23.094 H 12.772 V 4.962 H 12.704 L 5.029,23.094 H 0 Z"
       style="fill:#a19e9e;fill-opacity:1;fill-rule:nonzero;stroke:none"
       transform="matrix(0.35277776,0,0,-0.35277776,180.12713,96.97815)"
       clip-path="url(#clipPath17)" />
    <path
       id="path18"
       d="M 0,0 H 12.474 V 3.376 H 4.235 v 6.814 h 7.477 v 3.376 H 4.235 v 6.153 h 7.909 v 3.375 L 0,23.094 Z"
       style="fill:#a19e9e;fill-opacity:1;fill-rule:nonzero;stroke:none"
       transform="matrix(0.35277776,0,0,-0.35277776,186.92202,96.97815)"
       clip-path="url(#clipPath19)" />
    <path
       id="path20"
       d="M 0,0 H 2.087 C 4.109,0 5.5,-1.118 5.5,-3.001 5.5,-4.819 4.273,-6.319 2.186,-6.319 H 0 Z m 0,-9.32 h 2.22 c 2.616,0 3.678,-1.467 3.678,-3.414 0,-2.075 -1.259,-3.415 -3.545,-3.415 H 0 Z m -4.11,-9.956 h 7.058 c 4.109,0 7.191,2.203 7.191,6.255 0,3.734 -2.585,4.945 -4.375,5.329 v 0.064 c 1.525,0.543 3.845,1.595 3.845,5.138 0,3.765 -2.187,5.491 -6.96,5.491 H -4.11 Z"
       style="fill:#a19e9e;fill-opacity:1;fill-rule:evenodd;stroke:none"
       transform="matrix(0.35277776,0,0,-0.35277776,132.08325,99.537023)"
       clip-path="url(#clipPath21)" />
    <path
       id="path22"
       d="M 0,0 H 4.243 V 9.574 H 5.204 C 6.762,9.574 7.854,9 8.419,7.244 L 10.704,0 h 4.507 l -3.015,8.489 c -0.73,2.075 -1.69,2.457 -2.552,2.585 v 0.095 c 2.585,0.383 4.475,2.33 4.475,5.235 0,4.083 -2.785,5.873 -6.894,5.873 H 0 Z m 4.243,12.575 v 6.573 h 1.723 c 2.386,0 3.779,-0.638 3.779,-3.19 0,-2.267 -1.525,-3.383 -3.779,-3.383 z"
       style="fill:#a19e9e;fill-opacity:1;fill-rule:evenodd;stroke:none"
       transform="matrix(0.35277776,0,0,-0.35277776,136.59051,106.33734)"
       clip-path="url(#clipPath23)" />
    <path
       id="path24"
       d="m 0,0 v -14.426 c 0,-5.874 3.511,-8.17 7.886,-8.17 4.341,0 7.853,2.296 7.853,8.17 V 0 h -4.241 v -14.426 c 0,-3.703 -1.193,-4.916 -3.612,-4.916 -2.485,0 -3.645,1.213 -3.645,4.916 L 4.241,0 Z"
       style="fill:#a19e9e;fill-opacity:1;fill-rule:nonzero;stroke:none"
       transform="matrix(0.35277776,0,0,-0.35277776,142.59987,98.478478)"
       clip-path="url(#clipPath25)" />
    <path
       id="path26"
       d="M 0,0 H 3.845 V 17.362 H 3.909 L 11.565,0 h 5.069 V 22.277 H 12.792 V 4.787 H 12.724 L 5.037,22.277 H 0 Z"
       style="fill:#a19e9e;fill-opacity:1;fill-rule:nonzero;stroke:none"
       transform="matrix(0.35277776,0,0,-0.35277776,149.35535,106.33734)"
       clip-path="url(#clipPath27)" />
    <path
       id="path28"
       d="M 0,0 C 0,6.127 2.154,8.33 4.838,8.33 7.522,8.33 9.676,6.127 9.676,0 9.676,-6.13 7.522,-8.33 4.838,-8.33 2.154,-8.33 0,-6.13 0,0 m -4.374,0 c 0,-8.011 4.407,-11.458 9.212,-11.458 4.805,0 9.213,3.447 9.213,11.458 0,8.01 -4.408,11.457 -9.213,11.457 C 0.033,11.457 -4.374,8.01 -4.374,0"
       style="fill:#a19e9e;fill-opacity:1;fill-rule:evenodd;stroke:none"
       transform="matrix(0.35277776,0,0,-0.35277776,157.79503,102.40786)"
       clip-path="url(#clipPath29)" />
    <path
       id="path30"
       d="m 0,0 h 4.241 v 10.467 h 0.1 L 11.299,0 h 5.137 L 7.952,11.776 15.806,22.277 H 10.934 L 4.341,12.829 h -0.1 v 9.448 H 0 Z"
       style="fill:#a19e9e;fill-opacity:1;fill-rule:nonzero;stroke:none"
       transform="matrix(0.35277776,0,0,-0.35277776,166.39293,106.33734)"
       clip-path="url(#clipPath31)" />
    <path
       id="path32"
       d="M 0,0 H 12.492 V 3.255 H 4.241 v 6.576 h 7.489 v 3.253 H 4.241 v 5.936 h 7.92 v 3.257 H 0 Z"
       style="fill:#a19e9e;fill-opacity:1;fill-rule:nonzero;stroke:none"
       transform="matrix(0.35277776,0,0,-0.35277776,172.97509,106.33734)"
       clip-path="url(#clipPath33)" />
    <path
       id="path34"
       d="m 0,0 c 1.16,-0.669 2.948,-0.989 5.269,-0.989 4.407,0 7.755,2.171 7.755,6.701 0,3.129 -1.293,4.533 -4.01,6.001 l -2.487,1.34 c -1.291,0.702 -2.451,1.34 -2.451,3.001 0,1.531 1.093,2.617 3.214,2.617 1.955,0 3.314,-0.574 4.341,-0.958 l 0.2,3.415 c -0.663,0.191 -2.386,0.798 -4.84,0.798 -3.876,0 -7.29,-2.075 -7.29,-6.063 0,-2.874 1.492,-4.629 3.778,-5.841 L 5.632,8.873 C 7.687,7.786 8.648,7.086 8.648,5.489 8.648,3.255 6.991,2.266 5.136,2.266 2.883,2.266 1.06,3.128 0.232,3.638 Z"
       style="fill:#a19e9e;fill-opacity:1;fill-rule:nonzero;stroke:none"
       transform="matrix(0.35277776,0,0,-0.35277776,178.27254,106.10116)"
       clip-path="url(#clipPath35)" />
    <path
       id="path36"
       d="m 0,0 c 1.16,-0.669 2.951,-0.989 5.269,-0.989 4.408,0 7.754,2.171 7.754,6.701 0,3.129 -1.291,4.533 -4.009,6.001 l -2.485,1.34 c -1.293,0.702 -2.452,1.34 -2.452,3.001 0,1.531 1.095,2.617 3.215,2.617 1.954,0 3.312,-0.574 4.34,-0.958 l 0.199,3.415 c -0.663,0.191 -2.386,0.798 -4.839,0.798 -3.876,0 -7.289,-2.075 -7.289,-6.063 0,-2.874 1.49,-4.629 3.777,-5.841 L 5.635,8.873 C 7.689,7.786 8.649,7.086 8.649,5.489 8.649,3.255 6.992,2.266 5.137,2.266 2.883,2.266 1.061,3.128 0.231,3.638 Z"
       style="fill:#a19e9e;fill-opacity:1;fill-rule:nonzero;stroke:none"
       transform="matrix(0.35277776,0,0,-0.35277776,183.49761,106.10116)"
       clip-path="url(#clipPath37)" />
    <path
       id="path38"
       d="M 0,0 H 11.863 V 3.255 H 4.242 V 22.277 H 0 Z"
       style="fill:#a19e9e;fill-opacity:1;fill-rule:nonzero;stroke:none"
       transform="matrix(0.35277776,0,0,-0.35277776,189.09943,106.33734)"
       clip-path="url(#clipPath39)" />
    <path
       id="path40"
       d="M 0,0 H 12.494 V 3.255 H 4.242 v 6.576 h 7.489 v 3.253 H 4.242 v 5.936 h 7.92 v 3.257 H 0 Z"
       style="fill:#a19e9e;fill-opacity:1;fill-rule:nonzero;stroke:none"
       transform="matrix(0.35277776,0,0,-0.35277776,194.12222,106.33734)"
       clip-path="url(#clipPath41)" />
    <path
       id="path42"
       d="M 0,0 H 4.242 V 9.574 H 5.204 C 6.761,9.574 7.854,9 8.418,7.244 L 10.704,0 h 4.507 l -3.015,8.489 c -0.729,2.075 -1.69,2.457 -2.552,2.585 v 0.095 c 2.584,0.383 4.475,2.33 4.475,5.235 0,4.083 -2.786,5.873 -6.894,5.873 H 0 Z m 4.242,12.575 v 6.573 h 1.724 c 2.386,0 3.777,-0.638 3.777,-3.19 0,-2.267 -1.524,-3.383 -3.777,-3.383 z"
       style="fill:#a19e9e;fill-opacity:1;fill-rule:evenodd;stroke:none"
       transform="matrix(0.35277776,0,0,-0.35277776,199.50088,106.33734)"
       clip-path="url(#clipPath43)" />
    <path
       id="path44"
       d="m 0,0 v -11.619 h 14.718 c 11.226,0 20.325,9.101 20.325,20.325 0,11.226 -9.246,20.341 -20.471,20.341 H 0 v -11.63 h 14.725 c 4.811,0 8.704,-3.9 8.704,-8.711 0,-4.811 -3.9,-8.71 -8.711,-8.71 z m -46.606,46.452 h 34.867 V 58.067 H -46.606 Z M 40.709,17.417 69.745,-11.619 H 86.22 L 51.361,23.242 86.186,58.067 H 69.71 L 40.679,29.036 Z m -87.315,11.615 h 34.867 V 17.417 h -34.867 z"
       style="fill:#1555a2;fill-opacity:1;fill-rule:evenodd;stroke:none"
       transform="matrix(0.35277776,0,0,-0.35277776,93.699894,102.241)"
       clip-path="url(#clipPath45)" />
  </g>
</svg>
