<?xml version="1.0" encoding="UTF-8" standalone="no"?>
<svg
   xmlns:dc="http://purl.org/dc/elements/1.1/"
   xmlns:cc="http://creativecommons.org/ns#"
   xmlns:rdf="http://www.w3.org/1999/02/22-rdf-syntax-ns#"
   xmlns:svg="http://www.w3.org/2000/svg"
   xmlns="http://www.w3.org/2000/svg"
   xmlns:sodipodi="http://sodipodi.sourceforge.net/DTD/sodipodi-0.dtd"
   xmlns:inkscape="http://www.inkscape.org/namespaces/inkscape"
   viewBox="0 0 60 60"
   x="0px"
   y="0px"
   version="1.1"
   id="svg897"
   sodipodi:docname="contactus.svg"
   width="60"
   height="60"
   inkscape:version="1.0.1 (3bc2e813f5, 2020-09-07)">
  <metadata
     id="metadata903">
    <rdf:RDF>
      <cc:Work
         rdf:about="">
        <dc:format>image/svg+xml</dc:format>
        <dc:type
           rdf:resource="http://purl.org/dc/dcmitype/StillImage" />
        <dc:title></dc:title>
      </cc:Work>
    </rdf:RDF>
  </metadata>
  <defs
     id="defs901" />
  <sodipodi:namedview
     pagecolor="#ffffff"
     bordercolor="#666666"
     borderopacity="1"
     objecttolerance="10"
     gridtolerance="10"
     guidetolerance="10"
     inkscape:pageopacity="0"
     inkscape:pageshadow="2"
     inkscape:window-width="1600"
     inkscape:window-height="801"
     id="namedview899"
     showgrid="false"
     fit-margin-top="0"
     fit-margin-left="0"
     fit-margin-right="0"
     fit-margin-bottom="0"
     inkscape:zoom="7.55"
     inkscape:cx="30"
     inkscape:cy="64.25752"
     inkscape:window-x="0"
     inkscape:window-y="28"
     inkscape:window-maximized="1"
     inkscape:current-layer="svg897" />
  <g
     id="g891"
     style="fill:#0068b4;fill-opacity:1"
     transform="translate(-2,-2)">
    <path
       d="M 61.707,26.293 49,13.586 V 7 A 5.006,5.006 0 0 0 44,2 H 20 a 5.006,5.006 0 0 0 -5,5 v 6.586 L 2.293,26.293 A 1,1 0 0 0 2,27 v 32 a 3,3 0 0 0 3,3 h 54 a 3,3 0 0 0 3,-3 V 27 A 1,1 0 0 0 61.707,26.293 Z M 59.586,27 l -9,9 H 49 V 16.414 Z M 27,4 H 37 V 5 A 1,1 0 0 1 36,6 H 28 A 1,1 0 0 1 27,5 Z m -7,0 h 5 v 1 a 3,3 0 0 0 3,3 h 8 A 3,3 0 0 0 39,5 V 4 h 5 a 3,3 0 0 1 3,3 V 36 H 17 V 7 a 3,3 0 0 1 3,-3 z m -5,32 h -1.586 l -9,-9 L 15,16.414 Z M 59,60 H 5 A 1,1 0 0 1 4,59 V 29.414 l 8.293,8.293 A 1,1 0 0 0 13,38 h 38 a 1,1 0 0 0 0.707,-0.293 L 60,29.414 V 59 a 1,1 0 0 1 -1,1 z"
       id="path887"
       style="fill:#0068b4;fill-opacity:1" />
    <path
       d="M 24.343,25 30,30.657 a 6.005,6.005 0 0 0 8.485,0 2,2 0 0 0 2.828,0 l 1.415,-1.414 a 1,1 0 0 0 0,-1.414 l -5.657,-5.657 a 1,1 0 0 0 -1.414,0 l -1.414,1.414 a 2,2 0 0 0 0,2.828 1,1 0 0 1 -1.415,0 l -4.242,-4.242 a 1,1 0 0 1 0,-1.415 2,2 0 0 0 2.828,0 l 1.414,-1.414 a 1,1 0 0 0 0,-1.414 l -5.657,-5.657 a 1.029,1.029 0 0 0 -1.414,0 l -1.413,1.414 a 2,2 0 0 0 0,2.829 A 6.007,6.007 0 0 0 24.343,25 Z M 36.364,24.293 40.607,28.536 39.9,29.244 35.657,25 Z m -9.9,-9.9 4.244,4.243 L 30,19.344 25.757,15.1 Z m 0.708,4.949 a 3,3 0 0 0 0,4.243 l 4.242,4.242 a 3,3 0 0 0 4.243,0 l 1.414,1.415 a 4.006,4.006 0 0 1 -5.657,0 l -5.657,-5.657 a 4.006,4.006 0 0 1 0,-5.657 z"
       id="path889"
       style="fill:#0068b4;fill-opacity:1" />
  </g>
</svg>
