<?xml version="1.0" encoding="UTF-8" standalone="no"?>
<svg
   xmlns:dc="http://purl.org/dc/elements/1.1/"
   xmlns:cc="http://creativecommons.org/ns#"
   xmlns:rdf="http://www.w3.org/1999/02/22-rdf-syntax-ns#"
   xmlns:svg="http://www.w3.org/2000/svg"
   xmlns="http://www.w3.org/2000/svg"
   xmlns:sodipodi="http://sodipodi.sourceforge.net/DTD/sodipodi-0.dtd"
   xmlns:inkscape="http://www.inkscape.org/namespaces/inkscape"
   version="1.1"
   viewBox="0 0 1083.5984 619.73549"
   fill="none"
   stroke="none"
   stroke-linecap="square"
   stroke-miterlimit="10"
   id="svg1067"
   sodipodi:docname="research_focus.svg"
   width="286.70209mm"
   height="163.97168mm"
   inkscape:version="1.0.1 (3bc2e813f5, 2020-09-07)">
  <metadata
     id="metadata1073">
    <rdf:RDF>
      <cc:Work
         rdf:about="">
        <dc:format>image/svg+xml</dc:format>
        <dc:type
           rdf:resource="http://purl.org/dc/dcmitype/StillImage" />
        <dc:title></dc:title>
      </cc:Work>
    </rdf:RDF>
  </metadata>
  <defs
     id="defs1071" />
  <sodipodi:namedview
     pagecolor="#ffffff"
     bordercolor="#666666"
     borderopacity="1"
     objecttolerance="10"
     gridtolerance="10"
     guidetolerance="10"
     inkscape:pageopacity="0"
     inkscape:pageshadow="2"
     inkscape:window-width="1600"
     inkscape:window-height="801"
     id="namedview1069"
     showgrid="true"
     fit-margin-top="0"
     fit-margin-left="0"
     fit-margin-right="0"
     fit-margin-bottom="0"
     units="mm"
     inkscape:zoom="0.6"
     inkscape:cx="515.69083"
     inkscape:cy="236.38702"
     inkscape:window-x="0"
     inkscape:window-y="28"
     inkscape:window-maximized="1"
     inkscape:current-layer="svg1067">
    <inkscape:grid
       type="xygrid"
       id="grid1120"
       originx="151.71563"
       originy="22.664617" />
  </sodipodi:namedview>
  <clipPath
     id="p1.0">
    <path
       d="M 0,0 H 1440 V 960 H 0 Z"
       clip-rule="nonzero"
       id="path972" />
  </clipPath>
  <g
     id="g1313"
     transform="matrix(1.3769625,0,0,1.3125874,26.46935,-46.263653)">
    <path
       fill="#d3ebd5"
       d="m 179.64102,307.46583 v 0 c 0,-102.02916 80.37016,-184.74014 179.5118,-184.74014 v 0 c 47.6095,0 93.26904,19.46364 126.93402,54.10913 33.66498,34.64551 52.57782,81.63489 52.57782,130.63101 v 0 c 0,102.02918 -80.37021,184.74017 -179.51184,184.74017 v 0 c -99.14163,0 -179.5118,-82.711 -179.5118,-184.74017 z"
       fill-rule="evenodd"
       id="path977" />
    <path
       fill="#80bfb7"
       d="m 248.18782,195.04395 v 0 c 0,-63.12175 49.72458,-114.292032 111.06293,-114.292032 v 0 c 29.45575,0 57.70502,12.04145 78.53339,33.475362 20.82834,21.43392 32.52957,50.50454 32.52957,80.81667 v 0 c 0,63.12174 -49.72458,114.29202 -111.06296,114.29202 v 0 c -61.33835,0 -111.06293,-51.17029 -111.06293,-114.29202 z"
       fill-rule="evenodd"
       id="path979" />
    <path
       fill="#000000"
       fill-opacity="0"
       d="m 284.67244,145.45947 h 153.42685 v 74.17902 H 284.67244 Z"
       fill-rule="evenodd"
       id="path981" />
    <path
       fill="#ffffff"
       d="m 335.77944,141.42773 q -3.1875,0 -3.1875,2.125 0,0.9375 0.78125,1.4375 0.79687,0.48437 3.70312,1.4375 2.92188,0.9375 4.09375,2.125 1.1875,1.1875 1.1875,3.64062 0,3.14063 -1.90625,4.76563 -1.90625,1.60937 -4.98437,1.60937 -2.29688,0 -5.60938,-0.71875 l -1.0625,-0.20312 0.42188,-3.14063 q 3.92187,0.53125 6.01562,0.53125 3.09375,0 3.09375,-2.57812 0,-0.9375 -0.71875,-1.46875 -0.70312,-0.53125 -2.85937,-1.14063 -3.39063,-0.96875 -4.79688,-2.29687 -1.39062,-1.34375 -1.39062,-3.71875 0,-2.98438 1.8125,-4.45313 1.82812,-1.46875 5,-1.46875 2.17187,0 5.51562,0.59375 l 1.04688,0.20313 -0.3125,3.1875 q -4.14063,-0.46875 -5.84375,-0.46875 z m 10.267,3.78125 q 1.5625,-2.01563 5.1875,-2.01563 3.64062,0 5.1875,2.01563 1.5625,2 1.5625,5.64062 0,7.71875 -6.75,7.71875 -6.73438,0 -6.73438,-7.71875 0,-3.64062 1.54688,-5.64062 z m 3.03125,8.95312 q 0.60937,1.0625 2.15625,1.0625 1.5625,0 2.15625,-1.0625 0.60937,-1.0625 0.60937,-3.3125 0,-2.26562 -0.60937,-3.28125 -0.59375,-1.03125 -2.15625,-1.03125 -1.54688,0 -2.15625,1.03125 -0.59375,1.01563 -0.59375,3.28125 0,2.25 0.59375,3.3125 z m 17.25882,-10.96875 q 1.53125,0 3.90625,0.46875 l 0.79687,0.17188 -0.125,3.10937 q -2.3125,-0.23437 -3.42187,-0.23437 -2.03125,0 -2.6875,0.875 -0.65625,0.85937 -0.65625,3.26562 0,2.40625 0.65625,3.29688 0.65625,0.89062 2.70312,0.89062 l 3.40625,-0.23437 0.125,3.14062 q -3.14062,0.625 -4.78125,0.625 -3.26562,0 -4.6875,-1.82812 -1.42187,-1.84375 -1.42187,-5.89063 0,-4.04687 1.46875,-5.84375 1.46875,-1.8125 4.71875,-1.8125 z m 7.59595,15.01563 v -14.65625 h 3.9375 v 14.65625 z m 0,-16.54688 v -3.98437 h 3.9375 v 3.98437 z m 8.36352,3.54688 q 1.5625,-2.01563 5.1875,-2.01563 3.64063,0 5.1875,2.01563 1.5625,2 1.5625,5.64062 0,7.71875 -6.75,7.71875 -6.73437,0 -6.73437,-7.71875 0,-3.64062 1.54687,-5.64062 z m 3.03125,8.95312 q 0.60938,1.0625 2.15625,1.0625 1.5625,0 2.15625,-1.0625 0.60938,-1.0625 0.60938,-3.3125 0,-2.26562 -0.60938,-3.28125 -0.59375,-1.03125 -2.15625,-1.03125 -1.54687,0 -2.15625,1.03125 -0.59375,1.01563 -0.59375,3.28125 0,2.25 0.59375,3.3125 z"
       fill-rule="nonzero"
       id="path983" />
    <path
       fill="#ffffff"
       d="m 303.04616,176.8496 v -3.57813 h 14.67187 v 3.57813 h -5.28125 v 16.35937 h -4.04687 V 176.8496 Z m 18.07446,10.70312 q 0.0312,1.34375 0.71875,1.95313 0.6875,0.59375 1.98438,0.59375 2.71875,0 4.85937,-0.17188 l 0.82813,-0.0937 0.0469,2.90625 q -3.35937,0.82813 -6.09375,0.82813 -3.3125,0 -4.8125,-1.76563 -1.5,-1.76562 -1.5,-5.71875 0,-7.89062 6.48438,-7.89062 6.39062,0 6.39062,6.625 l -0.28125,2.73437 z m 5.04688,-3 q 0,-1.75 -0.5625,-2.4375 -0.5625,-0.70312 -1.95313,-0.70312 -1.39062,0 -1.96875,0.71875 -0.5625,0.71875 -0.59375,2.42187 z m 12.16046,-6.35937 q 1.53125,0 3.90625,0.46875 l 0.79687,0.17187 -0.125,3.10938 q -2.3125,-0.23438 -3.42187,-0.23438 -2.03125,0 -2.6875,0.875 -0.65625,0.85938 -0.65625,3.26563 0,2.40625 0.65625,3.29687 0.65625,0.89063 2.70312,0.89063 l 3.40625,-0.23438 0.125,3.14063 q -3.14062,0.625 -4.78125,0.625 -3.26562,0 -4.6875,-1.82813 -1.42187,-1.84375 -1.42187,-5.89062 0,-4.04688 1.46875,-5.84375 1.46875,-1.8125 4.71875,-1.8125 z m 11.53348,15.01562 h -3.9375 v -20.53125 h 3.9375 v 6.57813 q 2.01562,-1.0625 3.64062,-1.0625 2.92188,0 4.03125,1.73437 1.125,1.71875 1.125,5.32813 v 7.95312 h -3.9375 v -7.85937 q 0,-1.84375 -0.4375,-2.73438 -0.4375,-0.90625 -1.75,-0.90625 -1.15625,0 -2.29687,0.35938 l -0.375,0.10937 z m 16.21844,0 h -3.9375 v -14.65625 h 3.90625 v 0.8125 q 2,-1.17187 3.67188,-1.17187 2.92187,0 4.03125,1.73437 1.125,1.71875 1.125,5.32813 v 7.95312 h -3.9375 v -7.82812 q 0,-1.875 -0.4375,-2.76563 -0.4375,-0.90625 -1.75,-0.90625 -1.20313,0 -2.32813,0.40625 l -0.34375,0.125 z m 12.28095,0 v -14.65625 h 3.9375 v 14.65625 z m 0,-16.54687 v -3.98438 h 3.9375 v 3.98438 z m 13.05102,1.53125 q 1.53125,0 3.90625,0.46875 l 0.79688,0.17187 -0.125,3.10938 q -2.3125,-0.23438 -3.42188,-0.23438 -2.03125,0 -2.6875,0.875 -0.65625,0.85938 -0.65625,3.26563 0,2.40625 0.65625,3.29687 0.65625,0.89063 2.70313,0.89063 l 3.40625,-0.23438 0.125,3.14063 q -3.14063,0.625 -4.78125,0.625 -3.26563,0 -4.6875,-1.82813 -1.42188,-1.84375 -1.42188,-5.89062 0,-4.04688 1.46875,-5.84375 1.46875,-1.8125 4.71875,-1.8125 z m 18.83032,4.92187 v 6.10938 q 0.0625,0.70312 0.23438,0.98437 0.1875,0.26563 0.73437,0.39063 l -0.10937,2.96875 q -1.5,0 -2.40625,-0.21875 -0.89063,-0.20313 -1.79688,-0.8125 -2.10937,1.03125 -4.3125,1.03125 -4.54687,0 -4.54687,-4.8125 0,-2.34375 1.26562,-3.32813 1.26563,-0.98437 3.875,-1.15625 l 3.14063,-0.25 v -0.90625 q 0,-0.90625 -0.42188,-1.23437 -0.40625,-0.34375 -1.3125,-0.34375 l -5.51562,0.23437 -0.10938,-2.73437 q 3.125,-0.84375 5.95313,-0.84375 2.84375,0 4.07812,1.17187 1.25,1.17188 1.25,3.75 z m -6.59375,3.875 q -1.64062,0.14063 -1.64062,1.76563 0,1.60937 1.4375,1.60937 1.10937,0 2.4375,-0.35937 l 0.4375,-0.10938 v -3.14062 z m 10.53354,6.21875 v -20.53125 h 3.92188 v 20.53125 z"
       fill-rule="nonzero"
       id="path985" />
    <path
       fill="#ffffff"
       d="m 315.6164,211.42773 q -3.1875,0 -3.1875,2.125 0,0.9375 0.78125,1.4375 0.79687,0.48437 3.70312,1.4375 2.92188,0.9375 4.09375,2.125 1.1875,1.1875 1.1875,3.64062 0,3.14063 -1.90625,4.76563 -1.90625,1.60937 -4.98437,1.60937 -2.29688,0 -5.60938,-0.71875 l -1.0625,-0.20312 0.42188,-3.14063 q 3.92187,0.53125 6.01562,0.53125 3.09375,0 3.09375,-2.57812 0,-0.9375 -0.71875,-1.46875 -0.70312,-0.53125 -2.85937,-1.14063 -3.39063,-0.96875 -4.79688,-2.29687 -1.39062,-1.34375 -1.39062,-3.71875 0,-2.98438 1.8125,-4.45313 1.82812,-1.46875 5,-1.46875 2.17187,0 5.51562,0.59375 l 1.04688,0.20313 -0.3125,3.1875 q -4.14063,-0.46875 -5.84375,-0.46875 z m 7.92105,2.125 h 3.875 l 2.67188,11.3125 h 0.67187 l 2.67188,-11.3125 h 3.85937 l -5.15625,20.81249 h -3.84375 l 1.60938,-6.15624 h -2.75 z m 26.33371,3.65625 q -3.64062,-0.46875 -5.09375,-0.46875 -1.4375,0 -1.875,0.26562 -0.42187,0.26563 -0.42187,0.84375 0,0.5625 0.5625,0.78125 0.57812,0.21875 2.9375,0.65625 2.375,0.42188 3.35937,1.39063 1,0.96875 1,3.125 0,4.76562 -5.89062,4.76562 -1.9375,0 -4.6875,-0.53125 l -0.9375,-0.1875 0.10937,-3.28125 q 3.64063,0.46875 5.0625,0.46875 1.42188,0 1.9375,-0.26562 0.51563,-0.28125 0.51563,-0.84375 0,-0.5625 -0.54688,-0.8125 -0.54687,-0.26563 -2.82812,-0.64063 -2.26563,-0.39062 -3.375,-1.29687 -1.10938,-0.92188 -1.10938,-3.25 0,-2.32813 1.57813,-3.51563 1.57812,-1.1875 4.07812,-1.1875 1.73438,0 4.71875,0.5625 l 0.96875,0.17188 z m 11.43662,-0.32813 h -3.60938 v 6.01563 q 0,0.89062 0.0469,1.25 0.0469,0.35937 0.32812,0.625 0.28125,0.26562 0.85938,0.26562 l 2.23437,-0.0469 0.17188,3.125 q -1.96875,0.45312 -2.98438,0.45312 -2.64062,0 -3.60937,-1.1875 -0.96875,-1.20312 -0.96875,-4.39062 v -6.10938 h -1.73438 v -3.32812 h 1.73438 v -4.07813 h 3.92187 v 4.07813 h 3.60938 z m 5.78479,5.67188 q 0.0312,1.34375 0.71875,1.95312 0.6875,0.59375 1.98437,0.59375 2.71875,0 4.85938,-0.17187 l 0.82812,-0.0937 0.0469,2.90625 q -3.35938,0.82812 -6.09375,0.82812 -3.3125,0 -4.8125,-1.76562 -1.5,-1.76563 -1.5,-5.71875 0,-7.89063 6.48437,-7.89063 6.39063,0 6.39063,6.625 l -0.28125,2.73438 z m 5.04687,-3 q 0,-1.75 -0.5625,-2.4375 -0.5625,-0.70313 -1.95312,-0.70313 -1.39063,0 -1.96875,0.71875 -0.5625,0.71875 -0.59375,2.42188 z m 10.61359,8.65625 h -3.9375 v -14.65625 h 3.90625 v 0.8125 q 2.03125,-1.17188 3.46875,-1.17188 2.375,0 3.65625,1.375 2.70312,-1.375 4.92187,-1.375 2.90625,0 4.03125,1.6875 1.14063,1.6875 1.14063,5.375 v 7.95313 h -3.9375 v -7.82813 q 0,-1.875 -0.40625,-2.76562 -0.40625,-0.90625 -1.64063,-0.90625 -0.9375,0 -2.29687,0.40625 l -0.4375,0.15625 q 0.125,2.20312 0.125,3.34375 v 7.59375 h -3.9375 v -7.53125 q 0,-2.17188 -0.375,-3.0625 -0.375,-0.90625 -1.67188,-0.90625 -1.14062,0 -2.26562,0.40625 l -0.34375,0.125 z m 31.20004,-11 q -3.64063,-0.46875 -5.09375,-0.46875 -1.4375,0 -1.875,0.26562 -0.42188,0.26563 -0.42188,0.84375 0,0.5625 0.5625,0.78125 0.57813,0.21875 2.9375,0.65625 2.375,0.42188 3.35938,1.39063 1,0.96875 1,3.125 0,4.76562 -5.89063,4.76562 -1.9375,0 -4.6875,-0.53125 l -0.9375,-0.1875 0.10938,-3.28125 q 3.64062,0.46875 5.0625,0.46875 1.42187,0 1.9375,-0.26562 0.51562,-0.28125 0.51562,-0.84375 0,-0.5625 -0.54687,-0.8125 -0.54688,-0.26563 -2.82813,-0.64063 -2.26562,-0.39062 -3.375,-1.29687 -1.10937,-0.92188 -1.10937,-3.25 0,-2.32813 1.57812,-3.51563 1.57813,-1.1875 4.07813,-1.1875 1.73437,0 4.71875,0.5625 l 0.96875,0.17188 z"
       fill-rule="nonzero"
       id="path987" />
    <path
       fill="#0b87a1"
       d="m 345.66085,365.85014 v 0 c 0,-63.12174 49.72458,-114.29202 111.06296,-114.29202 v 0 c 29.45572,0 57.70502,12.04144 78.53333,33.47537 20.82836,21.4339 32.5296,50.50452 32.5296,80.81665 v 0 c 0,63.12174 -49.72455,114.29202 -111.06293,114.29202 v 0 c -61.33838,0 -111.06296,-51.17029 -111.06296,-114.29202 z"
       fill-rule="evenodd"
       id="path989" />
    <path
       fill="#000000"
       fill-opacity="0"
       d="m 398.74004,336.18284 h 169.0556 v 74.17902 h -169.0556 z"
       fill-rule="evenodd"
       id="path991" />
    <path
       fill="#ffffff"
       d="m 411.2396,366.43235 v -19.9375 h 4.04687 v 19.9375 z m 11.96597,0 h -3.9375 V 351.7761 h 3.90625 v 0.8125 q 2,-1.17188 3.67188,-1.17188 2.92187,0 4.03125,1.73438 1.125,1.71875 1.125,5.32812 v 7.95313 h -3.9375 v -7.82813 q 0,-1.875 -0.4375,-2.76562 -0.4375,-0.90625 -1.75,-0.90625 -1.20313,0 -2.32813,0.40625 l -0.34375,0.125 z m 20.40595,-11.32813 h -3.60938 v 6.01563 q 0,0.89062 0.0469,1.25 0.0469,0.35937 0.32812,0.625 0.28125,0.26562 0.85938,0.26562 l 2.23437,-0.0469 0.17188,3.125 q -1.96875,0.45312 -2.98438,0.45312 -2.64062,0 -3.60937,-1.1875 -0.96875,-1.20312 -0.96875,-4.39062 v -6.10938 h -1.73438 v -3.32812 h 1.73438 v -4.07813 h 3.92187 v 4.07813 h 3.60938 z m 5.78479,5.67188 q 0.0312,1.34375 0.71875,1.95312 0.6875,0.59375 1.98437,0.59375 2.71875,0 4.85938,-0.17187 l 0.82812,-0.0937 0.0469,2.90625 q -3.35938,0.82812 -6.09375,0.82812 -3.3125,0 -4.8125,-1.76562 -1.5,-1.76563 -1.5,-5.71875 0,-7.89063 6.48437,-7.89063 6.39063,0 6.39063,6.625 l -0.28125,2.73438 z m 5.04687,-3 q 0,-1.75 -0.5625,-2.4375 -0.5625,-0.70313 -1.95312,-0.70313 -1.39063,0 -1.96875,0.71875 -0.5625,0.71875 -0.59375,2.42188 z m 6.86359,8.65625 V 345.9011 h 3.92187 v 20.53125 z m 7.91861,0 V 345.9011 h 3.92187 v 20.53125 z m 7.73108,0 V 351.7761 h 3.9375 v 14.65625 z m 0,-16.54688 v -3.98437 h 3.9375 v 3.98437 z m 20.86352,18.375 q 0,2.51563 -1.9375,3.71875 -1.9375,1.20313 -5.23437,1.20313 -3.29688,0 -5.07813,-0.89063 -1.78125,-0.875 -1.78125,-3.1875 0,-1.84375 2.125,-3.5 -1.09375,-0.71875 -1.09375,-2.21875 0,-0.59375 0.875,-1.9375 l 0.26563,-0.40625 q -1.98438,-1.4375 -1.98438,-4.23437 0,-2.8125 1.6875,-4.0625 1.6875,-1.26563 4.46875,-1.26563 1.26563,0 2.48438,0.29688 l 0.46875,0.0781 4.73437,-0.14062 v 3.14062 l -2.20312,-0.1875 q 0.64062,1 0.64062,2 0,2.9375 -1.5,4.04688 -1.48437,1.10937 -4.6875,1.10937 -0.67187,0 -1.20312,-0.10937 -0.29688,0.76562 -0.29688,1.25 0,0.48437 0.5,0.65625 0.5,0.17187 2.34375,0.20312 3.70313,0.0312 5.04688,0.98438 1.35937,0.95312 1.35937,3.45312 z m -10.15625,0.4375 q 0,1.25 3.09375,1.25 3.09375,0 3.09375,-1.46875 0,-0.78125 -0.53125,-1 -0.51562,-0.21875 -2.21875,-0.25 l -2.64062,-0.20312 q -0.79688,0.78125 -0.79688,1.67187 z m 0.23438,-12.01562 q 0,2.15625 2.23437,2.15625 2.25,0 2.25,-2.15625 0,-2.15625 -2.25,-2.15625 -2.23437,0 -2.23437,2.15625 z m 15.52057,4.09375 q 0.0312,1.34375 0.71875,1.95312 0.6875,0.59375 1.98437,0.59375 2.71875,0 4.85938,-0.17187 l 0.82812,-0.0937 0.0469,2.90625 q -3.35938,0.82812 -6.09375,0.82812 -3.3125,0 -4.8125,-1.76562 -1.5,-1.76563 -1.5,-5.71875 0,-7.89063 6.48437,-7.89063 6.39063,0 6.39063,6.625 l -0.28125,2.73438 z m 5.04687,-3 q 0,-1.75 -0.5625,-2.4375 -0.5625,-0.70313 -1.95312,-0.70313 -1.39063,0 -1.96875,0.71875 -0.5625,0.71875 -0.59375,2.42188 z m 10.61359,8.65625 h -3.9375 V 351.7761 h 3.90625 v 0.8125 q 2,-1.17188 3.67187,-1.17188 2.92188,0 4.03125,1.73438 1.125,1.71875 1.125,5.32812 v 7.95313 h -3.9375 v -7.82813 q 0,-1.875 -0.4375,-2.76562 -0.4375,-0.90625 -1.75,-0.90625 -1.20312,0 -2.32812,0.40625 l -0.34375,0.125 z m 17.76532,-15.01563 q 1.53125,0 3.90625,0.46875 l 0.79687,0.17188 -0.125,3.10937 q -2.3125,-0.23437 -3.42187,-0.23437 -2.03125,0 -2.6875,0.875 -0.65625,0.85937 -0.65625,3.26562 0,2.40625 0.65625,3.29688 0.65625,0.89062 2.70312,0.89062 l 3.40625,-0.23437 0.125,3.14062 q -3.14062,0.625 -4.78125,0.625 -3.26562,0 -4.6875,-1.82812 -1.42187,-1.84375 -1.42187,-5.89063 0,-4.04687 1.46875,-5.84375 1.46875,-1.8125 4.71875,-1.8125 z m 10.71301,9.35938 q 0.0312,1.34375 0.71875,1.95312 0.6875,0.59375 1.98438,0.59375 2.71875,0 4.85937,-0.17187 l 0.82813,-0.0937 0.0469,2.90625 q -3.35937,0.82812 -6.09375,0.82812 -3.3125,0 -4.8125,-1.76562 -1.5,-1.76563 -1.5,-5.71875 0,-7.89063 6.48438,-7.89063 6.39062,0 6.39062,6.625 l -0.28125,2.73438 z m 5.04688,-3 q 0,-1.75 -0.5625,-2.4375 -0.5625,-0.70313 -1.95313,-0.70313 -1.39062,0 -1.96875,0.71875 -0.5625,0.71875 -0.59375,2.42188 z"
       fill-rule="nonzero"
       id="path993" />
    <path
       fill="#ffffff"
       d="m 424.69548,391.3386 v 6.10937 q 0.0625,0.70313 0.23437,0.98438 0.1875,0.26562 0.73438,0.39062 l -0.10938,2.96875 q -1.5,0 -2.40625,-0.21875 -0.89062,-0.20312 -1.79687,-0.8125 -2.10938,1.03125 -4.3125,1.03125 -4.54688,0 -4.54688,-4.8125 0,-2.34375 1.26563,-3.32812 1.26562,-0.98438 3.875,-1.15625 l 3.14062,-0.25 v -0.90625 q 0,-0.90625 -0.42187,-1.23438 -0.40625,-0.34375 -1.3125,-0.34375 l -5.51563,0.23438 -0.10937,-2.73438 q 3.125,-0.84375 5.95312,-0.84375 2.84375,0 4.07813,1.17188 1.25,1.17187 1.25,3.75 z m -6.59375,3.875 q -1.64063,0.14062 -1.64063,1.76562 0,1.60938 1.4375,1.60938 1.10938,0 2.4375,-0.35938 l 0.4375,-0.10937 v -3.14063 z m 18.47104,-5.10938 h -3.60938 v 6.01563 q 0,0.89062 0.0469,1.25 0.0469,0.35937 0.32812,0.625 0.28125,0.26562 0.85938,0.26562 l 2.23437,-0.0469 0.17188,3.125 q -1.96875,0.45312 -2.98438,0.45312 -2.64062,0 -3.60937,-1.1875 -0.96875,-1.20312 -0.96875,-4.39062 v -6.10938 h -1.73438 v -3.32812 h 1.73438 v -4.07813 h 3.92187 v 4.07813 h 3.60938 z m 17.12762,0 h -3.60937 v 6.01563 q 0,0.89062 0.0469,1.25 0.0469,0.35937 0.32813,0.625 0.28125,0.26562 0.85937,0.26562 l 2.23438,-0.0469 0.17187,3.125 q -1.96875,0.45312 -2.98437,0.45312 -2.64063,0 -3.60938,-1.1875 -0.96875,-1.20312 -0.96875,-4.39062 v -6.10938 h -1.73437 v -3.32812 h 1.73437 v -4.07813 h 3.92188 v 4.07813 h 3.60937 z m 6.48792,11.32813 h -3.9375 V 380.9011 h 3.9375 v 6.57812 q 2.01562,-1.0625 3.64062,-1.0625 2.92188,0 4.03125,1.73438 1.125,1.71875 1.125,5.32812 v 7.95313 h -3.9375 v -7.85938 q 0,-1.84375 -0.4375,-2.73437 -0.4375,-0.90625 -1.75,-0.90625 -1.15625,0 -2.29687,0.35937 l -0.375,0.10938 z m 15.51532,-5.65625 q 0.0312,1.34375 0.71875,1.95312 0.6875,0.59375 1.98437,0.59375 2.71875,0 4.85938,-0.17187 l 0.82812,-0.0937 0.0469,2.90625 q -3.35938,0.82812 -6.09375,0.82812 -3.3125,0 -4.8125,-1.76562 -1.5,-1.76563 -1.5,-5.71875 0,-7.89063 6.48437,-7.89063 6.39063,0 6.39063,6.625 l -0.28125,2.73438 z m 5.04687,-3 q 0,-1.75 -0.5625,-2.4375 -0.5625,-0.70313 -1.95312,-0.70313 -1.39063,0 -1.96875,0.71875 -0.5625,0.71875 -0.59375,2.42188 z m 13.48764,8.65625 v -19.9375 h 12.90625 v 3.51562 h -8.85937 v 4.65625 h 7.09375 v 3.46875 h -7.09375 v 4.78125 h 8.85937 v 3.51563 z m 28.21051,-20.53125 v 20.53125 h -3.90625 v -0.60938 q -2.04687,0.96875 -3.54687,0.96875 -3.1875,0 -4.45313,-1.84375 -1.26562,-1.85937 -1.26562,-5.85937 0,-4 1.51562,-5.82813 1.51563,-1.84375 4.5625,-1.84375 0.9375,0 2.60938,0.29688 l 0.5625,0.10937 v -5.92187 z m -4.34375,17.01562 0.42188,-0.0937 v -7.71875 q -1.625,-0.28125 -2.875,-0.28125 -2.375,0 -2.375,4.21875 0,2.28125 0.51562,3.25 0.53125,0.96875 1.75,0.96875 1.21875,0 2.5625,-0.34375 z m 21.27301,5.34375 q 0,2.51563 -1.9375,3.71875 -1.9375,1.20313 -5.23437,1.20313 -3.29688,0 -5.07813,-0.89063 -1.78125,-0.875 -1.78125,-3.1875 0,-1.84375 2.125,-3.5 -1.09375,-0.71875 -1.09375,-2.21875 0,-0.59375 0.875,-1.9375 l 0.26563,-0.40625 q -1.98438,-1.4375 -1.98438,-4.23437 0,-2.8125 1.6875,-4.0625 1.6875,-1.26563 4.46875,-1.26563 1.26563,0 2.48438,0.29688 l 0.46875,0.0781 4.73437,-0.14062 v 3.14062 l -2.20312,-0.1875 q 0.64062,1 0.64062,2 0,2.9375 -1.5,4.04688 -1.48437,1.10937 -4.6875,1.10937 -0.67187,0 -1.20312,-0.10937 -0.29688,0.76562 -0.29688,1.25 0,0.48437 0.5,0.65625 0.5,0.17187 2.34375,0.20312 3.70313,0.0312 5.04688,0.98438 1.35937,0.95312 1.35937,3.45312 z m -10.15625,0.4375 q 0,1.25 3.09375,1.25 3.09375,0 3.09375,-1.46875 0,-0.78125 -0.53125,-1 -0.51562,-0.21875 -2.21875,-0.25 l -2.64062,-0.20312 q -0.79688,0.78125 -0.79688,1.67187 z m 0.23438,-12.01562 q 0,2.15625 2.23437,2.15625 2.25,0 2.25,-2.15625 0,-2.15625 -2.25,-2.15625 -2.23437,0 -2.23437,2.15625 z m 15.52057,4.09375 q 0.0312,1.34375 0.71875,1.95312 0.6875,0.59375 1.98437,0.59375 2.71875,0 4.85938,-0.17187 l 0.82812,-0.0937 0.0469,2.90625 q -3.35938,0.82812 -6.09375,0.82812 -3.3125,0 -4.8125,-1.76562 -1.5,-1.76563 -1.5,-5.71875 0,-7.89063 6.48437,-7.89063 6.39063,0 6.39063,6.625 l -0.28125,2.73438 z m 5.04687,-3 q 0,-1.75 -0.5625,-2.4375 -0.5625,-0.70313 -1.95312,-0.70313 -1.39063,0 -1.96875,0.71875 -0.5625,0.71875 -0.59375,2.42188 z"
       fill-rule="nonzero"
       id="path995" />
    <path
       fill="#01597f"
       d="m 154.97904,365.85014 v 0 c 0,-63.12174 49.72456,-114.29202 111.06294,-114.29202 v 0 c 29.45572,0 57.70502,12.04144 78.53336,33.47537 20.82834,21.4339 32.52957,50.50452 32.52957,80.81665 v 0 c 0,63.12174 -49.72458,114.29202 -111.06293,114.29202 v 0 c -61.33838,0 -111.06294,-51.17029 -111.06294,-114.29202 z"
       fill-rule="evenodd"
       id="path997" />
    <path
       fill="#000000"
       fill-opacity="0"
       d="m 158.43264,336.18284 h 167.11743 v 74.17902 H 158.43264 Z"
       fill-rule="evenodd"
       id="path999" />
    <path
       fill="#ffffff"
       d="m 174.46501,366.43235 v -19.9375 h 4.04687 v 19.9375 z m 11.96596,0 h -3.9375 V 351.7761 h 3.90625 v 0.8125 q 2,-1.17188 3.67187,-1.17188 2.92188,0 4.03125,1.73438 1.125,1.71875 1.125,5.32812 v 7.95313 h -3.9375 v -7.82813 q 0,-1.875 -0.4375,-2.76562 -0.4375,-0.90625 -1.75,-0.90625 -1.20312,0 -2.32812,0.40625 l -0.34375,0.125 z m 20.40594,-11.32813 h -3.60937 v 6.01563 q 0,0.89062 0.0469,1.25 0.0469,0.35937 0.32813,0.625 0.28125,0.26562 0.85937,0.26562 l 2.23438,-0.0469 0.17187,3.125 q -1.96875,0.45312 -2.98437,0.45312 -2.64063,0 -3.60938,-1.1875 -0.96875,-1.20312 -0.96875,-4.39062 v -6.10938 h -1.73437 v -3.32812 h 1.73437 v -4.07813 h 3.92188 v 4.07813 h 3.60937 z m 5.78481,5.67188 q 0.0312,1.34375 0.71875,1.95312 0.6875,0.59375 1.98437,0.59375 2.71875,0 4.85938,-0.17187 l 0.82812,-0.0937 0.0469,2.90625 q -3.35938,0.82812 -6.09375,0.82812 -3.3125,0 -4.8125,-1.76562 -1.5,-1.76563 -1.5,-5.71875 0,-7.89063 6.48437,-7.89063 6.39063,0 6.39063,6.625 l -0.28125,2.73438 z m 5.04687,-3 q 0,-1.75 -0.5625,-2.4375 -0.5625,-0.70313 -1.95312,-0.70313 -1.39063,0 -1.96875,0.71875 -0.5625,0.71875 -0.59375,2.42188 z m 19.97296,10.48437 q 0,2.51563 -1.9375,3.71875 -1.9375,1.20313 -5.23437,1.20313 -3.29688,0 -5.07813,-0.89063 -1.78125,-0.875 -1.78125,-3.1875 0,-1.84375 2.125,-3.5 -1.09375,-0.71875 -1.09375,-2.21875 0,-0.59375 0.875,-1.9375 l 0.26563,-0.40625 q -1.98438,-1.4375 -1.98438,-4.23437 0,-2.8125 1.6875,-4.0625 1.6875,-1.26563 4.46875,-1.26563 1.26563,0 2.48438,0.29688 l 0.46875,0.0781 4.73437,-0.14062 v 3.14062 l -2.20312,-0.1875 q 0.64062,1 0.64062,2 0,2.9375 -1.5,4.04688 -1.48437,1.10937 -4.6875,1.10937 -0.67187,0 -1.20312,-0.10937 -0.29688,0.76562 -0.29688,1.25 0,0.48437 0.5,0.65625 0.5,0.17187 2.34375,0.20312 3.70313,0.0312 5.04688,0.98438 1.35937,0.95312 1.35937,3.45312 z m -10.15625,0.4375 q 0,1.25 3.09375,1.25 3.09375,0 3.09375,-1.46875 0,-0.78125 -0.53125,-1 -0.51562,-0.21875 -2.21875,-0.25 l -2.64062,-0.20312 q -0.79688,0.78125 -0.79688,1.67187 z m 0.23438,-12.01562 q 0,2.15625 2.23437,2.15625 2.25,0 2.25,-2.15625 0,-2.15625 -2.25,-2.15625 -2.23437,0 -2.23437,2.15625 z m 12.28621,9.75 V 351.7761 h 3.90623 v 1.54687 q 2.46875,-1.46875 4.6875,-1.90625 v 3.95313 q -2.375,0.5 -4.07812,1.03125 l -0.57813,0.20312 v 9.82813 z m 22.14442,-10.09375 v 6.10937 q 0.0625,0.70313 0.23438,0.98438 0.1875,0.26562 0.73437,0.39062 l -0.10937,2.96875 q -1.5,0 -2.40625,-0.21875 -0.89063,-0.20312 -1.79688,-0.8125 -2.10937,1.03125 -4.3125,1.03125 -4.54687,0 -4.54687,-4.8125 0,-2.34375 1.26562,-3.32812 1.26563,-0.98438 3.875,-1.15625 l 3.14063,-0.25 v -0.90625 q 0,-0.90625 -0.42188,-1.23438 -0.40625,-0.34375 -1.3125,-0.34375 l -5.51562,0.23438 -0.10938,-2.73438 q 3.125,-0.84375 5.95313,-0.84375 2.84375,0 4.07812,1.17188 1.25,1.17187 1.25,3.75 z m -6.59375,3.875 q -1.64062,0.14062 -1.64062,1.76562 0,1.60938 1.4375,1.60938 1.10937,0 2.4375,-0.35938 l 0.4375,-0.10937 v -3.14063 z m 18.47104,-5.10938 h -3.60937 v 6.01563 q 0,0.89062 0.0469,1.25 0.0469,0.35937 0.32813,0.625 0.28125,0.26562 0.85937,0.26562 l 2.23438,-0.0469 0.17187,3.125 q -1.96875,0.45312 -2.98437,0.45312 -2.64063,0 -3.60938,-1.1875 -0.96875,-1.20312 -0.96875,-4.39062 v -6.10938 h -1.73437 v -3.32812 h 1.73437 v -4.07813 h 3.92188 v 4.07813 h 3.60937 z m 2.55042,11.32813 V 351.7761 h 3.9375 v 14.65625 z m 0,-16.54688 v -3.98437 h 3.9375 v 3.98437 z m 6.19165,1.89063 h 4.10937 l 2.34375,11.3125 h 0.82813 l 2.45312,-11.3125 h 4 l -3.53125,14.65625 h -6.6875 z m 19.00943,9 q 0.0312,1.34375 0.71875,1.95312 0.6875,0.59375 1.98437,0.59375 2.71875,0 4.85938,-0.17187 l 0.82812,-0.0937 0.0469,2.90625 q -3.35938,0.82812 -6.09375,0.82812 -3.3125,0 -4.8125,-1.76562 -1.5,-1.76563 -1.5,-5.71875 0,-7.89063 6.48437,-7.89063 6.39063,0 6.39063,6.625 l -0.28125,2.73438 z m 5.04687,-3 q 0,-1.75 -0.5625,-2.4375 -0.5625,-0.70313 -1.95312,-0.70313 -1.39063,0 -1.96875,0.71875 -0.5625,0.71875 -0.59375,2.42188 z"
       fill-rule="nonzero"
       id="path1001" />
    <path
       fill="#ffffff"
       d="m 229.46968,401.43235 4.48437,-19.9375 h 7.6875 l 4.48438,19.9375 h -4.04688 l -0.79687,-3.60938 h -6.96875 l -0.79688,3.60938 z m 7.625,-16.59375 -2.03125,9.46875 h 5.46875 l -2.03125,-9.46875 z m 11.70239,16.59375 v -19.9375 h 4.04688 v 19.9375 z"
       fill-rule="nonzero"
       id="path1003" />
    <path
       fill="#d3ebd5"
       d="m 296.5817,307.11085 v 0 c 0,-35.72891 28.13205,-64.6929 62.83466,-64.6929 v 0 c 16.66479,0 32.64703,6.81583 44.43081,18.94812 11.78379,12.13226 18.40384,28.58716 18.40384,45.74478 v 0 c 0,35.72891 -28.13205,64.69293 -62.83465,64.69293 v 0 c -34.70261,0 -62.83466,-28.96402 -62.83466,-64.69293 z"
       fill-rule="evenodd"
       id="path1005" />
  </g>
  <path
     fill="#000000"
     fill-opacity="0"
     d="m 250.11536,349.59376 h 89.23711 v 86.14172 h -89.23711 z"
     fill-rule="evenodd"
     id="path1007" />
  <path
     fill="#0070c0"
     d="m 24.61536,377.71876 h -8.5625 l -1.625,4.875 H 9.22474 l 8.82812,-23.6875 h 4.51563 l 8.875,23.6875 h -5.1875 z m -7.25,-3.96875 h 5.92188 l -2.96875,-8.85937 z m 21.48738,8.84375 h -4.89062 v -23.6875 h 4.89062 z"
     fill-rule="nonzero"
     id="path1009" />
  <path
     fill="#000000"
     fill-opacity="0"
     d="m 178.55368,421.59376 h 160.8089 v 86.14172 h -160.8089 z"
     fill-rule="evenodd"
     id="path1011" />
  <path
     fill="#0070c0"
     d="m 3.66305,456.59376 v -23.6875 h 7.29688 q 3.125,0 5.59375,1.40625 2.46875,1.40625 3.84375,4 1.39062,2.59375 1.39062,5.89063 v 1.09375 q 0,3.3125 -1.35937,5.89062 -1.35938,2.5625 -3.84375,3.98438 -2.46875,1.40625 -5.57813,1.42187 z m 4.89063,-19.73437 v 15.8125 h 2.35937 q 2.85938,0 4.375,-1.875 1.51563,-1.875 1.54688,-5.34375 v -1.26563 q 0,-3.60937 -1.5,-5.46875 -1.5,-1.85937 -4.375,-1.85937 z m 26.67566,19.73437 q -0.32813,-0.64062 -0.48438,-1.57812 -1.70312,1.90625 -4.4375,1.90625 -2.59375,0 -4.29687,-1.5 -1.6875,-1.5 -1.6875,-3.78125 0,-2.79688 2.0625,-4.28125 2.07812,-1.5 6,-1.51563 h 2.17187 v -1.01562 q 0,-1.21875 -0.625,-1.95313 -0.625,-0.73437 -1.98437,-0.73437 -1.1875,0 -1.85938,0.57812 -0.67187,0.5625 -0.67187,1.5625 h -4.70313 q 0,-1.53125 0.9375,-2.82812 0.95313,-1.3125 2.67188,-2.04688 1.71875,-0.75 3.875,-0.75 3.25,0 5.15625,1.64063 1.92188,1.64062 1.92188,4.59375 v 7.64062 q 0.0156,2.5 0.70312,3.78125 v 0.28125 z m -3.89063,-3.26562 q 1.03125,0 1.90625,-0.46875 0.89063,-0.46875 1.3125,-1.25 v -3.01563 h -1.76562 q -3.53125,0 -3.75,2.4375 l -0.0156,0.28125 q 0,0.875 0.60937,1.45313 0.625,0.5625 1.70313,0.5625 z m 17.18081,-18.67188 v 4.32813 h 3.01562 v 3.45312 h -3.01562 v 8.78125 q 0,0.98438 0.375,1.40625 0.375,0.42188 1.4375,0.42188 0.78125,0 1.375,-0.10938 v 3.5625 q -1.375,0.42188 -2.84375,0.42188 -4.95313,0 -5.04688,-5 v -9.48438 h -2.57812 v -3.45312 h 2.57812 v -4.32813 z m 15.83938,21.9375 q -0.32812,-0.64062 -0.48437,-1.57812 -1.70313,1.90625 -4.4375,1.90625 -2.59375,0 -4.29688,-1.5 -1.6875,-1.5 -1.6875,-3.78125 0,-2.79688 2.0625,-4.28125 2.07813,-1.5 6,-1.51563 h 2.17188 v -1.01562 q 0,-1.21875 -0.625,-1.95313 -0.625,-0.73437 -1.98438,-0.73437 -1.1875,0 -1.85937,0.57812 -0.67188,0.5625 -0.67188,1.5625 h -4.70312 q 0,-1.53125 0.9375,-2.82812 0.95312,-1.3125 2.67187,-2.04688 1.71875,-0.75 3.875,-0.75 3.25,0 5.15625,1.64063 1.92188,1.64062 1.92188,4.59375 v 7.64062 q 0.0156,2.5 0.70312,3.78125 v 0.28125 z m -3.89062,-3.26562 q 1.03125,0 1.90625,-0.46875 0.89062,-0.46875 1.3125,-1.25 v -3.01563 H 61.9214 q -3.53125,0 -3.75,2.4375 l -0.0156,0.28125 q 0,0.875 0.60938,1.45313 0.625,0.5625 1.70312,0.5625 z"
     fill-rule="nonzero"
     id="path1013" />
  <path
     fill="#0070c0"
     d="m 13.95993,490.37502 q 0,-1.375 -0.98438,-2.10938 -0.96875,-0.75 -3.51562,-1.5625 -2.53125,-0.82812 -4.01563,-1.625 -4.03125,-2.1875 -4.03125,-5.875 0,-1.92187 1.07813,-3.42187 1.07812,-1.51563 3.10937,-2.35938 2.03125,-0.84375 4.54688,-0.84375 2.53125,0 4.51562,0.92188 2,0.90625 3.09375,2.59375 1.09375,1.67187 1.09375,3.79687 h -4.875 q 0,-1.625 -1.03125,-2.51562 -1.01562,-0.90625 -2.875,-0.90625 -1.79687,0 -2.79687,0.76562 -0.98438,0.75 -0.98438,1.98438 0,1.15625 1.15625,1.9375 1.17188,0.78125 3.4375,1.45312 4.17188,1.26563 6.0625,3.125 1.90625,1.84375 1.90625,4.60938 0,3.07812 -2.32812,4.82812 -2.32813,1.75 -6.26563,1.75 -2.73437,0 -4.98437,-1 -2.23438,-1 -3.42188,-2.73437 -1.17187,-1.75 -1.17187,-4.04688 H 5.5693 q 0,3.92188 4.6875,3.92188 1.75,0 2.71875,-0.70313 0.98438,-0.71875 0.98438,-1.98437 z m 15.20709,2.75 q 1.3125,0 2.125,-0.70313 0.8125,-0.71875 0.84375,-1.92187 h 4.40625 q -0.0156,1.79687 -0.98437,3.29687 -0.95313,1.48438 -2.62501,2.3125 -1.65625,0.8125 -3.6875,0.8125 -3.76562,0 -5.95312,-2.39062 -2.17188,-2.40625 -2.17188,-6.64063 v -0.3125 q 0,-4.0625 2.15625,-6.48437 2.17188,-2.4375 5.9375,-2.4375 3.3125,0 5.29688,1.89062 2,1.875 2.03125,5 h -4.40625 q -0.0312,-1.375 -0.84375,-2.21875 -0.8125,-0.85937 -2.15625,-0.85937 -1.64063,0 -2.48438,1.20312 -0.82812,1.1875 -0.82812,3.875 v 0.48438 q 0,2.71875 0.82812,3.90625 0.82813,1.1875 2.51563,1.1875 z m 15.02072,3.46875 h -4.71875 v -17.60938 h 4.71875 z m -4.98437,-22.17188 q 0,-1.04687 0.70312,-1.73437 0.70313,-0.6875 1.92188,-0.6875 1.20312,0 1.92187,0.6875 0.71875,0.6875 0.71875,1.73437 0,1.07813 -0.73437,1.76563 -0.71875,0.6875 -1.90625,0.6875 -1.1875,0 -1.90625,-0.6875 -0.71875,-0.6875 -0.71875,-1.76563 z m 16.96151,22.5 q -3.875,0 -6.3125,-2.375 -2.42187,-2.375 -2.42187,-6.32812 v -0.46875 q 0,-2.64063 1.01562,-4.73438 1.03125,-2.09375 2.90625,-3.21875 1.89063,-1.14062 4.29688,-1.14062 3.60937,0 5.6875,2.28125 2.07812,2.28125 2.07812,6.46875 v 1.90625 H 52.19613 q 0.23438,1.73437 1.375,2.78125 1.15625,1.03125 2.90625,1.03125 2.71875,0 4.25,-1.96875 l 2.3125,2.59375 q -1.0625,1.5 -2.875,2.34375 -1.79687,0.82812 -4,0.82812 z m -0.53125,-14.45312 q -1.40625,0 -2.28124,0.95312 -0.85938,0.9375 -1.10938,2.6875 h 6.54687 v -0.375 q -0.0312,-1.5625 -0.84375,-2.40625 -0.8125,-0.85937 -2.3125,-0.85937 z m 14.7804,-3.48438 0.14063,2.03125 q 1.89062,-2.35937 5.0625,-2.35937 2.79687,0 4.15625,1.65625 1.375,1.64062 1.40625,4.90625 v 11.375 h -4.70313 v -11.26563 q 0,-1.5 -0.65625,-2.17187 -0.64062,-0.67188 -2.15625,-0.67188 -1.98437,0 -2.98437,1.6875 v 12.42188 h -4.70313 v -17.60938 z m 21.65008,14.14063 q 1.3125,0 2.125,-0.70313 0.8125,-0.71875 0.84375,-1.92187 h 4.40625 q -0.0156,1.79687 -0.98438,3.29687 -0.95312,1.48438 -2.625,2.3125 -1.65625,0.8125 -3.6875,0.8125 -3.76561,0 -5.95311,-2.39062 -2.17188,-2.40625 -2.17188,-6.64063 v -0.3125 q 0,-4.0625 2.15625,-6.48437 2.17188,-2.4375 5.93749,-2.4375 3.3125,0 5.29688,1.89062 2,1.875 2.03125,5 h -4.40625 q -0.0312,-1.375 -0.84375,-2.21875 -0.8125,-0.85937 -2.15625,-0.85937 -1.64062,0 -2.48437,1.20312 -0.82812,1.1875 -0.82812,3.875 v 0.48438 q 0,2.71875 0.82812,3.90625 0.82813,1.1875 2.51562,1.1875 z m 18.16134,3.79687 q -3.875,0 -6.3125,-2.375 -2.42187,-2.375 -2.42187,-6.32812 v -0.46875 q 0,-2.64063 1.01562,-4.73438 1.03125,-2.09375 2.90625,-3.21875 1.89063,-1.14062 4.29688,-1.14062 3.60937,0 5.6875,2.28125 2.07812,2.28125 2.07812,6.46875 v 1.90625 H 106.2567 q 0.23438,1.73437 1.375,2.78125 1.15625,1.03125 2.90625,1.03125 2.71875,0 4.25,-1.96875 l 2.3125,2.59375 q -1.0625,1.5 -2.875,2.34375 -1.79687,0.82812 -4,0.82812 z m -0.53125,-14.45312 q -1.40625,0 -2.28125,0.95312 -0.85937,0.9375 -1.10937,2.6875 h 6.54687 v -0.375 q -0.0312,-1.5625 -0.84375,-2.40625 -0.8125,-0.85937 -2.3125,-0.85937 z"
     fill-rule="nonzero"
     id="path1015" />
  <path
     fill="#000000"
     fill-opacity="0"
     d="m 272.64975,525.59376 h 151.52097 v 86.14172 H 272.64975 Z"
     fill-rule="evenodd"
     id="path1017" />
  <path
     fill="#0070c0"
     d="m 13.14976,561.71876 h -8.5625 l -1.625,4.875 h -5.20313 l 8.82813,-23.6875 h 4.51562 l 8.875,23.6875 h -5.1875 z m -7.25,-3.96875 h 5.92187 l -2.96875,-8.85938 z m 26.35522,7.04687 q -1.75,2.125 -4.82812,2.125 -2.82813,0 -4.32813,-1.625 -1.48437,-1.625 -1.51562,-4.76562 v -11.54688 h 4.70312 v 11.375 q 0,2.75 2.51563,2.75 2.39062,0 3.28125,-1.65625 v -12.46875 h 4.71875 v 17.60938 h -4.42188 z m 7.36818,-7.14062 q 0,-4.10938 1.84375,-6.54688 1.84375,-2.45312 5.04688,-2.45312 2.57812,0 4.25,1.92187 v -8.98437 h 4.71875 v 25 h -4.25 l -0.21875,-1.875 q -1.76563,2.20312 -4.53125,2.20312 -3.10938,0 -4.98438,-2.45312 -1.875,-2.45313 -1.875,-6.8125 z m 4.70313,0.34375 q 0,2.46875 0.85937,3.79687 0.85938,1.3125 2.5,1.3125 2.1875,0 3.07813,-1.84375 v -6.9375 q -0.875,-1.84375 -3.04688,-1.84375 -3.39062,0 -3.39062,5.51563 z m 19.76399,8.59375 h -4.71875 v -17.60938 h 4.71875 z m -4.98437,-22.17188 q 0,-1.04687 0.70312,-1.73437 0.70313,-0.6875 1.92188,-0.6875 1.20312,0 1.92187,0.6875 0.71875,0.6875 0.71875,1.73437 0,1.07813 -0.73437,1.76563 -0.71875,0.6875 -1.90625,0.6875 -1.1875,0 -1.90625,-0.6875 -0.71875,-0.6875 -0.71875,-1.76563 z m 8.13339,13.20313 q 0,-2.625 1,-4.67188 1.01562,-2.04687 2.90625,-3.17187 1.90625,-1.125 4.40625,-1.125 3.5625,0 5.8125,2.1875 2.26562,2.17187 2.51562,5.92187 l 0.0312,1.20313 q 0,4.04687 -2.26562,6.5 -2.25,2.45312 -6.0625,2.45312 -3.8125,0 -6.07813,-2.4375 -2.26562,-2.45312 -2.26562,-6.64062 z m 4.70312,0.34375 q 0,2.5 0.9375,3.82812 0.95313,1.32813 2.70313,1.32813 1.70312,0 2.65625,-1.3125 0.96875,-1.3125 0.96875,-4.1875 0,-2.45313 -0.96875,-3.79688 -0.95313,-1.35937 -2.6875,-1.35937 -1.71875,0 -2.67188,1.34375 -0.9375,1.34375 -0.9375,4.15625 z m 22.5192,2.25 q 0,-1.64063 0.92187,-3.04688 0.92188,-1.40625 3.375,-3.10937 -1.0625,-1.42188 -1.67187,-2.65625 -0.59375,-1.25 -0.59375,-2.59375 0,-2.76563 1.75,-4.5 1.75,-1.73438 4.71875,-1.73438 2.64062,0 4.34375,1.57813 1.70312,1.57812 1.70312,3.9375 0,2.82812 -2.85937,5 l -1.82813,1.3125 4.09375,4.75 q 0.95313,-1.89063 0.95313,-4.17188 h 4 q 0,4.625 -2.125,7.48438 l 3.54687,4.125 h -5.34375 l -1.21875,-1.40625 q -2.625,1.73437 -6.01562,1.73437 -3.51563,0 -5.64063,-1.84375 -2.10937,-1.85937 -2.10937,-4.85937 z m 7.96875,2.92187 q 1.70312,0 3.20312,-0.9375 l -4.65625,-5.40625 -0.34375,0.25 q -1.45312,1.23438 -1.45312,2.90625 0,1.42188 0.90625,2.3125 0.90625,0.875 2.34375,0.875 z m -1.71875,-14.40625 q 0,1.23438 1.4375,3.07813 l 1.25,-0.82813 q 0.95312,-0.60937 1.3125,-1.1875 0.375,-0.59375 0.375,-1.40625 0,-0.82812 -0.60938,-1.42187 -0.59375,-0.60938 -1.53125,-0.60938 -1.01562,0 -1.625,0.65625 -0.60937,0.65625 -0.60937,1.71875 z"
     fill-rule="nonzero"
     id="path1019" />
  <path
     fill="#0070c0"
     d="m 130.52476,560.71876 5.35937,-17.8125 h 5.4375 l -8.25,23.6875 h -5.09375 l -8.21875,-23.6875 h 5.42188 z m 17.68085,5.875 h -4.71875 v -17.60938 h 4.71875 z m -4.98438,-22.17188 q 0,-1.04687 0.70313,-1.73437 0.70312,-0.6875 1.92187,-0.6875 1.20313,0 1.92188,0.6875 0.71875,0.6875 0.71875,1.73437 0,1.07813 -0.73438,1.76563 -0.71875,0.6875 -1.90625,0.6875 -1.1875,0 -1.90625,-0.6875 -0.71875,-0.6875 -0.71875,-1.76563 z m 8.13339,13.23438 q 0,-4.10938 1.84375,-6.54688 1.84375,-2.45312 5.04688,-2.45312 2.57812,0 4.25,1.92187 v -8.98437 h 4.71875 v 25 h -4.25 l -0.21875,-1.875 q -1.76563,2.20312 -4.53125,2.20312 -3.10938,0 -4.98438,-2.45312 -1.875,-2.45313 -1.875,-6.8125 z m 4.70313,0.34375 q 0,2.46875 0.85937,3.79687 0.85938,1.3125 2.5,1.3125 2.1875,0 3.07813,-1.84375 v -6.9375 q -0.875,-1.84375 -3.04688,-1.84375 -3.39062,0 -3.39062,5.51563 z m 22.90462,8.92187 q -3.875,0 -6.3125,-2.375 -2.42188,-2.375 -2.42188,-6.32812 v -0.46875 q 0,-2.64063 1.01563,-4.73438 1.03125,-2.09375 2.90625,-3.21875 1.89062,-1.14062 4.29687,-1.14062 3.60938,0 5.6875,2.28125 2.07813,2.28125 2.07813,6.46875 v 1.90625 h -11.21875 q 0.23437,1.73437 1.375,2.78125 1.15625,1.03125 2.90625,1.03125 2.71875,0 4.25,-1.96875 l 2.3125,2.59375 q -1.0625,1.5 -2.875,2.34375 -1.79688,0.82812 -4,0.82812 z m -0.53125,-14.45312 q -1.40625,0 -2.28125,0.95312 -0.85938,0.9375 -1.10938,2.6875 h 6.54688 v -0.375 q -0.0312,-1.5625 -0.84375,-2.40625 -0.8125,-0.85937 -2.3125,-0.85937 z m 9.71789,5.15625 q 0,-2.625 1,-4.67188 1.01563,-2.04687 2.90625,-3.17187 1.90625,-1.125 4.40625,-1.125 3.5625,0 5.8125,2.1875 2.26563,2.17187 2.51563,5.92187 l 0.0312,1.20313 q 0,4.04687 -2.26563,6.5 -2.25,2.45312 -6.0625,2.45312 -3.8125,0 -6.07812,-2.4375 -2.26563,-2.45312 -2.26563,-6.64062 z m 4.70313,0.34375 q 0,2.5 0.9375,3.82812 0.95312,1.32813 2.70312,1.32813 1.70313,0 2.65625,-1.3125 0.96875,-1.3125 0.96875,-4.1875 0,-2.45313 -0.96875,-3.79688 -0.95312,-1.35937 -2.6875,-1.35937 -1.71875,0 -2.67187,1.34375 -0.9375,1.34375 -0.9375,4.15625 z"
     fill-rule="nonzero"
     id="path1021" />
  <path
     fill="#000000"
     fill-opacity="0"
     d="m 166.89063,229.59376 h 257.26993 v 86.14172 H 166.89063 Z"
     fill-rule="evenodd"
     id="path1023" />
  <path
     fill="#0070c0"
     d="m 21.28125,246.59376 h -4.89062 l -9.5,-15.59375 v 15.59375 H 2 v -23.6875 h 4.89063 l 9.51562,15.60937 v -15.60937 h 4.875 z m 14.15648,0 q -0.32812,-0.64063 -0.48437,-1.57813 -1.70313,1.90625 -4.4375,1.90625 -2.59375,0 -4.29688,-1.5 -1.6875,-1.5 -1.6875,-3.78125 0,-2.79687 2.0625,-4.28125 2.07813,-1.5 6,-1.51562 h 2.17188 v -1.01563 q 0,-1.21875 -0.625,-1.95312 -0.625,-0.73438 -1.98438,-0.73438 -1.1875,0 -1.85937,0.57813 -0.67188,0.5625 -0.67188,1.5625 h -4.70312 q 0,-1.53125 0.9375,-2.82813 0.95312,-1.3125 2.67187,-2.04687 1.71875,-0.75 3.875,-0.75 3.25,0 5.15625,1.64062 1.92188,1.64063 1.92188,4.59375 v 7.64063 q 0.0156,2.5 0.70312,3.78125 v 0.28125 z m -3.89062,-3.26563 q 1.03125,0 1.90625,-0.46875 0.89062,-0.46875 1.3125,-1.25 v -3.01562 h -1.76563 q -3.53125,0 -3.75,2.4375 l -0.0156,0.28125 q 0,0.875 0.60938,1.45312 0.625,0.5625 1.70312,0.5625 z m 17.1808,-18.67187 v 4.32812 h 3.01563 v 3.45313 h -3.01563 v 8.78125 q 0,0.98437 0.375,1.40625 0.375,0.42187 1.4375,0.42187 0.78125,0 1.375,-0.10937 v 3.5625 q -1.375,0.42187 -2.84375,0.42187 -4.95313,0 -5.04688,-5 v -9.48437 h -2.57812 v -3.45313 h 2.57812 v -4.32812 z m 16.18314,20.14062 q -1.75,2.125 -4.82813,2.125 -2.82812,0 -4.32812,-1.625 -1.48438,-1.625 -1.51563,-4.76562 v -11.54688 h 4.70313 v 11.375 q 0,2.75 2.51562,2.75 2.39063,0 3.28125,-1.65625 v -12.46875 h 4.71875 v 17.60938 h -4.42187 z m 17.99318,-11.40625 q -0.96875,-0.125 -1.6875,-0.125 -2.67188,0 -3.5,1.8125 v 11.51563 H 73.0136 v -17.60938 h 4.4375 l 0.125,2.09375 q 1.42188,-2.42187 3.92188,-2.42187 0.78125,0 1.46875,0.21875 z m 11.98053,13.20313 q -0.32813,-0.64063 -0.48438,-1.57813 -1.70312,1.90625 -4.4375,1.90625 -2.59375,0 -4.29687,-1.5 -1.6875,-1.5 -1.6875,-3.78125 0,-2.79687 2.0625,-4.28125 2.07812,-1.5 6,-1.51562 h 2.17187 v -1.01563 q 0,-1.21875 -0.625,-1.95312 -0.625,-0.73438 -1.98437,-0.73438 -1.1875,0 -1.85938,0.57813 -0.67187,0.5625 -0.67187,1.5625 h -4.70313 q 0,-1.53125 0.9375,-2.82813 0.95313,-1.3125 2.67188,-2.04687 1.71875,-0.75 3.875,-0.75 3.25,0 5.15625,1.64062 1.92187,1.64063 1.92187,4.59375 v 7.64063 q 0.0156,2.5 0.70313,3.78125 v 0.28125 z m -3.89063,-3.26563 q 1.03125,0 1.90625,-0.46875 0.89063,-0.46875 1.3125,-1.25 v -3.01562 h -1.76562 q -3.53125,0 -3.75,2.4375 l -0.0156,0.28125 q 0,0.875 0.60938,1.45312 0.625,0.5625 1.70312,0.5625 z m 16.50893,3.26563 h -4.71875 v -25 h 4.71875 z"
     fill-rule="nonzero"
     id="path1025" />
  <path
     fill="#0070c0"
     d="M 4.89063,276.67188 H 15.25 v 3.92187 H 0 v -23.6875 h 4.89063 z m 23.06294,3.92187 q -0.32812,-0.64062 -0.48437,-1.57812 -1.70313,1.90625 -4.4375,1.90625 -2.59375,0 -4.29688,-1.5 -1.6875,-1.5 -1.6875,-3.78125 0,-2.79688 2.0625,-4.28125 2.07813,-1.5 6,-1.51563 h 2.17188 v -1.01562 q 0,-1.21875 -0.625,-1.95313 -0.625,-0.73437 -1.98438,-0.73437 -1.1875,0 -1.85937,0.57812 -0.67188,0.5625 -0.67188,1.5625 h -4.70312 q 0,-1.53125 0.9375,-2.82812 0.95312,-1.3125 2.67187,-2.04688 1.71875,-0.75 3.875,-0.75 3.25,0 5.15625,1.64063 1.92188,1.64062 1.92188,4.59375 v 7.64062 q 0.0156,2.5 0.70312,3.78125 v 0.28125 z m -3.89062,-3.26562 q 1.03125,0 1.90625,-0.46875 0.89062,-0.46875 1.3125,-1.25 v -3.01563 h -1.76563 q -3.53125,0 -3.75,2.4375 l -0.0156,0.28125 q 0,0.875 0.60938,1.45313 0.625,0.5625 1.70312,0.5625 z m 15.88392,-14.34375 0.14063,2.03125 q 1.89062,-2.35938 5.0625,-2.35938 2.79688,0 4.15625,1.65625 1.375,1.64063 1.40625,4.90625 v 11.375 h -4.70312 v -11.26562 q 0,-1.5 -0.65626,-2.17188 -0.64062,-0.67187 -2.15625,-0.67187 -1.98437,0 -2.98437,1.6875 v 12.42187 h -4.70313 v -17.60937 z m 13.65009,8.67187 q 0,-4.04687 1.92188,-6.51562 1.9375,-2.48438 5.20312,-2.48438 2.89063,0 4.51563,1.98438 l 0.1875,-1.65625 h 4.26562 v 17.03125 q 0,2.29687 -1.04687,4 -1.04688,1.71875 -2.95313,2.60937 -1.90625,0.90625 -4.46875,0.90625 -1.9375,0 -3.78125,-0.78125 -1.82812,-0.76562 -2.76562,-1.98437 l 2.07812,-2.875 q 1.75,1.96875 4.26563,1.96875 1.875,0 2.90625,-1 1.04687,-1 1.04687,-2.82813 v -0.95312 q -1.625,1.84375 -4.28125,1.84375 -3.17187,0 -5.14062,-2.48438 -1.95313,-2.48437 -1.95313,-6.57812 z M 58.30009,272 q 0,2.39063 0.95312,3.75 0.96875,1.35938 2.64063,1.35938 2.15625,0 3.07812,-1.60938 v -7.40625 q -0.95312,-1.60937 -3.04687,-1.60937 -1.6875,0 -2.65625,1.39062 -0.96875,1.375 -0.96875,4.125 z m 25.55497,6.79688 q -1.75,2.125 -4.82812,2.125 -2.82813,0 -4.32813,-1.625 -1.48437,-1.625 -1.51562,-4.76563 v -11.54687 h 4.70312 v 11.375 q 0,2.75 2.51563,2.75 2.39062,0 3.28125,-1.65625 v -12.46875 h 4.71875 v 17.60937 h -4.42188 z m 18.30568,1.79687 q -0.32812,-0.64062 -0.48437,-1.57812 -1.70313,1.90625 -4.4375,1.90625 -2.59375,0 -4.29688,-1.5 -1.6875,-1.5 -1.6875,-3.78125 0,-2.79688 2.0625,-4.28125 2.07813,-1.5 6,-1.51563 h 2.17188 v -1.01562 q 0,-1.21875 -0.625,-1.95313 -0.625,-0.73437 -1.98438,-0.73437 -1.1875,0 -1.85937,0.57812 -0.67188,0.5625 -0.67188,1.5625 h -4.70312 q 0,-1.53125 0.9375,-2.82812 0.95312,-1.3125 2.67187,-2.04688 1.71875,-0.75 3.875,-0.75 3.25,0 5.15625,1.64063 1.92188,1.64062 1.92188,4.59375 v 7.64062 q 0.0156,2.5 0.70312,3.78125 v 0.28125 z m -3.89062,-3.26562 q 1.03125,0 1.90625,-0.46875 0.89062,-0.46875 1.3125,-1.25 v -3.01563 h -1.76563 q -3.53125,0 -3.75,2.4375 l -0.0156,0.28125 q 0,0.875 0.60937,1.45313 0.625,0.5625 1.70313,0.5625 z m 10.8683,-5.67188 q 0,-4.04687 1.92187,-6.51562 1.9375,-2.48438 5.20313,-2.48438 2.89062,0 4.51562,1.98438 l 0.1875,-1.65625 h 4.26563 v 17.03125 q 0,2.29687 -1.04688,4 -1.04687,1.71875 -2.95312,2.60937 -1.90625,0.90625 -4.46875,0.90625 -1.9375,0 -3.78125,-0.78125 -1.82813,-0.76562 -2.76563,-1.98437 l 2.07813,-2.875 q 1.75,1.96875 4.26562,1.96875 1.875,0 2.90625,-1 1.04688,-1 1.04688,-2.82813 v -0.95312 q -1.625,1.84375 -4.28125,1.84375 -3.17188,0 -5.14063,-2.48438 -1.95312,-2.48437 -1.95312,-6.57812 z M 113.84154,272 q 0,2.39063 0.95313,3.75 0.96875,1.35938 2.64062,1.35938 2.15625,0 3.07813,-1.60938 v -7.40625 q -0.95313,-1.60937 -3.04688,-1.60937 -1.6875,0 -2.65625,1.39062 -0.96875,1.375 -0.96875,4.125 z m 23.10186,8.92188 q -3.875,0 -6.3125,-2.375 -2.42188,-2.375 -2.42188,-6.32813 V 271.75 q 0,-2.64062 1.01563,-4.73437 1.03125,-2.09375 2.90625,-3.21875 1.89062,-1.14063 4.29687,-1.14063 3.60938,0 5.6875,2.28125 2.07813,2.28125 2.07813,6.46875 v 1.90625 h -11.21875 q 0.23437,1.73438 1.375,2.78125 1.15625,1.03125 2.90625,1.03125 2.71875,0 4.25,-1.96875 l 2.3125,2.59375 q -1.0625,1.5 -2.875,2.34375 -1.79688,0.82813 -4,0.82813 z m -0.53125,-14.45313 q -1.40625,0 -2.28125,0.95313 -0.85938,0.9375 -1.10938,2.6875 h 6.54688 v -0.375 q -0.0312,-1.5625 -0.84375,-2.40625 -0.8125,-0.85938 -2.3125,-0.85938 z"
     fill-rule="nonzero"
     id="path1027" />
  <path
     fill="#000000"
     fill-opacity="0"
     d="M 182.30983,93.593745 H 439.57979 V 179.73548 H 182.30983 Z"
     fill-rule="evenodd"
     id="path1029" />
  <path
     fill="#0070c0"
     d="m 886.02858,120.70313 q -0.28125,3.82812 -2.82812,6.03125 -2.54688,2.18749 -6.70313,2.18749 -4.5625,0 -7.17187,-3.06249 -2.60938,-3.07813 -2.60938,-8.42188 v -1.45313 q 0,-3.42187 1.20313,-6.01562 1.20312,-2.60938 3.4375,-4 2.23437,-1.39063 5.20312,-1.39063 4.09375,0 6.59375,2.20313 2.51563,2.1875 2.90625,6.15625 h -4.89062 q -0.17188,-2.29688 -1.28125,-3.32813 -1.09375,-1.03125 -3.32813,-1.03125 -2.45312,0 -3.67187,1.75 -1.20313,1.75 -1.23438,5.42188 v 1.79688 q 0,3.84375 1.15625,5.625 1.17188,1.76562 3.6875,1.76562 2.25,0 3.35938,-1.03125 1.125,-1.04687 1.28125,-3.20312 z m 2.16586,-1.07813 q 0,-2.625 1,-4.67188 1.01562,-2.04687 2.90625,-3.17187 1.90625,-1.125 4.40625,-1.125 3.5625,0 5.8125,2.1875 2.26562,2.17187 2.51562,5.92188 l 0.0312,1.20312 q 0,4.04688 -2.26562,6.5 -2.25,2.45312 -6.0625,2.45312 -3.8125,0 -6.07813,-2.43749 -2.26562,-2.45313 -2.26562,-6.64063 z m 4.70312,0.34375 q 0,2.5 0.9375,3.82813 0.95313,1.32812 2.70313,1.32812 1.70312,0 2.65625,-1.3125 0.96875,-1.3125 0.96875,-4.1875 0,-2.45312 -0.96875,-3.79688 -0.95313,-1.35937 -2.6875,-1.35937 -1.71875,0 -2.67188,1.34375 -0.9375,1.34375 -0.9375,4.15625 z m 19.28222,-8.98438 0.14062,1.96875 q 1.875,-2.29687 5.0625,-2.29687 3.40625,0 4.67188,2.6875 1.85937,-2.6875 5.29687,-2.6875 2.85938,0 4.25,1.67187 1.40625,1.67188 1.40625,5.01563 v 11.25 h -4.71875 v -11.23437 q 0,-1.48438 -0.59375,-2.17188 -0.57812,-0.70313 -2.0625,-0.70313 -2.10937,0 -2.92187,2.01563 l 0.0156,12.09375 h -4.7031 V 117.375 q 0,-1.51563 -0.60937,-2.20313 -0.59375,-0.6875 -2.04688,-0.6875 -2,0 -2.89062,1.65625 v 12.45313 h -4.70313 v -17.60938 z m 40.29042,8.96876 q 0,4.0625 -1.84375,6.51562 -1.84375,2.45312 -4.98438,2.45312 -2.67187,0 -4.3125,-1.85937 v 8.29687 h -4.70312 v -24.375 h 4.35937 l 0.15625,1.71875 q 1.71875,-2.04687 4.46875,-2.04687 3.25,0 5.04688,2.42187 1.8125,2.40625 1.8125,6.62501 z m -4.70313,-0.34375 q 0,-2.45313 -0.875,-3.78126 -0.85937,-1.34375 -2.53125,-1.34375 -2.20312,0 -3.03125,1.6875 v 7.21876 q 0.85938,1.73437 3.0625,1.73437 3.375,0 3.375,-5.51562 z m 18.16961,7.1875 q -1.75,2.12499 -4.82812,2.12499 -2.82813,0 -4.32813,-1.62499 -1.48437,-1.625 -1.51562,-4.76563 v -11.54688 h 4.70312 v 11.37501 q 0,2.75 2.51563,2.75 2.39062,0 3.28125,-1.65625 v -12.46876 h 4.71875 v 17.60938 h -4.42188 z m 13.72756,-20.14063 v 4.32812 h 3.01562 v 3.45313 h -3.01562 v 8.78125 q 0,0.98438 0.375,1.40625 0.375,0.42188 1.4375,0.42188 0.78125,0 1.375,-0.10938 V 128.5 q -1.375,0.42187 -2.84375,0.42187 -4.95313,0 -5.04688,-4.99999 v -9.48438 h -2.57812 v -3.45313 h 2.57812 v -4.32812 z m 15.83938,21.9375 q -0.32812,-0.64062 -0.48437,-1.57812 -1.70313,1.90624 -4.4375,1.90624 -2.59375,0 -4.29688,-1.49999 -1.6875,-1.5 -1.6875,-3.78125 0,-2.79688 2.0625,-4.28125 2.07813,-1.5 6,-1.51563 h 2.17188 v -1.01562 q 0,-1.21876 -0.625,-1.95313 -0.625,-0.73438 -1.98438,-0.73438 -1.1875,0 -1.85937,0.57813 -0.67188,0.5625 -0.67188,1.5625 H 984.988 q 0,-1.53125 0.9375,-2.82813 0.95312,-1.3125 2.67187,-2.04687 1.71875,-0.75 3.875,-0.75 3.25,0 5.15625,1.64062 1.92188,1.64063 1.92188,4.59376 v 7.64062 q 0.0156,2.5 0.7031,3.78125 v 0.28125 z m -3.89062,-3.26562 q 1.03125,0 1.90625,-0.46875 0.89062,-0.46875 1.3125,-1.25 v -3.01563 h -1.76563 q -3.53125,0 -3.75,2.4375 l -0.0156,0.28125 q 0,0.875 0.60937,1.45313 0.625,0.5625 1.70313,0.5625 z m 17.1808,-18.67188 v 4.32812 h 3.0156 v 3.45313 h -3.0156 v 8.78125 q 0,0.98438 0.375,1.40625 0.375,0.42188 1.4375,0.42188 0.7813,0 1.375,-0.10938 V 128.5 q -1.375,0.42187 -2.8437,0.42187 -4.9532,0 -5.0469,-4.99999 v -9.48438 h -2.5781 v -3.45313 h 2.5781 v -4.32812 z m 10.5894,21.9375 h -4.7188 v -17.60938 h 4.7188 z m -4.9844,-22.17188 q 0,-1.04687 0.7031,-1.73437 0.7032,-0.6875 1.9219,-0.6875 1.2031,0 1.9219,0.6875 0.7187,0.6875 0.7187,1.73437 0,1.07813 -0.7343,1.76563 -0.7188,0.6875 -1.9063,0.6875 -1.1875,0 -1.9062,-0.6875 -0.7188,-0.6875 -0.7188,-1.76563 z m 8.1334,13.20313 q 0,-2.625 1,-4.67188 1.0156,-2.04687 2.9063,-3.17187 1.9062,-1.125 4.4062,-1.125 3.5625,0 5.8125,2.1875 2.2656,2.17187 2.5156,5.92188 l 0.031,1.20312 q 0,4.04688 -2.2656,6.5 -2.25,2.45312 -6.0625,2.45312 -3.8125,0 -6.0781,-2.43749 -2.2656,-2.45313 -2.2656,-6.64063 z m 4.7031,0.34375 q 0,2.5 0.9375,3.82813 0.9532,1.32812 2.7032,1.32812 1.7031,0 2.6562,-1.3125 0.9688,-1.3125 0.9688,-4.1875 0,-2.45312 -0.9688,-3.79688 -0.9531,-1.35937 -2.6875,-1.35937 -1.7187,0 -2.6719,1.34375 -0.9375,1.34375 -0.9375,4.15625 z m 19.2041,-8.98438 0.1406,2.03125 q 1.8907,-2.35937 5.0625,-2.35937 2.7969,0 4.1563,1.65625 1.375,1.64062 1.4062,4.90625 v 11.375 h -4.7031 v -11.26562 q 0,-1.50001 -0.6562,-2.17188 -0.6407,-0.67188 -2.1563,-0.67188 -1.9844,0 -2.9844,1.6875 v 12.42188 h -4.7031 v -17.60938 z m 24.5407,17.60938 q -0.3281,-0.64062 -0.4843,-1.57812 -1.7032,1.90624 -4.4375,1.90624 -2.5938,0 -4.2969,-1.49999 -1.6875,-1.5 -1.6875,-3.78125 0,-2.79688 2.0625,-4.28125 2.0781,-1.5 6,-1.51563 h 2.1719 v -1.01562 q 0,-1.21876 -0.625,-1.95313 -0.625,-0.73438 -1.9844,-0.73438 -1.1875,0 -1.8594,0.57813 -0.6719,0.5625 -0.6719,1.5625 h -4.7031 q 0,-1.53125 0.9375,-2.82813 0.9531,-1.3125 2.6719,-2.04687 1.7187,-0.75 3.875,-0.75 3.25,0 5.1562,1.64062 1.9219,1.64063 1.9219,4.59376 v 7.64062 q 0.016,2.5 0.7031,3.78125 v 0.28125 z m -3.8906,-3.26562 q 1.0313,0 1.9063,-0.46875 0.8906,-0.46875 1.3125,-1.25 v -3.01563 h -1.7657 q -3.5312,0 -3.75,2.4375 l -0.016,0.28125 q 0,0.875 0.6094,1.45313 0.625,0.5625 1.7031,0.5625 z m 16.5089,3.26562 h -4.7187 v -25 h 4.7187 z"
     fill-rule="nonzero"
     id="path1031" />
  <path
     fill="#0070c0"
     d="m 15.71608,152.37501 q 0,-1.375 -0.98437,-2.10938 -0.96875,-0.75 -3.51563,-1.5625 -2.53125,-0.82812 -4.01562,-1.625 -4.03125,-2.18751 -4.03125,-5.87501 0,-1.92186 1.07812,-3.42186 1.07813,-1.51564 3.10938,-2.35939 2.03125,-0.84375 4.54687,-0.84375 2.53125,0 4.51563,0.92189 2,0.90625 3.09375,2.59375 1.09375,1.67186 1.09375,3.79686 h -4.875 q 0,-1.625 -1.03125,-2.51561 -1.01563,-0.90625 -2.875,-0.90625 -1.79688,0 -2.79688,0.76561 -0.98437,0.75 -0.98437,1.98439 0,1.15625 1.15625,1.9375 1.17187,0.78125 3.4375,1.45311 4.17187,1.26564 6.0625,3.12501 1.90625,1.84375 1.90625,4.60938 0,3.07812 -2.32813,4.82812 -2.32812,1.75 -6.26562,1.75 -2.73438,0 -4.98438,-1 -2.23437,-1 -3.42187,-2.73437 -1.17188,-1.75 -1.17188,-4.04688 h 4.89063 q 0,3.92188 4.6875,3.92188 1.75,0 2.71875,-0.70313 0.98437,-0.71875 0.98437,-1.98437 z m 7.16022,-2.75 q 0,-2.625 1,-4.67189 1.01562,-2.04686 2.90624,-3.17186 1.90625,-1.125 4.40625,-1.125 3.5625,0 5.8125,2.1875 2.26563,2.17186 2.51563,5.92187 l 0.0312,1.20313 q 0,4.04687 -2.26563,6.5 -2.25,2.45312 -6.0625,2.45312 -3.8125,0 -6.07812,-2.4375 -2.26562,-2.45312 -2.26562,-6.64062 z m 4.70312,0.34375 q 0,2.5 0.9375,3.82812 0.95312,1.32813 2.70312,1.32813 1.70313,0 2.65625,-1.3125 0.96875,-1.3125 0.96875,-4.1875 0,-2.45313 -0.96875,-3.79688 -0.95312,-1.35937 -2.6875,-1.35937 -1.71875,0 -2.67187,1.34375 -0.9375,1.34375 -0.9375,4.15625 z m 22.18846,5.15625 q 1.3125,0 2.125,-0.70313 0.8125,-0.71875 0.84375,-1.92187 h 4.40625 q -0.0156,1.79687 -0.98437,3.29687 -0.95313,1.48438 -2.625,2.3125 -1.65625,0.8125 -3.6875,0.8125 -3.76563,0 -5.95313,-2.39062 -2.17188,-2.40625 -2.17188,-6.64063 v -0.3125 q 0,-4.06251 2.15625,-6.48437 2.17188,-2.4375 5.93751,-2.4375 3.3125,0 5.29687,1.89061 2,1.875 2.03125,5.00001 h -4.40625 q -0.0312,-1.375 -0.84375,-2.21876 -0.8125,-0.85936 -2.15625,-0.85936 -1.64063,0 -2.48438,1.20312 -0.82812,1.1875 -0.82812,3.875 v 0.48438 q 0,2.71875 0.82812,3.90625 0.82813,1.1875 2.51563,1.1875 z m 15.02072,3.46875 h -4.71875 v -17.60939 h 4.71875 z m -4.98437,-22.17189 q 0,-1.04686 0.70312,-1.73436 Q 61.21048,134 62.42923,134 q 1.20312,0 1.92187,0.68751 0.71875,0.6875 0.71875,1.73436 0,1.07814 -0.73437,1.76564 -0.71875,0.6875 -1.90625,0.6875 -1.1875,0 -1.90625,-0.6875 -0.71875,-0.6875 -0.71875,-1.76564 z m 19.07089,22.17189 q -0.32812,-0.64063 -0.48437,-1.57813 -1.70313,1.90625 -4.4375,1.90625 -2.59375,0 -4.29688,-1.5 -1.6875,-1.5 -1.6875,-3.78125 0,-2.79687 2.0625,-4.28125 2.07813,-1.5 6,-1.51562 h 2.17188 v -1.01563 q 0,-1.21875 -0.625,-1.95312 -0.625,-0.73439 -1.98438,-0.73439 -1.1875,0 -1.85937,0.57814 -0.67188,0.5625 -0.67188,1.5625 H 68.3595 q 0,-1.53125 0.9375,-2.82814 0.95312,-1.3125 2.67187,-2.04686 1.71875,-0.75 3.875,-0.75 3.25,0 5.15625,1.64061 1.92188,1.64064 1.92188,4.59376 v 7.64063 q 0.0156,2.5 0.70312,3.78125 v 0.28125 z m -3.89062,-3.26563 q 1.03125,0 1.90625,-0.46875 0.89062,-0.46875 1.3125,-1.25 v -3.01562 h -1.76563 q -3.53125,0 -3.75,2.4375 l -0.0156,0.28125 q 0,0.875 0.60937,1.45312 0.625,0.5625 1.70313,0.5625 z m 16.50893,3.26563 h -4.71876 v -25.00001 h 4.71876 z m 24.77663,-6.21875 q 0,-1.375 -0.98438,-2.10938 -0.96875,-0.75 -3.51562,-1.5625 -2.53125,-0.82812 -4.01563,-1.625 -4.03125,-2.18751 -4.03125,-5.87501 0,-1.92186 1.07813,-3.42186 1.07812,-1.51564 3.10937,-2.35939 2.03125,-0.84375 4.54688,-0.84375 2.53125,0 4.51562,0.92189 2,0.90625 3.09375,2.59375 1.09375,1.67186 1.09375,3.79686 h -4.875 q 0,-1.625 -1.03125,-2.51561 -1.01562,-0.90625 -2.875,-0.90625 -1.79687,0 -2.79687,0.76561 -0.98438,0.75 -0.98438,1.98439 0,1.15625 1.15625,1.9375 1.17188,0.78125 3.4375,1.45311 4.17188,1.26564 6.0625,3.12501 1.90625,1.84375 1.90625,4.60938 0,3.07812 -2.32812,4.82812 -2.32813,1.75 -6.26563,1.75 -2.73437,0 -4.98437,-1 -2.23438,-1 -3.42188,-2.73437 -1.17187,-1.75 -1.17187,-4.04688 h 4.89062 q 0,3.92188 4.6875,3.92188 1.75,0 2.71875,-0.70313 0.98438,-0.71875 0.98438,-1.98437 z m 15.20709,2.75 q 1.3125,0 2.125,-0.70313 0.8125,-0.71875 0.84375,-1.92187 h 4.40625 q -0.0156,1.79687 -0.98438,3.29687 -0.95312,1.48438 -2.625,2.3125 -1.65625,0.8125 -3.6875,0.8125 -3.76562,0 -5.95312,-2.39062 -2.17188,-2.40625 -2.17188,-6.64063 v -0.3125 q 0,-4.06251 2.15625,-6.48437 2.17188,-2.4375 5.9375,-2.4375 3.3125,0 5.29688,1.89061 2,1.875 2.03125,5.00001 h -4.40625 q -0.0312,-1.375 -0.84375,-2.21876 -0.8125,-0.85936 -2.15625,-0.85936 -1.64063,0 -2.48438,1.20312 -0.82812,1.1875 -0.82812,3.875 v 0.48438 q 0,2.71875 0.82812,3.90625 0.82813,1.1875 2.51563,1.1875 z m 15.02072,3.46875 h -4.71875 v -17.60939 h 4.71875 z m -4.98437,-22.17189 q 0,-1.04686 0.70312,-1.73436 Q 142.91975,134 144.1385,134 q 1.20312,0 1.92187,0.68751 0.71875,0.6875 0.71875,1.73436 0,1.07814 -0.73437,1.76564 -0.71875,0.6875 -1.90625,0.6875 -1.1875,0 -1.90625,-0.6875 -0.71875,-0.6875 -0.71875,-1.76564 z m 16.96151,22.50001 q -3.875,0 -6.3125,-2.375 -2.42187,-2.375 -2.42187,-6.32812 v -0.46875 q 0,-2.64063 1.01562,-4.73439 1.03125,-2.09375 2.90625,-3.21875 1.89063,-1.14061 4.29688,-1.14061 3.60937,0 5.6875,2.28125 2.07812,2.28125 2.07812,6.46875 v 1.90625 h -11.21875 q 0.23438,1.73437 1.375,2.78125 1.15625,1.03125 2.90625,1.03125 2.71875,0 4.25,-1.96875 l 2.3125,2.59375 q -1.0625,1.5 -2.875,2.34375 -1.79687,0.82812 -4,0.82812 z m -0.53125,-14.45313 q -1.40625,0 -2.28125,0.95312 -0.85937,0.93751 -1.10937,2.68751 h 6.54687 v -0.375 q -0.0312,-1.5625 -0.84375,-2.40626 -0.8125,-0.85937 -2.3125,-0.85937 z m 14.7804,-3.48438 0.14062,2.03125 q 1.89063,-2.35937 5.0625,-2.35937 2.79688,0 4.15625,1.65625 1.375,1.64062 1.40625,4.90626 v 11.375 h -4.70312 v -11.26563 q 0,-1.5 -0.65625,-2.17188 -0.64063,-0.67188 -2.15625,-0.67188 -1.98438,0 -2.98438,1.68751 v 12.42188 h -4.70312 v -17.60939 z m 21.65008,14.14064 q 1.3125,0 2.125,-0.70313 0.8125,-0.71875 0.84375,-1.92187 h 4.40625 q -0.0156,1.79687 -0.98437,3.29687 -0.95313,1.48438 -2.625,2.3125 -1.65625,0.8125 -3.6875,0.8125 -3.76563,0 -5.95313,-2.39062 -2.17187,-2.40625 -2.17187,-6.64063 v -0.3125 q 0,-4.06251 2.15625,-6.48438 2.17187,-2.4375 5.9375,-2.4375 3.3125,0 5.29687,1.89062 2,1.875 2.03125,5.00001 h -4.40625 q -0.0312,-1.375 -0.84375,-2.21876 -0.8125,-0.85937 -2.15625,-0.85937 -1.64062,0 -2.48437,1.20313 -0.82813,1.1875 -0.82813,3.875 v 0.48438 q 0,2.71875 0.82813,3.90625 0.82812,1.1875 2.51562,1.1875 z m 18.16135,3.79687 q -3.875,0 -6.3125,-2.375 -2.42188,-2.375 -2.42188,-6.32812 v -0.46875 q 0,-2.64063 1.01563,-4.73439 1.03125,-2.09375 2.90625,-3.21875 1.89062,-1.14062 4.29687,-1.14062 3.60938,0 5.6875,2.28125 2.07811,2.28125 2.07811,6.46876 v 1.90625 h -11.21873 q 0.23437,1.73437 1.375,2.78125 1.15625,1.03125 2.90625,1.03125 2.71875,0 4.25,-1.96875 l 2.31248,2.59375 q -1.0625,1.5 -2.87498,2.34375 -1.79688,0.82812 -4,0.82812 z m -0.53125,-14.45313 q -1.40625,0 -2.28125,0.95312 -0.85938,0.93751 -1.10938,2.68751 h 6.54688 v -0.375 q -0.0312,-1.5625 -0.84375,-2.40626 -0.8125,-0.85937 -2.3125,-0.85937 z"
     fill-rule="nonzero"
     id="path1033" />
  <path
     fill="#000000"
     fill-opacity="0"
     d="M 398.17863,45.593747 H 744.16966 V 131.73547 H 398.17863 Z"
     fill-rule="evenodd"
     id="path1035" />
  <path
     fill="#0070c0"
     d="m 469.89739,16.703125 q -0.28125,3.828125 -2.82813,6.03125 -2.54687,2.187496 -6.70312,2.187496 -4.5625,0 -7.17188,-3.062496 -2.60937,-3.078125 -2.60937,-8.421875 v -1.453125 q 0,-3.421875 1.20312,-6.015625 1.20313,-2.609375 3.4375,-4 2.23438,-1.390625 5.20313,-1.390625 4.09375,0 6.59375,2.203125 2.51562,2.1875 2.90625,6.15625 h -4.89063 q -0.17187,-2.296875 -1.28125,-3.328125 -1.09375,-1.03125 -3.32812,-1.03125 -2.45313,0 -3.67188,1.75 -1.20312,1.75 -1.23437,5.421875 v 1.796875 q 0,3.84375 1.15625,5.625 1.17187,1.765625 3.6875,1.765625 2.25,0 3.35937,-1.03125 1.125,-1.046875 1.28125,-3.203125 z M 472.06325,15.625 q 0,-2.625 1,-4.671875 1.01563,-2.046875 2.90625,-3.171875 1.90625,-1.125 4.40625,-1.125 3.5625,0 5.8125,2.1875 2.26563,2.171875 2.51563,5.921875 l 0.0312,1.203125 q 0,4.046875 -2.26563,6.5 -2.25,2.453121 -6.0625,2.453121 -3.8125,0 -6.07812,-2.437496 -2.26563,-2.453125 -2.26563,-6.640625 z m 4.70313,0.34375 q 0,2.5 0.9375,3.828125 0.95312,1.328125 2.70312,1.328125 1.70313,0 2.65625,-1.3125 0.96875,-1.3125 0.96875,-4.1875 0,-2.453125 -0.96875,-3.796875 -0.95312,-1.359375 -2.6875,-1.359375 -1.71875,0 -2.67187,1.34375 -0.9375,1.34375 -0.9375,4.15625 z m 24.01657,0.375 h -9.15625 v -3.796875 h 9.15625 z m 4.07742,8.25 V 0.90625 h 7.29688 q 3.125,0 5.59375,1.40625 2.46875,1.40625 3.84375,4 1.39062,2.59375 1.39062,5.890625 v 1.09375 q 0,3.3125 -1.35937,5.890625 -1.35938,2.5625 -3.84375,3.984375 -2.46875,1.40625 -5.57813,1.421875 z M 509.751,4.859375 v 15.8125 h 2.35937 q 2.85938,0 4.375,-1.875 1.51563,-1.875 1.54688,-5.34375 V 12.1875 q 0,-3.609375 -1.5,-5.46875 -1.5,-1.859375 -4.375,-1.859375 z m 24.56628,20.062496 q -3.875,0 -6.3125,-2.374996 -2.42187,-2.375 -2.42187,-6.328125 V 15.75 q 0,-2.640625 1.01562,-4.734375 1.03125,-2.09375 2.90625,-3.21875 1.89063,-1.140625 4.29688,-1.140625 3.60937,0 5.6875,2.28125 2.07812,2.28125 2.07812,6.46875 v 1.90625 h -11.21875 q 0.23438,1.734375 1.375,2.78125 1.15625,1.03125 2.90625,1.03125 2.71875,0 4.25,-1.96875 l 2.3125,2.59375 q -1.0625,1.5 -2.875,2.34375 -1.79687,0.828121 -4,0.828121 z M 533.78603,10.46875 q -1.40625,0 -2.28125,0.953125 -0.85937,0.9375 -1.10937,2.6875 h 6.54687 v -0.375 q -0.0312,-1.5625 -0.84375,-2.40625 -0.8125,-0.859375 -2.3125,-0.859375 z m 19.98352,9.265625 q 0,-0.875 -0.85937,-1.359375 -0.84375,-0.5 -2.73438,-0.890625 -6.28125,-1.3125 -6.28125,-5.34375 0,-2.34375 1.9375,-3.90625 1.95313,-1.578125 5.09375,-1.578125 3.34375,0 5.34375,1.578125 2.01563,1.578125 2.01563,4.109375 h -4.70313 q 0,-1.015625 -0.65625,-1.671875 -0.64062,-0.65625 -2.01562,-0.65625 -1.1875,0 -1.84375,0.546875 -0.65625,0.53125 -0.65625,1.359375 0,0.78125 0.73437,1.265625 0.75,0.46875 2.5,0.828125 1.76563,0.34375 2.96875,0.78125 3.73438,1.375 3.73438,4.734375 0,2.40625 -2.07813,3.90625 -2.0625,1.484371 -5.32812,1.484371 -2.21875,0 -3.9375,-0.781246 Q 545.28518,23.34375 544.3008,21.96875 543.33205,20.59375 543.33205,19 h 4.46875 q 0.0625,1.25 0.92188,1.921875 0.85937,0.65625 2.3125,0.65625 1.34375,0 2.03125,-0.5 0.70312,-0.515625 0.70312,-1.34375 z m 12.55786,4.859375 h -4.71875 V 6.984375 h 4.71875 z M 561.34304,2.421875 q 0,-1.046875 0.70312,-1.734375 Q 562.74929,0 563.96804,0 q 1.20312,0 1.92187,0.6875 0.71875,0.6875 0.71875,1.734375 0,1.078125 -0.73437,1.765625 -0.71875,0.6875 -1.90625,0.6875 -1.1875,0 -1.90625,-0.6875 Q 561.34304,3.5 561.34304,2.421875 Z m 8.18026,13.234375 q 0,-4.046875 1.92188,-6.515625 1.9375,-2.484375 5.20312,-2.484375 2.89063,0 4.51563,1.984375 l 0.1875,-1.65625 h 4.26562 v 17.03125 q 0,2.296871 -1.04687,3.999996 -1.04688,1.71875 -2.95313,2.609375 -1.90625,0.90625 -4.46875,0.90625 -1.9375,0 -3.78125,-0.78125 -1.82812,-0.765625 -2.76562,-1.984375 l 2.07812,-2.875 q 1.75,1.96875 4.26563,1.96875 1.875,0 2.90625,-1 1.04687,-1 1.04687,-2.828121 v -0.953125 q -1.625,1.843746 -4.28125,1.843746 -3.17187,0 -5.14062,-2.484371 -1.95313,-2.484375 -1.95313,-6.578125 z M 574.22643,16 q 0,2.390625 0.95312,3.75 0.96875,1.359375 2.64063,1.359375 2.15625,0 3.07812,-1.609375 v -7.40625 q -0.95312,-1.609375 -3.04687,-1.609375 -1.6875,0 -2.65625,1.390625 -0.96875,1.375 -0.96875,4.125 z m 19.33624,-9.015625 0.14063,2.03125 q 1.89062,-2.359375 5.0625,-2.359375 2.79687,0 4.15625,1.65625 1.375,1.640625 1.40625,4.90625 v 11.375 h -4.70313 V 13.328125 q 0,-1.5 -0.65625,-2.171875 -0.64062,-0.671875 -2.15625,-0.671875 -1.98437,0 -2.98437,1.6875 V 24.59375 h -4.70313 V 6.984375 Z"
     fill-rule="nonzero"
     id="path1037" />
  <path
     fill="#000000"
     fill-opacity="0"
     d="M 606.33783,85.593749 H 821.38715 V 171.73547 H 606.33783 Z"
     fill-rule="evenodd"
     id="path1039" />
  <path
     fill="#0070c0"
     d="m 9.83783,104.90625 6.07813,17.17188 6.0625,-17.17189 h 6.40625 v 23.6875 h -4.90625 v -6.48436 l 0.5,-11.17189 -6.40625,17.65625 h -3.34375 l -6.375,-17.64062 0.48437,11.15626 v 6.48436 H 3.44721 v -23.6875 z m 21.7728,14.71875 q 0,-2.625 1,-4.67188 1.01562,-2.04687 2.90625,-3.17187 1.90625,-1.125 4.40625,-1.125 3.5625,0 5.8125,2.1875 2.26562,2.17187 2.51562,5.92188 l 0.0312,1.20312 q 0,4.04688 -2.26562,6.5 -2.25,2.45312 -6.0625,2.45312 -3.8125,0 -6.07813,-2.43749 -2.26562,-2.45313 -2.26562,-6.64063 z m 4.70312,0.34375 q 0,2.5 0.9375,3.82813 0.95313,1.32812 2.70313,1.32812 1.70312,0 2.65625,-1.3125 0.96875,-1.3125 0.96875,-4.1875 0,-2.45313 -0.96875,-3.79688 -0.95313,-1.35937 -2.6875,-1.35937 -1.71875,0 -2.67188,1.34375 -0.9375,1.34375 -0.9375,4.15625 z m 20.50095,-13.3125 v 4.32812 h 3.01562 v 3.45313 H 56.8147 v 8.78125 q 0,0.98438 0.375,1.40625 0.375,0.42188 1.4375,0.42188 0.78125,0 1.375,-0.10938 V 128.5 q -1.375,0.42187 -2.84375,0.42187 -4.95313,0 -5.04688,-4.99999 v -9.48438 h -2.57812 v -3.45313 h 2.57812 v -4.32812 z m 10.58941,21.9375 h -4.71875 v -17.60938 h 4.71875 z m -4.98437,-22.17188 q 0,-1.04687 0.70312,-1.73437 Q 63.82599,104 65.04474,104 q 1.20312,0 1.92187,0.6875 0.71875,0.6875 0.71875,1.73437 0,1.07813 -0.73437,1.76563 -0.71875,0.6875 -1.90625,0.6875 -1.1875,0 -1.90625,-0.6875 -0.71875,-0.6875 -0.71875,-1.76563 z m 15.44586,16.42188 3.28125,-11.85938 h 4.90625 l -5.9375,17.60938 h -4.48437 l -5.9375,-17.60938 h 4.90625 z m 20.22394,5.75 q -0.32813,-0.64062 -0.48438,-1.57812 -1.70312,1.90624 -4.4375,1.90624 -2.59375,0 -4.29687,-1.49999 -1.6875,-1.5 -1.6875,-3.78125 0,-2.79688 2.0625,-4.28125 2.07812,-1.50001 6,-1.51563 h 2.17187 v -1.01563 q 0,-1.21875 -0.625,-1.95312 -0.625,-0.73438 -1.98437,-0.73438 -1.1875,0 -1.85938,0.57813 -0.67187,0.5625 -0.67187,1.5625 h -4.70313 q 0,-1.53125 0.9375,-2.82813 0.95313,-1.3125 2.67188,-2.04687 1.71875,-0.75 3.875,-0.75 3.25,0 5.15625,1.64062 1.92187,1.64063 1.92187,4.59375 v 7.64063 q 0.0156,2.5 0.70313,3.78125 v 0.28125 z m -3.89063,-3.26562 q 1.03125,0 1.90625,-0.46875 0.89063,-0.46875 1.3125,-1.25 v -3.01563 h -1.76562 q -3.53125,0 -3.75,2.4375 l -0.0156,0.28125 q 0,0.875 0.60938,1.45313 0.625,0.5625 1.70312,0.5625 z m 17.18079,-18.67188 v 4.32812 h 3.01563 v 3.45313 h -3.01563 v 8.78125 q 0,0.98438 0.375,1.40625 0.375,0.42188 1.4375,0.42188 0.78125,0 1.375,-0.10938 V 128.5 q -1.375,0.42187 -2.84375,0.42187 -4.95312,0 -5.04687,-4.99999 v -9.48438 h -2.57813 v -3.45313 h 2.57813 v -4.32812 z m 10.58942,21.9375 h -4.71875 v -17.60938 h 4.71875 z m -4.98438,-22.17188 q 0,-1.04687 0.70313,-1.73437 0.70312,-0.6875 1.92187,-0.6875 1.20313,0 1.92188,0.6875 0.71875,0.6875 0.71875,1.73437 0,1.07813 -0.73438,1.76563 -0.71875,0.6875 -1.90625,0.6875 -1.1875,0 -1.90625,-0.6875 -0.71875,-0.6875 -0.71875,-1.76563 z m 8.13336,13.20313 q 0,-2.625 1,-4.67188 1.01563,-2.04687 2.90625,-3.17187 1.90625,-1.125 4.40625,-1.125 3.5625,0 5.8125,2.1875 2.26563,2.17187 2.51563,5.92188 l 0.0312,1.20312 q 0,4.04688 -2.26563,6.5 -2.25,2.45312 -6.0625,2.45312 -3.8125,0 -6.07812,-2.43749 -2.26563,-2.45313 -2.26563,-6.64063 z m 4.70313,0.34375 q 0,2.5 0.9375,3.82813 0.95312,1.32812 2.70312,1.32812 1.70313,0 2.65625,-1.3125 0.96875,-1.3125 0.96875,-4.1875 0,-2.45313 -0.96875,-3.79688 -0.95312,-1.35937 -2.6875,-1.35937 -1.71875,0 -2.67187,1.34375 -0.9375,1.34375 -0.9375,4.15625 z m 19.2041,-8.98438 0.14063,2.03125 q 1.89062,-2.35937 5.0625,-2.35937 2.79687,0 4.15625,1.65625 1.375,1.64062 1.40625,4.90625 v 11.375 h -4.70313 v -11.26563 q 0,-1.5 -0.65625,-2.17187 -0.64062,-0.67188 -2.15625,-0.67188 -1.98437,0 -2.98437,1.6875 v 12.42188 h -4.70313 v -17.60938 z m 24.54071,17.60938 q -0.32812,-0.64062 -0.48437,-1.57812 -1.70313,1.90624 -4.4375,1.90624 -2.59375,0 -4.29688,-1.49999 -1.6875,-1.5 -1.6875,-3.78125 0,-2.79688 2.0625,-4.28125 2.07813,-1.50001 6,-1.51563 h 2.17188 v -1.01563 q 0,-1.21875 -0.625,-1.95312 -0.625,-0.73438 -1.98438,-0.73438 -1.1875,0 -1.85937,0.57813 -0.67188,0.5625 -0.67188,1.5625 h -4.70312 q 0,-1.53125 0.9375,-2.82813 0.95312,-1.3125 2.67187,-2.04687 1.71875,-0.75 3.875,-0.75 3.25,0 5.15625,1.64062 1.92188,1.64063 1.92188,4.59375 v 7.64063 q 0.0156,2.5 0.70312,3.78125 v 0.28125 z m -3.89062,-3.26562 q 1.03125,0 1.90625,-0.46875 0.89062,-0.46875 1.3125,-1.25 v -3.01563 h -1.76563 q -3.53125,0 -3.75,2.4375 l -0.0156,0.28125 q 0,0.875 0.60937,1.45313 0.625,0.5625 1.70313,0.5625 z m 16.50891,3.26562 h -4.71875 v -25 h 4.71875 z"
     fill-rule="nonzero"
     id="path1041" />
  <path
     fill="#0070c0"
     d="m 959.74407,162.37501 q 0,-1.375 -0.98438,-2.10938 -0.96875,-0.75 -3.51562,-1.5625 -2.53125,-0.82812 -4.01563,-1.625 -4.03125,-2.1875 -4.03125,-5.875 0,-1.92188 1.07813,-3.42188 1.07812,-1.51562 3.10937,-2.35938 2.03125,-0.84375 4.54688,-0.84375 2.53125,0 4.51562,0.92188 2,0.90625 3.09375,2.59375 1.09375,1.67188 1.09375,3.79688 h -4.875 q 0,-1.625 -1.03125,-2.51563 -1.01562,-0.90625 -2.875,-0.90625 -1.79687,0 -2.79687,0.76563 -0.98438,0.75 -0.98438,1.98437 0,1.15625 1.15625,1.93751 1.17188,0.78125 3.4375,1.45312 4.17188,1.26563 6.0625,3.125 1.90625,1.84375 1.90625,4.60938 0,3.07812 -2.32812,4.82812 -2.32813,1.75 -6.26563,1.75 -2.73437,0 -4.98437,-1 -2.23438,-1 -3.42188,-2.73437 -1.17187,-1.75 -1.17187,-4.04688 h 4.89062 q 0,3.92188 4.6875,3.92188 1.75,0 2.71875,-0.70313 0.98438,-0.71875 0.98438,-1.98437 z m 14.45709,-0.4375 3.26563,-10.95313 h 5.04687 l -7.09375,20.34375 -0.39062,0.92188 q -1.57813,3.45312 -5.20313,3.45312 -1.01562,0 -2.07812,-0.3125 v -3.5625 l 0.71875,0.0156 q 1.32812,0 1.98437,-0.40625 0.65625,-0.40625 1.03125,-1.34375 l 0.5625,-1.45313 -6.17187,-17.65625 h 5.0625 z m 19.69794,1.79687 q 0,-0.875 -0.85941,-1.35937 -0.84375,-0.5 -2.73437,-0.89063 -6.28125,-1.3125 -6.28125,-5.34375 0,-2.34375 1.9375,-3.90625 1.95312,-1.57813 5.09375,-1.57813 3.34378,0 5.34378,1.57813 2.01562,1.57813 2.01562,4.10938 h -4.70315 q 0,-1.01563 -0.65625,-1.67188 -0.64063,-0.65625 -2.01563,-0.65625 -1.1875,0 -1.84375,0.54688 -0.65625,0.53125 -0.65625,1.35937 0,0.78125 0.73438,1.26563 0.75,0.46875 2.5,0.82812 1.76562,0.34375 2.96878,0.78125 3.73437,1.375 3.73437,4.73438 0,2.40625 -2.07812,3.90625 -2.0625,1.48437 -5.32816,1.48437 -2.21875,0 -3.9375,-0.78125 -1.71875,-0.79687 -2.70312,-2.17187 -0.96875,-1.375 -0.96875,-2.96875 h 4.46875 q 0.0625,1.25 0.92187,1.92187 0.85938,0.65625 2.3125,0.65625 1.34375,0 2.03125,-0.5 0.70316,-0.51562 0.70316,-1.34375 z m 13.2297,-17.07813 v 4.32813 h 3.0157 v 3.45313 h -3.0157 v 8.78125 q 0,0.98437 0.375,1.40625 0.375,0.42187 1.4375,0.42187 0.7813,0 1.375,-0.10937 v 3.5625 q -1.375,0.42187 -2.8437,0.42187 -4.9531,0 -5.0469,-5 v -9.48437 h -2.57812 v -3.45313 h 2.57812 v -4.32813 z m 13.73,22.26563 q -3.875,0 -6.3125,-2.375 -2.4219,-2.375 -2.4219,-6.32812 v -0.46875 q 0,-2.64063 1.0157,-4.73438 1.0312,-2.09375 2.9062,-3.21875 1.8906,-1.14063 4.2969,-1.14063 3.6094,0 5.6875,2.28126 2.0781,2.28125 2.0781,6.46875 v 1.90625 h -11.2187 q 0.2343,1.73437 1.375,2.78125 1.1562,1.03125 2.9062,1.03125 2.7188,0 4.25,-1.96875 l 2.3125,2.59375 q -1.0625,1.5 -2.875,2.34375 -1.7969,0.82812 -4,0.82812 z m -0.5312,-14.45312 q -1.4063,0 -2.2813,0.95312 -0.8594,0.9375 -1.1094,2.6875 h 6.5469 v -0.375 q -0.031,-1.5625 -0.8437,-2.40625 -0.8125,-0.85937 -2.3125,-0.85937 z m 14.8585,-3.48438 0.1406,1.96875 q 1.875,-2.29688 5.0625,-2.29688 3.4063,0 4.6719,2.68751 1.8594,-2.68751 5.2969,-2.68751 2.8593,0 4.25,1.67188 1.4062,1.67188 1.4062,5.01563 v 11.25 h -4.7187 v -11.23438 q 0,-1.48437 -0.5938,-2.17187 -0.5781,-0.70313 -2.0625,-0.70313 -2.1094,0 -2.9219,2.01563 l 0.016,12.09375 h -4.7031 v -11.21875 q 0,-1.51563 -0.6094,-2.20313 -0.5937,-0.6875 -2.0468,-0.6875 -2,0 -2.8907,1.65625 v 12.45313 h -4.7031 v -17.60938 z m 33.9779,12.75001 q 0,-0.875 -0.8593,-1.35938 -0.8438,-0.5 -2.7344,-0.89062 -6.2813,-1.3125 -6.2813,-5.34375 0,-2.34375 1.9375,-3.90626 1.9532,-1.57813 5.0938,-1.57813 3.3437,0 5.3437,1.57813 2.0157,1.57813 2.0157,4.10938 h -4.7032 q 0,-1.01562 -0.6562,-1.67187 -0.6406,-0.65625 -2.0156,-0.65625 -1.1875,0 -1.8438,0.54687 -0.6562,0.53125 -0.6562,1.35938 0,0.78125 0.7343,1.26562 0.75,0.46875 2.5,0.82813 1.7657,0.34375 2.9688,0.78125 3.7344,1.375 3.7344,4.73437 0,2.40625 -2.0782,3.90625 -2.0625,1.48438 -5.3281,1.48438 -2.2187,0 -3.9375,-0.78125 -1.7187,-0.79688 -2.7031,-2.17188 -0.9688,-1.375 -0.9688,-2.96875 h 4.4688 q 0.062,1.25 0.9219,1.92188 0.8593,0.65625 2.3125,0.65625 1.3437,0 2.0312,-0.5 0.7031,-0.51563 0.7031,-1.34375 z"
     fill-rule="nonzero"
     id="path1043" />
  <path
     fill="#000000"
     fill-opacity="0"
     d="m 691.14343,213.59376 h 160.8089 v 86.14172 h -160.8089 z"
     fill-rule="evenodd"
     id="path1045" />
  <path
     fill="#0070c0"
     d="m 968.86218,238.70313 q -0.28125,3.82812 -2.82812,6.03125 -2.54688,2.1875 -6.70313,2.1875 -4.5625,0 -7.17187,-3.0625 -2.60938,-3.07813 -2.60938,-8.42188 v -1.45312 q 0,-3.42188 1.20313,-6.01563 1.20312,-2.60937 3.4375,-4 2.23437,-1.39062 5.20312,-1.39062 4.09375,0 6.59375,2.20312 2.51563,2.1875 2.90625,6.15625 h -4.89062 q -0.17188,-2.29687 -1.28125,-3.32812 -1.09375,-1.03125 -3.32813,-1.03125 -2.45312,0 -3.67187,1.75 -1.20313,1.75 -1.23438,5.42187 v 1.79688 q 0,3.84375 1.15625,5.625 1.17188,1.76562 3.6875,1.76562 2.25,0 3.35938,-1.03125 1.125,-1.04687 1.28125,-3.20312 z m 2.16589,-1.07813 q 0,-2.625 1,-4.67187 1.01563,-2.04688 2.90625,-3.17188 1.90625,-1.125 4.40625,-1.125 3.5625,0 5.8125,2.1875 2.26563,2.17188 2.51563,5.92188 l 0.0312,1.20312 q 0,4.04688 -2.26563,6.5 -2.25,2.45313 -6.0625,2.45313 -3.8125,0 -6.07812,-2.4375 -2.26563,-2.45313 -2.26563,-6.64063 z m 4.70313,0.34375 q 0,2.5 0.9375,3.82813 0.95312,1.32812 2.70312,1.32812 1.70313,0 2.65625,-1.3125 0.96875,-1.3125 0.96875,-4.1875 0,-2.45312 -0.96875,-3.79687 -0.95312,-1.35938 -2.6875,-1.35938 -1.71875,0 -2.67187,1.34375 -0.9375,1.34375 -0.9375,4.15625 z m 19.28216,-8.98437 0.14063,1.96875 q 1.875,-2.29688 5.06251,-2.29688 3.4062,0 4.6719,2.6875 1.8593,-2.6875 5.2968,-2.6875 2.8594,0 4.25,1.67188 1.4063,1.67187 1.4063,5.01562 v 11.25 h -4.7188 v -11.23437 q 0,-1.48438 -0.5937,-2.17188 -0.5781,-0.70312 -2.0625,-0.70312 -2.1094,0 -2.9219,2.01562 l 0.016,12.09375 h -4.7031 V 235.375 q 0,-1.51562 -0.6094,-2.20312 -0.59374,-0.6875 -2.04687,-0.6875 -2,0 -2.89062,1.65625 v 12.45312 h -4.70313 v -17.60937 z m 40.29044,8.96875 q 0,4.0625 -1.8437,6.51562 -1.8438,2.45313 -4.9844,2.45313 -2.6719,0 -4.3125,-1.85938 v 8.29688 h -4.7031 v -24.375 h 4.3594 l 0.1562,1.71875 q 1.7188,-2.04688 4.4688,-2.04688 3.25,0 5.0468,2.42188 1.8125,2.40625 1.8125,6.625 z m -4.7031,-0.34375 q 0,-2.45313 -0.875,-3.78125 -0.8594,-1.34375 -2.5312,-1.34375 -2.2032,0 -3.0313,1.6875 v 7.21875 q 0.8594,1.73437 3.0625,1.73437 3.375,0 3.375,-5.51562 z m 12.5758,8.98437 h -4.7187 v -25 h 4.7187 z m 11.9772,0.32813 q -3.875,0 -6.3125,-2.375 -2.4219,-2.375 -2.4219,-6.32813 V 237.75 q 0,-2.64062 1.0156,-4.73437 1.0313,-2.09375 2.9063,-3.21875 1.8906,-1.14063 4.2969,-1.14063 3.6093,0 5.6875,2.28125 2.0781,2.28125 2.0781,6.46875 v 1.90625 h -11.2188 q 0.2344,1.73438 1.375,2.78125 1.1563,1.03125 2.9063,1.03125 2.7187,0 4.25,-1.96875 l 2.3125,2.59375 q -1.0625,1.5 -2.875,2.34375 -1.7969,0.82813 -4,0.82813 z m -0.5313,-14.45313 q -1.4062,0 -2.2812,0.95313 -0.8594,0.9375 -1.1094,2.6875 h 6.5469 v -0.375 q -0.031,-1.5625 -0.8438,-2.40625 -0.8125,-0.85938 -2.3125,-0.85938 z m 17.1554,1.76563 2.9532,-5.25 h 5.0312 l -5.0156,8.625 5.2344,8.98437 h -5.0469 l -3.1406,-5.53125 -3.125,5.53125 h -5.0625 l 5.2187,-8.98437 -5,-8.625 h 5.0469 z"
     fill-rule="nonzero"
     id="path1047" />
  <path
     fill="#0070c0"
     d="m 966.54968,274.37502 q 0,-1.375 -0.98437,-2.10938 -0.96875,-0.75 -3.51563,-1.5625 -2.53125,-0.82812 -4.01562,-1.625 -4.03125,-2.1875 -4.03125,-5.875 0,-1.92187 1.07812,-3.42187 1.07813,-1.51563 3.10938,-2.35938 2.03125,-0.84375 4.54687,-0.84375 2.53125,0 4.51563,0.92188 2,0.90625 3.09375,2.59375 1.09375,1.67187 1.09375,3.79687 h -4.875 q 0,-1.625 -1.03125,-2.51562 -1.01563,-0.90625 -2.875,-0.90625 -1.79688,0 -2.79688,0.76562 -0.98437,0.75 -0.98437,1.98438 0,1.15625 1.15625,1.9375 1.17187,0.78125 3.4375,1.45312 4.17187,1.26563 6.0625,3.125 1.90625,1.84375 1.90625,4.60938 0,3.07812 -2.32813,4.82812 -2.32812,1.75 -6.26562,1.75 -2.73438,0 -4.98438,-1 -2.23437,-1 -3.42187,-2.73437 -1.17188,-1.75 -1.17188,-4.04688 h 4.89063 q 0,3.92188 4.6875,3.92188 1.75,0 2.71875,-0.70313 0.98437,-0.71875 0.98437,-1.98437 z m 14.45709,-0.4375 3.26563,-10.95313 h 5.04687 l -7.09375,20.34375 -0.39062,0.92188 q -1.57813,3.45312 -5.20313,3.45312 -1.01562,0 -2.07812,-0.3125 v -3.5625 l 0.71875,0.0156 q 1.32812,0 1.98437,-0.40625 0.65625,-0.40625 1.03125,-1.34375 l 0.5625,-1.45313 -6.17187,-17.65625 h 5.0625 z m 19.69793,1.79687 q 0,-0.875 -0.85937,-1.35937 -0.84375,-0.5 -2.73437,-0.89063 -6.28125,-1.3125 -6.28125,-5.34375 0,-2.34375 1.9375,-3.90625 1.95312,-1.57812 5.09375,-1.57812 3.34374,0 5.34374,1.57812 2.0156,1.57813 2.0156,4.10938 h -4.7031 q 0,-1.01563 -0.65624,-1.67188 -0.64063,-0.65625 -2.01563,-0.65625 -1.1875,0 -1.84375,0.54688 -0.65625,0.53125 -0.65625,1.35937 0,0.78125 0.73438,1.26563 0.75,0.46875 2.5,0.82812 1.76559,0.34375 2.96879,0.78125 3.7343,1.375 3.7343,4.73438 0,2.40625 -2.0781,3.90625 -2.0625,1.48437 -5.32812,1.48437 -2.21875,0 -3.9375,-0.78125 -1.71875,-0.79687 -2.70312,-2.17187 -0.96875,-1.375 -0.96875,-2.96875 h 4.46875 q 0.0625,1.25 0.92187,1.92187 0.85938,0.65625 2.3125,0.65625 1.34375,0 2.03127,-0.5 0.7031,-0.51562 0.7031,-1.34375 z m 13.2297,-17.07812 v 4.32812 h 3.0157 v 3.45313 h -3.0157 v 8.78125 q 0,0.98437 0.375,1.40625 0.375,0.42187 1.4375,0.42187 0.7813,0 1.375,-0.10937 v 3.5625 q -1.375,0.42187 -2.8437,0.42187 -4.9531,0 -5.0469,-5 v -9.48437 h -2.5781 v -3.45313 h 2.5781 v -4.32812 z m 13.73,22.26562 q -3.875,0 -6.3125,-2.375 -2.4219,-2.375 -2.4219,-6.32812 v -0.46875 q 0,-2.64063 1.0157,-4.73438 1.0312,-2.09375 2.9062,-3.21875 1.8907,-1.14062 4.2969,-1.14062 3.6094,0 5.6875,2.28125 2.0781,2.28125 2.0781,6.46875 v 1.90625 h -11.2187 q 0.2343,1.73437 1.375,2.78125 1.1562,1.03125 2.9062,1.03125 2.7188,0 4.25,-1.96875 l 2.3125,2.59375 q -1.0625,1.5 -2.875,2.34375 -1.7968,0.82812 -4,0.82812 z m -0.5312,-14.45312 q -1.4063,0 -2.2813,0.95312 -0.8594,0.9375 -1.1094,2.6875 h 6.5469 v -0.375 q -0.031,-1.5625 -0.8437,-2.40625 -0.8125,-0.85937 -2.3125,-0.85937 z m 14.8585,-3.48438 0.1406,1.96875 q 1.875,-2.29687 5.0625,-2.29687 3.4063,0 4.6719,2.6875 1.8594,-2.6875 5.2969,-2.6875 2.8594,0 4.25,1.67187 1.4062,1.67188 1.4062,5.01563 v 11.25 h -4.7187 v -11.23438 q 0,-1.48437 -0.5938,-2.17187 -0.5781,-0.70313 -2.0625,-0.70313 -2.1093,0 -2.9218,2.01563 l 0.016,12.09375 h -4.7031 v -11.21875 q 0,-1.51563 -0.6094,-2.20313 -0.5937,-0.6875 -2.0468,-0.6875 -2,0 -2.8907,1.65625 v 12.45313 h -4.7031 v -17.60938 z m 33.978,12.75 q 0,-0.875 -0.8594,-1.35937 -0.8438,-0.5 -2.7344,-0.89063 -6.2812,-1.3125 -6.2812,-5.34375 0,-2.34375 1.9375,-3.90625 1.9531,-1.57812 5.0937,-1.57812 3.3438,0 5.3438,1.57812 2.0156,1.57813 2.0156,4.10938 h -4.7031 q 0,-1.01563 -0.6563,-1.67188 -0.6406,-0.65625 -2.0156,-0.65625 -1.1875,0 -1.8438,0.54688 -0.6562,0.53125 -0.6562,1.35937 0,0.78125 0.7344,1.26563 0.75,0.46875 2.5,0.82812 1.7656,0.34375 2.9687,0.78125 3.7344,1.375 3.7344,4.73438 0,2.40625 -2.0781,3.90625 -2.0625,1.48437 -5.3282,1.48437 -2.2187,0 -3.9375,-0.78125 -1.7187,-0.79687 -2.7031,-2.17187 -0.9687,-1.375 -0.9687,-2.96875 h 4.4687 q 0.062,1.25 0.9219,1.92187 0.8594,0.65625 2.3125,0.65625 1.3437,0 2.0312,-0.5 0.7032,-0.51562 0.7032,-1.34375 z"
     fill-rule="nonzero"
     id="path1049" />
  <path
     fill="#000000"
     fill-opacity="0"
     d="m 490.69383,533.59376 h 387.05835 v 86.14172 H 490.69383 Z"
     fill-rule="evenodd"
     id="path1051" />
  <path
     fill="#0070c0"
     d="m 880.10009,560.37502 q 0,-1.375 -0.98438,-2.10937 -0.96875,-0.75 -3.51562,-1.5625 -2.53125,-0.82813 -4.01563,-1.625 -4.03125,-2.1875 -4.03125,-5.875 0,-1.92188 1.07813,-3.42188 1.07812,-1.51562 3.10937,-2.35937 2.03125,-0.84375 4.54688,-0.84375 2.53125,0 4.51562,0.92187 2,0.90625 3.09375,2.59375 1.09375,1.67188 1.09375,3.79688 h -4.875 q 0,-1.625 -1.03125,-2.51563 -1.01562,-0.90625 -2.875,-0.90625 -1.79687,0 -2.79687,0.76563 -0.98438,0.75 -0.98438,1.98437 0,1.15625 1.15625,1.9375 1.17188,0.78125 3.4375,1.45313 4.17188,1.26562 6.0625,3.125 1.90625,1.84375 1.90625,4.60937 0,3.07813 -2.32812,4.82813 -2.32813,1.75 -6.26563,1.75 -2.73437,0 -4.98437,-1 -2.23438,-1 -3.42188,-2.73438 -1.17187,-1.75 -1.17187,-4.04687 h 4.89062 q 0,3.92187 4.6875,3.92187 1.75,0 2.71875,-0.70312 0.98438,-0.71875 0.98438,-1.98438 z m 12.30084,-11.39062 0.14063,1.96875 q 1.875,-2.29688 5.0625,-2.29688 3.40625,0 4.67187,2.6875 1.85938,-2.6875 5.29688,-2.6875 2.85937,0 4.25,1.67188 1.40625,1.67187 1.40625,5.01562 v 11.25 h -4.71875 V 555.3594 q 0,-1.48438 -0.59375,-2.17188 -0.57813,-0.70312 -2.0625,-0.70312 -2.10938,0 -2.92188,2.01562 l 0.0156,12.09375 h -4.70313 v -11.21875 q 0,-1.51562 -0.60937,-2.20312 -0.59375,-0.6875 -2.04688,-0.6875 -2,0 -2.89062,1.65625 v 12.45312 h -4.70313 V 548.9844 Z m 34.64978,17.60937 q -0.32812,-0.64062 -0.48437,-1.57812 -1.70313,1.90625 -4.4375,1.90625 -2.59375,0 -4.29688,-1.5 -1.6875,-1.5 -1.6875,-3.78125 0,-2.79688 2.0625,-4.28125 2.07813,-1.5 6,-1.51563 h 2.17188 v -1.01562 q 0,-1.21875 -0.625,-1.95313 -0.625,-0.73437 -1.98438,-0.73437 -1.1875,0 -1.85937,0.57812 -0.67188,0.5625 -0.67188,1.5625 h -4.70312 q 0,-1.53125 0.9375,-2.82812 0.95312,-1.3125 2.67187,-2.04688 1.71875,-0.75 3.875,-0.75 3.25,0 5.15625,1.64063 1.92188,1.64062 1.92188,4.59375 v 7.64062 q 0.0156,2.5 0.70312,3.78125 v 0.28125 z m -3.89062,-3.26562 q 1.03125,0 1.90625,-0.46875 0.89062,-0.46875 1.3125,-1.25 v -3.01563 h -1.76563 q -3.53125,0 -3.75,2.4375 l -0.0156,0.28125 q 0,0.875 0.60937,1.45313 0.625,0.5625 1.70313,0.5625 z m 21.44644,-9.9375 q -0.96875,-0.125 -1.6875,-0.125 -2.67188,0 -3.5,1.8125 v 11.51562 H 934.7159 V 548.9844 h 4.4375 l 0.125,2.09375 q 1.42188,-2.42188 3.92188,-2.42188 0.78125,0 1.46875,0.21875 z m 8.70447,-8.73438 v 4.32813 h 3.01562 v 3.45312 H 953.311 v 8.78125 q 0,0.98438 0.375,1.40625 0.375,0.42188 1.4375,0.42188 0.78125,0 1.375,-0.10938 v 3.5625 q -1.375,0.42188 -2.84375,0.42188 -4.95313,0 -5.04688,-5 v -9.48438 h -2.57812 v -3.45312 h 2.57812 v -4.32813 z"
     fill-rule="nonzero"
     id="path1053" />
  <path
     fill="#0070c0"
     d="m 985.27197,555.28126 q 0,3.5 -1.23438,6.14062 -1.23437,2.64063 -3.54687,4.07813 -2.29688,1.42187 -5.28125,1.42187 -2.9375,0 -5.25,-1.40625 -2.3125,-1.42187 -3.57813,-4.04687 -1.26562,-2.64063 -1.28125,-6.0625 v -1.17188 q 0,-3.48437 1.25,-6.14062 1.26563,-2.67188 3.5625,-4.09375 2.3125,-1.42188 5.26563,-1.42188 2.96875,0 5.26562,1.42188 2.3125,1.42187 3.5625,4.09375 1.26563,2.65625 1.26563,6.125 z m -4.95313,-1.07813 q 0,-3.71875 -1.32812,-5.65625 -1.32813,-1.9375 -3.8125,-1.9375 -2.45313,0 -3.79688,1.92188 -1.32812,1.90625 -1.34375,5.59375 v 1.15625 q 0,3.625 1.32813,5.64062 1.34375,2 3.84375,2 2.46875,0 3.78125,-1.92187 1.3125,-1.9375 1.32812,-5.64063 z m 24.05756,3.75 q 0,4.23438 -1.8125,6.60938 -1.7968,2.35937 -5.03122,2.35937 -2.875,0 -4.57812,-2.20312 l -0.21875,1.875 h -4.21875 v -25 h 4.70312 v 8.96875 q 1.625,-1.90625 4.28125,-1.90625 3.21877,0 5.04687,2.375 1.8281,2.35937 1.8281,6.65625 z m -4.70309,-0.34375 q 0,-2.67187 -0.84375,-3.89062 -0.84375,-1.23438 -2.53125,-1.23438 -2.23438,0 -3.07813,1.84375 v 6.9375 q 0.85938,1.85938 3.125,1.85938 2.26563,0 2.98438,-2.25 0.34375,-1.0625 0.34375,-3.26563 z m 12.57589,-8.625 v 18.5625 q 0,2.92188 -1.5469,4.53125 -1.5469,1.625 -4.4531,1.625 -1.2188,0 -2.3282,-0.28125 v -3.71875 q 0.8438,0.14063 1.4844,0.14063 2.125,0 2.125,-2.25 v -18.60938 z m -5.0938,-4.5625 q 0,-1.04687 0.7031,-1.73437 0.7188,-0.6875 1.9375,-0.6875 1.2188,0 1.9219,0.6875 0.7188,0.6875 0.7188,1.73437 0,1.07813 -0.7344,1.76563 -0.7188,0.6875 -1.9063,0.6875 -1.1875,0 -1.9218,-0.6875 -0.7188,-0.6875 -0.7188,-1.76563 z m 16.8763,22.5 q -3.875,0 -6.3125,-2.375 -2.4219,-2.375 -2.4219,-6.32812 v -0.46875 q 0,-2.64063 1.0156,-4.73438 1.0313,-2.09375 2.9063,-3.21875 1.8906,-1.14062 4.2969,-1.14062 3.6093,0 5.6875,2.28125 2.0781,2.28125 2.0781,6.46875 v 1.90625 h -11.2188 q 0.2344,1.73437 1.375,2.78125 1.1563,1.03125 2.9063,1.03125 2.7187,0 4.25,-1.96875 l 2.3125,2.59375 q -1.0625,1.5 -2.875,2.34375 -1.7969,0.82812 -4,0.82812 z m -0.5313,-14.45312 q -1.4062,0 -2.2812,0.95312 -0.8594,0.9375 -1.1094,2.6875 h 6.5469 v -0.375 q -0.031,-1.5625 -0.8438,-2.40625 -0.8125,-0.85937 -2.3125,-0.85937 z m 17.7648,10.65625 q 1.3125,0 2.125,-0.70313 0.8125,-0.71875 0.8438,-1.92187 h 4.4062 q -0.016,1.79687 -0.9844,3.29687 -0.9531,1.48438 -2.625,2.3125 -1.6562,0.8125 -3.6875,0.8125 -3.7656,0 -5.9531,-2.39062 -2.1719,-2.40625 -2.1719,-6.64063 v -0.3125 q 0,-4.0625 2.1563,-6.48437 2.1719,-2.4375 5.9375,-2.4375 3.3125,0 5.2969,1.89062 2,1.875 2.0312,5 h -4.4062 q -0.031,-1.375 -0.8438,-2.21875 -0.8125,-0.85937 -2.1563,-0.85937 -1.6406,0 -2.4843,1.20312 -0.8281,1.1875 -0.8281,3.875 v 0.48438 q 0,2.71875 0.8281,3.90625 0.8281,1.1875 2.5156,1.1875 z m 15.6926,-18.46875 v 4.32812 h 3.0156 v 3.45313 h -3.0156 v 8.78125 q 0,0.98437 0.375,1.40625 0.375,0.42187 1.4375,0.42187 0.7812,0 1.375,-0.10937 v 3.5625 q -1.375,0.42187 -2.8438,0.42187 -4.9531,0 -5.0468,-5 v -9.48437 h -2.5782 v -3.45313 h 2.5782 v -4.32812 z m 15.1675,17.07812 q 0,-0.875 -0.8594,-1.35937 -0.8437,-0.5 -2.7343,-0.89063 -6.2813,-1.3125 -6.2813,-5.34375 0,-2.34375 1.9375,-3.90625 1.9531,-1.57812 5.0938,-1.57812 3.3437,0 5.3437,1.57812 2.0156,1.57813 2.0156,4.10938 h -4.7031 q 0,-1.01563 -0.6562,-1.67188 -0.6407,-0.65625 -2.0157,-0.65625 -1.1875,0 -1.8437,0.54688 -0.6563,0.53125 -0.6563,1.35937 0,0.78125 0.7344,1.26563 0.75,0.46875 2.5,0.82812 1.7656,0.34375 2.9688,0.78125 3.7343,1.375 3.7343,4.73438 0,2.40625 -2.0781,3.90625 -2.0625,1.48437 -5.3281,1.48437 -2.2188,0 -3.9375,-0.78125 -1.7188,-0.79687 -2.7031,-2.17187 -0.9688,-1.375 -0.9688,-2.96875 h 4.4688 q 0.062,1.25 0.9218,1.92187 0.8594,0.65625 2.3125,0.65625 1.3438,0 2.0313,-0.5 0.7031,-0.51562 0.7031,-1.34375 z"
     fill-rule="nonzero"
     id="path1055" />
  <path
     fill="#000000"
     fill-opacity="0"
     d="m 738.85303,437.59376 h 71.72357 v 86.14172 h -71.72357 z"
     fill-rule="evenodd"
     id="path1057" />
  <path
     fill="#0070c0"
     d="m 1035.1655,478.59376 h -4.8906 v -23.6875 h 4.8906 z m 3.4809,-8.96875 q 0,-2.625 1,-4.67187 1.0157,-2.04688 2.9063,-3.17188 1.9062,-1.125 4.4062,-1.125 3.5625,0 5.8125,2.1875 2.2657,2.17188 2.5157,5.92188 l 0.031,1.20312 q 0,4.04688 -2.2657,6.5 -2.25,2.45313 -6.0625,2.45313 -3.8125,0 -6.0781,-2.4375 -2.2656,-2.45313 -2.2656,-6.64063 z m 4.7032,0.34375 q 0,2.5 0.9375,3.82813 0.9531,1.32812 2.7031,1.32812 1.7031,0 2.6562,-1.3125 0.9688,-1.3125 0.9688,-4.1875 0,-2.45312 -0.9688,-3.79687 -0.9531,-1.35938 -2.6875,-1.35938 -1.7187,0 -2.6718,1.34375 -0.9375,1.34375 -0.9375,4.15625 z m 33.0166,-11.10937 h -7.2657 v 19.73437 h -4.875 v -19.73437 h -7.1562 v -3.95313 h 19.2969 z"
     fill-rule="nonzero"
     id="path1059" />
  <path
     fill="#000000"
     fill-opacity="0"
     d="m 745.69143,349.59376 h 89.23706 v 86.14172 h -89.23706 z"
     fill-rule="evenodd"
     id="path1061" />
  <path
     fill="#0070c0"
     d="m 1031.0039,368.93752 1.3594,-12.03125 h 13.2813 v 3.92187 h -9.4219 l -0.5781,5.09375 q 1.6718,-0.90625 3.5625,-0.90625 3.375,0 5.2968,2.10938 1.9219,2.09375 1.9219,5.875 0,2.28125 -0.9687,4.10937 -0.9688,1.8125 -2.7813,2.8125 -1.7969,1 -4.25,1 -2.1562,0 -4,-0.875 -1.8281,-0.875 -2.8906,-2.45312 -1.0625,-1.57813 -1.1406,-3.59375 h 4.6562 q 0.1563,1.48437 1.0313,2.3125 0.8906,0.8125 2.3281,0.8125 1.5937,0 2.4531,-1.14063 0.8594,-1.15625 0.8594,-3.25 0,-2.01562 -1,-3.09375 -0.9844,-1.07812 -2.7969,-1.07812 -1.6875,0 -2.7187,0.89062 l -0.4688,0.42188 z m 37.6682,8.65625 q -1.3125,1.57812 -3.7187,2.45312 -2.4063,0.875 -5.3438,0.875 -3.0781,0 -5.4062,-1.34375 -2.3125,-1.34375 -3.5781,-3.89062 -1.25,-2.5625 -1.2813,-6.01563 v -1.60937 q 0,-3.54688 1.1875,-6.14063 1.2031,-2.59375 3.4531,-3.96875 2.25,-1.375 5.2813,-1.375 4.2187,0 6.5937,2.01563 2.375,2 2.8125,5.84375 h -4.75 q -0.3281,-2.03125 -1.4375,-2.96875 -1.1093,-0.95313 -3.0625,-0.95313 -2.5,0 -3.7968,1.875 -1.2969,1.85938 -1.3125,5.5625 v 1.51563 q 0,3.71875 1.4062,5.625 1.4219,1.90625 4.1563,1.90625 2.75,0 3.9218,-1.17188 v -4.09375 h -4.4531 v -3.59375 h 9.3281 z"
     fill-rule="nonzero"
     id="path1063" />
</svg>
